/* XPM */
static char *result[] = {
/* columns rows colors chars-per-pixel */
"60 91 5 1 ",
"  c black",
". c #808000",
"X c #808080",
"o c #C0C0C0",
"O c white",
/* pixels */
"OOOOOOOOOOOOOOOOOOOOOOOOOOOOOOOOOOOOOOOOOOOOOOOOOOOOOOOOOOOO",
"OOOOOOOOOOOOOOOOOOOOOOOOOOOOOOOOOOOOOOOOOOOOOOOOOOOOOOOOOOOO",
"OOOOOOOOOOOOOOOOOOOOOOOOOOOOOOOOOOOOOOOOOOOOOOOOOOOOOOOOOOOO",
"OOOOOOOOOOOOOOOOOOOOOOOOOOOOOOOOOOOOOOOOOOOOOOOOOOOOOOOOOOOO",
"OOOOOOOOOOOOOOOOOOOOOOOOOOOOOOOOOOOOOOOOOOOOOOOOOOOOOOOOOOOO",
"OOOXoX . OOOOOOOOOOOOOOOOOOOOOOOOOOOOOOOOOOOOOOOOOOOOOOOOOOO",
"OOOXo OO OOOOOOOOOOOOOOOOOOOOOOOOOOOOOOOOOOOOOOOOOOOOOOOOOOO",
"OOOXo OO OOOOOOOOOOOOOOOOOOOOOOOOOOOOOOOOOOOOOOOOOOOOOOOOOOO",
"OOOXo OO OOOOOOOOOOOOOOOOOOOOOOOOOOOOOOOOOOOOOOOOOOOOOOOOOOO",
"OOOXo OO OOOOOOOOOOOOOOOOOOOOOOOOOOOOOOOOOOOOOOOOOOOOOOOOOOO",
"OOOXo OO OOOOOOOOOOOOOOOOOOOOOOOOOOOOOOOOOOOOOOOOOOOOOOOOOOO",
"OOOXo OO OOOOOOOOoOOOOOOOOOOOOOOOOOOOOOOOOOOOOOOOOOOOOOOOOOO",
"OOOXo OO OOOOOOX   XOOOOOOOOOOOOOOOOOOOOo   XOOOOOOOOOOOOOOO",
"OOOXoX X OOOOOX     oOOOOOOOOOOOOOOOOOOo     XOOOOOOOOOOOOOO",
"OOOOOOooOOOOOO      .OOOOOOOOOOOOOOOOOOX      OOOOOOOOOOOOOO",
"OOOOO  OOOOOOO      XOOOOOOOOOOOOOOOOOOX      OOOOOOOOOOOOOO",
"OOOOo  XOOOOOOo     OOOOOOOOOOOOOOOOOOOO     XOOOOOOOOOOOOOO",
"OOOOo  XOOOOOXoX   XXXOOOOOOOOOOOOOOOOooX   .ooOOOOOOOOOOOOO",
"OOOX     OOo           OOOOOOOOOOOOOO           oOOOOOOOOOOO",
"OOOX     OO            XOOOOOOOOOOOOX            OOOOOOOOOOO",
"OOOOooXoOOO             OOOOoXXoOOOO             OOOOOOOOOOO",
"OOOOOOOOOOO            XOOOX    XOOOX            OOOOOOOOOOO",
"OOOOOOOOOOOX    o o    oOOO      OOOo    X o    XOOOOOOOOOOO",
"OOOOOOOOOOOOX  OX OX  oOOOo      oOOOo  XO oo  XOOOOOOOOOOOO",
"OOOOOOOOOOOOOOOO  oOOOOOOOO      OOOOOOOOo XOOOOOOOOOOOOOOOO",
"OOOOOOOOOOOOOOOo   OOOOOOOOo    oOOOOOOOO   OOOOOOOOOOOOOOOO",
"OOOOOOOOOOOOOOOOOOOOOOOOo       .  OOOOOOOOOOOOOOOOOOOOOOOOO",
"OOOOOOOOOOOOOOOOOOOOOOOO            OOOOOOOOOOOOOOOOOOOOOOOO",
"OOOOOOOOOOOOOOOOooOOOOOX            oOOOOOoOOOOOOOOOOOOOOOOO",
"OOOOOOOOOOOOOOO    XOOOX            oOOOX   XOOOOOOOOOOOOOOO",
"OOOOOOOOOOOOOO      oOOO     XX     OOOo     XOOOOOOOOOOOOOO",
"OOOOOOOOOOOOOO      XOOOX   oXXo   oOOOX      OOOOOOOOOOOOOO",
"OOOOOOOOOOOOOO      XOOOOOoOO  OOoOOOOOX      OOOOOOOOOOOOOO",
"OOOOOOOOOOOOOOo     OOOOOOOOX  oOOOOOOOO     oOOOOOOOOOOOOOO",
"OOOOOOOOOOOOXXX.   XXXOOOOOOooXoOOOOOOXXX   XoXOOOOOOOOOOOOO",
"OOOOOOOOOOOX           OOOOOOOOOOOOOO           oOOOOOOOOOOO",
"OOOOOOOOOOO            XOOOOOOOOOOOO.            OOOOOOOOOOO",
"OOOOOOOOOOo            XOOOOOOOOOOOO             OOOOOOOOOOO",
"OOOOOOOOOOO     X      XOOOOOOOOOOOO             OOOOOOOOOOO",
"OOOOOOOOOOOX    OXo    OOOOOOOOOOOOOo    o o    oOOOOOOOOOOO",
"OOOOOOOOOOOOoXXOX OoXXOOOOOOOOOOOOOOOo  oo Oo  oOOOOOOOOOOOO",
"OOOOOOOOOOOOOOOO  oOOOOOOOOOOOOOOOOOOOOOOX XOOOOOOOOOOOOOOOO",
"OOOOOOOOOOOOOOOo  XOOOOOOOOOOOOOOOOOOOOOO   OOOOOOOOOOOOOOOO",
"OOOOOOOOOOOOOOOOOOOOOOOOOOOOOOOOOOOOOOOOOOOOOOOOOOOOOOOOOOOO",
"OOOOOOOOOOOOOOOOOOOOOOOOOOOOOOOOOOOOOOOOOOOOOOOOOOOOOOOOOOOO",
"OOOOOOOOOOOOOOOOOOOOOOOOOOOOOOOOOOOOOOOOOOOOOOOOOOOOOOOOOOOO",
"OOOOOOOOOOOOOOOOOOOOOOOOOOOOOOOOOOOOOOOOOOOOOOOOOOOOOOOOOOOO",
"OOOOOOOOOOOOOOOOOOOOOOOOOOOOOOOOOOOOOOOOOOOOOOOOOOOOOOOOOOOO",
"OOOOOOOOOOOOOOOo  XOOOOOOOOOOOOOOOOOOOOOO   OOOOOOOOOOOOOOOO",
"OOOOOOOOOOOOOOOO  OOOOOOOOOOOOOOOOOOOOOOOX XOOOOOOOOOOOOOOOO",
"OOOOOOOOOOOOX  OX OX  OOOOOOOOOOOOOOOo .oo Oo..oOOOOOOOOOOOO",
"OOOOOOOOOOO     oXX    OOOOOOOOOOOOOo    O o    OOOOOOOOOOOO",
"OOOOOOOOOOo            XOOOOOOOOOOOO     .      XOOOOOOOOOOO",
"OOOOOOOOOOo            XOOOOOOOOOOOO             OOOOOOOOOOO",
"OOOOOOOOOOO            oOOOOOOOOOOOO            XOOOOOOOOOOO",
"OOOOOOOOOOOX           OOOOOOOOOOOOOo           OOOOOOOOOOOO",
"OOOOOOOOOOOOoXo    oXoOOOOOOXXXoOOOOOOXXX   XXXOOOOOOOOOOOOO",
"OOOOOOOOOOOOOO      OOOOOOOOX  OOOOOOOOo     OOOOOOOOOOOOOOO",
"OOOOOOOOOOOOOO      oOOOOoXOO XOooOOOOO      XOOOOOOOOOOOOOO",
"OOOOOOOOOOOOOo      oOOO    O O.   oOOO      XOOOOOOOOOOOOOO",
"OOOOOOOOOOOOOO      OOOX     XX     OOOX     oOOOOOOOOOOOOOO",
"OOOOOOOOOOOOOOO    oOOOX            OOOO.   XOOOOOOOOOOOOOOO",
"OOOOOOOOOOOOOOOOOOOOOOOX            OOOOOOoOOOOOOOOOOOOOOOOO",
"OOOOOOOOOOOOOOOOOOOOOOOo           .OOOOOOOOOOOOOOOOOOOOOOOO",
"OOOOOOOOOOOOOOOOOOoOOOOOo  X      .OOOOOOOOOOOOOOOOOOOOOOOOO",
"OOOOOOOOOOOOOOOX  XOOOOOOOO     OOOOOOOOo   OOOOOOOOOOOOOOOO",
"OOOOOOOOOOOOOOOO  OOOOOOOOX      OOOOOOOO. oOOOOOOOOOOOOOOOO",
"OOOOOOOOOOOO   OXXO   OOOOX      OOOOX  oX OX  oOOOOOOOOOOOO",
"OOOOOOOOOOO     XX     OOOX      OOOX    o.X    OOOOOOOOOOOO",
"OOOOOOOOOOo            oOOO     oOOO            XOOOOXOOOOOO",
"OOOOOOOOOOX            XOOOOXXXOOOOO            XOOoXXoXOOOO",
"OOOOOOOOOOO            OOOOOOOOOOOOO            XOO     XOOO",
"OOOOOOOOOOOX          XOOOOOOOOOOOOOo           OOO     oOOO",
"OOOOOOOOOOOOOoo    ooOOOOOOOOOOOOOOOOOoo.   oXoOOOOOX  OOOOO",
"OOOOOOOOOOOOOO      OOOOOOOOOOOOOOOOOOOX     OOOOOOO   OOOOO",
"OOOOOOOOOOOOOo      oOOOOOOOOOOOOOOOOOO      XOOOOOOOXoOOOOO",
"OOOOOOOOOOOOOo      oOOOOOOOOOOOOOOOOOO      XOOOOOOXOOoOOOO",
"OOOOOOOOOOOOOO      OOOOOOOOOOOOOOOOOOO      OOOOOO X o OOOO",
"OOOOOOOOOOOOOOOX  XOOOOOOOOOOOOOOOOOOOOO.   oOOOOOXoOoX OOOO",
"OOOOOOOOOOOOOOOOOOOOOOOOOOOOOOOOOOOOOOOOOOOOOOOOOOXXOoX.OOOO",
"OOOOOOOOOOOOOOOOOOOOOOOOOOOOOOOOOOOOOOOOOOOOOOOOOOXoOoX.OOOO",
"OOOOOOOOOOOOOOOOOOOOOOOOOOOOOOOOOOOOOOOOOOOOOOOOOOXoOoX.OOOO",
"OOOOOOOOOOOOOOOOOOOOOOOOOOOOOOOOOOOOOOOOOOOOOOOOOOXoOoX OOOO",
"OOOOOOOOOOOOOOOOOOOOOOOOOOOOOOOOOOOOOOOOOOOOOOOOOOXoOoX.OOOO",
"OOOOOOOOOOOOOOOOOOOOOOOOOOOOOOOOOOOOOOOOOOOOOOOOOOXXOXX OOOO",
"OOOOOOOOOOOOOOOOOOOOOOOOOOOOOOOOOOOOOOOOOOOOOOOOOOO . O OOOO",
"OOOOOOOOOOOOOOOOOOOOOOOOOOOOOOOOOOOOOOOOOOOOOOOOOOOOOOOOOOOO",
"OOOOOOOOOOOOOOOOOOOOOOOOOOOOOOOOOOOOOOOOOOOOOOOOOOOOOOOOOOOO",
"OOOOOOOOOOOOOOOOOOOOOOOOOOOOOOOOOOOOOOOOOOOOOOOOOOOOOOOOOOOO",
"OOOOOOOOOOOOOOOOOOOOOOOOOOOOOOOOOOOOOOOOOOOOOOOOOOOOOOOOOOOO",
"OOOOOOOOOOOOOOOOOOOOOOOOOOOOOOOOOOOOOOOOOOOOOOOOOOOOOOOOOOOO"
};
