/* XPM */
static char *result[] = {
/* columns rows colors chars-per-pixel */
"60 91 4 1 ",
"  c red",
". c #808080",
"X c #C0C0C0",
"o c white",
/* pixels */
"oooooooooooooooooooooooooooooooooooooooooooooooooooooooooooo",
"oooooooooooooooooooooooooooooooooooooooooooooooooooooooooooo",
"oooooooooooooooooooooooooooooooooooooooooooooooooooooooooooo",
"oooooooooooooooooooooooooooooooooooooooooooooooooooooooooooo",
"oooooooooooooooooooooooooooooooooooooooooooooooooooooooooooo",
"ooX.o  .oooooooooooooooooooooooooooooooooooooooooooooooooooo",
"ooX..Xo Xooooooooooooooooooooooooooooooooooooooooooooooooooo",
"ooX. oo.Xooooooooooooooooooooooooooooooooooooooooooooooooooo",
"ooX..oo.Xooooooooooooooooooooooooooooooooooooooooooooooooooo",
"ooX..oo.Xooooooooooooooooooooooooooooooooooooooooooooooooooo",
"ooX..Xo.Xooooooooooooooooooooooooooooooooooooooooooooooooooo",
"ooX..Xo.Xooooooooooooooooooooooooooooooooooooooooooooooooooo",
"ooX..oo.XooooooooXXoooooooooooooooooooooo oooooooooooooooooo",
"ooX.X.o ooooooooo  Xoooooooooooooooooooo   ooooooooooooooooo",
"oooXo. Xoooooooo    ooooooooooooooooooo    Xoooooooooooooooo",
"ooooooooooooooo      ooooooooooooooooo.     Xooooooooooooooo",
"ooooX ooooooooX       oooooooooooooooX       ooooooooooooooo",
"oooo   ooooooX        .oooooooooooooo         oooooooooooooo",
"ooo     ooooo          Xoooooooooooo           ooooooooooooo",
"oooX   Xoooo            ooooooooooo            Xoooooooooooo",
"oooo. .ooooo.           oooooooooooo           ooooooooooooo",
"ooooo.ooooooo          oooooo .oooooX         oooooooooooooo",
"oooooooooooooo        oooooo   XoooooX       ooooooooooooooo",
"ooooooooooooooo      Xooooo.    oooooo.     Xooooooooooooooo",
"oooooooooooooooo    XoooooX      oooooo    .oooooooooooooooo",
"ooooooooooooooooX   oooooo        oooooo   ooooooooooooooooo",
"ooooooooooooooooo. oooooo          oooooo oooooooooooooooooo",
"oooooooooooooooooooooooo           .oooooooooooooooooooooooo",
"oooooooooooooooooooooooo            oooooooooooooooooooooooo",
"ooooooooooooooooooXoooooX          oooooo oooooooooooooooooo",
"ooooooooooooooooo  oooooo.        oooooo  .ooooooooooooooooo",
"oooooooooooooooo.   oooooo       XoooooX   Xoooooooooooooooo",
"oooooooooooooooX     oooooo     .oooooX     Xooooooooooooooo",
"ooooooooooooooo       oooooo    oooooo       ooooooooooooooo",
"oooooooooooooo        .oooooX  oooooo         oooooooooooooo",
"ooooooooooooo          XoooooXoooooo           ooooooooooooo",
"oooooooooooo.           ooooooooooo.           .oooooooooooo",
"oooooooooooo.           oooooooooooX           ooooooooooooo",
"ooooooooooooo          oooooooooooooX         Xooooooooooooo",
"oooooooooooooo        Xoooooooooooooo.       Xoooooooooooooo",
"ooooooooooooooo      .oooooooooooooooo       ooooooooooooooo",
"oooooooooooooooX     oooooooooooooooooo     oooooooooooooooo",
"ooooooooooooooooX   oooooooooooooooooooo   ooooooooooooooooo",
"ooooooooooooooooo. oooooooooooooooooooooo Xooooooooooooooooo",
"ooooooooooooooooooXooooooooooooooooooooooooooooooooooooooooo",
"oooooooooooooooooooooooooooooooooooooooooooooooooooooooooooo",
"oooooooooooooooooooooooooooooooooooooooooXoooooooooooooooooo",
"oooooooooooooooooX oooooooooooooooooooooX .ooooooooooooooooo",
"ooooooooooooooooo   oooooooooooooooooooo   Xoooooooooooooooo",
"oooooooooooooooo     oooooooooooooooooo     oooooooooooooooo",
"ooooooooooooooo      .oooooooooooooooo       ooooooooooooooo",
"oooooooooooooo        Xoooooooooooooo.        oooooooooooooo",
"oooooooooooooX         XooooooooooooX          ooooooooooooo",
"ooooooooooooX           oooooooooooX           Xoooooooooooo",
"oooooooooooo            XooooooooooX           Xoooooooooooo",
"ooooooooooooo          .oooooXXoooooX         .ooooooooooooo",
"oooooooooooooo         oooooo  oooooo.        oooooooooooooo",
"ooooooooooooooo       oooooo    oooooo       ooooooooooooooo",
"oooooooooooooooX     oooooo      oooooo     oooooooooooooooo",
"ooooooooooooooooX   Xooooo.       oooooo   Xoooooooooooooooo",
"ooooooooooooooooo  .oooooX        .oooooX  ooooooooooooooooo",
"oooooooooooooooooo.oooooo          XoooooXoooooooooooooooooo",
"oooooooooooooooooooooooo            oooooooooooooooooooooooo",
"oooooooooooooooooooooooo.          .oooooooooooooooooooooooo",
"oooooooooooooooooo oooooo          oooooo Xooooooooooooooooo",
"ooooooooooooooooo   oooooo        oooooo   Xoooooooooooooooo",
"oooooooooooooooo     oooooo      oooooo     oooooooooooooooo",
"ooooooooooooooo.     .oooooo    XoooooX      ooooooooooooooo",
"ooooooooooooooX       XoooooX   oooooX        oooooooooooooo",
"oooooooooooooo         oooooo. oooooo         .ooooooo.ooooo",
"ooooooooooooo           oooooooooooo           Xooooo  Xoooo",
"oooooooooooo.           .ooooooooooX            oooo    Xooo",
"ooooooooooooo           ooooooooooooX          ooooo    .ooo",
"oooooooooooooo         oooooooooooooo         ooooooo   oooo",
"ooooooooooooooo       Xooooooooooooooo       XoooooooX ooooo",
"oooooooooooooooX     .ooooooooooooooooo     .ooooooooooooooo",
"oooooooooooooooo.    ooooooooooooooooooo    oooooooo. Xo.ooo",
"ooooooooooooooooo   ooooooooooooooooooooX  ooooooooX o X ooo",
"oooooooooooooooooo oooooooooooooooooooooo.ooooooooo.XoXX ooo",
"ooooooooooooooooooooooooooooooooooooooooooooooooooo.XoXX ooo",
"ooooooooooooooooooooooooooooooooooooooooooooooooooo.XoXX ooo",
"oooooooooooooooooooooooooooooooooooooooooooooooooooXXoXX ooo",
"ooooooooooooooooooooooooooooooooooooooooooooooooooo.XoXX ooo",
"ooooooooooooooooooooooooooooooooooooooooooooooooooo.XoXX ooo",
"oooooooooooooooooooooooooooooooooooooooooooooooooooX.o.X ooo",
"oooooooooooooooooooooooooooooooooooooooooooooooooooo   o ooo",
"oooooooooooooooooooooooooooooooooooooooooooooooooooooooooooo",
"oooooooooooooooooooooooooooooooooooooooooooooooooooooooooooo",
"oooooooooooooooooooooooooooooooooooooooooooooooooooooooooooo",
"oooooooooooooooooooooooooooooooooooooooooooooooooooooooooooo",
"oooooooooooooooooooooooooooooooooooooooooooooooooooooooooooo"
};
