/* XPM */
static char *result[] = {
/* columns rows colors chars-per-pixel */
"60 91 4 1 ",
"  c red",
". c #808080",
"X c #C0C0C0",
"o c white",
/* pixels */
"oooooooooooooooooooooooooooooooooooooooooooooooooooooooooooo",
"oooooooooooooooooooooooooooooooooooooooooooooooooooooooooooo",
"oooooooooooooooooooooooooooooooooooooooooooooooooooooooooooo",
"oooooooooooooooooooooooooooooooooooooooooooooooooooooooooooo",
"ooooooXXoooooooooooooooooooooooooooooooooooooooooooooooooooo",
"oooXXX . ooooooooooooooooooooooooooooooooooooooooooooooooooo",
"oooXX oo ooooooooooooooooooooooooooooooooooooooooooooooooooo",
"oooXX oo ooooooooooooooooooooooooooooooooooooooooooooooooooo",
"oooXX oo ooooooooooooooooooooooooooooooooooooooooooooooooooo",
"oooXX oo ooooooooooooooooooooooooooooooooooooooooooooooooooo",
"oooXX oo ooooooooooooooooooooooooooooooooooooooooooooooooooo",
"oooXX oo ooooooooooooooooooooooooooooooooooooooooooooooooooo",
"oooXX oo oooX   Xoo    oooooooooooooo.   ooX   Xoooooooooooo",
"oooXXX   ooo     X     .ooooooooooooX     o     oooooooooooo",
"oooooooooooX            oooooooooooo.           .ooooooooooo",
"oooo.Xo.XooX            oooooooooooo            .ooooooooooo",
"ooo.     ooX            oooooooooooo.           Xooooooooooo",
"ooo.     ooo           XooooooooooooX           oooooooooooo",
"oooo    XoooX          oooooooooooooo          .oooooooooooo",
"ooooX   ooooo         Xooooooooooooooo         ooooooooooooo",
"ooooo  ooooooo       .oooooooooooooooo.       Xooooooooooooo",
"ooooooooooooooX      oooo    oo.   oooo      .oooooooooooooo",
"ooooooooooooooo.    oooo     ..     oooo     ooooooooooooooo",
"oooooooooooooooo   ooooo            ooooo   oooooooooooooooo",
"ooooooooooooooooo Xooooo            oooooX ooooooooooooooooo",
"oooooooooooooooooooooooo            oooooooooooooooooooooooo",
"oooooooooooooooooooooooo.           oooooooooooooooooooooooo",
"ooooooooooooooooooooooooo          ooooooooooooooooooooooooo",
"ooooooooooooooooooooooooo.        .ooooooooooooooooooooooooo",
"oooooooooooooooooooooooooo        oooooooooooooooooooooooooo",
"ooooooooooooX   Xoo    oooo      oooo    ooX   Xoooooooooooo",
"oooooooooooo     X     .oooX    XoooX     X     oooooooooooo",
"oooooooooooX            ooooX  Xoooo            Xooooooooooo",
"oooooooooooX            ooooo..ooooo            Xooooooooooo",
"oooooooooooX            oooooooooooo            Xooooooooooo",
"oooooooooooo           XooooooooooooX           oooooooooooo",
"ooooooooooooX          oooooooooooooo          .oooooooooooo",
"ooooooooooooo         oooooooooooooooX         ooooooooooooo",
"oooooooooooooo       .oooooooooooooooo.       oooooooooooooo",
"ooooooooooooooX      oooooooooooooooooo      Xoooooooooooooo",
"ooooooooooooooo     oooooooooooooooooooo     ooooooooooooooo",
"oooooooooooooooo   oooooooooooooooooooooo   oooooooooooooooo",
"ooooooooooooooooo oooooooooooooooooooooooX ooooooooooooooooo",
"oooooooooooooooooooooooooooooooooooooooooooooooooooooooooooo",
"oooooooooooooooooooooooooooooooooooooooooooooooooooooooooooo",
"oooooooooooooooooooooooooooooooooooooooooooooooooooooooooooo",
"oooooooooooooooooooooooooooooooooooooooooooooooooooooooooooo",
"oooooooooooooooooXoooooooooooooooooooooooooooooooooooooooooo",
"ooooooooooooooooX .oooooooooooooooooooooo. ooooooooooooooooo",
"oooooooooooooooX   Xoooooooooooooooooooo.   oooooooooooooooo",
"ooooooooooooooo     XooooooooooooooooooX     ooooooooooooooo",
"oooooooooooooo       oooooooooooooooooo       oooooooooooooo",
"ooooooooooooo.        oooooooooooooooo        Xooooooooooooo",
"ooooooooooooX         Xoooooooooooooo.         ooooooooooooo",
"oooooooooooo           oooooooooooooo          .oooooooooooo",
"oooooooooooX           Xoooooooooooo.           oooooooooooo",
"ooooooooooo.            oooooooooooo            Xooooooooooo",
"ooooooooooo.            ooooo .ooooo            Xooooooooooo",
"oooooooooooX           .oooo   Xoooo            oooooooooooo",
"oooooooooooo     o     oooo.    XoooX    .o     oooooooooooo",
"ooooooooooooo..XoooX .ooooX      ooooX  Xooo. .ooooooooooooo",
"oooooooooooooooooooooooooo        oooooooooooooooooooooooooo",
"ooooooooooooooooooooooooo         Xooooooooooooooooooooooooo",
"ooooooooooooooooooooooooX          ooooooooooooooooooooooooo",
"oooooooooooooooooooooooo           .oooooooooooooooooooooooo",
"oooooooooooooooooooooooo            oooooooooooooooooooooooo",
"ooooooooooooooooo XooooX            oooooX ooooooooooooooooo",
"oooooooooooooooo   ooooX            ooooX   oooooooooooooooo",
"ooooooooooooooo     oooo     X     .oooo    .ooooooooooooooo",
"oooooooooooooo       oooo   Xoo.   oooo      Xoooooooooooooo",
"oooooooooooooX       Xoooooooooooooooo        ooooooo Xooooo",
"ooooooooooooo         oooooooooooooooX         ooooo   Xoooo",
"oooooooooooo           oooooooooooooo          Xooo     oooo",
"oooooooooooX           ooooooooooooo.           ooo     Xooo",
"ooooooooooo.           .oooooooooooo            ooo     Xooo",
"ooooooooooo            .oooooooooooo            XooX.o..oooo",
"ooooooooooo.           .oooooooooooo            ooooXooooooo",
"oooooooooooX     o     ooooooooooooo      X     ooo . XXXooo",
"ooooooooooooX   ooo   Xoooooooooooooo   .ooX   oooo oo XXooo",
"ooooooooooooooooooooooooooooooooooooooooooooooooooX oo XXooo",
"ooooooooooooooooooooooooooooooooooooooooooooooooooX oo XXooo",
"ooooooooooooooooooooooooooooooooooooooooooooooooooX.oo XXooo",
"ooooooooooooooooooooooooooooooooooooooooooooooooooX.oo XXooo",
"ooooooooooooooooooooooooooooooooooooooooooooooooooX.oo XXooo",
"ooooooooooooooooooooooooooooooooooooooooooooooooooX oo XXooo",
"ooooooooooooooooooooooooooooooooooooooooooooooooooo . X.Xooo",
"ooooooooooooooooooooooooooooooooooooooooooooooooooooXooooooo",
"oooooooooooooooooooooooooooooooooooooooooooooooooooooooooooo",
"oooooooooooooooooooooooooooooooooooooooooooooooooooooooooooo",
"oooooooooooooooooooooooooooooooooooooooooooooooooooooooooooo",
"oooooooooooooooooooooooooooooooooooooooooooooooooooooooooooo"
};
