/* XPM */
static char *result[] = {
/* columns rows colors chars-per-pixel */
"60 91 4 1 ",
"  c black",
". c #808080",
"X c #C0C0C0",
"o c white",
/* pixels */
"oooooooooooooooooooooooooooooooooooooooooooooooooooooooooooo",
"oooooooooooooooooooooooooooooooooooooooooooooooooooooooooooo",
"oooooooooooooooooooooooooooooooooooooooooooooooooooooooooooo",
"oooooooooooooooooooooooooooooooooooooooooooooooooooooooooooo",
"oooooooooooooooooooooooooooooooooooooooooooooooooooooooooooo",
"ooX.o. .oooooooooooooooooooooooooooooooooooooooooooooooooooo",
"ooX...o Xooooooooooooooooooooooooooooooooooooooooooooooooooo",
"ooX..Xo..ooooooooooooooooooooooooooooooooooooooooooooooooooo",
"ooX..Xo..ooooooooooooooooooooooooooooooooooooooooooooooooooo",
"ooX..Xo..ooooooooooooooooooooooooooooooooooooooooooooooooooo",
"ooX..Xo..ooooooooooooooooooooooooooooooooooooooooooooooooooo",
"ooX..Xo..ooooooo..oooooooooooooooooooooooo ooooooooooooooooo",
"ooX..Xo..ooooooX  Xoooooooooooooooooooooo.  oooooooooooooooo",
"ooX...o Xoooooo    oooooooooooooooooooooX   .ooooooooooooooo",
"ooX.o  .oooooo      oooooooooooooooooooo     Xoooooooooooooo",
"oooooXooooooo       .oooooooooooooooooo       oooooooooooooo",
"oooo  oooooo.        .oooooooooooooooo         ooooooooooooo",
"ooo.   ooooX          ooooooooooooooo.          oooooooooooo",
"ooX    .ooo           .oooooooooooooo           Xooooooooooo",
"oo.     ooo            oooooooooooooX           .ooooooooooo",
"ooo.X..Xooo            oooooo.ooooooX           .ooooooooooo",
"oooooXooooo     .X    .oooooX  oooooo    . .    Xooooooooooo",
"oooooooooooo.  o .X  .oooooo   .oooooX   o o   .oooooooooooo",
"oooooooooooooooo  ooooooooo     Xooooooooo Xoooooooooooooooo",
"oooooooooooooooX  oooooooo.      oooooooo. .oooooooooooooooo",
"ooooooooooooooooooooooooo.        oooooooooooooooooooooooooo",
"ooooooooooooooooooooooooX         .ooooooooooooooooooooooooo",
"oooooooooooooooooooooooo           Xoooooooooooooooooooooooo",
"oooooooooooooooooooooooX           .oooooooooooooooooooooooo",
"ooooooooooooooooXooooooX           .oooooooooooooooooooooooo",
"oooooooooooooooo .oooooo           .oooooo ooooooooooooooooo",
"ooooooooooooooo   .ooooo.   o o    oooooo   oooooooooooooooo",
"oooooooooooooo.    oooooooXoo Xo.Xoooooo     ooooooooooooooo",
"ooooooooooooo.      ooooooooX .oooooooo.     .oooooooooooooo",
"ooooooooooooX        oooooooXXXoooooooX       Xooooooooooooo",
"oooooooooooo         .oooooooooooooooo         ooooooooooooo",
"ooooooooooo           Xoooooooooooooo           oooooooooooo",
"ooooooooooo           .ooooooooooooo.           oooooooooooo",
"ooooooooooX            ooooooooooooo.           Xooooooooooo",
"ooooooooooo           .ooooooooooooo.           Xooooooooooo",
"ooooooooooo.   X o    ooooooooooooooo    X .    oooooooooooo",
"ooooooooooooX.Xo Xo..ooooooooooooooooo  Xo o. .ooooooooooooo",
"oooooooooooooooX .ooooooooooooooooooooooo. Xoooooooooooooooo",
"oooooooooooooooX..ooooooooooooooooooooooo. .oooooooooooooooo",
"oooooooooooooooooooooooooooooooooooooooooooooooooooooooooooo",
"oooooooooooooooooooooooooooooooooooooooooooooooooooooooooooo",
"oooooooooooooooooooooooooooooooooooooooooooooooooooooooooooo",
"oooooooooooooooooooooooooooooooooooooooooooooooooooooooooooo",
"ooooooooooooooo.  ooooooooooooooooooooooo  .oooooooooooooooo",
"oooooooooooooooo .ooooooooooooooooooooooo. ooooooooooooooooo",
"oooooooooooX   o o.  XoooooooooooooooX  XX o. .ooooooooooooo",
"ooooooooooo    . X    Xoooooooooooooo    X .    oooooooooooo",
"ooooooooooX           .ooooooooooooo.           oooooooooooo",
"ooooooooooX           .ooooooooooooo.           Xooooooooooo",
"ooooooooooo           Xooooooooooooo.           oooooooooooo",
"ooooooooooo.          ooooooooooooooo          .oooooooooooo",
"oooooooooooo         ooooooooooooooooX         ooooooooooooo",
"ooooooooooooo       Xooooooo..Xooooooo.       oooooooooooooo",
"oooooooooooooX     .oooooooo. Xoooooooo      Xoooooooooooooo",
"oooooooooooooo.   .oooooo..oX oX..oooooo    .ooooooooooooooo",
"ooooooooooooooo   oooooo    o X    oooooX   oooooooooooooooo",
"oooooooooooooooo oooooo.           oooooo. ooooooooooooooooo",
"ooooooooooooooooooooooo.           Xoooooooooooooooooooooooo",
"ooooooooooooooooooooooo.           Xoooooooooooooooooooooooo",
"oooooooooooooooooooooooo           ooooooooooooooooooooooooo",
"oooooooooooooooooooooooo.         oooooooooooooooooooooooooo",
"ooooooooooooooo. .ooooooo.       Xooooooo..Xoooooooooooooooo",
"ooooooooooooooo. Xoooooooo      .oooooooo  ooooooooooooooooo",
"oooooooooooo  Xo oX .oooooo     oooooo..o. oX.Xooooooooooooo",
"ooooooooooo    X X    oooooX   oooooX    X..   .oooooooooooo",
"oooooooooo.           Xooooo. oooooo            ooooo oooooo",
"oooooooooo.           .ooooooXoooooo            ooo     oooo",
"ooooooooooX           Xooooooooooooo            ooo     oooo",
"ooooooooooo           ooooooooooooooX          .oooX   .oooo",
"oooooooooooX         oooooooooooooooo          ooooo.  ooooo",
"oooooooooooo.       Xooooooooooooooooo        ooooooo oooooo",
"ooooooooooooo      .ooooooooooooooooooo      Xoooooooooooooo",
"oooooooooooooo    .ooooooooooooooooooooX    .oooooo   o oooo",
"ooooooooooooooo   oooooooooooooooooooooo.   oooooo..o.. oooo",
"oooooooooooooooX oooooooooooooooooooooooo  ooooooo..oX. oooo",
"oooooooooooooooooooooooooooooooooooooooooooooooooo.XoX. oooo",
"oooooooooooooooooooooooooooooooooooooooooooooooooo.Xo.. oooo",
"oooooooooooooooooooooooooooooooooooooooooooooooooo.Xo.. oooo",
"oooooooooooooooooooooooooooooooooooooooooooooooooo.Xo.. oooo",
"oooooooooooooooooooooooooooooooooooooooooooooooooo.Xo.. oooo",
"ooooooooooooooooooooooooooooooooooooooooooooooooooX X X oooo",
"oooooooooooooooooooooooooooooooooooooooooooooooooooX.Xo.oooo",
"oooooooooooooooooooooooooooooooooooooooooooooooooooooooooooo",
"oooooooooooooooooooooooooooooooooooooooooooooooooooooooooooo",
"oooooooooooooooooooooooooooooooooooooooooooooooooooooooooooo",
"oooooooooooooooooooooooooooooooooooooooooooooooooooooooooooo"
};
