/* XPM */
static char *result[] = {
/* columns rows colors chars-per-pixel */
"60 91 4 1 ",
"  c black",
". c #808080",
"X c #C0C0C0",
"o c white",
/* pixels */
"oooooooooooooooooooooooooooooooooooooooooooooooooooooooooooo",
"oooooooooooooooooooooooooooooooooooooooooooooooooooooooooooo",
"oooooooooooooooooooooooooooooooooooooooooooooooooooooooooooo",
"oooooooooooooooooooooooooooooooooooooooooooooooooooooooooooo",
"ooooooXooooooooooooooooooooooooooooooooooooooooooooooooooooo",
"oooo. . Xooooooooooooooooooooooooooooooooooooooooooooooooooo",
"oooX ooo ooooooooooooooooooooooooooooooooooooooooooooooooooo",
"oooXXooo ooooooooooooooooooooooooooooooooooooooooooooooooooo",
"ooooooo..ooooooooooooooooooooooooooooooooooooooooooooooooooo",
"oooooo  oooooooooooooooooooooooooooooooooooooooooooooooooooo",
"ooooX Xooooooooooooooooooooo.  .oooooooooooooooooooooooooooo",
"oooo oooooooooooooooooooooo      ooooooooooooooooooooooooooo",
"ooo.Xooo oooooooooooooooooo      Xoooooooooooooooooooooooooo",
"ooo.     oooooooooooooooooo      .oooooooooooooooooooooooooo",
"ooooooooooooooooooooooooooo      ooooooooooooooooooooooooooo",
"ooooo. ooooooooooooooooooooo    Xooooooooooooooooooooooooooo",
"ooooX  .ooooooooooooooooX          .oooooooooooooooooooooooo",
"ooooX  .oooooooooooooooo            oooooooooooooooooooooooo",
"ooo.     ooooooooooooooX            .ooooooooooooooooooooooo",
"ooo.     ooooooooooooooX            .ooooooooooooooooooooooo",
"ooooX..Xoooooooooooooooo     ..     oooooooooooooooooooooooo",
"oooooXXoooooooooooooooooX   X..o   Xoooooooooooooooooooooooo",
"ooooooooooooooooooooooooooooo  ooXoooooooooooooooooooooooooo",
"oooooooooooooooooooooooooooo.  .oooooooooooooooooooooooooooo",
"ooooooooooooooooooooooooooooXXXXoooooooooooooooooooooooooooo",
"oooooooooooooooooooooooooooooooooooooooooooooooooooooooooooo",
"oooooooooooooooooooooooooooooooooooooooooooooooooooooooooooo",
"oooooooooooooooooooooooooooooooooooooooooooooooooooooooooooo",
"oooooooooooooooooooooooooooooooooooooooooooooooooooooooooooo",
"oooooooooooooooooooooooooooooooooooooooooooooooooooooooooooo",
"oooooooooooooooooooooooooooooooooooooooooooooooooooooooooooo",
"oooooooooooooooooooooooooooooooooooooooooooooooooooooooooooo",
"oooooooooooooooooooooooooooooooooooooooooooooooooooooooooooo",
"oooooooooooooooooooooooooooooooooooooooooooooooooooooooooooo",
"oooooooooooooooooooooooooooooooooooooooooooooooooooooooooooo",
"oooooooooooooooooooooooooooooooooooooooooooooooooooooooooooo",
"oooooooooooooooooooooooooooooooooooooooooooooooooooooooooooo",
"oooooooooooooooooooooooooooooooooooooooooooooooooooooooooooo",
"oooooooooooooooooooooooooooooooooooooooooooooooooooooooooooo",
"oooooooooooooooooooooooooooooooooooooooooooooooooooooooooooo",
"oooooooooooooooooooooooooooooooooooooooooooooooooooooooooooo",
"oooooooooooooooooooooooooooooooooooooooooooooooooooooooooooo",
"oooooooooooooooooooooooooooooooooooooooooooooooooooooooooooo",
"oooooooooooooooooooooooooooooooooooooooooooooooooooooooooooo",
"oooooooooooooooooooooooooooooooooooooooooooooooooooooooooooo",
"oooooooooooooooooooooooooooooooooooooooooooooooooooooooooooo",
"oooooooooooooooooooooooooooooooooooooooooooooooooooooooooooo",
"oooooooooooooooooooooooooooooooooooooooooooooooooooooooooooo",
"oooooooooooooooooooooooooooooooooooooooooooooooooooooooooooo",
"oooooooooooooooooooooooooooooooooooooooooooooooooooooooooooo",
"oooooooooooooooooooooooooooooooooooooooooooooooooooooooooooo",
"oooooooooooooooooooooooooooooooooooooooooooooooooooooooooooo",
"oooooooooooooooooooooooooooooooooooooooooooooooooooooooooooo",
"oooooooooooooooooooooooooooooooooooooooooooooooooooooooooooo",
"oooooooooooooooooooooooooooooooooooooooooooooooooooooooooooo",
"oooooooooooooooooooooooooooooooooooooooooooooooooooooooooooo",
"oooooooooooooooooooooooooooooooooooooooooooooooooooooooooooo",
"oooooooooooooooooooooooooooooooooooooooooooooooooooooooooooo",
"oooooooooooooooooooooooooooooooooooooooooooooooooooooooooooo",
"oooooooooooooooooooooooooooooooooooooooooooooooooooooooooooo",
"oooooooooooooooooooooooooooooooooooooooooooooooooooooooooooo",
"oooooooooooooooooooooooooooooooooooooooooooooooooooooooooooo",
"oooooooooooooooooooooooooooooooooooooooooooooooooooooooooooo",
"oooooooooooooooooooooooooooooooooooooooooooooooooooooooooooo",
"oooooooooooooooooooooooooooooooooooooooooooooooooooooooooooo",
"oooooooooooooooooooooooooooooooooooooooooooooooooooooooooooo",
"oooooooooooooooooooooooooooooooooooooooooooooooooooooooooooo",
"oooooooooooooooooooooooooooo   ooooooooooooooooooooooooooooo",
"oooooooooooooooooooooooooooo. .ooooooooooooooooooooooooooooo",
"oooooooooooooooooooooooo.  .o oX  .ooooooooooooooooooXoooooo",
"oooooooooooooooooooooooX    X X    .oooooooooooooooXX oXoooo",
"ooooooooooooooooooooooo             ooooooooooooooo     Xooo",
"ooooooooooooooooooooooo             ooooooooooooooo     Xooo",
"ooooooooooooooooooooooo             oooooooooooooooo.  ooooo",
"oooooooooooooooooooooooo           Xoooooooooooooooo   ooooo",
"ooooooooooooooooooooooooo.X.   .X.ooooooooooooooooooX Xooooo",
"ooooooooooooooooooooooooooX     XoooooooooooooooooooXooooooo",
"oooooooooooooooooooooooooo       oooooooooooooooooo .   .ooo",
"oooooooooooooooooooooooooo       oooooooooooooooooo ooo.Xooo",
"oooooooooooooooooooooooooo.     .oooooooooooooooooooooo oooo",
"ooooooooooooooooooooooooooo.   .ooooooooooooooooooooo. ooooo",
"oooooooooooooooooooooooooooooooooooooooooooooooooooo .oooooo",
"ooooooooooooooooooooooooooooooooooooooooooooooooooo Xooooooo",
"ooooooooooooooooooooooooooooooooooooooooooooooooooo ooo.Xooo",
"ooooooooooooooooooooooooooooooooooooooooooooooooooo ooo oooo",
"oooooooooooooooooooooooooooooooooooooooooooooooooooX   Xoooo",
"oooooooooooooooooooooooooooooooooooooooooooooooooooooXoooooo",
"oooooooooooooooooooooooooooooooooooooooooooooooooooooooooooo",
"oooooooooooooooooooooooooooooooooooooooooooooooooooooooooooo",
"oooooooooooooooooooooooooooooooooooooooooooooooooooooooooooo",
"oooooooooooooooooooooooooooooooooooooooooooooooooooooooooooo"
};
