/* XPM */
static char *result[] = {
/* columns rows colors chars-per-pixel */
"60 91 4 1 ",
"  c red",
". c #808080",
"X c #C0C0C0",
"o c white",
/* pixels */
"oooooooooooooooooooooooooooooooooooooooooooooooooooooooooooo",
"oooooooooooooooooooooooooooooooooooooooooooooooooooooooooooo",
"oooooooooooooooooooooooooooooooooooooooooooooooooooooooooooo",
"oooooooooooooooooooooooooooooooooooooooooooooooooooooooooooo",
"oooooXoooooooooooooooooooooooooooooooooooooooooooooooooooooo",
"oooo    oooooooooooooooooooooooooooooooooooooooooooooooooooo",
"ooo ooo Xooooooooooooooooooooooooooooooooooooooooooooooooooo",
"ooo.ooo.Xooooooooooooooooooooooooooooooooooooooooooooooooooo",
"ooooooo oooooooooooooooooooooooooooooooooooooooooooooooooooo",
"oooooX Xoooooooooooooooooooooooooooooooooooooooooooooooooooo",
"oooo  oooooooooooooooooooooooooooooooooooooooooooooooooooooo",
"ooo..ooooooooooooooooooooooooooooooooooooooooooooooooooooooo",
"ooo ooo.XooooooooooooooooooooX.ooooooooooooooooooooooooooooo",
"ooo     Xoooooooooooooooooooo  Xoooooooooooooooooooooooooooo",
"oooooooooooooooooooooooooooo    oooooooooooooooooooooooooooo",
"oooooXooooooooooooooooooooo      ooooooooooooooooooooooooooo",
"ooooX Xooooooooooooooooooo        oooooooooooooooooooooooooo",
"oooX   Xooooooooooooooooo.        .ooooooooooooooooooooooooo",
"ooo     ooooooooooooooooX          Xoooooooooooooooooooooooo",
"oooo   ooooooooooooooooo            oooooooooooooooooooooooo",
"ooooX Xooooooooooooooooo.           oooooooooooooooooooooooo",
"ooooooooooooooooooooooooo          ooooooooooooooooooooooooo",
"oooooooooooooooooooooooooo        oooooooooooooooooooooooooo",
"ooooooooooooooooooooooooooo      ooooooooooooooooooooooooooo",
"oooooooooooooooooooooooooooo    Xooooooooooooooooooooooooooo",
"ooooooooooooooooooooooooooooX  Xoooooooooooooooooooooooooooo",
"ooooooooooooooooooooooooooooo. ooooooooooooooooooooooooooooo",
"oooooooooooooooooooooooooooooooooooooooooooooooooooooooooooo",
"oooooooooooooooooooooooooooooooooooooooooooooooooooooooooooo",
"oooooooooooooooooooooooooooooooooooooooooooooooooooooooooooo",
"oooooooooooooooooooooooooooooooooooooooooooooooooooooooooooo",
"oooooooooooooooooooooooooooooooooooooooooooooooooooooooooooo",
"oooooooooooooooooooooooooooooooooooooooooooooooooooooooooooo",
"oooooooooooooooooooooooooooooooooooooooooooooooooooooooooooo",
"oooooooooooooooooooooooooooooooooooooooooooooooooooooooooooo",
"oooooooooooooooooooooooooooooooooooooooooooooooooooooooooooo",
"oooooooooooooooooooooooooooooooooooooooooooooooooooooooooooo",
"oooooooooooooooooooooooooooooooooooooooooooooooooooooooooooo",
"oooooooooooooooooooooooooooooooooooooooooooooooooooooooooooo",
"oooooooooooooooooooooooooooooooooooooooooooooooooooooooooooo",
"oooooooooooooooooooooooooooooooooooooooooooooooooooooooooooo",
"oooooooooooooooooooooooooooooooooooooooooooooooooooooooooooo",
"oooooooooooooooooooooooooooooooooooooooooooooooooooooooooooo",
"oooooooooooooooooooooooooooooooooooooooooooooooooooooooooooo",
"oooooooooooooooooooooooooooooooooooooooooooooooooooooooooooo",
"oooooooooooooooooooooooooooooooooooooooooooooooooooooooooooo",
"oooooooooooooooooooooooooooooooooooooooooooooooooooooooooooo",
"oooooooooooooooooooooooooooooooooooooooooooooooooooooooooooo",
"oooooooooooooooooooooooooooooooooooooooooooooooooooooooooooo",
"oooooooooooooooooooooooooooooooooooooooooooooooooooooooooooo",
"oooooooooooooooooooooooooooooooooooooooooooooooooooooooooooo",
"oooooooooooooooooooooooooooooooooooooooooooooooooooooooooooo",
"oooooooooooooooooooooooooooooooooooooooooooooooooooooooooooo",
"oooooooooooooooooooooooooooooooooooooooooooooooooooooooooooo",
"oooooooooooooooooooooooooooooooooooooooooooooooooooooooooooo",
"oooooooooooooooooooooooooooooooooooooooooooooooooooooooooooo",
"oooooooooooooooooooooooooooooooooooooooooooooooooooooooooooo",
"oooooooooooooooooooooooooooooooooooooooooooooooooooooooooooo",
"oooooooooooooooooooooooooooooooooooooooooooooooooooooooooooo",
"oooooooooooooooooooooooooooooooooooooooooooooooooooooooooooo",
"oooooooooooooooooooooooooooooooooooooooooooooooooooooooooooo",
"oooooooooooooooooooooooooooooooooooooooooooooooooooooooooooo",
"oooooooooooooooooooooooooooooooooooooooooooooooooooooooooooo",
"oooooooooooooooooooooooooooooooooooooooooooooooooooooooooooo",
"ooooooooooooooooooooooooooooo .ooooooooooooooooooooooooooooo",
"oooooooooooooooooooooooooooo.  Xoooooooooooooooooooooooooooo",
"oooooooooooooooooooooooooooX    oooooooooooooooooooooooooooo",
"ooooooooooooooooooooooooooX      ooooooooooooooooooooooooooo",
"oooooooooooooooooooooooooo        oooooooooooooooooooooooooo",
"ooooooooooooooooooooooooo          oooooooooooooooooooXooooo",
"oooooooooooooooooooooooo           .ooooooooooooooooo  ooooo",
"oooooooooooooooooooooooX            oooooooooooooooo.   oooo",
"ooooooooooooooooooooooooX          ooooooooooooooooo    .ooo",
"ooooooooooooooooooooooooo.        XoooooooooooooooooX   oooo",
"oooooooooooooooooooooooooo       .ooooooooooooooooooo. ooooo",
"ooooooooooooooooooooooooooo      ooooooooooooooooooooooooooo",
"oooooooooooooooooooooooooooo    ooooooooooooooooooooXXoXoooo",
"ooooooooooooooooooooooooooooX  oooooooooooooooooooo.     ooo",
"ooooooooooooooooooooooooooooo.Xoooooooooooooooooooo.Xooo ooo",
"ooooooooooooooooooooooooooooooooooooooooooooooooooooooo Xooo",
"oooooooooooooooooooooooooooooooooooooooooooooooooooooo Xoooo",
"oooooooooooooooooooooooooooooooooooooooooooooooooooo  oooooo",
"oooooooooooooooooooooooooooooooooooooooooooooooooooX ooooooo",
"ooooooooooooooooooooooooooooooooooooooooooooooooooo.Xooo.ooo",
"ooooooooooooooooooooooooooooooooooooooooooooooooooo..ooX.ooo",
"oooooooooooooooooooooooooooooooooooooooooooooooooooo    oooo",
"oooooooooooooooooooooooooooooooooooooooooooooooooooooooooooo",
"oooooooooooooooooooooooooooooooooooooooooooooooooooooooooooo",
"oooooooooooooooooooooooooooooooooooooooooooooooooooooooooooo",
"oooooooooooooooooooooooooooooooooooooooooooooooooooooooooooo",
"oooooooooooooooooooooooooooooooooooooooooooooooooooooooooooo"
};
