/* XPM */
static char *result[] = {
/* columns rows colors chars-per-pixel */
"60 91 4 1 ",
"  c red",
". c #808080",
"X c #C0C0C0",
"o c white",
/* pixels */
"oooooooooooooooooooooooooooooooooooooooooooooooooooooooooooo",
"oooooooooooooooooooooooooooooooooooooooooooooooooooooooooooo",
"oooooooooooooooooooooooooooooooooooooooooooooooooooooooooooo",
"oooooooooooooooooooooooooooooooooooooooooooooooooooooooooooo",
"oooooXXooooooooooooooooooooooooooooooooooooooooooooooooooooo",
"oooo. X Xooooooooooooooooooooooooooooooooooooooooooooooooooo",
"oooX ooo ooooooooooooooooooooooooooooooooooooooooooooooooooo",
"oooooooo ooooooooooooooooooooooooooooooooooooooooooooooooooo",
"oooooooX.ooooooooooooooooooooooooooooooooooooooooooooooooooo",
"oooooo  oooooooooooooooooooooooooooooooooooooooooooooooooooo",
"ooooX oooooooooooooooooooooooooooooooooooooooooooooooooooooo",
"oooo oooooooooooooooooooo.   XoX   .oooooooooooooooooooooooo",
"oooXXooo oooooooooooooooX     X     Xooooooooooooooooooooooo",
"oooX     ooooooooooooooo.           .ooooooooooooooooooooooo",
"oooooooooooooooooooooooo            .ooooooooooooooooooooooo",
"oooX .X .ooooooooooooooo.           Xooooooooooooooooooooooo",
"ooo.     oooooooooooooooX           oooooooooooooooooooooooo",
"oooX     oooooooooooooooo          .oooooooooooooooooooooooo",
"oooo    Xooooooooooooooooo         ooooooooooooooooooooooooo",
"ooooX  XooooooooooooooooooX       Xooooooooooooooooooooooooo",
"oooooX.oooooooooooooooooooo.     Xoooooooooooooooooooooooooo",
"oooooooooooooooooooooooooooo    .ooooooooooooooooooooooooooo",
"ooooooooooooooooooooooooooooo   oooooooooooooooooooooooooooo",
"oooooooooooooooooooooooooooooo ooooooooooooooooooooooooooooo",
"oooooooooooooooooooooooooooooooooooooooooooooooooooooooooooo",
"oooooooooooooooooooooooooooooooooooooooooooooooooooooooooooo",
"oooooooooooooooooooooooooooooooooooooooooooooooooooooooooooo",
"oooooooooooooooooooooooooooooooooooooooooooooooooooooooooooo",
"oooooooooooooooooooooooooooooooooooooooooooooooooooooooooooo",
"oooooooooooooooooooooooooooooooooooooooooooooooooooooooooooo",
"oooooooooooooooooooooooooooooooooooooooooooooooooooooooooooo",
"oooooooooooooooooooooooooooooooooooooooooooooooooooooooooooo",
"oooooooooooooooooooooooooooooooooooooooooooooooooooooooooooo",
"oooooooooooooooooooooooooooooooooooooooooooooooooooooooooooo",
"oooooooooooooooooooooooooooooooooooooooooooooooooooooooooooo",
"oooooooooooooooooooooooooooooooooooooooooooooooooooooooooooo",
"oooooooooooooooooooooooooooooooooooooooooooooooooooooooooooo",
"oooooooooooooooooooooooooooooooooooooooooooooooooooooooooooo",
"oooooooooooooooooooooooooooooooooooooooooooooooooooooooooooo",
"oooooooooooooooooooooooooooooooooooooooooooooooooooooooooooo",
"oooooooooooooooooooooooooooooooooooooooooooooooooooooooooooo",
"oooooooooooooooooooooooooooooooooooooooooooooooooooooooooooo",
"oooooooooooooooooooooooooooooooooooooooooooooooooooooooooooo",
"oooooooooooooooooooooooooooooooooooooooooooooooooooooooooooo",
"oooooooooooooooooooooooooooooooooooooooooooooooooooooooooooo",
"oooooooooooooooooooooooooooooooooooooooooooooooooooooooooooo",
"oooooooooooooooooooooooooooooooooooooooooooooooooooooooooooo",
"oooooooooooooooooooooooooooooooooooooooooooooooooooooooooooo",
"oooooooooooooooooooooooooooooooooooooooooooooooooooooooooooo",
"oooooooooooooooooooooooooooooooooooooooooooooooooooooooooooo",
"oooooooooooooooooooooooooooooooooooooooooooooooooooooooooooo",
"oooooooooooooooooooooooooooooooooooooooooooooooooooooooooooo",
"oooooooooooooooooooooooooooooooooooooooooooooooooooooooooooo",
"oooooooooooooooooooooooooooooooooooooooooooooooooooooooooooo",
"oooooooooooooooooooooooooooooooooooooooooooooooooooooooooooo",
"oooooooooooooooooooooooooooooooooooooooooooooooooooooooooooo",
"oooooooooooooooooooooooooooooooooooooooooooooooooooooooooooo",
"oooooooooooooooooooooooooooooooooooooooooooooooooooooooooooo",
"oooooooooooooooooooooooooooooooooooooooooooooooooooooooooooo",
"oooooooooooooooooooooooooooooooooooooooooooooooooooooooooooo",
"oooooooooooooooooooooooooooooooooooooooooooooooooooooooooooo",
"oooooooooooooooooooooooooooooooooooooooooooooooooooooooooooo",
"oooooooooooooooooooooooooooooooooooooooooooooooooooooooooooo",
"oooooooooooooooooooooooooooooooooooooooooooooooooooooooooooo",
"oooooooooooooooooooooooooooooooooooooooooooooooooooooooooooo",
"oooooooooooooooooooooooooooooooooooooooooooooooooooooooooooo",
"oooooooooooooooooooooooooooooooooooooooooooooooooooooooooooo",
"ooooooooooooooooooooooooooooo Xooooooooooooooooooooooooooooo",
"oooooooooooooooooooooooooooo.  ooooooooooooooooooooooooooooo",
"ooooooooooooooooooooooooooo.    oooooooooooooooooooooooooooo",
"ooooooooooooooooooooooooooX      oooooooooooooooooooo .ooooo",
"oooooooooooooooooooooooooo       .oooooooooooooooooo   Xoooo",
"ooooooooooooooooooooooooo         Xoooooooooooooooo.    oooo",
"oooooooooooooooooooooooo.          oooooooooooooooo     Xooo",
"oooooooooooooooooooooooo           Xooooooooooooooo     Xooo",
"oooooooooooooooooooooooX           .oooooooooooooooX.oX.oooo",
"ooooooooooooooooooooooo.            oooooooooooooooooooooooo",
"oooooooooooooooooooooooX            ooooooooooooooo     Xooo",
"oooooooooooooooooooooooo     X     Xooooooooooooooo oooXXooo",
"ooooooooooooooooooooooooX   Xoo   .oooooooooooooooooooo oooo",
"oooooooooooooooooooooooooooooooooooooooooooooooooooooX ooooo",
"oooooooooooooooooooooooooooooooooooooooooooooooooooo  oooooo",
"ooooooooooooooooooooooooooooooooooooooooooooooooooo Xooooooo",
"ooooooooooooooooooooooooooooooooooooooooooooooooooo oooXoooo",
"ooooooooooooooooooooooooooooooooooooooooooooooooooo ooo oooo",
"oooooooooooooooooooooooooooooooooooooooooooooooooooX X Xoooo",
"oooooooooooooooooooooooooooooooooooooooooooooooooooooXoooooo",
"oooooooooooooooooooooooooooooooooooooooooooooooooooooooooooo",
"oooooooooooooooooooooooooooooooooooooooooooooooooooooooooooo",
"oooooooooooooooooooooooooooooooooooooooooooooooooooooooooooo",
"oooooooooooooooooooooooooooooooooooooooooooooooooooooooooooo"
};
