/* XPM */
static char *result[] = {
/* columns rows colors chars-per-pixel */
"60 91 4 1 ",
"  c black",
". c #808080",
"X c #C0C0C0",
"o c white",
/* pixels */
"oooooooooooooooooooooooooooooooooooooooooooooooooooooooooooo",
"oooooooooooooooooooooooooooooooooooooooooooooooooooooooooooo",
"oooooooooooooooooooooooooooooooooooooooooooooooooooooooooooo",
"oooooooooooooooooooooooooooooooooooooooooooooooooooooooooooo",
"oooooXXooooooooooooooooooooooooooooooooooooooooooooooooooooo",
"oooo .  oooooooooooooooooooooooooooooooooooooooooooooooooooo",
"ooo.Xoo..ooooooooooooooooooooooooooooooooooooooooooooooooooo",
"ooo.oooX.ooooooooooooooooooooooooooooooooooooooooooooooooooo",
"ooooooo oooooooooooooooooooooooooooooooooooooooooooooooooooo",
"oooooX .oooooooooooooooooooooooooooooooooooooooooooooooooooo",
"oooo. oooooooooooooooooooooooooooooooooooooooooooooooooooooo",
"oooX oooooooooooooooooooooooo  ooooooooooooooooooooooooooooo",
"ooo ooo..ooooooooooooooooooo.   oooooooooooooooooooooooooooo",
"ooo     .ooooooooooooooooooX    .ooooooooooooooooooooooooooo",
"ooooooooooooooooooooooooooo      Xoooooooooooooooooooooooooo",
"ooooo.oooooooooooooooooooo        oooooooooooooooooooooooooo",
"ooooX  oooooooooooooooooo          ooooooooooooooooooooooooo",
"oooo    ooooooooooooooooX          .oooooooooooooooooooooooo",
"ooo.    Xooooooooooooooo            oooooooooooooooooooooooo",
"ooo.    Xooooooooooooooo            oooooooooooooooooooooooo",
"ooooX.XXoooooooooooooooo            oooooooooooooooooooooooo",
"ooooooooooooooooooooooooX    X..   Xoooooooooooooooooooooooo",
"oooooooooooooooooooooooooo..o. oX.oooooooooooooooooooooooooo",
"ooooooooooooooooooooooooooooo  ooooooooooooooooooooooooooooo",
"ooooooooooooooooooooooooooooo..ooooooooooooooooooooooooooooo",
"oooooooooooooooooooooooooooooooooooooooooooooooooooooooooooo",
"oooooooooooooooooooooooooooooooooooooooooooooooooooooooooooo",
"oooooooooooooooooooooooooooooooooooooooooooooooooooooooooooo",
"oooooooooooooooooooooooooooooooooooooooooooooooooooooooooooo",
"oooooooooooooooooooooooooooooooooooooooooooooooooooooooooooo",
"oooooooooooooooooooooooooooooooooooooooooooooooooooooooooooo",
"oooooooooooooooooooooooooooooooooooooooooooooooooooooooooooo",
"oooooooooooooooooooooooooooooooooooooooooooooooooooooooooooo",
"oooooooooooooooooooooooooooooooooooooooooooooooooooooooooooo",
"oooooooooooooooooooooooooooooooooooooooooooooooooooooooooooo",
"oooooooooooooooooooooooooooooooooooooooooooooooooooooooooooo",
"oooooooooooooooooooooooooooooooooooooooooooooooooooooooooooo",
"oooooooooooooooooooooooooooooooooooooooooooooooooooooooooooo",
"oooooooooooooooooooooooooooooooooooooooooooooooooooooooooooo",
"oooooooooooooooooooooooooooooooooooooooooooooooooooooooooooo",
"oooooooooooooooooooooooooooooooooooooooooooooooooooooooooooo",
"oooooooooooooooooooooooooooooooooooooooooooooooooooooooooooo",
"oooooooooooooooooooooooooooooooooooooooooooooooooooooooooooo",
"oooooooooooooooooooooooooooooooooooooooooooooooooooooooooooo",
"oooooooooooooooooooooooooooooooooooooooooooooooooooooooooooo",
"oooooooooooooooooooooooooooooooooooooooooooooooooooooooooooo",
"oooooooooooooooooooooooooooooooooooooooooooooooooooooooooooo",
"oooooooooooooooooooooooooooooooooooooooooooooooooooooooooooo",
"oooooooooooooooooooooooooooooooooooooooooooooooooooooooooooo",
"oooooooooooooooooooooooooooooooooooooooooooooooooooooooooooo",
"oooooooooooooooooooooooooooooooooooooooooooooooooooooooooooo",
"oooooooooooooooooooooooooooooooooooooooooooooooooooooooooooo",
"oooooooooooooooooooooooooooooooooooooooooooooooooooooooooooo",
"oooooooooooooooooooooooooooooooooooooooooooooooooooooooooooo",
"oooooooooooooooooooooooooooooooooooooooooooooooooooooooooooo",
"oooooooooooooooooooooooooooooooooooooooooooooooooooooooooooo",
"oooooooooooooooooooooooooooooooooooooooooooooooooooooooooooo",
"oooooooooooooooooooooooooooooooooooooooooooooooooooooooooooo",
"oooooooooooooooooooooooooooooooooooooooooooooooooooooooooooo",
"oooooooooooooooooooooooooooooooooooooooooooooooooooooooooooo",
"oooooooooooooooooooooooooooooooooooooooooooooooooooooooooooo",
"oooooooooooooooooooooooooooooooooooooooooooooooooooooooooooo",
"oooooooooooooooooooooooooooooooooooooooooooooooooooooooooooo",
"oooooooooooooooooooooooooooooooooooooooooooooooooooooooooooo",
"oooooooooooooooooooooooooooooooooooooooooooooooooooooooooooo",
"oooooooooooooooooooooooooooooooooooooooooooooooooooooooooooo",
"ooooooooooooooooooooooooooooo  ooooooooooooooooooooooooooooo",
"ooooooooooooooooooooooooooooo  ooooooooooooooooooooooooooooo",
"ooooooooooooooooooooooooo   X..X   ooooooooooooooooooooooooo",
"oooooooooooooooooooooooo.    ..    .oooooooooooooooooX.ooooo",
"oooooooooooooooooooooooo            oooooooooooooooo .. Xooo",
"oooooooooooooooooooooooo            oooooooooooooooX    .ooo",
"oooooooooooooooooooooooo.          .oooooooooooooooo    Xooo",
"ooooooooooooooooooooooooo          oooooooooooooooooX  .oooo",
"oooooooooooooooooooooooooX        Xoooooooooooooooooo. ooooo",
"oooooooooooooooooooooooooo.      .oooooooooooooooooooooooooo",
"ooooooooooooooooooooooooooo      ooooooooooooooooooX    .ooo",
"oooooooooooooooooooooooooooo    ooooooooooooooooooo..ooo ooo",
"ooooooooooooooooooooooooooooo  ooooooooooooooooooooXXoo..ooo",
"ooooooooooooooooooooooooooooo.XoooooooooooooooooooooooX oooo",
"ooooooooooooooooooooooooooooooooooooooooooooooooooooo  ooooo",
"oooooooooooooooooooooooooooooooooooooooooooooooooooo Xoooooo",
"ooooooooooooooooooooooooooooooooooooooooooooooooooo..ooooooo",
"ooooooooooooooooooooooooooooooooooooooooooooooooooo.Xooo ooo",
"oooooooooooooooooooooooooooooooooooooooooooooooooooo XX Xooo",
"ooooooooooooooooooooooooooooooooooooooooooooooooooooo..Xoooo",
"oooooooooooooooooooooooooooooooooooooooooooooooooooooooooooo",
"oooooooooooooooooooooooooooooooooooooooooooooooooooooooooooo",
"oooooooooooooooooooooooooooooooooooooooooooooooooooooooooooo",
"oooooooooooooooooooooooooooooooooooooooooooooooooooooooooooo",
"oooooooooooooooooooooooooooooooooooooooooooooooooooooooooooo"
};
