/* XPM */
static char *result[] = {
/* columns rows colors chars-per-pixel */
"60 91 4 1 ",
"  c red",
". c #808080",
"X c #C0C0C0",
"o c white",
/* pixels */
"oooooooooooooooooooooooooooooooooooooooooooooooooooooooooooo",
"oooooooooooooooooooooooooooooooooooooooooooooooooooooooooooo",
"oooooooooooooooooooooooooooooooooooooooooooooooooooooooooooo",
"oooooooooooooooooooooooooooooooooooooooooooooooooooooooooooo",
"oooooooooooooooooooooooooooooooooooooooooooooooooooooooooooo",
"ooo     Xooooooooooooooooooooooooooooooooooooooooooooooooooo",
"ooo ooo oooooooooooooooooooooooooooooooooooooooooooooooooooo",
"oooooo ooooooooooooooooooooooooooooooooooooooooooooooooooooo",
"ooooo Xooooooooooooooooooooooooooooooooooooooooooooooooooooo",
"oooo... oooooooooooooooooooooooooooooooooooooooooooooooooooo",
"oooooooX.ooooooooooooooooooooooooooooooooooooooooooooooooooo",
"oooXoooo ooooooooooooooooooooooooooooooooooooooooooooooooooo",
"ooo oooX.oooooooooooooooooooo oooooooooooooooooooooooooooooo",
"ooo  oX oooooooooooooooooooo.  ooooooooooooooooooooooooooooo",
"ooooX .ooooooooooooooooooooX    oooooooooooooooooooooooooooo",
"ooooooooooooooooooooooooooo     .ooooooooooooooooooooooooooo",
"ooooo oooooooooooooooooooo       Xoooooooooooooooooooooooooo",
"oooo   oooooooooooooooooo         oooooooooooooooooooooooooo",
"ooo     oooooooooooooooo.          ooooooooooooooooooooooooo",
"oooX   XoooooooooooooooX            oooooooooooooooooooooooo",
"oooo. .ooooooooooooooooo           ooooooooooooooooooooooooo",
"ooooo.ooooooooooooooooooo         Xooooooooooooooooooooooooo",
"oooooooooooooooooooooooooo       .oooooooooooooooooooooooooo",
"ooooooooooooooooooooooooooX      ooooooooooooooooooooooooooo",
"ooooooooooooooooooooooooooo.    oooooooooooooooooooooooooooo",
"oooooooooooooooooooooooooooo   ooooooooooooooooooooooooooooo",
"ooooooooooooooooooooooooooooo Xooooooooooooooooooooooooooooo",
"oooooooooooooooooooooooooooooooooooooooooooooooooooooooooooo",
"oooooooooooooooooooooooooooooooooooooooooooooooooooooooooooo",
"oooooooooooooooooooooooooooooooooooooooooooooooooooooooooooo",
"oooooooooooooooooooooooooooooooooooooooooooooooooooooooooooo",
"oooooooooooooooooooooooooooooooooooooooooooooooooooooooooooo",
"oooooooooooooooooooooooooooooooooooooooooooooooooooooooooooo",
"oooooooooooooooooooooooooooooooooooooooooooooooooooooooooooo",
"oooooooooooooooooooooooooooooooooooooooooooooooooooooooooooo",
"oooooooooooooooooooooooooooooooooooooooooooooooooooooooooooo",
"oooooooooooooooooooooooooooooooooooooooooooooooooooooooooooo",
"oooooooooooooooooooooooooooooooooooooooooooooooooooooooooooo",
"ooooooooooooooooooooooooooooo Xooooooooooooooooooooooooooooo",
"oooooooooooooooooooooooooooo.  ooooooooooooooooooooooooooooo",
"oooooooooooooooooooooooooooX    oooooooooooooooooooooooooooo",
"ooooooooooooooooooooooooooo      ooooooooooooooooooooooooooo",
"oooooooooooooooooooooooooo        oooooooooooooooooooooooooo",
"ooooooooooooooooooooooooo         .ooooooooooooooooooooooooo",
"oooooooooooooooooooooooo.          Xoooooooooooooooooooooooo",
"oooooooooooooooooooooooo            oooooooooooooooooooooooo",
"oooooooooooooooooooooooo.          Xoooooooooooooooooooooooo",
"ooooooooooooooooooooooooo         Xooooooooooooooooooooooooo",
"oooooooooooooooooooooooooo        oooooooooooooooooooooooooo",
"ooooooooooooooooooooooooooo      ooooooooooooooooooooooooooo",
"oooooooooooooooooooooooooooX    oooooooooooooooooooooooooooo",
"ooooooooooooooooooooooooooooX  Xoooooooooooooooooooooooooooo",
"ooooooooooooooooooooooooooooo.Xooooooooooooooooooooooooooooo",
"oooooooooooooooooooooooooooooooooooooooooooooooooooooooooooo",
"oooooooooooooooooooooooooooooooooooooooooooooooooooooooooooo",
"oooooooooooooooooooooooooooooooooooooooooooooooooooooooooooo",
"oooooooooooooooooooooooooooooooooooooooooooooooooooooooooooo",
"oooooooooooooooooooooooooooooooooooooooooooooooooooooooooooo",
"oooooooooooooooooooooooooooooooooooooooooooooooooooooooooooo",
"oooooooooooooooooooooooooooooooooooooooooooooooooooooooooooo",
"oooooooooooooooooooooooooooooooooooooooooooooooooooooooooooo",
"oooooooooooooooooooooooooooooooooooooooooooooooooooooooooooo",
"oooooooooooooooooooooooooooooooooooooooooooooooooooooooooooo",
"oooooooooooooooooooooooooooooooooooooooooooooooooooooooooooo",
"ooooooooooooooooooooooooooooo  ooooooooooooooooooooooooooooo",
"ooooooooooooooooooooooooooooX  .oooooooooooooooooooooooooooo",
"oooooooooooooooooooooooooooo    Xooooooooooooooooooooooooooo",
"ooooooooooooooooooooooooooo      ooooooooooooooooooooooooooo",
"oooooooooooooooooooooooooo        oooooooooooooooooooooooooo",
"ooooooooooooooooooooooooo          ooooooooooooooooooo.ooooo",
"ooooooooooooooooooooooooX           ooooooooooooooooo  Xoooo",
"oooooooooooooooooooooooo            oooooooooooooooo    Xooo",
"ooooooooooooooooooooooooX          Xoooooooooooooooo    Xooo",
"oooooooooooooooooooooooooX        .oooooooooooooooooo  .oooo",
"oooooooooooooooooooooooooo.       oooooooooooooooooooX ooooo",
"ooooooooooooooooooooooooooo      ooooooooooooooooooooooooooo",
"oooooooooooooooooooooooooooo    ooooooooooooooooooooo .Xoooo",
"ooooooooooooooooooooooooooooo  Xoooooooooooooooooooo XX Xooo",
"oooooooooooooooooooooooooooooX.oooooooooooooooooooo oooo ooo",
"ooooooooooooooooooooooooooooooooooooooooooooooooooo ooooXooo",
"ooooooooooooooooooooooooooooooooooooooooooooooooooo oooooooo",
"oooooooooooooooooooooooooooooooooooooooooooooooooooo X Xoooo",
"ooooooooooooooooooooooooooooooooooooooooooooooooooooo  ooooo",
"ooooooooooooooooooooooooooooooooooooooooooooooooooooo oooooo",
"oooooooooooooooooooooooooooooooooooooooooooooooooooo ooo ooo",
"ooooooooooooooooooooooooooooooooooooooooooooooooooo.     ooo",
"oooooooooooooooooooooooooooooooooooooooooooooooooooooooooooo",
"oooooooooooooooooooooooooooooooooooooooooooooooooooooooooooo",
"oooooooooooooooooooooooooooooooooooooooooooooooooooooooooooo",
"oooooooooooooooooooooooooooooooooooooooooooooooooooooooooooo",
"oooooooooooooooooooooooooooooooooooooooooooooooooooooooooooo"
};
