/* XPM */
static char *result[] = {
/* columns rows colors chars-per-pixel */
"60 91 4 1 ",
"  c black",
". c #808080",
"X c #C0C0C0",
"o c white",
/* pixels */
"oooooooooooooooooooooooooooooooooooooooooooooooooooooooooooo",
"oooooooooooooooooooooooooooooooooooooooooooooooooooooooooooo",
"oooooooooooooooooooooooooooooooooooooooooooooooooooooooooooo",
"oooooooooooooooooooooooooooooooooooooooooooooooooooooooooooo",
"ooooXXXXoooooooooooooooooooooooooooooooooooooooooooooooooooo",
"ooo  .. .ooooooooooooooooooooooooooooooooooooooooooooooooooo",
"ooo.ooo oooooooooooooooooooooooooooooooooooooooooooooooooooo",
"oooooo ooooooooooooooooooooooooooooooooooooooooooooooooooooo",
"ooooo  Xoooooooooooooooooooooooooooooooooooooooooooooooooooo",
"ooooX.X .ooooooooooooooooooooooooooooooooooooooooooooooooooo",
"oooooooo ooooooooooooooooooooooooooooooooooooooooooooooooooo",
"ooo.oooo oooooooooooooooooooo  ooooooooooooooooooooooooooooo",
"ooo oooX ooooooooooooooooooo.  .oooooooooooooooooooooooooooo",
"oooo .. oooooooooooooooooooX    .ooooooooooooooooooooooooooo",
"ooooo..oooooooooooooooooooo      Xoooooooooooooooooooooooooo",
"oooooXoooooooooooooooooooo        oooooooooooooooooooooooooo",
"ooooo  oooooooooooooooooo.         ooooooooooooooooooooooooo",
"oooo   .ooooooooooooooooX          .oooooooooooooooooooooooo",
"ooo.    oooooooooooooooo            oooooooooooooooooooooooo",
"ooo     Xooooooooooooooo            oooooooooooooooooooooooo",
"oooo..X.oooooooooooooooo            oooooooooooooooooooooooo",
"oooooXooooooooooooooooooX    X..   Xoooooooooooooooooooooooo",
"oooooooooooooooooooooooooX..o. o..oooooooooooooooooooooooooo",
"ooooooooooooooooooooooooooooo  ooooooooooooooooooooooooooooo",
"ooooooooooooooooooooooooooooo..Xoooooooooooooooooooooooooooo",
"oooooooooooooooooooooooooooooooooooooooooooooooooooooooooooo",
"oooooooooooooooooooooooooooooooooooooooooooooooooooooooooooo",
"oooooooooooooooooooooooooooooooooooooooooooooooooooooooooooo",
"oooooooooooooooooooooooooooooooooooooooooooooooooooooooooooo",
"oooooooooooooooooooooooooooooooooooooooooooooooooooooooooooo",
"oooooooooooooooooooooooooooooooooooooooooooooooooooooooooooo",
"oooooooooooooooooooooooooooooooooooooooooooooooooooooooooooo",
"oooooooooooooooooooooooooooooooooooooooooooooooooooooooooooo",
"oooooooooooooooooooooooooooooooooooooooooooooooooooooooooooo",
"oooooooooooooooooooooooooooooooooooooooooooooooooooooooooooo",
"oooooooooooooooooooooooooooooooooooooooooooooooooooooooooooo",
"oooooooooooooooooooooooooooooooooooooooooooooooooooooooooooo",
"oooooooooooooooooooooooooooooooooooooooooooooooooooooooooooo",
"oooooooooooooooooooooooooooooX.ooooooooooooooooooooooooooooo",
"ooooooooooooooooooooooooooooo  Xoooooooooooooooooooooooooooo",
"oooooooooooooooooooooooooooo    oooooooooooooooooooooooooooo",
"ooooooooooooooooooooooooooo.     ooooooooooooooooooooooooooo",
"ooooooooooooooooooooooooooX       oooooooooooooooooooooooooo",
"oooooooooooooooooooooooooo        .ooooooooooooooooooooooooo",
"ooooooooooooooooooooooooo          Xoooooooooooooooooooooooo",
"ooooooooooooooooooooooooX           oooooooooooooooooooooooo",
"oooooooooooooooooooooooo.           oooooooooooooooooooooooo",
"oooooooooooooooooooooooo.           oooooooooooooooooooooooo",
"oooooooooooooooooooooooo.    .      oooooooooooooooooooooooo",
"ooooooooooooooooooooooooo   .o o   Xoooooooooooooooooooooooo",
"oooooooooooooooooooooooooooXo. ooXoooooooooooooooooooooooooo",
"ooooooooooooooooooooooooooooo  Xoooooooooooooooooooooooooooo",
"oooooooooooooooooooooooooooooXoooooooooooooooooooooooooooooo",
"oooooooooooooooooooooooooooooooooooooooooooooooooooooooooooo",
"oooooooooooooooooooooooooooooooooooooooooooooooooooooooooooo",
"oooooooooooooooooooooooooooooooooooooooooooooooooooooooooooo",
"oooooooooooooooooooooooooooooooooooooooooooooooooooooooooooo",
"oooooooooooooooooooooooooooooooooooooooooooooooooooooooooooo",
"oooooooooooooooooooooooooooooooooooooooooooooooooooooooooooo",
"oooooooooooooooooooooooooooooooooooooooooooooooooooooooooooo",
"oooooooooooooooooooooooooooooooooooooooooooooooooooooooooooo",
"oooooooooooooooooooooooooooooooooooooooooooooooooooooooooooo",
"oooooooooooooooooooooooooooooooooooooooooooooooooooooooooooo",
"oooooooooooooooooooooooooooooooooooooooooooooooooooooooooooo",
"oooooooooooooooooooooooooooooooooooooooooooooooooooooooooooo",
"oooooooooooooooooooooooooooooooooooooooooooooooooooooooooooo",
"ooooooooooooooooooooooooooooo  .oooooooooooooooooooooooooooo",
"oooooooooooooooooooooooooooooX ooooooooooooooooooooooooooooo",
"ooooooooooooooooooooooooo.  .o o   Xoooooooooooooooooooooooo",
"ooooooooooooooooooooooooo    . .    oooooooooooooooooo ooooo",
"oooooooooooooooooooooooo.           Xooooooooooooooo  .  ooo",
"oooooooooooooooooooooooo.           Xooooooooooooooo     ooo",
"ooooooooooooooooooooooooo           oooooooooooooooo.   .ooo",
"ooooooooooooooooooooooooo.         .ooooooooooooooooo   oooo",
"oooooooooooooooooooooooooo         ooooooooooooooooooo ooooo",
"ooooooooooooooooooooooooooo       oooooooooooooooooooooooooo",
"oooooooooooooooooooooooooooX     oooooooooooooooooooo   Xooo",
"oooooooooooooooooooooooooooo.   .ooooooooooooooooooo ooo ooo",
"ooooooooooooooooooooooooooooo  .oooooooooooooooooooX.ooo.Xoo",
"oooooooooooooooooooooooooooooo oooooooooooooooooooo..ooooooo",
"oooooooooooooooooooooooooooooooooooooooooooooooooooo ooooooo",
"ooooooooooooooooooooooooooooooooooooooooooooooooooooX   oooo",
"oooooooooooooooooooooooooooooooooooooooooooooooooooooo ooooo",
"ooooooooooooooooooooooooooooooooooooooooooooooooooooo ooXooo",
"oooooooooooooooooooooooooooooooooooooooooooooooooooo .oX ooo",
"oooooooooooooooooooooooooooooooooooooooooooooooooooo.....ooo",
"oooooooooooooooooooooooooooooooooooooooooooooooooooooooooooo",
"oooooooooooooooooooooooooooooooooooooooooooooooooooooooooooo",
"oooooooooooooooooooooooooooooooooooooooooooooooooooooooooooo",
"oooooooooooooooooooooooooooooooooooooooooooooooooooooooooooo",
"oooooooooooooooooooooooooooooooooooooooooooooooooooooooooooo"
};
