/* XPM */
static char *result[] = {
/* columns rows colors chars-per-pixel */
"60 91 4 1 ",
"  c red",
". c #808080",
"X c #C0C0C0",
"o c white",
/* pixels */
"oooooooooooooooooooooooooooooooooooooooooooooooooooooooooooo",
"oooooooooooooooooooooooooooooooooooooooooooooooooooooooooooo",
"oooooooooooooooooooooooooooooooooooooooooooooooooooooooooooo",
"oooooooooooooooooooooooooooooooooooooooooooooooooooooooooooo",
"oooooooooooooooooooooooooooooooooooooooooooooooooooooooooooo",
"oooooXXooooooooooooooooooooooooooooooooooooooooooooooooooooo",
"ooooo  ooooooooooooooooooooooooooooooooooooooooooooooooooooo",
"oooo . ooooooooooooooooooooooooooooooooooooooooooooooooooooo",
"oooo o ooooooooooooooooooooooooooooooooooooooooooooooooooooo",
"ooo Xo ooooooooooooooooooooooooooooooooooooooooooooooooooooo",
"ooX oo ooooooooooooooooooooooooooooooooooooooooooooooooooooo",
"oo  .  .oooooooooooooooooooooooooooooooooooooooooooooooooooo",
"oooXXX ooooooooooXoooooooooooooooooooooo. oooooooooooooooooo",
"oooooo oooooooooX  ooooooooooooooooooooX  Xooooooooooooooooo",
"ooooo  .oooooooo    ooooooooooooooooooo    Xoooooooooooooooo",
"ooooooooooooooo     .ooooooooooooooooo      oooooooooooooooo",
"ooooX oooooooo       Xooooooooooooooo        ooooooooooooooo",
"oooo  XooooooX        oooooooooooooo.         oooooooooooooo",
"ooo    XooooX          ooooooooooooX           ooooooooooooo",
"ooo    Xoooo            ooooooooooo            ooooooooooooo",
"oooo  Xooooo           XoooooooooooX          Xooooooooooooo",
"ooooX ooooooo          oooooooooooooX        .oooooooooooooo",
"oooooooooooooX        ooooooooooooooo        ooooooooooooooo",
"ooooooooooooooX      ooooooooooooooooo      oooooooooooooooo",
"ooooooooooooooo.    Xoooooooooooooooooo    Xoooooooooooooooo",
"oooooooooooooooo   .oooooooooooooooooooo  .ooooooooooooooooo",
"ooooooooooooooooo  oooooooooooooooooooooX oooooooooooooooooo",
"oooooooooooooooooooooooooooooooooooooooooooooooooooooooooooo",
"oooooooooooooooooooooooooooooooooooooooooooooooooooooooooooo",
"oooooooooooooooooooooooooooooooooooooooooooooooooooooooooooo",
"oooooooooooooooooooooooooooooooooooooooooooooooooooooooooooo",
"oooooooooooooooooooooooooooooooooooooooooooooooooooooooooooo",
"oooooooooooooooooooooooooooooooooooooooooooooooooooooooooooo",
"oooooooooooooooooooooooooooooooooooooooooooooooooooooooooooo",
"oooooooooooooooooooooooooooooooooooooooooooooooooooooooooooo",
"oooooooooooooooooooooooooooooooooooooooooooooooooooooooooooo",
"oooooooooooooooooooooooooooooooooooooooooooooooooooooooooooo",
"oooooooooooooooooooooooooooooooooooooooooooooooooooooooooooo",
"oooooooooooooooooooooooooooooooooooooooooooooooooooooooooooo",
"oooooooooooooooooooooooooooooooooooooooooooooooooooooooooooo",
"oooooooooooooooooooooooooooooooooooooooooooooooooooooooooooo",
"oooooooooooooooooooooooooooooooooooooooooooooooooooooooooooo",
"oooooooooooooooooooooooooooooooooooooooooooooooooooooooooooo",
"oooooooooooooooooooooooooooooooooooooooooooooooooooooooooooo",
"oooooooooooooooooooooooooooooooooooooooooooooooooooooooooooo",
"oooooooooooooooooooooooooooooooooooooooooooooooooooooooooooo",
"oooooooooooooooooooooooooooooooooooooooooooooooooooooooooooo",
"oooooooooooooooooooooooooooooooooooooooooooooooooooooooooooo",
"oooooooooooooooooooooooooooooooooooooooooooooooooooooooooooo",
"oooooooooooooooooooooooooooooooooooooooooooooooooooooooooooo",
"oooooooooooooooooooooooooooooooooooooooooooooooooooooooooooo",
"oooooooooooooooooooooooooooooooooooooooooooooooooooooooooooo",
"oooooooooooooooooooooooooooooooooooooooooooooooooooooooooooo",
"oooooooooooooooooooooooooooooooooooooooooooooooooooooooooooo",
"oooooooooooooooooooooooooooooooooooooooooooooooooooooooooooo",
"oooooooooooooooooooooooooooooooooooooooooooooooooooooooooooo",
"oooooooooooooooooooooooooooooooooooooooooooooooooooooooooooo",
"oooooooooooooooooooooooooooooooooooooooooooooooooooooooooooo",
"oooooooooooooooooooooooooooooooooooooooooooooooooooooooooooo",
"oooooooooooooooooooooooooooooooooooooooooooooooooooooooooooo",
"oooooooooooooooooooooooooooooooooooooooooooooooooooooooooooo",
"oooooooooooooooooooooooooooooooooooooooooooooooooooooooooooo",
"oooooooooooooooooooooooooooooooooooooooooooooooooooooooooooo",
"oooooooooooooooooooooooooooooooooooooooooooooooooooooooooooo",
"oooooooooooooooooo oooooooooooooooooooooo  ooooooooooooooooo",
"ooooooooooooooooo.  oooooooooooooooooooo   .oooooooooooooooo",
"ooooooooooooooooX    ooooooooooooooooooX    Xooooooooooooooo",
"oooooooooooooooo      ooooooooooooooooX      Xoooooooooooooo",
"ooooooooooooooo       .ooooooooooooooo        oooooooooooooo",
"oooooooooooooo         Xooooooooooooo          ooooooo ooooo",
"ooooooooooooo.          Xooooooooooo            ooooo   oooo",
"ooooooooooooX            ooooooooooo            oooo.    ooo",
"ooooooooooooo           ooooooooooooo          oooooX   .ooo",
"oooooooooooooo         XoooooooooooooX        Xoooooo.  oooo",
"ooooooooooooooo       .oooooooooooooooX      .oooooooo ooooo",
"oooooooooooooooo      ooooooooooooooooo.     ooooooooooooooo",
"ooooooooooooooooX    ooooooooooooooooooo    oooooooo   ooooo",
"ooooooooooooooooo.  Xoooooooooooooooooooo  oooooooooo oooooo",
"oooooooooooooooooo XooooooooooooooooooooooXoooooooooo oXXooo",
"oooooooooooooooooooooooooooooooooooooooooooooooooooo  .. .oo",
"ooooooooooooooooooooooooooooooooooooooooooooooooooooo oo ooo",
"ooooooooooooooooooooooooooooooooooooooooooooooooooooo oX.ooo",
"ooooooooooooooooooooooooooooooooooooooooooooooooooooo o oooo",
"ooooooooooooooooooooooooooooooooooooooooooooooooooooo .Xoooo",
"ooooooooooooooooooooooooooooooooooooooooooooooooooooo  ooooo",
"oooooooooooooooooooooooooooooooooooooooooooooooooooooXoooooo",
"oooooooooooooooooooooooooooooooooooooooooooooooooooooooooooo",
"oooooooooooooooooooooooooooooooooooooooooooooooooooooooooooo",
"oooooooooooooooooooooooooooooooooooooooooooooooooooooooooooo",
"oooooooooooooooooooooooooooooooooooooooooooooooooooooooooooo",
"oooooooooooooooooooooooooooooooooooooooooooooooooooooooooooo"
};
