/* XPM */
static char *result[] = {
/* columns rows colors chars-per-pixel */
"60 91 4 1 ",
"  c red",
". c #808080",
"X c #C0C0C0",
"o c white",
/* pixels */
"oooooooooooooooooooooooooooooooooooooooooooooooooooooooooooo",
"oooooooooooooooooooooooooooooooooooooooooooooooooooooooooooo",
"oooooooooooooooooooooooooooooooooooooooooooooooooooooooooooo",
"oooooooooooooooooooooooooooooooooooooooooooooooooooooooooooo",
"oooooooooooooooooooooooooooooooooooooooooooooooooooooooooooo",
"oooooo Xoooooooooooooooooooooooooooooooooooooooooooooooooooo",
"oooooX Xoooooooooooooooooooooooooooooooooooooooooooooooooooo",
"ooooo XXoooooooooooooooooooooooooooooooooooooooooooooooooooo",
"oooo.XXXoooooooooooooooooooooooooooooooooooooooooooooooooooo",
"oooo oXXoooooooooooooooooooooooooooooooooooooooooooooooooooo",
"ooo.XoXXoooooooooooooooooooooooooooooooooooooooooooooooooooo",
"ooo     Xooooooooooooooooooooooooooooooooooooooooooooooooooo",
"ooooooXXoooooo   Xoo.  .oooooooooooX   Xoo    oooooooooooooo",
"oooooo..ooooo     X.    .oooooooooo     X     Xooooooooooooo",
"ooooooXXXoooo            oooooooooX            ooooooooooooo",
"oooo.oX.ooooo            oooooooooX            ooooooooooooo",
"ooo     .oooo            oooooooooX           .ooooooooooooo",
"ooo     .oooo           .oooooooooo           Xooooooooooooo",
"oooX    XooooX          oooooooooooX          oooooooooooooo",
"oooo   .oooooo.        Xoooooooooooo         ooooooooooooooo",
"ooooo  oooooooo        oooooooooooooo       Xooooooooooooooo",
"oooooooooooooooX      oooooooooooooooX      oooooooooooooooo",
"ooooooooooooooooX    Xoooooooooooooooo.    ooooooooooooooooo",
"ooooooooooooooooo.  Xoooooooooooooooooo   oooooooooooooooooo",
"oooooooooooooooooo..oooooooooooooooooooo Xoooooooooooooooooo",
"oooooooooooooooooooooooooooooooooooooooooooooooooooooooooooo",
"oooooooooooooooooooooooooooooooooooooooooooooooooooooooooooo",
"oooooooooooooooooooooooooooooooooooooooooooooooooooooooooooo",
"oooooooooooooooooooooooooooooooooooooooooooooooooooooooooooo",
"oooooooooooooooooooooooooooooooooooooooooooooooooooooooooooo",
"oooooooooooooooooooooooooooooooooooooooooooooooooooooooooooo",
"oooooooooooooooooooooooooooooooooooooooooooooooooooooooooooo",
"oooooooooooooooooooooooooooooooooooooooooooooooooooooooooooo",
"oooooooooooooooooooooooooooooooooooooooooooooooooooooooooooo",
"oooooooooooooooooooooooooooooooooooooooooooooooooooooooooooo",
"oooooooooooooooooooooooooooooooooooooooooooooooooooooooooooo",
"oooooooooooooooooooooooooooooooooooooooooooooooooooooooooooo",
"oooooooooooooooooooooooooooooooooooooooooooooooooooooooooooo",
"oooooooooooooooooooooooooooooooooooooooooooooooooooooooooooo",
"oooooooooooooooooooooooooooooooooooooooooooooooooooooooooooo",
"oooooooooooooooooooooooooooooooooooooooooooooooooooooooooooo",
"oooooooooooooooooooooooooooooooooooooooooooooooooooooooooooo",
"oooooooooooooooooooooooooooooooooooooooooooooooooooooooooooo",
"oooooooooooooooooooooooooooooooooooooooooooooooooooooooooooo",
"oooooooooooooooooooooooooooooooooooooooooooooooooooooooooooo",
"oooooooooooooooooooooooooooooooooooooooooooooooooooooooooooo",
"oooooooooooooooooooooooooooooooooooooooooooooooooooooooooooo",
"oooooooooooooooooooooooooooooooooooooooooooooooooooooooooooo",
"oooooooooooooooooooooooooooooooooooooooooooooooooooooooooooo",
"oooooooooooooooooooooooooooooooooooooooooooooooooooooooooooo",
"oooooooooooooooooooooooooooooooooooooooooooooooooooooooooooo",
"oooooooooooooooooooooooooooooooooooooooooooooooooooooooooooo",
"oooooooooooooooooooooooooooooooooooooooooooooooooooooooooooo",
"oooooooooooooooooooooooooooooooooooooooooooooooooooooooooooo",
"oooooooooooooooooooooooooooooooooooooooooooooooooooooooooooo",
"oooooooooooooooooooooooooooooooooooooooooooooooooooooooooooo",
"oooooooooooooooooooooooooooooooooooooooooooooooooooooooooooo",
"oooooooooooooooooooooooooooooooooooooooooooooooooooooooooooo",
"oooooooooooooooooooooooooooooooooooooooooooooooooooooooooooo",
"oooooooooooooooooooooooooooooooooooooooooooooooooooooooooooo",
"oooooooooooooooooooooooooooooooooooooooooooooooooooooooooooo",
"oooooooooooooooooooooooooooooooooooooooooooooooooooooooooooo",
"oooooooooooooooooooooooooooooooooooooooooooooooooooooooooooo",
"oooooooooooooooooooooooooooooooooooooooooooooooooooooooooooo",
"oooooooooooooooooooooooooooooooooooooooooooooooooooooooooooo",
"oooooooooooooooooooooooooooooooooooooooooooooooooooooooooooo",
"ooooooooooooooooooX oooooooooooooooooooo .oooooooooooooooooo",
"oooooooooooooooooX  .oooooooooooooooooo.  Xooooooooooooooooo",
"ooooooooooooooooo    Xoooooooooooooooo.    Xoooooooooooooooo",
"oooooooooooooooo      XooooooooooooooX      oooooooooXoooooo",
"ooooooooooooooo        oooooooooooooo        oooooooX  ooooo",
"ooooooooooooooX        .oooooooooooo         Xoooooo   .oooo",
"oooooooooooooo          XooooooooooX          ooooo.    Xooo",
"oooooooooooooX           oooooooooo           .oooo     .ooo",
"ooooooooooooo            oooooooooo            oooo  .  Xooo",
"ooooooooooooo            XooooooooX            oooooXooXoooo",
"ooooooooooooo            oooooooooo            ooooXXXoooooo",
"ooooooooooooo.     X     oooooooooo     X.    .ooooo Xoooooo",
"oooooooooooooo   .ooX   oooooooooooo   XooX  .oooooo.ooooooo",
"ooooooooooooooooooooooooooooooooooooooooooooooooooo.     ooo",
"oooooooooooooooooooooooooooooooooooooooooooooooooooo.ooXXooo",
"oooooooooooooooooooooooooooooooooooooooooooooooooooo.oo oooo",
"oooooooooooooooooooooooooooooooooooooooooooooooooooo.o.Xoooo",
"oooooooooooooooooooooooooooooooooooooooooooooooooooo.X ooooo",
"oooooooooooooooooooooooooooooooooooooooooooooooooooo. oooooo",
"ooooooooooooooooooooooooooooooooooooooooooooooooooooXXoooooo",
"oooooooooooooooooooooooooooooooooooooooooooooooooooooooooooo",
"oooooooooooooooooooooooooooooooooooooooooooooooooooooooooooo",
"oooooooooooooooooooooooooooooooooooooooooooooooooooooooooooo",
"oooooooooooooooooooooooooooooooooooooooooooooooooooooooooooo",
"oooooooooooooooooooooooooooooooooooooooooooooooooooooooooooo"
};
