/* XPM */
static char *result[] = {
/* columns rows colors chars-per-pixel */
"60 91 4 1 ",
"  c black",
". c #808080",
"X c #C0C0C0",
"o c white",
/* pixels */
"oooooooooooooooooooooooooooooooooooooooooooooooooooooooooooo",
"oooooooooooooooooooooooooooooooooooooooooooooooooooooooooooo",
"oooooooooooooooooooooooooooooooooooooooooooooooooooooooooooo",
"oooooooooooooooooooooooooooooooooooooooooooooooooooooooooooo",
"oooooooooooooooooooooooooooooooooooooooooooooooooooooooooooo",
"oooooo Xoooooooooooooooooooooooooooooooooooooooooooooooooooo",
"ooooo  Xoooooooooooooooooooooooooooooooooooooooooooooooooooo",
"ooooX..Xoooooooooooooooooooooooooooooooooooooooooooooooooooo",
"oooo o.Xoooooooooooooooooooooooooooooooooooooooooooooooooooo",
"ooo..o.Xoooooooooooooooooooooooooooooooooooooooooooooooooooo",
"ooo XX .ooooooooooXoooooooooooooooooooooo.oooooooooooooooooo",
"ooo...  oooooooooo  oooooooooooooooooooo. Xooooooooooooooooo",
"oooooo.Xooooooooo   .oooooooooooooooooo.   ooooooooooooooooo",
"ooooo.  oooooooo     XooooooooooooooooX     oooooooooooooooo",
"ooooooooooooooo.      oooooooooooooooo      .ooooooooooooooo",
"ooooo ooooooooX        oooooooooooooo        .oooooooooooooo",
"oooo.  ooooooo         .oooooooooooo.         oooooooooooooo",
"oooo   .ooooo           Xooooooooooo           ooooooooooooo",
"ooo     ooooo           .oooooooooo.           ooooooooooooo",
"ooo     ooooo            oooooooooo.           ooooooooooooo",
"ooooo ooooooo           .oooooooooo.           ooooooooooooo",
"ooooooooooooo.   X.X    oooooooooooo    o X   .ooooooooooooo",
"ooooooooooooooX.Xo .o..ooooooooooooooX.oX oo.Xoooooooooooooo",
"oooooooooooooooooX  oooooooooooooooooooo  Xooooooooooooooooo",
"oooooooooooooooooX..ooooooooooooooooooooXXXooooooooooooooooo",
"oooooooooooooooooooooooooooooooooooooooooooooooooooooooooooo",
"oooooooooooooooooooooooooooooooooooooooooooooooooooooooooooo",
"oooooooooooooooooooooooooooooooooooooooooooooooooooooooooooo",
"oooooooooooooooooooooooooooooooooooooooooooooooooooooooooooo",
"oooooooooooooooooooooooooooooooooooooooooooooooooooooooooooo",
"oooooooooooooooooooooooooooooooooooooooooooooooooooooooooooo",
"oooooooooooooooooooooooooooooooooooooooooooooooooooooooooooo",
"oooooooooooooooooooooooooooooooooooooooooooooooooooooooooooo",
"oooooooooooooooooooooooooooooooooooooooooooooooooooooooooooo",
"oooooooooooooooooooooooooooooooooooooooooooooooooooooooooooo",
"oooooooooooooooooooooooooooooooooooooooooooooooooooooooooooo",
"oooooooooooooooooooooooooooooooooooooooooooooooooooooooooooo",
"oooooooooooooooooooooooooooooooooooooooooooooooooooooooooooo",
"oooooooooooooooooooooooooooooooooooooooooooooooooooooooooooo",
"oooooooooooooooooooooooooooooooooooooooooooooooooooooooooooo",
"oooooooooooooooooooooooooooooooooooooooooooooooooooooooooooo",
"oooooooooooooooooooooooooooooooooooooooooooooooooooooooooooo",
"oooooooooooooooooooooooooooooooooooooooooooooooooooooooooooo",
"oooooooooooooooooooooooooooooooooooooooooooooooooooooooooooo",
"oooooooooooooooooooooooooooooooooooooooooooooooooooooooooooo",
"oooooooooooooooooooooooooooooooooooooooooooooooooooooooooooo",
"oooooooooooooooooooooooooooooooooooooooooooooooooooooooooooo",
"oooooooooooooooooooooooooooooooooooooooooooooooooooooooooooo",
"oooooooooooooooooooooooooooooooooooooooooooooooooooooooooooo",
"oooooooooooooooooooooooooooooooooooooooooooooooooooooooooooo",
"oooooooooooooooooooooooooooooooooooooooooooooooooooooooooooo",
"oooooooooooooooooooooooooooooooooooooooooooooooooooooooooooo",
"oooooooooooooooooooooooooooooooooooooooooooooooooooooooooooo",
"oooooooooooooooooooooooooooooooooooooooooooooooooooooooooooo",
"oooooooooooooooooooooooooooooooooooooooooooooooooooooooooooo",
"oooooooooooooooooooooooooooooooooooooooooooooooooooooooooooo",
"oooooooooooooooooooooooooooooooooooooooooooooooooooooooooooo",
"oooooooooooooooooooooooooooooooooooooooooooooooooooooooooooo",
"oooooooooooooooooooooooooooooooooooooooooooooooooooooooooooo",
"oooooooooooooooooooooooooooooooooooooooooooooooooooooooooooo",
"oooooooooooooooooooooooooooooooooooooooooooooooooooooooooooo",
"oooooooooooooooooooooooooooooooooooooooooooooooooooooooooooo",
"oooooooooooooooooooooooooooooooooooooooooooooooooooooooooooo",
"oooooooooooooooooooooooooooooooooooooooooooooooooooooooooooo",
"oooooooooooooooooooooooooooooooooooooooooooooooooooooooooooo",
"ooooooooooooooooooXXooooooooooooooooooooXXXooooooooooooooooo",
"oooooooooooooooooX  oooooooooooooooooooo  Xooooooooooooooooo",
"oooooooooooooooXoo .oXXooooooooooooooXXo. ooXooooooooooooooo",
"oooooooooooooX   o X    oooooooooooo    o o   Xooooooooooooo",
"ooooooooooooo     .     .oooooooooo.    .      ooooooo.ooooo",
"ooooooooooooo           .oooooooooo.           ooooo .. .ooo",
"ooooooooooooo           .oooooooooo.           ooooX    .ooo",
"ooooooooooooo           XooooooooooX           ooooo    Xooo",
"oooooooooooooX          oooooooooooo          ooooooo  .oooo",
"oooooooooooooo.        oooooooooooooo        .oooooooX ooooo",
"ooooooooooooooo       oooooooooooooooo       ooooooooooooooo",
"oooooooooooooooo     XooooooooooooooooX     oooooooo  .ooooo",
"ooooooooooooooooo   .oooooooooooooooooo.   oooooooooX.oooooo",
"oooooooooooooooooX  oooooooooooooooooooo  Xooooooooo. ..Xooo",
"oooooooooooooooooo.oooooooooooooooooooooo.oooooooooo. .. ooo",
"ooooooooooooooooooooooooooooooooooooooooooooooooooooX.oX.ooo",
"ooooooooooooooooooooooooooooooooooooooooooooooooooooX.o oooo",
"ooooooooooooooooooooooooooooooooooooooooooooooooooooX...oooo",
"ooooooooooooooooooooooooooooooooooooooooooooooooooooX  ooooo",
"ooooooooooooooooooooooooooooooooooooooooooooooooooooX Xooooo",
"oooooooooooooooooooooooooooooooooooooooooooooooooooooXoooooo",
"oooooooooooooooooooooooooooooooooooooooooooooooooooooooooooo",
"oooooooooooooooooooooooooooooooooooooooooooooooooooooooooooo",
"oooooooooooooooooooooooooooooooooooooooooooooooooooooooooooo",
"oooooooooooooooooooooooooooooooooooooooooooooooooooooooooooo",
"oooooooooooooooooooooooooooooooooooooooooooooooooooooooooooo"
};
