/* XPM */
static char *result[] = {
/* columns rows colors chars-per-pixel */
"60 91 4 1 ",
"  c red",
". c #808080",
"X c #C0C0C0",
"o c white",
/* pixels */
"oooooooooooooooooooooooooooooooooooooooooooooooooooooooooooo",
"oooooooooooooooooooooooooooooooooooooooooooooooooooooooooooo",
"oooooooooooooooooooooooooooooooooooooooooooooooooooooooooooo",
"oooooooooooooooooooooooooooooooooooooooooooooooooooooooooooo",
"oooooooooooooooooooooooooooooooooooooooooooooooooooooooooooo",
"ooo    ooooooooooooooooooooooooooooooooooooooooooooooooooooo",
"ooX oooooooooooooooooooooooooooooooooooooooooooooooooooooooo",
"ooX.oooooooooooooooooooooooooooooooooooooooooooooooooooooooo",
"ooX.. Xooooooooooooooooooooooooooooooooooooooooooooooooooooo",
"oo. XX Xoooooooooooooooooooooooooooooooooooooooooooooooooooo",
"ooooooo oooooooooooooooooooooooooooooooooooooooooooooooooooo",
"ooooooo oooooooooooooooooooooooooooooooooooooooooooooooooooo",
"ooXXooo oooooooooXXoooooooooooooooooooooo oooooooooooooooooo",
"ooo XX oooooooooo  ooooooooooooooooooooo   ooooooooooooooooo",
"oooo..oooooooooo    ooooooooooooooooooo     oooooooooooooooo",
"ooooooooooooooo      ooooooooooooooooo.     Xooooooooooooooo",
"oooo. oooooooo        oooooooooooooooX       Xoooooooooooooo",
"oooX   ooooooX        .oooooooooooooo         oooooooooooooo",
"ooo    .ooooX          Xoooooooooooo           ooooooooooooo",
"ooo.   ooooo            ooooooooooo            .oooooooooooo",
"oooo  oooooo.           oooooooooooo           ooooooooooooo",
"oooooXooooooo          oooooooooooooo         oooooooooooooo",
"oooooooooooooo        oooooooooooooooX       Xoooooooooooooo",
"ooooooooooooooo      ooooooooooooooooo.     .ooooooooooooooo",
"oooooooooooooooX    Xoooooooooooooooooo     oooooooooooooooo",
"ooooooooooooooooX  .oooooooooooooooooooo   ooooooooooooooooo",
"ooooooooooooooooo. oooooooooooooooooooooo oooooooooooooooooo",
"oooooooooooooooooooooooooooooooooooooooooooooooooooooooooooo",
"oooooooooooooooooooooooooooooooooooooooooooooooooooooooooooo",
"oooooooooooooooooooooooooooooooooooooooooooooooooooooooooooo",
"oooooooooooooooooooooooooooooooooooooooooooooooooooooooooooo",
"oooooooooooooooooooooooooooooooooooooooooooooooooooooooooooo",
"oooooooooooooooooooooooooooooooooooooooooooooooooooooooooooo",
"oooooooooooooooooooooooooooooooooooooooooooooooooooooooooooo",
"oooooooooooooooooooooooooooooooooooooooooooooooooooooooooooo",
"oooooooooooooooooooooooooooooooooooooooooooooooooooooooooooo",
"oooooooooooooooooooooooooooooooooooooooooooooooooooooooooooo",
"oooooooooooooooooooooooooooooooooooooooooooooooooooooooooooo",
"ooooooooooooooooooooooooooooo .ooooooooooooooooooooooooooooo",
"ooooooooooooooooooooooooooooX  Xoooooooooooooooooooooooooooo",
"oooooooooooooooooooooooooooX    oooooooooooooooooooooooooooo",
"ooooooooooooooooooooooooooo      ooooooooooooooooooooooooooo",
"oooooooooooooooooooooooooo        oooooooooooooooooooooooooo",
"ooooooooooooooooooooooooo          ooooooooooooooooooooooooo",
"oooooooooooooooooooooooo.          .oooooooooooooooooooooooo",
"oooooooooooooooooooooooo            oooooooooooooooooooooooo",
"ooooooooooooooooooooooooX          Xoooooooooooooooooooooooo",
"ooooooooooooooooooooooooo         .ooooooooooooooooooooooooo",
"oooooooooooooooooooooooooo        oooooooooooooooooooooooooo",
"ooooooooooooooooooooooooooo      ooooooooooooooooooooooooooo",
"oooooooooooooooooooooooooooo    oooooooooooooooooooooooooooo",
"ooooooooooooooooooooooooooooX  Xoooooooooooooooooooooooooooo",
"oooooooooooooooooooooooooooooX.ooooooooooooooooooooooooooooo",
"oooooooooooooooooooooooooooooooooooooooooooooooooooooooooooo",
"oooooooooooooooooooooooooooooooooooooooooooooooooooooooooooo",
"oooooooooooooooooooooooooooooooooooooooooooooooooooooooooooo",
"oooooooooooooooooooooooooooooooooooooooooooooooooooooooooooo",
"oooooooooooooooooooooooooooooooooooooooooooooooooooooooooooo",
"oooooooooooooooooooooooooooooooooooooooooooooooooooooooooooo",
"oooooooooooooooooooooooooooooooooooooooooooooooooooooooooooo",
"oooooooooooooooooooooooooooooooooooooooooooooooooooooooooooo",
"oooooooooooooooooooooooooooooooooooooooooooooooooooooooooooo",
"oooooooooooooooooooooooooooooooooooooooooooooooooooooooooooo",
"oooooooooooooooooooooooooooooooooooooooooooooooooooooooooooo",
"oooooooooooooooooo oooooooooooooooooooooo .ooooooooooooooooo",
"ooooooooooooooooo   oooooooooooooooooooo   Xoooooooooooooooo",
"oooooooooooooooo     oooooooooooooooooo.    Xooooooooooooooo",
"ooooooooooooooo.     .ooooooooooooooooX      ooooooooooooooo",
"ooooooooooooooX       Xooooooooooooooo        oooooooooooooo",
"oooooooooooooX         Xooooooooooooo          ooooooo ooooo",
"ooooooooooooo           oooooooooooo            ooooo.  oooo",
"oooooooooooo            .ooooooooooo            ooooX   .ooo",
"ooooooooooooo           ooooooooooooX          ooooo     ooo",
"oooooooooooooo         oooooooooooooo.        Xoooooo   oooo",
"ooooooooooooooX       oooooooooooooooo       Xoooooooo ooooo",
"oooooooooooooooX     Xooooooooooooooooo      ooooooooooooooo",
"oooooooooooooooo.   .ooooooooooooooooooo    oooooooooX .oooo",
"ooooooooooooooooo   ooooooooooooooooooooo  oooooooooX XX ooo",
"oooooooooooooooooo ooooooooooooooooooooooXXooooooooo ooo.ooo",
"oooooooooooooooooooooooooooooooooooooooooooooooooooo ooooooo",
"oooooooooooooooooooooooooooooooooooooooooooooooooooo ooooooo",
"ooooooooooooooooooooooooooooooooooooooooooooooooooooX XX Xoo",
"oooooooooooooooooooooooooooooooooooooooooooooooooooooX.X Xoo",
"oooooooooooooooooooooooooooooooooooooooooooooooooooooooo ooo",
"oooooooooooooooooooooooooooooooooooooooooooooooooooooooo ooo",
"ooooooooooooooooooooooooooooooooooooooooooooooooooooo    ooo",
"oooooooooooooooooooooooooooooooooooooooooooooooooooooooooooo",
"oooooooooooooooooooooooooooooooooooooooooooooooooooooooooooo",
"oooooooooooooooooooooooooooooooooooooooooooooooooooooooooooo",
"oooooooooooooooooooooooooooooooooooooooooooooooooooooooooooo",
"oooooooooooooooooooooooooooooooooooooooooooooooooooooooooooo"
};
