/* XPM */
static char *result[] = {
/* columns rows colors chars-per-pixel */
"60 91 4 1 ",
"  c red",
". c #808080",
"X c #C0C0C0",
"o c white",
/* pixels */
"oooooooooooooooooooooooooooooooooooooooooooooooooooooooooooo",
"oooooooooooooooooooooooooooooooooooooooooooooooooooooooooooo",
"oooooooooooooooooooooooooooooooooooooooooooooooooooooooooooo",
"oooooooooooooooooooooooooooooooooooooooooooooooooooooooooooo",
"oooooooooooooooooooooooooooooooooooooooooooooooooooooooooooo",
"oooX   Xoooooooooooooooooooooooooooooooooooooooooooooooooooo",
"ooo.Xooooooooooooooooooooooooooooooooooooooooooooooooooooooo",
"ooo oooooooooooooooooooooooooooooooooooooooooooooooooooooooo",
"ooo oXXooooooooooooooooooooooooooooooooooooooooooooooooooooo",
"ooo  X. oooooooooooooooooooooooooooooooooooooooooooooooooooo",
"oooXooo.Xooooooooooooooooooooooooooooooooooooooooooooooooooo",
"oooooooXXooooooooooooooooooooooooooooooooooooooooooooooooooo",
"ooo.ooo.Xooooo   Xoo.  .oooooooooooX   XoX   .oooooooooooooo",
"ooo..oX ooooo     o.    .oooooooooo     X     Xooooooooooooo",
"ooooX .oooooo            oooooooooX           .ooooooooooooo",
"ooooXooXooooX            ooooooooo.           .ooooooooooooo",
"ooo     .oooo            oooooooooX           .ooooooooooooo",
"ooo     .oooo           .oooooooooo           oooooooooooooo",
"ooo.    oooooX          ooooooooooo.         .oooooooooooooo",
"oooo   .oooooo         Xoooooooooooo         ooooooooooooooo",
"ooooo  oooooooo        oooooooooooooo       Xooooooooooooooo",
"oooooXoooooooooX      oooooooooooooooX     .oooooooooooooooo",
"oooooooooooooooo.    Xoooooooooooooooo.    ooooooooooooooooo",
"ooooooooooooooooo   Xoooooooooooooooooo   oooooooooooooooooo",
"oooooooooooooooooo .oooooooooooooooooooo ooooooooooooooooooo",
"oooooooooooooooooooooooooooooooooooooooooooooooooooooooooooo",
"oooooooooooooooooooooooooooooooooooooooooooooooooooooooooooo",
"oooooooooooooooooooooooooooooooooooooooooooooooooooooooooooo",
"oooooooooooooooooooooooooooooooooooooooooooooooooooooooooooo",
"oooooooooooooooooooooooooooooooooooooooooooooooooooooooooooo",
"oooooooooooooooooooooooooooooooooooooooooooooooooooooooooooo",
"oooooooooooooooooooooooooooooooooooooooooooooooooooooooooooo",
"oooooooooooooooooooooooooooooooooooooooooooooooooooooooooooo",
"oooooooooooooooooooooooooooooooooooooooooooooooooooooooooooo",
"oooooooooooooooooooooooooooooooooooooooooooooooooooooooooooo",
"oooooooooooooooooooooooooooooooooooooooooooooooooooooooooooo",
"oooooooooooooooooooooooooooooooooooooooooooooooooooooooooooo",
"oooooooooooooooooooooooooooooooooooooooooooooooooooooooooooo",
"oooooooooooooooooooooooooooooooooooooooooooooooooooooooooooo",
"ooooooooooooooooooooooooo   .oo    ooooooooooooooooooooooooo",
"oooooooooooooooooooooooo     X      oooooooooooooooooooooooo",
"oooooooooooooooooooooooo            oooooooooooooooooooooooo",
"oooooooooooooooooooooooX            oooooooooooooooooooooooo",
"oooooooooooooooooooooooo            oooooooooooooooooooooooo",
"oooooooooooooooooooooooo.          .oooooooooooooooooooooooo",
"ooooooooooooooooooooooooo          ooooooooooooooooooooooooo",
"ooooooooooooooooooooooooo.        Xooooooooooooooooooooooooo",
"oooooooooooooooooooooooooo        oooooooooooooooooooooooooo",
"ooooooooooooooooooooooooooo      ooooooooooooooooooooooooooo",
"oooooooooooooooooooooooooooX    Xooooooooooooooooooooooooooo",
"ooooooooooooooooooooooooooooX  Xoooooooooooooooooooooooooooo",
"ooooooooooooooooooooooooooooo..ooooooooooooooooooooooooooooo",
"oooooooooooooooooooooooooooooooooooooooooooooooooooooooooooo",
"oooooooooooooooooooooooooooooooooooooooooooooooooooooooooooo",
"oooooooooooooooooooooooooooooooooooooooooooooooooooooooooooo",
"oooooooooooooooooooooooooooooooooooooooooooooooooooooooooooo",
"oooooooooooooooooooooooooooooooooooooooooooooooooooooooooooo",
"oooooooooooooooooooooooooooooooooooooooooooooooooooooooooooo",
"oooooooooooooooooooooooooooooooooooooooooooooooooooooooooooo",
"oooooooooooooooooooooooooooooooooooooooooooooooooooooooooooo",
"oooooooooooooooooooooooooooooooooooooooooooooooooooooooooooo",
"oooooooooooooooooooooooooooooooooooooooooooooooooooooooooooo",
"oooooooooooooooooooooooooooooooooooooooooooooooooooooooooooo",
"oooooooooooooooooooooooooooooooooooooooooooooooooooooooooooo",
"oooooooooooooooooooooooooooooooooooooooooooooooooooooooooooo",
"oooooooooooooooooooooooooooooooooooooooooooooooooooooooooooo",
"ooooooooooooooooooX oooooooooooooooooooo .oooooooooooooooooo",
"oooooooooooooooooo  .oooooooooooooooooo.  .ooooooooooooooooo",
"ooooooooooooooooo    .ooooooooooooooooX    Xoooooooooooooooo",
"oooooooooooooooo      Xooooooooooooooo      XooooooooXXooooo",
"ooooooooooooooo.       oooooooooooooo        oooooooX  ooooo",
"ooooooooooooooo         oooooooooooo.        .oooooo    oooo",
"oooooooooooooo          Xooooooooooo          Xoooo.    Xooo",
"oooooooooooooX           oooooooooo.           oooo      ooo",
"ooooooooooooo.           Xooooooooo            oooo. .. Xooo",
"ooooooooooooo            Xooooooooo            ooooooooooooo",
"ooooooooooooo            Xooooooooo            oooooo. Xoooo",
"ooooooooooooo.     X     oooooooooo.    .X    .ooooo Xo.Xooo",
"oooooooooooooo    ooX   Xooooooooooo.  XooX  .oooooXXoooXooo",
"ooooooooooooooooooooooooooooooooooooooooooooooooooo.Xooooooo",
"oooooooooooooooooooooooooooooooooooooooooooooooooooX.oooXooo",
"oooooooooooooooooooooooooooooooooooooooooooooooooooo .X  ooo",
"oooooooooooooooooooooooooooooooooooooooooooooooooooooXXX.ooo",
"oooooooooooooooooooooooooooooooooooooooooooooooooooooooX.ooo",
"oooooooooooooooooooooooooooooooooooooooooooooooooooooooXXooo",
"ooooooooooooooooooooooooooooooooooooooooooooooooooooX   Xooo",
"oooooooooooooooooooooooooooooooooooooooooooooooooooooooooooo",
"oooooooooooooooooooooooooooooooooooooooooooooooooooooooooooo",
"oooooooooooooooooooooooooooooooooooooooooooooooooooooooooooo",
"oooooooooooooooooooooooooooooooooooooooooooooooooooooooooooo",
"oooooooooooooooooooooooooooooooooooooooooooooooooooooooooooo"
};
