/* XPM */
static char *result[] = {
/* columns rows colors chars-per-pixel */
"60 91 4 1 ",
"  c black",
". c #808080",
"X c #C0C0C0",
"o c white",
/* pixels */
"oooooooooooooooooooooooooooooooooooooooooooooooooooooooooooo",
"oooooooooooooooooooooooooooooooooooooooooooooooooooooooooooo",
"oooooooooooooooooooooooooooooooooooooooooooooooooooooooooooo",
"oooooooooooooooooooooooooooooooooooooooooooooooooooooooooooo",
"oooX...ooooooooooooooooooooooooooooooooooooooooooooooooooooo",
"ooo .X.ooooooooooooooooooooooooooooooooooooooooooooooooooooo",
"ooo oooooooooooooooooooooooooooooooooooooooooooooooooooooooo",
"ooo oooooooooooooooooooooooooooooooooooooooooooooooooooooooo",
"ooo    Xoooooooooooooooooooooooooooooooooooooooooooooooooooo",
"ooo ooo oooooooooooooooooooooooooooooooooooooooooooooooooooo",
"ooooooo.XoooooooooXooooooooooooooooooooooXoooooooooooooooooo",
"oooXooo oooooooooo .oooooooooooooooooooo. oooooooooooooooooo",
"ooo ooo ooooooooo   .oooooooooooooooooo.   ooooooooooooooooo",
"oooX   Xoooooooo     Xooooooooooooooooo     oooooooooooooooo",
"ooooooooooooooo.      oooooooooooooooo      .ooooooooooooooo",
"ooooo.ooooooooX        oooooooooooooo        Xoooooooooooooo",
"oooo.  ooooooo         .oooooooooooo.         oooooooooooooo",
"oooX   .ooooo           oooooooooooX          .ooooooooooooo",
"ooo     ooooo           .oooooooooo.           ooooooooooooo",
"ooo     ooooX           .oooooooooo.           ooooooooooooo",
"ooooo ooooooo           .oooooooooo.           ooooooooooooo",
"ooooooooooooo.   X o    oooooooooooo    o.X   .ooooooooooooo",
"ooooooooooooooX.Xo Xo..oooooooooooooo..o. oX.Xoooooooooooooo",
"oooooooooooooooooX  oooooooooooooooooooo  oooooooooooooooooo",
"oooooooooooooooooX..oooooooooooooooooooo..Xooooooooooooooooo",
"oooooooooooooooooooooooooooooooooooooooooooooooooooooooooooo",
"oooooooooooooooooooooooooooooooooooooooooooooooooooooooooooo",
"oooooooooooooooooooooooooooooooooooooooooooooooooooooooooooo",
"oooooooooooooooooooooooooooooooooooooooooooooooooooooooooooo",
"oooooooooooooooooooooooooooooooooooooooooooooooooooooooooooo",
"oooooooooooooooooooooooooooooooooooooooooooooooooooooooooooo",
"oooooooooooooooooooooooooooooooooooooooooooooooooooooooooooo",
"oooooooooooooooooooooooooooooooooooooooooooooooooooooooooooo",
"oooooooooooooooooooooooooooooooooooooooooooooooooooooooooooo",
"oooooooooooooooooooooooooooooooooooooooooooooooooooooooooooo",
"oooooooooooooooooooooooooooooooooooooooooooooooooooooooooooo",
"oooooooooooooooooooooooooooooooooooooooooooooooooooooooooooo",
"oooooooooooooooooooooooooooooooooooooooooooooooooooooooooooo",
"ooooooooooooooooooooooooooooo.Xooooooooooooooooooooooooooooo",
"ooooooooooooooooooooooooooooo  ooooooooooooooooooooooooooooo",
"oooooooooooooooooooooooooooo    oooooooooooooooooooooooooooo",
"ooooooooooooooooooooooooooo      ooooooooooooooooooooooooooo",
"oooooooooooooooooooooooooo.      .oooooooooooooooooooooooooo",
"oooooooooooooooooooooooooX        Xooooooooooooooooooooooooo",
"ooooooooooooooooooooooooo          ooooooooooooooooooooooooo",
"oooooooooooooooooooooooo           .oooooooooooooooooooooooo",
"oooooooooooooooooooooooo            oooooooooooooooooooooooo",
"oooooooooooooooooooooooo            oooooooooooooooooooooooo",
"oooooooooooooooooooooooo     ..    .oooooooooooooooooooooooo",
"ooooooooooooooooooooooooo   X.XX   ooooooooooooooooooooooooo",
"ooooooooooooooooooooooooooooo .ooooooooooooooooooooooooooooo",
"ooooooooooooooooooooooooooooo  ooooooooooooooooooooooooooooo",
"oooooooooooooooooooooooooooooooooooooooooooooooooooooooooooo",
"oooooooooooooooooooooooooooooooooooooooooooooooooooooooooooo",
"oooooooooooooooooooooooooooooooooooooooooooooooooooooooooooo",
"oooooooooooooooooooooooooooooooooooooooooooooooooooooooooooo",
"oooooooooooooooooooooooooooooooooooooooooooooooooooooooooooo",
"oooooooooooooooooooooooooooooooooooooooooooooooooooooooooooo",
"oooooooooooooooooooooooooooooooooooooooooooooooooooooooooooo",
"oooooooooooooooooooooooooooooooooooooooooooooooooooooooooooo",
"oooooooooooooooooooooooooooooooooooooooooooooooooooooooooooo",
"oooooooooooooooooooooooooooooooooooooooooooooooooooooooooooo",
"oooooooooooooooooooooooooooooooooooooooooooooooooooooooooooo",
"oooooooooooooooooooooooooooooooooooooooooooooooooooooooooooo",
"oooooooooooooooooooooooooooooooooooooooooooooooooooooooooooo",
"oooooooooooooooooooooooooooooooooooooooooooooooooooooooooooo",
"ooooooooooooooooo.  oooooooooooooooooooo  oooooooooooooooooo",
"oooooooooooooooXoo XoXoooooooooooooooooo. ooXooooooooooooooo",
"oooooooooooooX   o o   .oooooooooooo   .X.X   oooooooooooooo",
"ooooooooooooo      .    Xoooooooooo.    ..     ooooooXXooooo",
"ooooooooooooX           .oooooooooo            ooooX .. Xooo",
"ooooooooooooX           .oooooooooo            oooo.    .ooo",
"ooooooooooooo           ooooooooooo.          .ooooo    Xooo",
"ooooooooooooo.         .oooooooooooo          oooooo.  .oooo",
"oooooooooooooo.        oooooooooooooo        Xooooooo  ooooo",
"ooooooooooooooo       oooooooooooooooX      .ooooooooooooooo",
"oooooooooooooooo     Xoooooooooooooooo.     ooooooooo  .oooo",
"ooooooooooooooooX   .oooooooooooooooooo    ooooooooo Xo..ooo",
"ooooooooooooooooo.  oooooooooooooooooooo  Xoooooooo..ooo.ooo",
"oooooooooooooooooo.oooooooooooooooooooooX.ooooooooo.Xooooooo",
"oooooooooooooooooooooooooooooooooooooooooooooooooooX oooXooo",
"oooooooooooooooooooooooooooooooooooooooooooooooooooo  .  ooo",
"oooooooooooooooooooooooooooooooooooooooooooooooooooooXXX ooo",
"oooooooooooooooooooooooooooooooooooooooooooooooooooooooX.ooo",
"ooooooooooooooooooooooooooooooooooooooooooooooooooooooo..ooo",
"oooooooooooooooooooooooooooooooooooooooooooooooooooo.   Xooo",
"oooooooooooooooooooooooooooooooooooooooooooooooooooooooooooo",
"oooooooooooooooooooooooooooooooooooooooooooooooooooooooooooo",
"oooooooooooooooooooooooooooooooooooooooooooooooooooooooooooo",
"oooooooooooooooooooooooooooooooooooooooooooooooooooooooooooo",
"oooooooooooooooooooooooooooooooooooooooooooooooooooooooooooo"
};
