/* XPM */
static char *result[] = {
/* columns rows colors chars-per-pixel */
"60 92 5 1 ",
"  c black",
". c #808000",
"X c #808080",
"o c #C0C0C0",
"O c white",
/* pixels */
"OOOOOOOOOOOOOOOOOOOOOOOOOOOOOOOOOOOOOOOOOOOOOOOOOOOOOOOOOOOO",
"OOOOOOOOOOOOOOOOOOOOOOOOOOOOOOOOOOOOOOOOOOOOOOOOOOOOOOOOOOOO",
"OOOOOOOOOOOOOOOOOOOOOOOOOOOOOOOOOOOOOOOOOOOOOOOOOOOOOOOOOOOO",
"OOOOOOOOOOOOOOOOOOOOOOOOOOOOOOOOOOOOOOOOOOOOOOOOOOOOOOOOOOOO",
"OOOOOOOOOOOOOOOOOOOOOOOOOOOOOOOOOOOOOOOOOOOOOOOOOOOOOOOOOOOO",
"OOOOX  XOOOOOOOOOOOOOOOOOOOOOOOOOOOOOOOOOOOOOOOOOOOOOOOOOOOO",
"OOOo OOXXOOOOOOOOOOOOOOOOOOOOOOOOOOOOOOOOOOOOOOOOOOOOOOOOOOO",
"OOO OOOOOOOOOOOOOOOOOOOOOOOOOOOOOOOOOOOOOOOOOOOOOOOOOOOOOOOO",
"OOO O XOOOOOOOOOOOOOOOOOOOOOOOOOOOOOOOOOOOOOOOOOOOOOOOOOOOOO",
"OOO  Oo OOOOOOOOOOOOOOOOOOOOOOOOOOOOOOOOOOOOOOOOOOOOOOOOOOOO",
"OOO oOOXXOOOOOOOOOOOOOOOOOOOOOOOOOOOOOOOOOOOOOOOOOOOOOOOOOOO",
"OOO OOOoXOOOOOOOOOOOOOOOOOOOOOOOOOOOOOOOOOOOOOOOOOOOOOOOOOOO",
"OOOXXOOXoOOOOOOX   oOOOOOOOOOOOOOOOOOOOOo   XOOOOOOOOOOOOOOO",
"OOOO X. OOOOOO      OOOOOOOOOOOOOOOOOOOO      OOOOOOOOOOOOOO",
"OOOOOooOOOOOOO      XOOOOOOOOOOOOOOOOOOX      OOOOOOOOOOOOOO",
"OOOOOXXOOOOOOO      XOOOOOOOOOOOOOOOOOOX      OOOOOOOOOOOOOO",
"OOOOX  oOOOOOOX     OOOOOOOOOOOOOOOOOOOO     XOOOOOOOOOOOOOO",
"OOOOo  OOOOOOoO    oooOOOOOOOOOOOOOOOOooo    OoOOOOOOOOOOOOO",
"OOO     XOOo           OOOOOOOOOOOOOO           oOOOOOOOOOOO",
"OOO     XOO            XOOOOOOOOOOOOX            OOOOOOOOOOO",
"OOOoXXoXOOo            XOOOOOOOOOOOO             oOOOOOOOOOO",
"OOOOOXoOOOo            XOOOOOOOOOOOOX            OOOOOOOOOOO",
"OOOOOOOOOOO     oXX    oOOOOOOOOOOOOo    XXX     OOOOOOOOOOO",
"OOOOOOOOOOOO   oX O   XOOOOOOOOOOOOOOX   O oo   OOOOOOOOOOOO",
"OOOOOOOOOOOOOOOO  OOOOOOOOOOOOOOOOOOOOOOOo  OOOOOOOOOOOOOOOO",
"OOOOOOOOOOOOOOOo  XOOOOOOOOOOOOOOOOOOOOOOX  oOOOOOOOOOOOOOOO",
"OOOOOOOOOOOOOOOooooOOOOOOOOOOOOOOOOOOOOOOooooOOOOOOOOOOOOOOO",
"OOOOOOOOOOOOOOOOOOOOOOOOOOOOOOOOOOOOOOOOOOOOOOOOOOOOOOOOOOOO",
"OOOOOOOOOOOOOOOOOOOOOOOOOOOOOOOOOOOOOOOOOOOOOOOOOOOOOOOOOOOO",
"OOOOOOOOOOOOOOOOOOOOOOOOOOOOOOOOOOOOOOOOOOOOOOOOOOOOOOOOOOOO",
"OOOOOOOOOOOOOOOOOOOOOOOOOOOOOOOOOOOOOOOOOOOOOOOOOOOOOOOOOOOO",
"OOOOOOOOOOOOOOOOOOOOOOOOOOOOOOOOOOOOOOOOOOOOOOOOOOOOOOOOOOOO",
"OOOOOOOOOOOOOOOOOOOOOOOOOOOOOOOOOOOOOOOOOOOOOOOOOOOOOOOOOOOO",
"OOOOOOOOOOOOOOOOOOOOOOOOOOOOOOOOOOOOOOOOOOOOOOOOOOOOOOOOOOOO",
"OOOOOOOOOOOOOOOOOOOOOOOOOOOOOOOOOOOOOOOOOOOOOOOOOOOOOOOOOOOO",
"OOOOOOOOOOOOOOOOOOOOOOOOOOOOOOOOOOOOOOOOOOOOOOOOOOOOOOOOOOOO",
"OOOOOOOOOOOOOOOOOOOOOOOOOOOOOOOOOOOOOOOOOOOOOOOOOOOOOOOOOOOO",
"OOOOOOOOOOOOOOOOOOOOOOOOOOOOOOOOOOOOOOOOOOOOOOOOOOOOOOOOOOOO",
"OOOOOOOOOOOOOOOOOoOOOOOOOOOOOOOOOOOOOOOOOOoOOOOOOOOOOOOOOOOO",
"OOOOOOOOOOOOOOO    XOOOOOOOOOOOOOOOOOOOOo    OOOOOOOOOOOOOOO",
"OOOOOOOOOOOOOO      oOOOOOOOOOOOOOOOOOOo      OOOOOOOOOOOOOO",
"OOOOOOOOOOOOOO      XOOOOOOOOOOOOOOOOOOX      OOOOOOOOOOOOOO",
"OOOOOOOOOOOOOO      XOOOOOOOOOOOOOOOOOOX      OOOOOOOOOOOOOO",
"OOOOOOOOOOOOOOX     OOOOOOOOOOOOOOOOOOOO     XOOOOOOOOOOOOOO",
"OOOOOOOOOOOOoXo    oXoOOOOOOOOOOOOOOOOXXo    oXoOOOOOOOOOOOO",
"OOOOOOOOOOOX           OOOOOOOOOOOOOO           XOOOOOOOOOOO",
"OOOOOOOOOOO            XOOOOOOOOOOOOX            OOOOOOOOOOO",
"OOOOOOOOOOo            XOOOOOOOOOOOO.            oOOOOOOOOOO",
"OOOOOOOOOOo            XOOOOOOOOOOOOX            OOOOOOOOOOO",
"OOOOOOOOOOO     oX     oOOOOOOOOOOOOO    XXo     OOOOOOOOOOO",
"OOOOOOOOOOOO.  OX OX  oOOOOOOOOOOOOOOo  XO oo  XOOOOOOOOOOOO",
"OOOOOOOOOOOOOOOO  oOOOOOOOOOOOOOOOOOOOOOOo  OOOOOOOOOOOOOOOO",
"OOOOOOOOOOOOOOOo  .OOOOOOOOOOOOOOOOOOOOOO   oOOOOOOOOOOOOOOO",
"OOOOOOOOOOOOOOOOOOOOOOOOOOOOOOOOOOOOOOOOOOOOOOOOOOOOOOOOOOOO",
"OOOOOOOOOOOOOOOOOOOOOOOOOOOOOOOOOOOOOOOOOOOOOOOOOOOOOOOOOOOO",
"OOOOOOOOOOOOOOOOOOOOOOOOOOOOOOOOOOOOOOOOOOOOOOOOOOOOOOOOOOOO",
"OOOOOOOOOOOOOOOOOOOOOOOOOOOOOOOOOOOOOOOOOOOOOOOOOOOOOOOOOOOO",
"OOOOOOOOOOOOOOOOOOOOOOOOOOOOOOOOOOOOOOOOOOOOOOOOOOOOOOOOOOOO",
"OOOOOOOOOOOOOOOOOOOOOOOOOOOOOOOOOOOOOOOOOOOOOOOOOOOOOOOOOOOO",
"OOOOOOOOOOOOOOOOOOOOOOOOOOOOOOOOOOOOOOOOOOOOOOOOOOOOOOOOOOOO",
"OOOOOOOOOOOOOOOOOOOOOOOOOOOOOOOOOOOOOOOOOOOOOOOOOOOOOOOOOOOO",
"OOOOOOOOOOOOOOOOOOOOOOOOOOOOOOOOOOOOOOOOOOOOOOOOOOOOOOOOOOOO",
"OOOOOOOOOOOOOOOOOOOOOOOOOOOOOOOOOOOOOOOOOOOOOOOOOOOOOOOOOOOO",
"OOOOOOOOOOOOOOOOOOOOOOOOOOOOOOOOOOOOOOOOOOOOOOOOOOOOOOOOOOOO",
"OOOOOOOOOOOOOOOOOOOOOOOOOOOOOOOOOOOOOOOOOOOOOOOOOOOOOOOOOOOO",
"OOOOOOOOOOOOOOOooooOOOOOOOOOOOOOOOOOOOOOOooooOOOOOOOOOOOOOOO",
"OOOOOOOOOOOOOOOo  XOOOOOOOOOOOOOOOOOOOOOOX  OOOOOOOOOOOOOOOO",
"OOOOOOOOOOOOOOOO  OOOOOOOOOOOOOOOOOOOOOOOO .OOOOOOOOOOOOOOOO",
"OOOOOOOOOOOO   oX O   oOOOOOOOOOOOOOOX   O oo   OOOOOOOOOOOO",
"OOOOOOOOOOO     oX     oOOOOOOOOOOOOo    XXo     OOOOOOOOOOO",
"OOOOOOOOOOo            XOOOOOOOOOOOO.            OOOOo OOOOO",
"OOOOOOOOOOo            XOOOOOOOOOOOO.            oOO XX XOOO",
"OOOOOOOOOOO            XOOOOOOOOOOOOX            OOX     OOO",
"OOOOOOOOOOOX           OOOOOOOOOOOOOO           oOOO    XOOO",
"OOOOOOOOOOOOOoO    oooOOOOOOOOOOOOOOOOooo    OoOOOOOO  XOOOO",
"OOOOOOOOOOOOOO.     OOOOOOOOOOOOOOOOOOOO     XOOOOOOO  XOOOO",
"OOOOOOOOOOOOOO      XOOOOOOOOOOOOOOOOOOX      OOOOOOOOoOOOOO",
"OOOOOOOOOOOOOO      XOOOOOOOOOOOOOOOOOOX      OOOOOOOooOOOOO",
"OOOOOOOOOOOOOO      OOOOOOOOOOOOOOOOOOOo     .OOOOOO XX OOOO",
"OOOOOOOOOOOOOOOX   oOOOOOOOOOOOOOOOOOOOOo   XOOOOOOoXOOXXOOO",
"OOOOOOOOOOOOOOOOOOOOOOOOOOOOOOOOOOOOOOOOOOOOOOOOOOOXoOOO OOO",
"OOOOOOOOOOOOOOOOOOOOOOOOOOOOOOOOOOOOOOOOOOOOOOOOOOOXoOOo OOO",
"OOOOOOOOOOOOOOOOOOOOOOOOOOOOOOOOOOOOOOOOOOOOOOOOOOOO oO  OOO",
"OOOOOOOOOOOOOOOOOOOOOOOOOOOOOOOOOOOOOOOOOOOOOOOOOOOOO. O OOO",
"OOOOOOOOOOOOOOOOOOOOOOOOOOOOOOOOOOOOOOOOOOOOOOOOOOOOOOOO.OOO",
"OOOOOOOOOOOOOOOOOOOOOOOOOOOOOOOOOOOOOOOOOOOOOOOOOOOXXOO oOOO",
"OOOOOOOOOOOOOOOOOOOOOOOOOOOOOOOOOOOOOOOOOOOOOOOOOOOOX  XOOOO",
"OOOOOOOOOOOOOOOOOOOOOOOOOOOOOOOOOOOOOOOOOOOOOOOOOOOOOOOOOOOO",
"OOOOOOOOOOOOOOOOOOOOOOOOOOOOOOOOOOOOOOOOOOOOOOOOOOOOOOOOOOOO",
"OOOOOOOOOOOOOOOOOOOOOOOOOOOOOOOOOOOOOOOOOOOOOOOOOOOOOOOOOOOO",
"OOOOOOOOOOOOOOOOOOOOOOOOOOOOOOOOOOOOOOOOOOOOOOOOOOOOOOOOOOOO",
"OOOOOOOOOOOOOOOOOOOOOOOOOOOOOOOOOOOOOOOOOOOOOOOOOOOOOOOOOOOO"
};
