/* XPM */
static char *result[] = {
/* columns rows colors chars-per-pixel */
"60 91 4 1 ",
"  c red",
". c #808080",
"X c #C0C0C0",
"o c white",
/* pixels */
"oooooooooooooooooooooooooooooooooooooooooooooooooooooooooooo",
"oooooooooooooooooooooooooooooooooooooooooooooooooooooooooooo",
"oooooooooooooooooooooooooooooooooooooooooooooooooooooooooooo",
"oooooooooooooooooooooooooooooooooooooooooooooooooooooooooooo",
"oooooooooooooooooooooooooooooooooooooooooooooooooooooooooooo",
"oooo.   oooooooooooooooooooooooooooooooooooooooooooooooooooo",
"oooX ooX.ooooooooooooooooooooooooooooooooooooooooooooooooooo",
"ooo oooooooooooooooooooooooooooooooooooooooooooooooooooooooo",
"ooo X  Xoooooooooooooooooooooooooooooooooooooooooooooooooooo",
"ooo  oo oooooooooooooooooooooooooooooooooooooooooooooooooooo",
"ooo oooX.ooooooooooooooooooooooooooooooooooooooooooooooooooo",
"ooo oooX.ooooooooooooooooooooooooooooooooooooooooooooooooooo",
"oooX oo Xooooooooo ooooooooooooooooooooooXXooooooooooooooooo",
"oooo.  .ooooooooo   ooooooooooooooooooooo  ooooooooooooooooo",
"oooooooooooooooo    .ooooooooooooooooooo    oooooooooooooooo",
"oooooXooooooooo.     Xooooooooooooooooo      ooooooooooooooo",
"ooooX .oooooooX       oooooooooooooooo       .oooooooooooooo",
"oooX   XoooooX         oooooooooooooo.        Xooooooooooooo",
"ooo     ooooo           ooooooooooooX          ooooooooooooo",
"oooo   ooooo            .ooooooooooo            oooooooooooo",
"ooooo Xoooooo           oooooooooooo           .oooooooooooo",
"oooooooooooooX         oooooooooooooo          ooooooooooooo",
"oooooooooooooo.       Xooooooooooooooo        oooooooooooooo",
"ooooooooooooooo      XooooooooooooooooX      ooooooooooooooo",
"oooooooooooooooo    .ooooooooooooooooooX    oooooooooooooooo",
"ooooooooooooooooo   oooooooooooooooooooo   Xoooooooooooooooo",
"oooooooooooooooooX oooooooooooooooooooooo .ooooooooooooooooo",
"oooooooooooooooooooooooooooooooooooooooooooooooooooooooooooo",
"oooooooooooooooooooooooooooooooooooooooooooooooooooooooooooo",
"oooooooooooooooooooooooooooooooooooooooooooooooooooooooooooo",
"oooooooooooooooooooooooooooooooooooooooooooooooooooooooooooo",
"oooooooooooooooooooooooooooooooooooooooooooooooooooooooooooo",
"oooooooooooooooooooooooooooooooooooooooooooooooooooooooooooo",
"oooooooooooooooooooooooooooooooooooooooooooooooooooooooooooo",
"oooooooooooooooooooooooooooooooooooooooooooooooooooooooooooo",
"oooooooooooooooooooooooooooooooooooooooooooooooooooooooooooo",
"oooooooooooooooooooooooooooooooooooooooooooooooooooooooooooo",
"oooooooooooooooooooooooooooooooooooooooooooooooooooooooooooo",
"oooooooooooooooooX oooooooooooooooooooooo Xooooooooooooooooo",
"ooooooooooooooooo   oooooooooooooooooooo.  ooooooooooooooooo",
"oooooooooooooooo    .ooooooooooooooooooX    oooooooooooooooo",
"ooooooooooooooo      XooooooooooooooooX      ooooooooooooooo",
"oooooooooooooo        oooooooooooooooo       .oooooooooooooo",
"ooooooooooooo.         oooooooooooooo         Xooooooooooooo",
"ooooooooooooX           oooooooooooo           ooooooooooooo",
"oooooooooooo            XooooooooooX            oooooooooooo",
"ooooooooooooo           oooooooooooo           Xoooooooooooo",
"oooooooooooooX         oooooooooooooo         Xooooooooooooo",
"oooooooooooooo.       oooooooooooooooo       .oooooooooooooo",
"ooooooooooooooo      oooooooooooooooooX      ooooooooooooooo",
"oooooooooooooooo    Xoooooooooooooooooo.    oooooooooooooooo",
"ooooooooooooooooo  .oooooooooooooooooooo   ooooooooooooooooo",
"oooooooooooooooooX oooooooooooooooooooooo Xooooooooooooooooo",
"oooooooooooooooooooooooooooooooooooooooooooooooooooooooooooo",
"oooooooooooooooooooooooooooooooooooooooooooooooooooooooooooo",
"oooooooooooooooooooooooooooooooooooooooooooooooooooooooooooo",
"oooooooooooooooooooooooooooooooooooooooooooooooooooooooooooo",
"oooooooooooooooooooooooooooooooooooooooooooooooooooooooooooo",
"oooooooooooooooooooooooooooooooooooooooooooooooooooooooooooo",
"oooooooooooooooooooooooooooooooooooooooooooooooooooooooooooo",
"oooooooooooooooooooooooooooooooooooooooooooooooooooooooooooo",
"oooooooooooooooooooooooooooooooooooooooooooooooooooooooooooo",
"oooooooooooooooooooooooooooooooooooooooooooooooooooooooooooo",
"oooooooooooooooooooooooooooooooooooooooooooooooooooooooooooo",
"ooooooooooooooooo  oooooooooooooooooooooo Xooooooooooooooooo",
"ooooooooooooooooX   oooooooooooooooooooo   ooooooooooooooooo",
"oooooooooooooooX    .oooooooooooooooooo     oooooooooooooooo",
"ooooooooooooooo      Xoooooooooooooooo.      ooooooooooooooo",
"oooooooooooooo        oooooooooooooooX       Xoooooooooooooo",
"ooooooooooooo          oooooooooooooo         XoooooooXooooo",
"oooooooooooo            oooooooooooo           oooooo  ooooo",
"oooooooooooo            ooooooooooo.            ooooX   oooo",
"ooooooooooooo          Xoooooooooooo           ooooo    .ooo",
"oooooooooooooX        .oooooooooooooo         oooooo.   oooo",
"oooooooooooooo.       oooooooooooooooo       Xooooooo  ooooo",
"ooooooooooooooo      oooooooooooooooooX     XoooooooooXooooo",
"oooooooooooooooo    ooooooooooooooooooo.    oooooooooooooooo",
"ooooooooooooooooo  ooooooooooooooooooooo   ooooooooo   Xoooo",
"oooooooooooooooooXXoooooooooooooooooooooo oooooooooX.oo oooo",
"ooooooooooooooooooooooooooooooooooooooooooooooooooo oooX.ooo",
"ooooooooooooooooooooooooooooooooooooooooooooooooooo oooX ooo",
"oooooooooooooooooooooooooooooooooooooooooooooooooooX oo  ooo",
"ooooooooooooooooooooooooooooooooooooooooooooooooooooX  X ooo",
"oooooooooooooooooooooooooooooooooooooooooooooooooooooooX.ooo",
"ooooooooooooooooooooooooooooooooooooooooooooooooooo Xoo oooo",
"oooooooooooooooooooooooooooooooooooooooooooooooooooo   Xoooo",
"oooooooooooooooooooooooooooooooooooooooooooooooooooooooooooo",
"oooooooooooooooooooooooooooooooooooooooooooooooooooooooooooo",
"oooooooooooooooooooooooooooooooooooooooooooooooooooooooooooo",
"oooooooooooooooooooooooooooooooooooooooooooooooooooooooooooo",
"oooooooooooooooooooooooooooooooooooooooooooooooooooooooooooo"
};
