/* XPM */
static char *result[] = {
/* columns rows colors chars-per-pixel */
"60 91 4 1 ",
"  c red",
". c #808080",
"X c #C0C0C0",
"o c white",
/* pixels */
"oooooooooooooooooooooooooooooooooooooooooooooooooooooooooooo",
"oooooooooooooooooooooooooooooooooooooooooooooooooooooooooooo",
"oooooooooooooooooooooooooooooooooooooooooooooooooooooooooooo",
"oooooooooooooooooooooooooooooooooooooooooooooooooooooooooooo",
"oooooooooooooooooooooooooooooooooooooooooooooooooooooooooooo",
"ooooX   oooooooooooooooooooooooooooooooooooooooooooooooooooo",
"oooX ooX.ooooooooooooooooooooooooooooooooooooooooooooooooooo",
"ooo.oooooooooooooooooooooooooooooooooooooooooooooooooooooooo",
"ooo X  Xoooooooooooooooooooooooooooooooooooooooooooooooooooo",
"ooo  oo oooooooooooooooooooooooooooooooooooooooooooooooooooo",
"ooo oooX.ooooooooooooooooooooooooooooooooooooooooooooooooooo",
"ooo oooX.ooooooooooooooooooooooooooooooooooooooooooooooooooo",
"oooX.oo Xooooo    ooX   Xooooooooooo.  .ooX   Xooooooooooooo",
"oooo.  .ooooo.     X     ooooooooooX     X     ooooooooooooo",
"ooooooooooooo            Xooooooooo            Xoooooooooooo",
"oooX XX Xoooo            Xooooooooo            Xoooooooooooo",
"ooo      oooo            Xooooooooo            Xoooooooooooo",
"ooo.    .ooooX           ooooooooooX           ooooooooooooo",
"oooo    oooooo          Xooooooooooo          Xooooooooooooo",
"ooooX  XooooooX         ooooooooooooX         oooooooooooooo",
"ooooo..oooooooo.       oooooooooooooo        ooooooooooooooo",
"oooooooooooooooo      Xooooooooooooooo      Xooooooooooooooo",
"ooooooooooooooooo    XooooooooooooooooX    .oooooooooooooooo",
"oooooooooooooooooX  .ooooooooooooooooooX   ooooooooooooooooo",
"ooooooooooooooooooX.oooooooooooooooooooo. oooooooooooooooooo",
"oooooooooooooooooooooooooooooooooooooooooooooooooooooooooooo",
"oooooooooooooooooooooooooooooooooooooooooooooooooooooooooooo",
"oooooooooooooooooooooooooooooooooooooooooooooooooooooooooooo",
"oooooooooooooooooooooooooooooooooooooooooooooooooooooooooooo",
"oooooooooooooooooooooooooooooooooooooooooooooooooooooooooooo",
"oooooooooooooooooooooooooooooooooooooooooooooooooooooooooooo",
"oooooooooooooooooooooooooooooooooooooooooooooooooooooooooooo",
"oooooooooooooooooooooooooooooooooooooooooooooooooooooooooooo",
"oooooooooooooooooooooooooooooooooooooooooooooooooooooooooooo",
"oooooooooooooooooooooooooooooooooooooooooooooooooooooooooooo",
"oooooooooooooooooooooooooooooooooooooooooooooooooooooooooooo",
"oooooooooooooooooooooooooooooooooooooooooooooooooooooooooooo",
"oooooooooooooooooooooooooooooooooooooooooooooooooooooooooooo",
"oooooooooooooooXooooooXooooooooooooooooooooooooooooooooooooo",
"oooooooooooooX    oo.   Xooooooooooo   .oo.   oooooooooooooo",
"ooooooooooooo     ..     oooooooooo     ..     ooooooooooooo",
"ooooooooooooo            Xooooooooo            ooooooooooooo",
"ooooooooooooo            Xooooooooo            Xoooooooooooo",
"ooooooooooooo            oooooooooo            ooooooooooooo",
"ooooooooooooo.          .oooooooooo            ooooooooooooo",
"oooooooooooooo          oooooooooooX          Xooooooooooooo",
"oooooooooooooo.        .oooooooooooo.        .oooooooooooooo",
"ooooooooooooooo        oooooooooooooo        ooooooooooooooo",
"oooooooooooooooo      oooooooooooooooo      oooooooooooooooo",
"ooooooooooooooooX    oooooooooooooooooX    Xoooooooooooooooo",
"oooooooooooooooooX  Xoooooooooooooooooo.  Xooooooooooooooooo",
"oooooooooooooooooo.Xoooooooooooooooooooo..oooooooooooooooooo",
"oooooooooooooooooooooooooooooooooooooooooooooooooooooooooooo",
"oooooooooooooooooooooooooooooooooooooooooooooooooooooooooooo",
"oooooooooooooooooooooooooooooooooooooooooooooooooooooooooooo",
"oooooooooooooooooooooooooooooooooooooooooooooooooooooooooooo",
"oooooooooooooooooooooooooooooooooooooooooooooooooooooooooooo",
"oooooooooooooooooooooooooooooooooooooooooooooooooooooooooooo",
"oooooooooooooooooooooooooooooooooooooooooooooooooooooooooooo",
"oooooooooooooooooooooooooooooooooooooooooooooooooooooooooooo",
"oooooooooooooooooooooooooooooooooooooooooooooooooooooooooooo",
"oooooooooooooooooooooooooooooooooooooooooooooooooooooooooooo",
"oooooooooooooooooooooooooooooooooooooooooooooooooooooooooooo",
"oooooooooooooooooooooooooooooooooooooooooooooooooooooooooooo",
"oooooooooooooooooooooooooooooooooooooooooooooooooooooooooooo",
"oooooooooooooooooooooooooooooooooooooooooooooooooooooooooooo",
"oooooooooooooooooo .oooooooooooooooooooo Xoooooooooooooooooo",
"ooooooooooooooooo   Xoooooooooooooooooo.  Xooooooooooooooooo",
"oooooooooooooooo.    XooooooooooooooooX    ooooooooooooooooo",
"oooooooooooooooX      oooooooooooooooX      oooooooooXoooooo",
"ooooooooooooooX        oooooooooooooo       .oooooooo .ooooo",
"oooooooooooooo         Xoooooooooooo         Xoooooo   Xoooo",
"ooooooooooooo.          oooooooooooX          ooooo.    oooo",
"ooooooooooooo           .oooooooooo           Xoooo     .ooo",
"ooooooooooooX            oooooooooX            oooo     .ooo",
"ooooooooooooX            oooooooooX            ooooXXoX.oooo",
"ooooooooooooX            oooooooooX            ooooooooooooo",
"ooooooooooooo     o.    .oooooooooo     X     .ooooo   Xoooo",
"oooooooooooooX   Xoo.  .oooooooooooX   Xoo    oooooX.oo Xooo",
"ooooooooooooooooooooooooooooooooooooooooooooooooooo oooX.ooo",
"ooooooooooooooooooooooooooooooooooooooooooooooooooo.oooX ooo",
"oooooooooooooooooooooooooooooooooooooooooooooooooooX oo  ooo",
"ooooooooooooooooooooooooooooooooooooooooooooooooooooX  X ooo",
"oooooooooooooooooooooooooooooooooooooooooooooooooooooooX.ooo",
"ooooooooooooooooooooooooooooooooooooooooooooooooooo.Xoo oooo",
"oooooooooooooooooooooooooooooooooooooooooooooooooooo   Xoooo",
"oooooooooooooooooooooooooooooooooooooooooooooooooooooooooooo",
"oooooooooooooooooooooooooooooooooooooooooooooooooooooooooooo",
"oooooooooooooooooooooooooooooooooooooooooooooooooooooooooooo",
"oooooooooooooooooooooooooooooooooooooooooooooooooooooooooooo",
"oooooooooooooooooooooooooooooooooooooooooooooooooooooooooooo"
};
