/* XPM */
static char *result[] = {
/* columns rows colors chars-per-pixel */
"60 92 4 1 ",
"  c black",
". c #808080",
"X c #C0C0C0",
"o c white",
/* pixels */
"oooooooooooooooooooooooooooooooooooooooooooooooooooooooooooo",
"oooooooooooooooooooooooooooooooooooooooooooooooooooooooooooo",
"oooooooooooooooooooooooooooooooooooooooooooooooooooooooooooo",
"oooooooooooooooooooooooooooooooooooooooooooooooooooooooooooo",
"oooooXoooooooooooooooooooooooooooooooooooooooooooooooooooooo",
"oooo   .oooooooooooooooooooooooooooooooooooooooooooooooooooo",
"ooo Xoo oooooooooooooooooooooooooooooooooooooooooooooooooooo",
"ooo oooooooooooooooooooooooooooooooooooooooooooooooooooooooo",
"ooX..  ooooooooooooooooooooooooooooooooooooooooooooooooooooo",
"ooX .oX oooooooooooooooooooooooooooooooooooooooooooooooooooo",
"ooX ooo.XoooooooooXooooooooooooooooooooooooooooooooooooooooo",
"ooo ooo.Xooooooooo .ooooooooooooooooooooX oooooooooooooooooo",
"ooo Xoo ooooooooo   Xooooooooooooooooooo   ooooooooooooooooo",
"oooo   Xoooooooo     oooooooooooooooooo     oooooooooooooooo",
"ooooooooooooooo.      oooooooooooooooo      .ooooooooooooooo",
"ooooo.ooooooooX       .oooooooooooooo.       Xoooooooooooooo",
"oooo. .ooooooo         XooooooooooooX         oooooooooooooo",
"oooX   oooooo           oooooooooooo           ooooooooooooo",
"ooo     ooooo           .ooooooooooX           ooooooooooooo",
"ooo     ooooX           .oooooooooo.           Xoooooooooooo",
"ooo....XooooX           .oooooooooo.           Xoooooooooooo",
"ooooo.ooooooo    . X    oooooooooooo    X .    ooooooooooooo",
"oooooooooooooo. .o oX  XooooooooooooX  Xo o.  oooooooooooooo",
"oooooooooooooooooo .oooooooooooooooooooo. Xooooooooooooooooo",
"ooooooooooooooooo.  oooooooooooooooooooo  .ooooooooooooooooo",
"oooooooooooooooooooooooooooooooooooooooooooooooooooooooooooo",
"oooooooooooooooooooooooooooooooooooooooooooooooooooooooooooo",
"oooooooooooooooooooooooooooooooooooooooooooooooooooooooooooo",
"oooooooooooooooooooooooooooooooooooooooooooooooooooooooooooo",
"oooooooooooooooooooooooooooooooooooooooooooooooooooooooooooo",
"oooooooooooooooooooooooooooooooooooooooooooooooooooooooooooo",
"oooooooooooooooooooooooooooooooooooooooooooooooooooooooooooo",
"oooooooooooooooooooooooooooooooooooooooooooooooooooooooooooo",
"oooooooooooooooooooooooooooooooooooooooooooooooooooooooooooo",
"oooooooooooooooooooooooooooooooooooooooooooooooooooooooooooo",
"oooooooooooooooooooooooooooooooooooooooooooooooooooooooooooo",
"oooooooooooooooooooooooooooooooooooooooooooooooooooooooooooo",
"oooooooooooooooooooooooooooooooooooooooooooooooooooooooooooo",
"oooooooooooooooooooooooooooooooooooooooooooooooooooooooooooo",
"oooooooooooooooooo XooooooooooooooooooooX oooooooooooooooooo",
"ooooooooooooooooo   oooooooooooooooooooo   ooooooooooooooooo",
"oooooooooooooooo.    oooooooooooooooooo    .oooooooooooooooo",
"ooooooooooooooo.      oooooooooooooooo      .ooooooooooooooo",
"ooooooooooooooX       .oooooooooooooo.       ooooooooooooooo",
"oooooooooooooo         XooooooooooooX         oooooooooooooo",
"ooooooooooooo           oooooooooooo          .ooooooooooooo",
"ooooooooooooo           .oooooooooo.           ooooooooooooo",
"ooooooooooooX           .oooooooooo.           Xoooooooooooo",
"ooooooooooooX           .oooooooooo.           Xoooooooooooo",
"ooooooooooooo    . X    oooooooooooo    X .    ooooooooooooo",
"oooooooooooooo  .o o.  XooooooooooooX  Xo o.  oooooooooooooo",
"oooooooooooooooooX .oooooooooooooooooooo. Xooooooooooooooooo",
"ooooooooooooooooo.  oooooooooooooooooooo  .ooooooooooooooooo",
"oooooooooooooooooooooooooooooooooooooooooooooooooooooooooooo",
"oooooooooooooooooooooooooooooooooooooooooooooooooooooooooooo",
"oooooooooooooooooooooooooooooooooooooooooooooooooooooooooooo",
"oooooooooooooooooooooooooooooooooooooooooooooooooooooooooooo",
"oooooooooooooooooooooooooooooooooooooooooooooooooooooooooooo",
"oooooooooooooooooooooooooooooooooooooooooooooooooooooooooooo",
"oooooooooooooooooooooooooooooooooooooooooooooooooooooooooooo",
"oooooooooooooooooooooooooooooooooooooooooooooooooooooooooooo",
"oooooooooooooooooooooooooooooooooooooooooooooooooooooooooooo",
"oooooooooooooooooooooooooooooooooooooooooooooooooooooooooooo",
"oooooooooooooooooooooooooooooooooooooooooooooooooooooooooooo",
"oooooooooooooooooooooooooooooooooooooooooooooooooooooooooooo",
"oooooooooooooooooooooooooooooooooooooooooooooooooooooooooooo",
"ooooooooooooooooooXXoooooooooooooooooooooooooooooooooooooooo",
"ooooooooooooooooo.  oooooooooooooooooooo  .ooooooooooooooooo",
"oooooooooooooooXoo Xoooooooooooooooooooo. ooXooooooooooooooo",
"ooooooooooooo.   o o   .oooooooooooo.  .o o   Xooooooooooooo",
"ooooooooooooo    . .    XooooooooooX    .      ooooooo.ooooo",
"ooooooooooooX           .oooooooooo.           Xoooo .. .ooo",
"ooooooooooooX           .oooooooooo.           Xoooo     ooo",
"ooooooooooooo           XooooooooooX           ooooo    .ooo",
"ooooooooooooo.          oooooooooooo          .oooooo   oooo",
"oooooooooooooo         oooooooooooooo         oooooooX ooooo",
"ooooooooooooooo       oooooooooooooooX       ooooooooooooooo",
"oooooooooooooooX     Xoooooooooooooooo.     oooooooooX.ooooo",
"oooooooooooooooo.   .oooooooooooooooooo    Xoooooooo  . oooo",
"ooooooooooooooooo   oooooooooooooooooooo  .ooooooooX ooX ooo",
"oooooooooooooooooo oooooooooooooooooooooX ooooooooo..ooo ooo",
"oooooooooooooooooooooooooooooooooooooooooooooooooooX ooo ooo",
"oooooooooooooooooooooooooooooooooooooooooooooooooooo .X  Xoo",
"ooooooooooooooooooooooooooooooooooooooooooooooooooooo..o ooo",
"oooooooooooooooooooooooooooooooooooooooooooooooooooooooo ooo",
"oooooooooooooooooooooooooooooooooooooooooooooooooooo oo .ooo",
"ooooooooooooooooooooooooooooooooooooooooooooooooooooX  .oooo",
"oooooooooooooooooooooooooooooooooooooooooooooooooooooooooooo",
"oooooooooooooooooooooooooooooooooooooooooooooooooooooooooooo",
"oooooooooooooooooooooooooooooooooooooooooooooooooooooooooooo",
"oooooooooooooooooooooooooooooooooooooooooooooooooooooooooooo",
"oooooooooooooooooooooooooooooooooooooooooooooooooooooooooooo"
};
