/* XPM */
static char *result[] = {
/* columns rows colors chars-per-pixel */
"60 91 5 1 ",
"  c black",
". c #808000",
"X c #808080",
"o c #C0C0C0",
"O c white",
/* pixels */
"OOOOOOOOOOOOOOOOOOOOOOOOOOOOOOOOOOOOOOOOOOOOOOOOOOOOOOOOOOOO",
"OOOOOOOOOOOOOOOOOOOOOOOOOOOOOOOOOOOOOOOOOOOOOOOOOOOOOOOOOOOO",
"OOOOOOOOOOOOOOOOOOOOOOOOOOOOOOOOOOOOOOOOOOOOOOOOOOOOOOOOOOOO",
"OOOOOOOOOOOOOOOOOOOOOOOOOOOOOOOOOOOOOOOOOOOOOOOOOOOOOOOOOOOO",
"OOOOOOOOOOOOOOOOOOOOOOOOOOOOOOOOOOOOOOOOOOOOOOOOOOOOOOOOOOOO",
"OOO      OOOOOOOOOOOOOOOOOOOOOOOOOOOOOOOOOOOOOOOOOOOOOOOOOOO",
"OOO OOOo.OOOOOOOOOOOOOOOOOOOOOOOOOOOOOOOOOOOOOOOOOOOOOOOOOOO",
"OOOXOOO OOOOOOOOOOOOOOOOOOOOOOOOOOOOOOOOOOOOOOOOOOOOOOOOOOOO",
"OOOOOOXXOOOOOOOOOOOOOOOOOOOOOOOOOOOOOOOOOOOOOOOOOOOOOOOOOOOO",
"OOOOOO OOOOOOOOOOOOOOOOOOOOOOOOOOOOOOOOOOOOOOOOOOOOOOOOOOOOO",
"OOOOOXXOOOOOOOOOOOOOOOOOOOOOOOOOOOOOOOOOOOOOOOOOOOOOOOOOOOOO",
"OOOOO oOOOOOOOOOOOOOOOOOOOOOOOOOOOOOOOOOOOOOOOOOOOOOOOOOOOOO",
"OOOOO OOOOOOOOO    oOOOOOOOOOOOOOOOOOOOOo   XOOOOOOOOOOOOOOO",
"OOOOO OOOOOOOO      OOOOOOOOOOOOOOOOOOOo     .OOOOOOOOOOOOOO",
"OOOOOOOOOOOOOO      XOOOOOOOOOOOOOOOOOOX      OOOOOOOOOOOOOO",
"OOOOo XOOOOOOO      XOOOOOOOOOOOOOOOOOOX      OOOOOOOOOOOOOO",
"OOOOX  OOOOOOOX     OOOOOOOOOOOOOOOOOOOO     XOOOOOOOOOOOOOO",
"OOOOX  oOOOOoXo    oooOOOOOOOOOOOOOOOOooo    ooOOOOOOOOOOOOO",
"OOO     XOOX           OOOOOOOOOOOOOO           oOOOOOOOOOOO",
"OOO     XOo            XOOOOOOOOOOOOX            OOOOOOOOOOO",
"OOOOo ooOOX            XOOOOOOOOOOOO             oOOOOOOOOOO",
"OOOOOoOOOOo            XOOOOOOOOOOOOX            OOOOOOOOOOO",
"OOOOOOOOOOO     oXX    OOOOOOOOOOOOOo    X.o    XOOOOOOOOOOO",
"OOOOOOOOOOOOX  OX OX  OOOOOOOOOOOOOOOo  XO oo  XOOOOOOOOOOOO",
"OOOOOOOOOOOOOOOO  OOOOOOOOOOOOOOOOOOOOOOOo .OOOOOOOOOOOOOOOO",
"OOOOOOOOOOOOOOOX  .OOOOOOOOO   XOOOOOOOOO   oOOOOOOOOOOOOOOO",
"OOOOOOOOOOOOOOOOOOOOOOOOOOO      OOOOOOOOOOOOOOOOOOOOOOOOOOO",
"OOOOOOOOOOOOOOOOOOOOOOOOOOX      oOOOOOOOOOOOOOOOOOOOOOOOOOO",
"OOOOOOOOOOOOOOOOOOOOOOOOOOo      oOOOOOOOOOOOOOOOOOOOOOOOOOO",
"OOOOOOOOOOOOOOOOOOOOOOOOOOO      OOOOOOOOOOOOOOOOOOOOOOOOOOO",
"OOOOOOOOOOOOOOOOOOOOOOOOOooo    ooOOOOOOOOOOOOOOOOOOOOOOOOOO",
"OOOOOOOOOOOOOOOOOOOOOOOO           XOOOOOOOOOOOOOOOOOOOOOOOO",
"OOOOOOOOOOOOOOOOOOOOOOOo            OOOOOOOOOOOOOOOOOOOOOOOO",
"OOOOOOOOOOOOOOOOOOOOOOOX            XOOOOOOOOOOOOOOOOOOOOOOO",
"OOOOOOOOOOOOOOOOOOOOOOOX            oOOOOOOOOOOOOOOOOOOOOOOO",
"OOOOOOOOOOOOOOOOOOOOOOOO    .Xo     OOOOOOOOOOOOOOOOOOOOOOOO",
"OOOOOOOOOOOOOOOOOOOOOOOOo   O XO   OOOOOOOOOOOOOOOOOOOOOOOOO",
"OOOOOOOOOOOOOOOOOOOOOOOOOOOOo  OOOOOOOOOOOOOOOOOOOOOOOOOOOOO",
"OOOOOOOOOOOOOOOoXXoOOOOOOOOOX  oOOOOOOOOOXXXOOOOOOOOOOOOOOOO",
"OOOOOOOOOOOOOOX     OOOOOOOOOOOOOOOOOOOO     oOOOOOOOOOOOOOO",
"OOOOOOOOOOOOOO      oOOOOOOOOOOOOOOOOOOX      OOOOOOOOOOOOOO",
"OOOOOOOOOOOOOo      oOOOOOOOOOOOOOOOOOOX      OOOOOOOOOOOOOO",
"OOOOOOOOOOOOOO      OOOOOOOOOOOOOOOOOOOX      OOOOOOOOOOOOOO",
"OOOOOOOOOOOOOOo    XOOOOOOOOOOOOOOOOOOOO     OOOOOOOOOOOOOOO",
"OOOOOOOOOOOo  .    X  oOOOOOOOOOOOOOOX  X   X  XOOOOOOOOOOOO",
"OOOOOOOOOOO            OOOOOOOOOOOOOX           XOOOOOOOOOOO",
"OOOOOOOOOOX            XOOOOOOOOOOOO             OOOOOOOOOOO",
"OOOOOOOOOOX            XOOOOOOOOOOOO             OOOOOOOOOOO",
"OOOOOOOOOOO     XX     oOOOOOOOOOOOOX    . X     OOOOOOOOOOO",
"OOOOOOOOOOOX   oXXo   XOOOOOOOOOOOOOO    O O    oOOOOOOOOOOO",
"OOOOOOOOOOOOOoOO  OOooOOOOOOOOOOOOOOOOooOo XOXXOOOOOOOOOOOOO",
"OOOOOOOOOOOOOOOo  oOOOOOOOOOOOOOOOOOOOOOO.  OOOOOOOOOOOOOOOO",
"OOOOOOOOOOOOOOOXXXXOOOOOOOOOOOOOOOOOOOOOOXXXOOOOOOOOOOOOOOOO",
"OOOOOOOOOOOOOOOOOOOOOOOOOOOOOOOOOOOOOOOOOOOOOOOOOOOOOOOOOOOO",
"OOOOOOOOOOOOOOOOOOOOOOOOOOOOOOOOOOOOOOOOOOOOOOOOOOOOOOOOOOOO",
"OOOOOOOOOOOOOOOOOOOOOOOOOOOOOOOOOOOOOOOOOOOOOOOOOOOOOOOOOOOO",
"OOOOOOOOOOOOOOOOOOOOOOOOOOOOOOOOOOOOOOOOOOOOOOOOOOOOOOOOOOOO",
"OOOOOOOOOOOOOOOOOOOOOOOOOOOOOOOOOOOOOOOOOOOOOOOOOOOOOOOOOOOO",
"OOOOOOOOOOOOOOOOOOOOOOOOOOOOOOOOOOOOOOOOOOOOOOOOOOOOOOOOOOOO",
"OOOOOOOOOOOOOOOOOOOOOOOOOOOOOOOOOOOOOOOOOOOOOOOOOOOOOOOOOOOO",
"OOOOOOOOOOOOOOOOOOOOOOOOOOOOOOOOOOOOOOOOOOOOOOOOOOOOOOOOOOOO",
"OOOOOOOOOOOOOOOOOOOOOOOOOOOOOOOOOOOOOOOOOOOOOOOOOOOOOOOOOOOO",
"OOOOOOOOOOOOOOOOOOOOOOOOOOOOOOOOOOOOOOOOOOOOOOOOOOOOOOOOOOOO",
"OOOOOOOOOOOOOOOOOOOOOOOOOOOOOOOOOOOOOOOOOOOOOOOOOOOOOOOOOOOO",
"OOOOOOOOOOOOOOOOOOOOOOOOOOOOOOOOOOOOOOOOOOOOOOOOOOOOOOOOOOOO",
"OOOOOOOOOOOOOOOX  XOOOOOOOOOOOOOOOOOOOOOO   OOOOOOOOOOOOOOOO",
"OOOOOOOOOOOOOOOO  OOOOOOOOOOOOOOOOOOOOOOOX XOOOOOOOOOOOOOOOO",
"OOOOOOOOOOOO   OXXO.  OOOOOOOOOOOOOOOX  XO Oo  XOOOOOOOOOOOO",
"OOOOOOOOOOO     Xo     OOOOOOOOOOOOOo    o o    XOOOOOOOOOOO",
"OOOOOOOOOOX            XOOOOOOOOOOOO             OOOOXXOOOOO",
"OOOOOOOOOOX            XOOOOOOOOOOOO             OOOXXXXoOOO",
"OOOOOOOOOOo            oOOOOOOOOOOOO.            OO      OOO",
"OOOOOOOOOOOX          XOOOOOOOOOOOOOO           oOOX    XOOO",
"OOOOOOOOOOOOooo    oooOOOOOOOOOOOOOOOOXoX   XoXOOOOOO  oOOOO",
"OOOOOOOOOOOOOO      OOOOOOOOOOOOOOOOOOOo     oOOOOOOo  oOOOO",
"OOOOOOOOOOOOOo      oOOOOOOOOOOOOOOOOOO       OOOOOOOooOOOOO",
"OOOOOOOOOOOOOo      oOOOOOOOOOOOOOOOOOO       OOOOOOOOOOOOOO",
"OOOOOOOOOOOOOO      OOOOOOOOOOOOOOOOOOOX     XOOOOOOOo OOOOO",
"OOOOOOOOOOOOOOO   .OOOOOOOOOOOOOOOOOOOOOX   XOOOOOOOOoXOOOOO",
"OOOOOOOOOOOOOOOOOOOOOOOOOOOOOOOOOOOOOOOOOOOOOOOOOOOOOXoOOOOO",
"OOOOOOOOOOOOOOOOOOOOOOOOOOOOOOOOOOOOOOOOOOOOOOOOOOOOO OOOOOO",
"OOOOOOOOOOOOOOOOOOOOOOOOOOOOOOOOOOOOOOOOOOOOOOOOOOOOoXOOOOOO",
"OOOOOOOOOOOOOOOOOOOOOOOOOOOOOOOOOOOOOOOOOOOOOOOOOOOO OOOOOOO",
"OOOOOOOOOOOOOOOOOOOOOOOOOOOOOOOOOOOOOOOOOOOOOOOOOOOoXOOooOOO",
"OOOOOOOOOOOOOOOOOOOOOOOOOOOOOOOOOOOOOOOOOOOOOOOOOOO OOOXXOOO",
"OOOOOOOOOOOOOOOOOOOOOOOOOOOOOOOOOOOOOOOOOOOOOOOOOOo     oOOO",
"OOOOOOOOOOOOOOOOOOOOOOOOOOOOOOOOOOOOOOOOOOOOOOOOOOOOOOOOOOOO",
"OOOOOOOOOOOOOOOOOOOOOOOOOOOOOOOOOOOOOOOOOOOOOOOOOOOOOOOOOOOO",
"OOOOOOOOOOOOOOOOOOOOOOOOOOOOOOOOOOOOOOOOOOOOOOOOOOOOOOOOOOOO",
"OOOOOOOOOOOOOOOOOOOOOOOOOOOOOOOOOOOOOOOOOOOOOOOOOOOOOOOOOOOO",
"OOOOOOOOOOOOOOOOOOOOOOOOOOOOOOOOOOOOOOOOOOOOOOOOOOOOOOOOOOOO"
};
