/* XPM */
static char *result[] = {
/* columns rows colors chars-per-pixel */
"60 92 4 1 ",
"  c red",
". c #808080",
"X c #C0C0C0",
"o c white",
/* pixels */
"oooooooooooooooooooooooooooooooooooooooooooooooooooooooooooo",
"oooooooooooooooooooooooooooooooooooooooooooooooooooooooooooo",
"oooooooooooooooooooooooooooooooooooooooooooooooooooooooooooo",
"oooooooooooooooooooooooooooooooooooooooooooooooooooooooooooo",
"oooooooooooooooooooooooooooooooooooooooooooooooooooooooooooo",
"ooXXXXXXoooooooooooooooooooooooooooooooooooooooooooooooooooo",
"oo X.X  oooooooooooooooooooooooooooooooooooooooooooooooooooo",
"oo ooo ooooooooooooooooooooooooooooooooooooooooooooooooooooo",
"oooooX.ooooooooooooooooooooooooooooooooooooooooooooooooooooo",
"ooooo oooooooooooooooooooooooooooooooooooooooooooooooooooooo",
"ooooX oooooooooooooooooooooooooooooooooooooooooooooooooooooo",
"oooo Xoooooooooooooooooooooooooooooooooooooooooooooooooooooo",
"oooo ooooooooooooXooooooooooooooooooooooX oooooooooooooooooo",
"oooo oooooooooooX  ooooooooooooooooooooo   ooooooooooooooooo",
"oooo ooooooooooo   .ooooooooooooooooooo    Xoooooooooooooooo",
"ooooooooooooooo     Xooooooooooooooooo      Xooooooooooooooo",
"oooo.Xoooooooo       oooooooooooooooo.       ooooooooooooooo",
"oooX  oooooooX        ooooooooooooooX         oooooooooooooo",
"ooo    oooooX          ooooooooooooo           ooooooooooooo",
"ooX    ooooo            ooooooooooo            Xoooooooooooo",
"ooo.  XooooX           .oooooooooooX           ooooooooooooo",
"oooo .ooooooX          oooooooooooooX         oooooooooooooo",
"ooooooooooooo.        ooooooooooooooo.       ooooooooooooooo",
"oooooooooooooo       Xoooooooooooooooo      Xooooooooooooooo",
"ooooooooooooooo     .oooooooooooooooooo    .oooooooooooooooo",
"oooooooooooooooo    ooooooooo.oooooooooo   ooooooooooooooooo",
"ooooooooooooooooo  oooooooooX  oooooooooo oooooooooooooooooo",
"oooooooooooooooooXXooooooooo    oooooooooooooooooooooooooooo",
"ooooooooooooooooooooooooooo     .ooooooooooooooooooooooooooo",
"oooooooooooooooooooooooooo       Xoooooooooooooooooooooooooo",
"ooooooooooooooooooooooooo.        oooooooooooooooooooooooooo",
"ooooooooooooooooooooooooX          ooooooooooooooooooooooooo",
"oooooooooooooooooooooooo            oooooooooooooooooooooooo",
"oooooooooooooooooooooooo           .oooooooooooooooooooooooo",
"ooooooooooooooooooooooooX          ooooooooooooooooooooooooo",
"oooooooooooooooooooooooooX        oooooooooooooooooooooooooo",
"oooooooooooooooooooooooooo.      ooooooooooooooooooooooooooo",
"ooooooooooooooooooooooooooo     Xooooooooooooooooooooooooooo",
"oooooooooooooooooooooooooooo   .ooooooooo oooooooooooooooooo",
"ooooooooooooooooo  oooooooooo  ooooooooo.  ooooooooooooooooo",
"ooooooooooooooooX   oooooooooooooooooooX    oooooooooooooooo",
"oooooooooooooooo     oooooooooooooooooo      ooooooooooooooo",
"ooooooooooooooo      .oooooooooooooooo       .oooooooooooooo",
"oooooooooooooo        Xoooooooooooooo         Xooooooooooooo",
"ooooooooooooo.         XooooooooooooX          ooooooooooooo",
"ooooooooooooX           oooooooooooX            oooooooooooo",
"oooooooooooo            Xooooooooooo           Xoooooooooooo",
"ooooooooooooo          .ooooooooooooo          ooooooooooooo",
"oooooooooooooX         ooooooooooooooX        oooooooooooooo",
"ooooooooooooooX       ooooooooooooooooX      ooooooooooooooo",
"ooooooooooooooo.     oooooooooooooooooo.    Xooooooooooooooo",
"oooooooooooooooo    Xooooooooooooooooooo   .oooooooooooooooo",
"ooooooooooooooooo   ooooooooooooooooooooo  ooooooooooooooooo",
"oooooooooooooooooo ooooooooooooooooooooooooooooooooooooooooo",
"oooooooooooooooooooooooooooooooooooooooooooooooooooooooooooo",
"oooooooooooooooooooooooooooooooooooooooooooooooooooooooooooo",
"oooooooooooooooooooooooooooooooooooooooooooooooooooooooooooo",
"oooooooooooooooooooooooooooooooooooooooooooooooooooooooooooo",
"oooooooooooooooooooooooooooooooooooooooooooooooooooooooooooo",
"oooooooooooooooooooooooooooooooooooooooooooooooooooooooooooo",
"oooooooooooooooooooooooooooooooooooooooooooooooooooooooooooo",
"oooooooooooooooooooooooooooooooooooooooooooooooooooooooooooo",
"oooooooooooooooooooooooooooooooooooooooooooooooooooooooooooo",
"oooooooooooooooooooooooooooooooooooooooooooooooooooooooooooo",
"ooooooooooooooooooooooooooooooooooooooooooXooooooooooooooooo",
"oooooooooooooooooo Xooooooooooooooooooooo  Xoooooooooooooooo",
"ooooooooooooooooo   oooooooooooooooooooo.   oooooooooooooooo",
"ooooooooooooooooX    ooooooooooooooooooX     ooooooooooooooo",
"oooooooooooooooX      ooooooooooooooooo       oooooooooooooo",
"ooooooooooooooo        ooooooooooooooo         ooooooooooooo",
"oooooooooooooo          ooooooooooooo          .oooooo  oooo",
"ooooooooooooo           .ooooooooooo.           XooooX  .ooo",
"ooooooooooooX            ooooooooooo            ooooX    Xoo",
"ooooooooooooo           Xoooooooooooo          Xooooo    ooo",
"oooooooooooooo         Xoooooooooooooo        .ooooooo  oooo",
"ooooooooooooooo        oooooooooooooooo       oooooooooXoooo",
"oooooooooooooooo      oooooooooooooooooX     ooooooooooooooo",
"ooooooooooooooooX    oooooooooooooooooooX   Xoooooooooo oooo",
"oooooooooooooooooX  Xoooooooooooooooooooo. Xooooooooooo oooo",
"oooooooooooooooooo .ooooooooooooooooooooooXoooooooooooo oooo",
"ooooooooooooooooooooooooooooooooooooooooooooooooooooooX oooo",
"oooooooooooooooooooooooooooooooooooooooooooooooooooooo.Xoooo",
"oooooooooooooooooooooooooooooooooooooooooooooooooooooo ooooo",
"ooooooooooooooooooooooooooooooooooooooooooooooooooooo..ooXoo",
"ooooooooooooooooooooooooooooooooooooooooooooooooooooo ooo oo",
"oooooooooooooooooooooooooooooooooooooooooooooooooooo  XXX oo",
"ooooooooooooooooooooooooooooooooooooooooooooooooooooXXXXXXoo",
"oooooooooooooooooooooooooooooooooooooooooooooooooooooooooooo",
"oooooooooooooooooooooooooooooooooooooooooooooooooooooooooooo",
"oooooooooooooooooooooooooooooooooooooooooooooooooooooooooooo",
"oooooooooooooooooooooooooooooooooooooooooooooooooooooooooooo",
"oooooooooooooooooooooooooooooooooooooooooooooooooooooooooooo"
};
