/* XPM */
static char *result[] = {
/* columns rows colors chars-per-pixel */
"60 91 4 1 ",
"  c red",
". c #808080",
"X c #C0C0C0",
"o c white",
/* pixels */
"oooooooooooooooooooooooooooooooooooooooooooooooooooooooooooo",
"oooooooooooooooooooooooooooooooooooooooooooooooooooooooooooo",
"oooooooooooooooooooooooooooooooooooooooooooooooooooooooooooo",
"oooooooooooooooooooooooooooooooooooooooooooooooooooooooooooo",
"oooooooooooooooooooooooooooooooooooooooooooooooooooooooooooo",
"ooo     .ooooooooooooooooooooooooooooooooooooooooooooooooooo",
"ooo ooo.Xooooooooooooooooooooooooooooooooooooooooooooooooooo",
"ooo.ooo oooooooooooooooooooooooooooooooooooooooooooooooooooo",
"oooooo ooooooooooooooooooooooooooooooooooooooooooooooooooooo",
"oooooo ooooooooooooooooooooooooooooooooooooooooooooooooooooo",
"ooooo.Xooooooooooooooooooooooooooooooooooooooooooooooooooooo",
"ooooo oooooooooooooooooooooooooooooooooooooooooooooooooooooo",
"ooooo oooooooo   Xoo.  .oooooooooooX   Xoo   .oooooooooooooo",
"ooooo ooooooo     X.    .oooooooooo     X     .ooooooooooooo",
"ooooooooooooo            oooooooooX            ooooooooooooo",
"oooX.oX.ooooX            oooooooooX            ooooooooooooo",
"ooo     .oooo            oooooooooX           .ooooooooooooo",
"ooo     .oooo           .oooooooooo           Xooooooooooooo",
"oooX    oooooX          oooooooooooX          oooooooooooooo",
"oooo   .oooooo         .oooooooooooo         Xoooooooooooooo",
"ooooo  oooooooo        oooooooooooooo       .ooooooooooooooo",
"oooooXoooooooooX      oooooooooooooooX      oooooooooooooooo",
"ooooooooooooooooX    Xoooooooooooooooo.    ooooooooooooooooo",
"ooooooooooooooooo.  .oooooooooooooooooo   oooooooooooooooooo",
"oooooooooooooooooo .oooooooooooooooooooo Xoooooooooooooooooo",
"oooooooooooooooooooooooooX.Xoooo..Xooooooooooooooooooooooooo",
"oooooooooooooooooooooooo.    oX    Xoooooooooooooooooooooooo",
"oooooooooooooooooooooooo            oooooooooooooooooooooooo",
"oooooooooooooooooooooooX            oooooooooooooooooooooooo",
"oooooooooooooooooooooooX            oooooooooooooooooooooooo",
"oooooooooooooooooooooooo           .oooooooooooooooooooooooo",
"oooooooooooooooooooooooo.          Xoooooooooooooooooooooooo",
"ooooooooooooooooooooooooo          ooooooooooooooooooooooooo",
"oooooooooooooooooooooooooX        oooooooooooooooooooooooooo",
"oooooooooooooooooooooooooo.      Xoooooooooooooooooooooooooo",
"ooooooooooooooooooooooooooo     .ooooooooooooooooooooooooooo",
"oooooooooooooooooooooooooooo    oooooooooooooooooooooooooooo",
"ooooooooooooooooooooooooooooo  ooooooooooooooooooooooooooooo",
"oooooooooooooooooooooooooooooXoooooooooooooooooooooooooooooo",
"oooooooooooooo   .oo.   oooooooooooX   .oo    oooooooooooooo",
"ooooooooooooo     X.     oooooooooo     X     .ooooooooooooo",
"ooooooooooooo            oooooooooX            ooooooooooooo",
"ooooooooooooo            oooooooooX            ooooooooooooo",
"ooooooooooooo            oooooooooo            ooooooooooooo",
"ooooooooooooo.          .oooooooooo           Xooooooooooooo",
"oooooooooooooo          oooooooooooX          oooooooooooooo",
"oooooooooooooo.        .oooooooooooo.        Xoooooooooooooo",
"ooooooooooooooo        oooooooooooooo       .ooooooooooooooo",
"oooooooooooooooo      oooooooooooooooX      oooooooooooooooo",
"ooooooooooooooooX    XooooooooooooooooX    ooooooooooooooooo",
"oooooooooooooooooX  .oooooooooooooooooo.  oooooooooooooooooo",
"oooooooooooooooooo. oooooooooooooooooooo.Xoooooooooooooooooo",
"oooooooooooooooooooooooooooooooooooooooooooooooooooooooooooo",
"oooooooooooooooooooooooooooooooooooooooooooooooooooooooooooo",
"oooooooooooooooooooooooooooooooooooooooooooooooooooooooooooo",
"oooooooooooooooooooooooooooooooooooooooooooooooooooooooooooo",
"oooooooooooooooooooooooooooooooooooooooooooooooooooooooooooo",
"oooooooooooooooooooooooooooooooooooooooooooooooooooooooooooo",
"oooooooooooooooooooooooooooooooooooooooooooooooooooooooooooo",
"oooooooooooooooooooooooooooooooooooooooooooooooooooooooooooo",
"oooooooooooooooooooooooooooooooooooooooooooooooooooooooooooo",
"oooooooooooooooooooooooooooooooooooooooooooooooooooooooooooo",
"oooooooooooooooooooooooooooooooooooooooooooooooooooooooooooo",
"oooooooooooooooooooooooooooooooooooooooooooooooooooooooooooo",
"oooooooooooooooooooooooooooooooooooooooooooooooooooooooooooo",
"oooooooooooooooooooooooooooooooooooooooooooooooooooooooooooo",
"ooooooooooooooooooX oooooooooooooooooooo .oooooooooooooooooo",
"oooooooooooooooooX  .oooooooooooooooooo.  Xooooooooooooooooo",
"ooooooooooooooooo    XooooooooooooooooX    Xoooooooooooooooo",
"oooooooooooooooo      XooooooooooooooX      oooooooooXoooooo",
"ooooooooooooooo.       oooooooooooooo        oooooooX  ooooo",
"ooooooooooooooX        .oooooooooooo.        .oooooo    oooo",
"oooooooooooooo          XooooooooooX          ooooo.    Xooo",
"oooooooooooooX           oooooooooo           .oooo     .ooo",
"ooooooooooooo            oooooooooo            oooo  .  Xooo",
"ooooooooooooo            Xooooooooo            oooooXooXoooo",
"ooooooooooooo            Xooooooooo            ooooooooooooo",
"ooooooooooooo.     X     oooooooooo     XX    .ooooooo ooooo",
"oooooooooooooo    ooX   Xooooooooooo   Xoo.  .oooooooo ooooo",
"oooooooooooooooooooooooooooooooooooooooooooooooooooooX.ooooo",
"ooooooooooooooooooooooooooooooooooooooooooooooooooooo.Xooooo",
"ooooooooooooooooooooooooooooooooooooooooooooooooooooo oooooo",
"ooooooooooooooooooooooooooooooooooooooooooooooooooooX.oooooo",
"oooooooooooooooooooooooooooooooooooooooooooooooooooo ooo.ooo",
"ooooooooooooooooooooooooooooooooooooooooooooooooooo.Xooo ooo",
"ooooooooooooooooooooooooooooooooooooooooooooooooooo     .ooo",
"oooooooooooooooooooooooooooooooooooooooooooooooooooooooooooo",
"oooooooooooooooooooooooooooooooooooooooooooooooooooooooooooo",
"oooooooooooooooooooooooooooooooooooooooooooooooooooooooooooo",
"oooooooooooooooooooooooooooooooooooooooooooooooooooooooooooo",
"oooooooooooooooooooooooooooooooooooooooooooooooooooooooooooo"
};
