/* XPM */
static char *result[] = {
/* columns rows colors chars-per-pixel */
"60 91 4 1 ",
"  c black",
". c #808080",
"X c #C0C0C0",
"o c white",
/* pixels */
"oooooooooooooooooooooooooooooooooooooooooooooooooooooooooooo",
"oooooooooooooooooooooooooooooooooooooooooooooooooooooooooooo",
"oooooooooooooooooooooooooooooooooooooooooooooooooooooooooooo",
"oooooooooooooooooooooooooooooooooooooooooooooooooooooooooooo",
"oooooooooooooooooooooooooooooooooooooooooooooooooooooooooooo",
"ooo     .ooooooooooooooooooooooooooooooooooooooooooooooooooo",
"ooo.ooo Xooooooooooooooooooooooooooooooooooooooooooooooooooo",
"oooXoo..oooooooooooooooooooooooooooooooooooooooooooooooooooo",
"oooooo ooooooooooooooooooooooooooooooooooooooooooooooooooooo",
"ooooo..ooooooooooooooooooooooooooooooooooooooooooooooooooooo",
"ooooo oooooooooooooooooooooooooooooooooooooooooooooooooooooo",
"ooooo oooooooooooX Xoooooooooooooooooooo. oooooooooooooooooo",
"ooooX.ooooooooooo   oooooooooooooooooooX   ooooooooooooooooo",
"oooo..oooooooooo     oooooooooooooooooo    .oooooooooooooooo",
"ooooooooooooooo.     .oooooooooooooooo      Xooooooooooooooo",
"ooooo.ooooooooX       .oooooooooooooo.       ooooooooooooooo",
"oooo. Xooooooo         Xoooooooooooo.         oooooooooooooo",
"ooo.   oooooo           oooooooooooo          .ooooooooooooo",
"ooo     ooooX           Xoooooooooo.           ooooooooooooo",
"ooo     oooo.           .oooooooooo            ooooooooooooo",
"ooo.X..XooooX           Xoooooooooo.           ooooooooooooo",
"oooooXooooooo    X o    oooooooooooo    X..   .ooooooooooooo",
"oooooooooooooo. Xo oX .oooooooooooooX  oX o. .oooooooooooooo",
"oooooooooooooooooX .oooooooooooooooooooo. oooooooooooooooooo",
"ooooooooooooooooo. .oooooooooXoooooooooo  Xooooooooooooooooo",
"ooooooooooooooooooooooooooooo  ooooooooooooooooooooooooooooo",
"oooooooooooooooooooooooooooo   .oooooooooooooooooooooooooooo",
"ooooooooooooooooooooooooooo.    Xooooooooooooooooooooooooooo",
"ooooooooooooooooooooooooooX      ooooooooooooooooooooooooooo",
"oooooooooooooooooooooooooo        oooooooooooooooooooooooooo",
"ooooooooooooooooooooooooo          ooooooooooooooooooooooooo",
"oooooooooooooooooooooooo.          Xoooooooooooooooooooooooo",
"oooooooooooooooooooooooo            oooooooooooooooooooooooo",
"oooooooooooooooooooooooo            oooooooooooooooooooooooo",
"oooooooooooooooooooooooo            oooooooooooooooooooooooo",
"ooooooooooooooooooooooooX   ..X    ooooooooooooooooooooooooo",
"oooooooooooooooooooooooooX.Xo .o..oooooooooooooooooooooooooo",
"ooooooooooooooooooooooooooooo  ooooooooooooooooooooooooooooo",
"oooooooooooooooooo.oooooooooX..oooooooooo.oooooooooooooooooo",
"ooooooooooooooooo. .oooooooooooooooooooo  Xooooooooooooooooo",
"ooooooooooooooooX   Xoooooooooooooooooo.   ooooooooooooooooo",
"oooooooooooooooo     oooooooooooooooooX     oooooooooooooooo",
"ooooooooooooooo       oooooooooooooooo      .ooooooooooooooo",
"oooooooooooooo         oooooooooooooo        .oooooooooooooo",
"ooooooooooooo.         .oooooooooooo          Xooooooooooooo",
"ooooooooooooo           oooooooooooX           ooooooooooooo",
"oooooooooooo.           .oooooooooo.           ooooooooooooo",
"oooooooooooo.           .oooooooooo            ooooooooooooo",
"ooooooooooooX           Xoooooooooo.    .      ooooooooooooo",
"ooooooooooooo.   o o   .oooooooooooo    o X   Xooooooooooooo",
"ooooooooooooooXXoo ooXXooooooooooooooXXo. ooXooooooooooooooo",
"ooooooooooooooooo. .oooooooooooooooooooo  Xooooooooooooooooo",
"oooooooooooooooooXXXooooooooooooooooooooXXXooooooooooooooooo",
"oooooooooooooooooooooooooooooooooooooooooooooooooooooooooooo",
"oooooooooooooooooooooooooooooooooooooooooooooooooooooooooooo",
"oooooooooooooooooooooooooooooooooooooooooooooooooooooooooooo",
"oooooooooooooooooooooooooooooooooooooooooooooooooooooooooooo",
"oooooooooooooooooooooooooooooooooooooooooooooooooooooooooooo",
"oooooooooooooooooooooooooooooooooooooooooooooooooooooooooooo",
"oooooooooooooooooooooooooooooooooooooooooooooooooooooooooooo",
"oooooooooooooooooooooooooooooooooooooooooooooooooooooooooooo",
"oooooooooooooooooooooooooooooooooooooooooooooooooooooooooooo",
"oooooooooooooooooooooooooooooooooooooooooooooooooooooooooooo",
"oooooooooooooooooooooooooooooooooooooooooooooooooooooooooooo",
"oooooooooooooooooooooooooooooooooooooooooooooooooooooooooooo",
"oooooooooooooooooooooooooooooooooooooooooooooooooooooooooooo",
"ooooooooooooooooo. .oooooooooooooooooooo  Xooooooooooooooooo",
"oooooooooooooooooX Xoooooooooooooooooooo. oooooooooooooooooo",
"oooooooooooooX  .o o.  Xoooooooooooo.  XX o   oooooooooooooo",
"ooooooooooooo    . .    oooooooooooX    X.     ooooooo.ooooo",
"oooooooooooo.           .oooooooooo            ooooo... Xooo",
"oooooooooooo.           .oooooooooo            ooooX     ooo",
"ooooooooooooX           ooooooooooo.           ooooo    .ooo",
"ooooooooooooo           oooooooooooo          XoooooX   oooo",
"oooooooooooooo         oooooooooooooX        .ooooooo. ooooo",
"ooooooooooooooo       ooooooooooooooo.       ooooooooooooooo",
"oooooooooooooooX     Xoooooooooooooooo.     ooooooooooXooooo",
"oooooooooooooooo.   .oooooooooooooooooo    Xoooooooooo ooooo",
"ooooooooooooooooo   oooooooooooooooooooo  .ooooooooooo ooooo",
"oooooooooooooooooo oooooooooooooooooooooX oooooooooooX.ooooo",
"ooooooooooooooooooooooooooooooooooooooooooooooooooooo Xooooo",
"ooooooooooooooooooooooooooooooooooooooooooooooooooooo oooooo",
"oooooooooooooooooooooooooooooooooooooooooooooooooooo..oooooo",
"oooooooooooooooooooooooooooooooooooooooooooooooooooo ooo.ooo",
"ooooooooooooooooooooooooooooooooooooooooooooooooooo .XXX ooo",
"ooooooooooooooooooooooooooooooooooooooooooooooooooo.    .ooo",
"oooooooooooooooooooooooooooooooooooooooooooooooooooooooooooo",
"oooooooooooooooooooooooooooooooooooooooooooooooooooooooooooo",
"oooooooooooooooooooooooooooooooooooooooooooooooooooooooooooo",
"oooooooooooooooooooooooooooooooooooooooooooooooooooooooooooo",
"oooooooooooooooooooooooooooooooooooooooooooooooooooooooooooo"
};
