/* XPM */
static char *result[] = {
/* columns rows colors chars-per-pixel */
"60 91 5 1 ",
"  c black",
". c #808000",
"X c #808080",
"o c #C0C0C0",
"O c white",
/* pixels */
"OOOOOOOOOOOOOOOOOOOOOOOOOOOOOOOOOOOOOOOOOOOOOOOOOOOOOOOOOOOO",
"OOOOOOOOOOOOOOOOOOOOOOOOOOOOOOOOOOOOOOOOOOOOOOOOOOOOOOOOOOOO",
"OOOOOOOOOOOOOOOOOOOOOOOOOOOOOOOOOOOOOOOOOOOOOOOOOOOOOOOOOOOO",
"OOOOOOOOOOOOOOOOOOOOOOOOOOOOOOOOOOOOOOOOOOOOOOOOOOOOOOOOOOOO",
"OOOOOooOOOOOOOOOOOOOOOOOOOOOOOOOOOOOOOOOOOOOOOOOOOOOOOOOOOOO",
"OOOO X  OOOOOOOOOOOOOOOOOOOOOOOOOOOOOOOOOOOOOOOOOOOOOOOOOOOO",
"OOOXXOOXoOOOOOOOOOOOOOOOOOOOOOOOOOOOOOOOOOOOOOOOOOOOOOOOOOOO",
"OOOXoOOXXOOOOOOOOOOOOOOOOOOOOOOOOOOOOOOOOOOOOOOOOOOOOOOOOOOO",
"OOOo Oo OOOOOOOOOOOOOOOOOOOOOOOOOOOOOOOOOOOOOOOOOOOOOOOOOOOO",
"OOOO    OOOOOOOOOOOOOOOOOOOOOOOOOOOOOOOOOOOOOOOOOOOOOOOOOOOO",
"OOOXoOOo OOOOOOOOOOOOOOOOOOOOOOOOOOOOOOOOOOOOOOOOOOOOOOOOOOO",
"OOO OOOO OOOOOOOOOOOOOOOOOOOOOOOOOOOOOOOOOOOOOOOOOOOOOOOOOOO",
"OOO oOOO OOOOOOX   OOOOOOOOOOOOOOOOOOOOOo   oOOOOOOOOOOOOOOO",
"OOOO XX OOOOOOX     OOOOOOOOOOOOOOOOOOOo     XOOOOOOOOOOOOOO",
"OOOOOooOOOOOOO      XOOOOOOOOOOOOOOOOOOX      OOOOOOOOOOOOOO",
"OOOOOXXOOOOOOO      XOOOOOOOOOOOOOOOOOO       OOOOOOOOOOOOOO",
"OOOOX  oOOOOOO.     OOOOOOOOOOOOOOOOOOOo     XOOOOOOOOOOOOOO",
"OOOOo  OOOOOOoO    XoOOOOOOOOOOOOOOOOOoOX   XOoOOOOOOOOOOOOO",
"OOOX    XOOo           OOOOOOOOOOOOOO           OOOOOOOOOOOO",
"OOO     XOO            oOOOOOOOOOOOOX            OOOOOOOOOOO",
"OOOOXXoXOOo            XOOOOOOOOOOOO             OOOOOOOOOOO",
"OOOOOooOOOo            XOOOOOOOOOOOO             OOOOOOOOOOO",
"OOOOOOOOOOO     oXX    oOOOOOOOOOOOOX    o o    XOOOOOOOOOOO",
"OOOOOOOOOOOO   oo O   oOOOOOOOOOOOOOOX  XO OX  XOOOOOOOOOOOO",
"OOOOOOOOOOOOOOOO  oOOOOOOOOOOOOOOOOOOOOOOX XOOOOOOOOOOOOOOOO",
"OOOOOOOOOOOOOOOo  XOOOOOOOOOoXXOOOOOOOOOO   OOOOOOOOOOOOOOOO",
"OOOOOOOOOOOOOOOoOOoOOOOOOOOX    XOOOOOOOOoOoOOOOOOOOOOOOOOOO",
"OOOOOOOOOOOOOOOOOOOOOOOOOOo      OOOOOOOOOOOOOOOOOOOOOOOOOOO",
"OOOOOOOOOOOOOOOOOOOOOOOOOOX      oOOOOOOOOOOOOOOOOOOOOOOOOOO",
"OOOOOOOOOOOOOOOOOOOOOOOOOOo      OOOOOOOOOOOOOOOOOOOOOOOOOOO",
"OOOOOOOOOOOOOOOOOOOOOOOOOOOX    oOOOOOOOOOOOOOOOOOOOOOOOOOOO",
"OOOOOOOOOOOOOOOOOOOOOOOOo  X    X XOOOOOOOOOOOOOOOOOOOOOOOOO",
"OOOOOOOOOOOOOOOOOOOOOOOO            OOOOOOOOOOOOOOOOOOOOOOOO",
"OOOOOOOOOOOOOOOOOOOOOOOX            oOOOOOOOOOOOOOOOOOOOOOOO",
"OOOOOOOOOOOOOOOOOOOOOOOX            oOOOOOOOOOOOOOOOOOOOOOOO",
"OOOOOOOOOOOOOOOOOOOOOOOo     XX     OOOOOOOOOOOOOOOOOOOOOOOO",
"OOOOOOOOOOOOOOOOOOOOOOOOX   oXoX   XOOOOOOOOOOOOOOOOOOOOOOOO",
"OOOOOOOOOOOOOOOOOOOOOOOOOoXoO .OoXoOOOOOOOOOOOOOOOOOOOOOOOOO",
"OOOOOOOOOOOOOOOOXXoOOOOOOOOOo  OOOOOOOOOOoXoOOOOOOOOOOOOOOOO",
"OOOOOOOOOOOOOOo    XOOOOOOOOXXXoOOOOOOOO     OOOOOOOOOOOOOOO",
"OOOOOOOOOOOOOO      oOOOOOOOOOOOOOOOOOOX     XOOOOOOOOOOOOOO",
"OOOOOOOOOOOOOO      XOOOOOOOOOOOOOOOOOO       OOOOOOOOOOOOOO",
"OOOOOOOOOOOOOO      oOOOOOOOOOOOOOOOOOOX     XOOOOOOOOOOOOOO",
"OOOOOOOOOOOOOOo     OOOOOOOOOOOOOOOOOOOO     OOOOOOOOOOOOOOO",
"OOOOOOOOOOOOX X    X .OOOOOOOOOOOOOOOo  X   X. oOOOOOOOOOOOO",
"OOOOOOOOOOO            OOOOOOOOOOOOOo           XOOOOOOOOOOO",
"OOOOOOOOOOO            XOOOOOOOOOOOO             OOOOOOOOOOO",
"OOOOOOOOOOo            XOOOOOOOOOOOO             OOOOOOOOOOO",
"OOOOOOOOOOO     XX     XOOOOOOOOOOOOX    X X    .OOOOOOOOOOO",
"OOOOOOOOOOOX    oXX    OOOOOOOOOOOOOO    O O    OOOOOOOOOOOO",
"OOOOOOOOOOOOoXXOX OoXXOOOOOOOOOOOOOOOOXXOo oOXXOOOOOOOOOOOOO",
"OOOOOOOOOOOOOOOO  XOOOOOOOOOooooOOOOOOOOO.  OOOOOOOOOOOOOOOO",
"OOOOOOOOOOOOOOOoXXXOOOOOOOOOX  oOOOOOOOOO.X.OOOOOOOOOOOOOOOO",
"OOOOOOOOOOOOOOOOOOOOOOOOOOOOO  OOOOOOOOOOOOOOOOOOOOOOOOOOOOO",
"OOOOOOOOOOOOOOOOOOOOOOOOX   O oo   OOOOOOOOOOOOOOOOOOOOOOOOO",
"OOOOOOOOOOOOOOOOOOOOOOOO     XX     OOOOOOOOOOOOOOOOOOOOOOOO",
"OOOOOOOOOOOOOOOOOOOOOOOX            oOOOOOOOOOOOOOOOOOOOOOOO",
"OOOOOOOOOOOOOOOOOOOOOOOX            oOOOOOOOOOOOOOOOOOOOOOOO",
"OOOOOOOOOOOOOOOOOOOOOOOo            OOOOOOOOOOOOOOOOOOOOOOOO",
"OOOOOOOOOOOOOOOOOOOOOOOOX          oOOOOOOOOOOOOOOOOOOOOOOOO",
"OOOOOOOOOOOOOOOOOOOOOOOOOOOo    OOOOOOOOOOOOOOOOOOOOOOOOOOOO",
"OOOOOOOOOOOOOOOOOOOOOOOOOOO      OOOOOOOOOOOOOOOOOOOOOOOOOOO",
"OOOOOOOOOOOOOOOOOOOOOOOOOOX      oOOOOOOOOOOOOOOOOOOOOOOOOOO",
"OOOOOOOOOOOOOOOOOOOOOOOOOOo      OOOOOOOOOOOOOOOOOOOOOOOOOOO",
"OOOOOOOOOOOOOOOOOOOOOOOOOOO     XOOOOOOOOOOOOOOOOOOOOOOOOOOO",
"OOOOOOOOOOOOOOOo   OOOOOOOOOX  XOOOOOOOOO   OOOOOOOOOOOOOOOO",
"OOOOOOOOOOOOOOOO  oOOOOOOOOOOOOOOOOOOOOOOX XOOOOOOOOOOOOOOOO",
"OOOOOOOOOOOOX XOX OX XOOOOOOOOOOOOOOOo. oO Oo  oOOOOOOOOOOOO",
"OOOOOOOOOOOX    oXX    OOOOOOOOOOOOOo    O o    oOOOOOOOOOOO",
"OOOOOOOOOOO      X     XOOOOOOOOOOOO             OOOOooOOOOO",
"OOOOOOOOOOo            XOOOOOOOOOOOO             OOOXXXXOOOO",
"OOOOOOOOOOO            XOOOOOOOOOOOO             OO     XOOO",
"OOOOOOOOOOOX           OOOOOOOOOOOOOo           oOOX    XOOO",
"OOOOOOOOOOOOoXo    oXXOOOOOOOOOOOOOOOoXXX   XXXoOOOOo  OOOOO",
"OOOOOOOOOOOOOOX     OOOOOOOOOOOOOOOOOOOo     oOOOOOOX  oOOOO",
"OOOOOOOOOOOOOO      XOOOOOOOOOOOOOOOOOO.     .OOOOOOOXXOOOOO",
"OOOOOOOOOOOOOO      XOOOOOOOOOOOOOOOOOO       OOOOOOOooOOOOO",
"OOOOOOOOOOOOOO      oOOOOOOOOOOOOOOOOOOX     XOOOOOX XX OOOO",
"OOOOOOOOOOOOOOO    XOOOOOOOOOOOOOOOOOOOOX   XOOOOOO OOOXoOOO",
"OOOOOOOOOOOOOOOOOoOOOOOOOOOOOOOOOOOOOOOOOOoOOOOOOOoXOOOoXOOO",
"OOOOOOOOOOOOOOOOOOOOOOOOOOOOOOOOOOOOOOOOOOOOOOOOOOO OOO oOOO",
"OOOOOOOOOOOOOOOOOOOOOOOOOOOOOOOOOOOOOOOOOOOOOOOOOOOO   XOOOO",
"OOOOOOOOOOOOOOOOOOOOOOOOOOOOOOOOOOOOOOOOOOOOOOOOOOOXXOo OOOO",
"OOOOOOOOOOOOOOOOOOOOOOOOOOOOOOOOOOOOOOOOOOOOOOOOOOO OOOXoOOO",
"OOOOOOOOOOOOOOOOOOOOOOOOOOOOOOOOOOOOOOOOOOOOOOOOOOOXoOO OOOO",
"OOOOOOOOOOOOOOOOOOOOOOOOOOOOOOOOOOOOOOOOOOOOOOOOOOOO X XOOOO",
"OOOOOOOOOOOOOOOOOOOOOOOOOOOOOOOOOOOOOOOOOOOOOOOOOOOOOoOOOOOO",
"OOOOOOOOOOOOOOOOOOOOOOOOOOOOOOOOOOOOOOOOOOOOOOOOOOOOOOOOOOOO",
"OOOOOOOOOOOOOOOOOOOOOOOOOOOOOOOOOOOOOOOOOOOOOOOOOOOOOOOOOOOO",
"OOOOOOOOOOOOOOOOOOOOOOOOOOOOOOOOOOOOOOOOOOOOOOOOOOOOOOOOOOOO",
"OOOOOOOOOOOOOOOOOOOOOOOOOOOOOOOOOOOOOOOOOOOOOOOOOOOOOOOOOOOO"
};
