/* XPM */
static char *result[] = {
/* columns rows colors chars-per-pixel */
"60 91 4 1 ",
"  c red",
". c #808080",
"X c #C0C0C0",
"o c white",
/* pixels */
"oooooooooooooooooooooooooooooooooooooooooooooooooooooooooooo",
"oooooooooooooooooooooooooooooooooooooooooooooooooooooooooooo",
"oooooooooooooooooooooooooooooooooooooooooooooooooooooooooooo",
"oooooooooooooooooooooooooooooooooooooooooooooooooooooooooooo",
"oooooooooooooooooooooooooooooooooooooooooooooooooooooooooooo",
"oooX  Xooooooooooooooooooooooooooooooooooooooooooooooooooooo",
"ooX oo ooooooooooooooooooooooooooooooooooooooooooooooooooooo",
"oo XooXXoooooooooooooooooooooooooooooooooooooooooooooooooooo",
"oo..oo Xoooooooooooooooooooooooooooooooooooooooooooooooooooo",
"ooo    ooooooooooooooooooooooooooooooooooooooooooooooooooooo",
"ooo XX Xoooooooooooooooooooooooooooooooooooooooooooooooooooo",
"oo Xooo oooooooooooooooooooooooooooooooooooooooooooooooooooo",
"oo Xooo ooooooooo.oooooooooooooooooooooo .oooooooooooooooooo",
"ooX Xo .ooooooooX  ooooooooooooooooooooX  Xooooooooooooooooo",
"oooX  Xooooooooo    ooooooooooooooooooo    Xoooooooooooooooo",
"ooooooooooooooo     .ooooooooooooooooo      oooooooooooooooo",
"ooooX oooooooo       Xooooooooooooooo        ooooooooooooooo",
"oooo  .ooooooX        oooooooooooooo.         oooooooooooooo",
"ooo    Xooooo          ooooooooooooX           ooooooooooooo",
"ooo    Xoooo            ooooooooooo            ooooooooooooo",
"oooo  Xooooo           .oooooooooooX          Xooooooooooooo",
"ooooo ooooooo          oooooooooooooX        .oooooooooooooo",
"oooooooooooooX        ooooooooooooooo.       ooooooooooooooo",
"ooooooooooooooX      ooooooooooooooooo      oooooooooooooooo",
"ooooooooooooooo.    Xoooooooooooooooooo    ooooooooooooooooo",
"oooooooooooooooo   .ooooooooo oooooooooo  Xooooooooooooooooo",
"ooooooooooooooooo  ooooooooo   oooooooooX oooooooooooooooooo",
"oooooooooooooooooooooooooooX    oooooooooooooooooooooooooooo",
"ooooooooooooooooooooooooooX      ooooooooooooooooooooooooooo",
"oooooooooooooooooooooooooo       Xoooooooooooooooooooooooooo",
"ooooooooooooooooooooooooo         Xooooooooooooooooooooooooo",
"oooooooooooooooooooooooo           ooooooooooooooooooooooooo",
"oooooooooooooooooooooooX            oooooooooooooooooooooooo",
"oooooooooooooooooooooooo           ooooooooooooooooooooooooo",
"ooooooooooooooooooooooooo         Xooooooooooooooooooooooooo",
"oooooooooooooooooooooooooo       Xoooooooooooooooooooooooooo",
"ooooooooooooooooooooooooooX      ooooooooooooooooooooooooooo",
"oooooooooooooooooooooooooooX    oooooooooooooooooooooooooooo",
"oooooooooooooooooX.ooooooooo.  oooooooooX oooooooooooooooooo",
"ooooooooooooooooo  Xooooooooo Xooooooooo   ooooooooooooooooo",
"oooooooooooooooo    Xoooooooooooooooooo     oooooooooooooooo",
"ooooooooooooooo.     ooooooooooooooooo       ooooooooooooooo",
"ooooooooooooooX       oooooooooooooooX       .oooooooooooooo",
"oooooooooooooo         oooooooooooooX         Xooooooooooooo",
"ooooooooooooo           oooooooooooo           Xoooooooooooo",
"oooooooooooo            Xoooooooooo.           Xoooooooooooo",
"ooooooooooooX           oooooooooooo          .ooooooooooooo",
"ooooooooooooo.         oooooooooooooo         oooooooooooooo",
"oooooooooooooo.       Xooooooooooooooo       ooooooooooooooo",
"ooooooooooooooo      Xooooooooooooooooo     Xooooooooooooooo",
"oooooooooooooooo     ooooooooooooooooooX   .oooooooooooooooo",
"ooooooooooooooooo   ooooooooo. oooooooooX  ooooooooooooooooo",
"oooooooooooooooooX oooooooooX  .ooooooooo oooooooooooooooooo",
"oooooooooooooooooooooooooooo    Xooooooooooooooooooooooooooo",
"ooooooooooooooooooooooooooo      ooooooooooooooooooooooooooo",
"oooooooooooooooooooooooooo        oooooooooooooooooooooooooo",
"ooooooooooooooooooooooooo.         ooooooooooooooooooooooooo",
"ooooooooooooooooooooooooX           oooooooooooooooooooooooo",
"oooooooooooooooooooooooo            oooooooooooooooooooooooo",
"ooooooooooooooooooooooooX          Xoooooooooooooooooooooooo",
"oooooooooooooooooooooooooX        .ooooooooooooooooooooooooo",
"oooooooooooooooooooooooooo.       oooooooooooooooooooooooooo",
"ooooooooooooooooooooooooooo      ooooooooooooooooooooooooooo",
"oooooooooooooooooooooooooooo    Xooooooooooooooooooooooooooo",
"oooooooooooooooooo oooooooooo  Xooooooooo  ooooooooooooooooo",
"ooooooooooooooooo   oooooooooo ooooooooo   .oooooooooooooooo",
"ooooooooooooooooX    oooooooooooooooooo.    Xooooooooooooooo",
"oooooooooooooooX      ooooooooooooooooX      Xoooooooooooooo",
"ooooooooooooooo       .ooooooooooooooo        oooooooooooooo",
"oooooooooooooo         Xooooooooooooo          ooooooo ooooo",
"ooooooooooooo.          Xooooooooooo            ooooo   oooo",
"ooooooooooooX            ooooooooooo            oooo     ooo",
"ooooooooooooo           ooooooooooooo          oooooX   .ooo",
"oooooooooooooo         XoooooooooooooX        ooooooo.  oooo",
"ooooooooooooooo       .oooooooooooooooX      Xoooooooo ooooo",
"oooooooooooooooo      ooooooooooooooooo.     ooooooooooooooo",
"ooooooooooooooooX    ooooooooooooooooooo    ooooooooo   Xooo",
"ooooooooooooooooo.  ooooooooooooooooooooo  ooooooooo .oX ooo",
"oooooooooooooooooo XooooooooooooooooooooooXooooooooo oooX.oo",
"oooooooooooooooooooooooooooooooooooooooooooooooooooo ooo.Xoo",
"oooooooooooooooooooooooooooooooooooooooooooooooooooo. X. ooo",
"ooooooooooooooooooooooooooooooooooooooooooooooooooooo .  ooo",
"oooooooooooooooooooooooooooooooooooooooooooooooooooo.Xoo Xoo",
"oooooooooooooooooooooooooooooooooooooooooooooooooooo XooXXoo",
"ooooooooooooooooooooooooooooooooooooooooooooooooooooX oX ooo",
"oooooooooooooooooooooooooooooooooooooooooooooooooooooX  oooo",
"oooooooooooooooooooooooooooooooooooooooooooooooooooooooooooo",
"oooooooooooooooooooooooooooooooooooooooooooooooooooooooooooo",
"oooooooooooooooooooooooooooooooooooooooooooooooooooooooooooo",
"oooooooooooooooooooooooooooooooooooooooooooooooooooooooooooo",
"oooooooooooooooooooooooooooooooooooooooooooooooooooooooooooo"
};
