/* XPM */
static char *result[] = {
/* columns rows colors chars-per-pixel */
"60 91 4 1 ",
"  c red",
". c #808080",
"X c #C0C0C0",
"o c white",
/* pixels */
"oooooooooooooooooooooooooooooooooooooooooooooooooooooooooooo",
"oooooooooooooooooooooooooooooooooooooooooooooooooooooooooooo",
"oooooooooooooooooooooooooooooooooooooooooooooooooooooooooooo",
"oooooooooooooooooooooooooooooooooooooooooooooooooooooooooooo",
"ooooo.  oooooooooooooooooooooooooooooooooooooooooooooooooooo",
"oooo..oX ooooooooooooooooooooooooooooooooooooooooooooooooooo",
"oooo ooo Xoooooooooooooooooooooooooooooooooooooooooooooooooo",
"oooo ooo ooooooooooooooooooooooooooooooooooooooooooooooooooo",
"ooooo   Xooooooooooooooooooooooooooooooooooooooooooooooooooo",
"oooo  X. ooooooooooooooooooooooooooooooooooooooooooooooooooo",
"oooX ooo..oooooooooooooooooooooooooooooooooooooooooooooooooo",
"oooX ooo..oooooXXooooooooooooooooooooooooooooooooooooooooooo",
"oooo .oX ooooo    oo.   Xooooooooooooo..XooooXXooooooooooooo",
"ooooo.  ooooo      .     oooooooooooo     oX    oooooooooooo",
"oooooXooooooo            XooooooooooX           .ooooooooooo",
"oooo     Xooo            Xoooooooooo.            ooooooooooo",
"oooX     .ooo            ooooooooooo.            ooooooooooo",
"oooo     oooo.           oooooooooooX           .ooooooooooo",
"ooooX   .ooooo          Xoooooooooooo           oooooooooooo",
"ooooo.  ooooooX         oooooooooooooX         .oooooooooooo",
"oooooo.oooooooo        ooooooooooooooo         ooooooooooooo",
"oooooooooooooooo      ooooooooooooooooo       oooooooooooooo",
"ooooooooooooooooo    XoooooooooooooooooX     Xoooooooooooooo",
"oooooooooooooooooX  Xooooooooooooooooooo.   Xooooooooooooooo",
"oooooooooooooooooo.Xooooooooooooooooooooo  .oooooooooooooooo",
"ooooooooooooooooooooooooooX.XooooXXoooooooXooooooooooooooooo",
"ooooooooooooooooooooooooo    .oX    oooooooooooooooooooooooo",
"ooooooooooooooooooooooooX     .     Xooooooooooooooooooooooo",
"oooooooooooooooooooooooo             ooooooooooooooooooooooo",
"oooooooooooooooooooooooo             ooooooooooooooooooooooo",
"ooooooooooooooooooooooooX           Xooooooooooooooooooooooo",
"ooooooooooooooooooooooooo           oooooooooooooooooooooooo",
"ooooooooooooooooooooooooo.         .oooooooooooooooooooooooo",
"oooooooooooooooooooooooooo         ooooooooooooooooooooooooo",
"ooooooooooooooooooooooooooX       oooooooooooooooooooooooooo",
"ooooooooooooooooooooooooooo.     Xoooooooooooooooooooooooooo",
"oooooooooooooooooooooooooooo    Xooooooooooooooooooooooooooo",
"ooooooooooooooooooooooooooooo  Xoooooooooooooooooooooooooooo",
"ooooooooooooooXXoooooooooooooo.ooooooooooooooooooooooooooooo",
"ooooooooooooo    XoX   .ooooooooooooo. .ooooXXoooooooooooooo",
"oooooooooooo.     .     Xooooooooooo     oX    Xoooooooooooo",
"oooooooooooo            .ooooooooooX            oooooooooooo",
"oooooooooooo            .ooooooooooX            oooooooooooo",
"oooooooooooo            XooooooooooX            oooooooooooo",
"ooooooooooooX           oooooooooooo            oooooooooooo",
"ooooooooooooo          Xoooooooooooo           Xoooooooooooo",
"oooooooooooooo         oooooooooooooo          ooooooooooooo",
"oooooooooooooo.       ooooooooooooooo.        oooooooooooooo",
"ooooooooooooooo      ooooooooooooooooo       ooooooooooooooo",
"oooooooooooooooo    Xoooooooooooooooooo     Xooooooooooooooo",
"ooooooooooooooooo  XoooooooooooooooooooX   .oooooooooooooooo",
"oooooooooooooooooXXooooooooooooooooooooo. .ooooooooooooooooo",
"oooooooooooooooooooooooooooooXoooooooooooXoooooooooooooooooo",
"ooooooooooooooooooooooooooooX .ooooooooooooooooooooooooooooo",
"oooooooooooooooooooooooooooo   Xoooooooooooooooooooooooooooo",
"ooooooooooooooooooooooooooo     Xooooooooooooooooooooooooooo",
"oooooooooooooooooooooooooo       ooooooooooooooooooooooooooo",
"ooooooooooooooooooooooooo         oooooooooooooooooooooooooo",
"ooooooooooooooooooooooooX         Xooooooooooooooooooooooooo",
"oooooooooooooooooooooooo           ooooooooooooooooooooooooo",
"oooooooooooooooooooooooX           Xoooooooooooooooooooooooo",
"ooooooooooooooooooooooo            .oooooooooooooooooooooooo",
"ooooooooooooooooooooooo             oooooooooooooooooooooooo",
"ooooooooooooooooooooooo.           .oooooooooooooooooooooooo",
"oooooooooooooooooooooooo     o     ooooooooooooooooooooooooo",
"ooooooooooooooooooooooooo..Xooo.  Xooooooooooooooooooooooooo",
"ooooooooooooooooX XooooooooooooooooooooooXoooooooooooooooooo",
"oooooooooooooooX   ooooooooooooooooooooo  oooooooooooooooooo",
"ooooooooooooooo     ooooooooooooooooooo    ooooooooooooooooo",
"oooooooooooooo       ooooooooooooooooo      oooooooooooooooo",
"ooooooooooooo        Xooooooooooooooo       XooooooooXoooooo",
"ooooooooooooX         oooooooooooooo.        ooooooo  Xooooo",
"oooooooooooo           ooooooooooooo          ooooo    ooooo",
"ooooooooooo.           oooooooooooo           XoooX    .oooo",
"ooooooooooo            Xooooooooooo            ooo      oooo",
"ooooooooooo            .ooooooooooX            ooo.     oooo",
"ooooooooooo            XooooooooooX            oooooooXooooo",
"oooooooooooX     o     oooooooooooX            ooooX  .ooooo",
"ooooooooooooX  Xooo   Xoooooooooooo     oX    XoooX Xo  oooo",
"ooooooooooooooooooooooooooooooooooooXXXoooX..Xoooo Xooo oooo",
"oooooooooooooooooooooooooooooooooooooooooooooooooo Xooo oooo",
"ooooooooooooooooooooooooooooooooooooooooooooooooooo XX .oooo",
"ooooooooooooooooooooooooooooooooooooooooooooooooooo    ooooo",
"ooooooooooooooooooooooooooooooooooooooooooooooooooX ooX.oooo",
"ooooooooooooooooooooooooooooooooooooooooooooooooooX.ooo oooo",
"ooooooooooooooooooooooooooooooooooooooooooooooooooo oo Xoooo",
"oooooooooooooooooooooooooooooooooooooooooooooooooooo  Xooooo",
"oooooooooooooooooooooooooooooooooooooooooooooooooooooooooooo",
"oooooooooooooooooooooooooooooooooooooooooooooooooooooooooooo",
"oooooooooooooooooooooooooooooooooooooooooooooooooooooooooooo",
"oooooooooooooooooooooooooooooooooooooooooooooooooooooooooooo"
};
