/* XPM */
static char *result[] = {
/* columns rows colors chars-per-pixel */
"60 91 4 1 ",
"  c black",
". c #808080",
"X c #C0C0C0",
"o c white",
/* pixels */
"oooooooooooooooooooooooooooooooooooooooooooooooooooooooooooo",
"oooooooooooooooooooooooooooooooooooooooooooooooooooooooooooo",
"oooooooooooooooooooooooooooooooooooooooooooooooooooooooooooo",
"oooooooooooooooooooooooooooooooooooooooooooooooooooooooooooo",
"oooooooooooooooooooooooooooooooooooooooooooooooooooooooooooo",
"ooo   Xooooooooooooooooooooooooooooooooooooooooooooooooooooo",
"oo .oo ooooooooooooooooooooooooooooooooooooooooooooooooooooo",
"oo ooo.Xoooooooooooooooooooooooooooooooooooooooooooooooooooo",
"oo..oo ooooooooooooooooooooooooooooooooooooooooooooooooooooo",
"ooo   .ooooooooooooooooooooooooooooooooooooooooooooooooooooo",
"oo..oo .oooooooooooooooooooooooooooooooooooooooooooooooooooo",
"oo oooo ooooooooo. ooooooooooooooooooooo  oooooooooooooooooo",
"oo oooo ooooooooX   ooooooooooooooooooo.  .ooooooooooooooooo",
"oo. XX Xoooooooo    .oooooooooooooooooX    Xoooooooooooooooo",
"oooX..ooooooooo      Xoooooooooooooooo      oooooooooooooooo",
"oooooooooooooo.       ooooooooooooooo        ooooooooooooooo",
"oooo  oooooooX         ooooooooooooo         .oooooooooooooo",
"ooo.   oooooo          .ooooooooooo.          Xooooooooooooo",
"ooX    Xoooo.           ooooooooooo            ooooooooooooo",
"oo.    .oooo            Xoooooooooo            ooooooooooooo",
"ooo....ooooo.           ooooooooooo            ooooooooooooo",
"ooooXXooooooX    X..    ooooooooooo.    .X    Xooooooooooooo",
"oooooooooooooX  oX o. .ooooooooooooo. .o..o. Xoooooooooooooo",
"ooooooooooooooooo. ooooooooooooooooooooo  oooooooooooooooooo",
"ooooooooooooooooo  XoooooooooXoooooooooo  oooooooooooooooooo",
"ooooooooooooooooooooooooooooo .ooooooooooooooooooooooooooooo",
"oooooooooooooooooooooooooooo   Xoooooooooooooooooooooooooooo",
"ooooooooooooooooooooooooooo     oooooooooooooooooooooooooooo",
"oooooooooooooooooooooooooo.      ooooooooooooooooooooooooooo",
"oooooooooooooooooooooooooX       .oooooooooooooooooooooooooo",
"ooooooooooooooooooooooooo         .ooooooooooooooooooooooooo",
"oooooooooooooooooooooooo           ooooooooooooooooooooooooo",
"oooooooooooooooooooooooo           .oooooooooooooooooooooooo",
"oooooooooooooooooooooooX           .oooooooooooooooooooooooo",
"oooooooooooooooooooooooo           .oooooooooooooooooooooooo",
"oooooooooooooooooooooooo    X o    ooooooooooooooooooooooooo",
"ooooooooooooooooooooooooo..Xo Xo..oooooooooooooooooooooooooo",
"ooooooooooooooooooooooooooooX .ooooooooooooooooooooooooooooo",
"oooooooooooooooooo.oooooooooX..oooooooooXXoooooooooooooooooo",
"ooooooooooooooooo  Xoooooooooooooooooooo  oooooooooooooooooo",
"oooooooooooooooo.   ooooooooooooooooooo    ooooooooooooooooo",
"oooooooooooooooX     ooooooooooooooooo.    .oooooooooooooooo",
"ooooooooooooooo      .oooooooooooooooX      Xooooooooooooooo",
"oooooooooooooo        .oooooooooooooo        ooooooooooooooo",
"ooooooooooooo.         Xoooooooooooo          oooooooooooooo",
"ooooooooooooX           ooooooooooo.          .ooooooooooooo",
"oooooooooooo.           ooooooooooo            ooooooooooooo",
"oooooooooooo.           Xoooooooooo            ooooooooooooo",
"oooooooooooo.           ooooooooooo     ..     ooooooooooooo",
"ooooooooooooo    o o   .oooooooooooo   ....   oooooooooooooo",
"ooooooooooooooX.oX oo.Xoooooooooooooo.Xo. oX.ooooooooooooooo",
"ooooooooooooooooo  Xoooooooooooooooooooo  oooooooooooooooooo",
"ooooooooooooooooo..Xoooooooo.  oooooooooX.oooooooooooooooooo",
"ooooooooooooooooooooooooooooo .ooooooooooooooooooooooooooooo",
"ooooooooooooooooooooooooo. .o XX  Xooooooooooooooooooooooooo",
"oooooooooooooooooooooooo    . X    ooooooooooooooooooooooooo",
"oooooooooooooooooooooooo           .oooooooooooooooooooooooo",
"oooooooooooooooooooooooX           .oooooooooooooooooooooooo",
"oooooooooooooooooooooooo           .oooooooooooooooooooooooo",
"oooooooooooooooooooooooo.          ooooooooooooooooooooooooo",
"ooooooooooooooooooooooooo         Xooooooooooooooooooooooooo",
"oooooooooooooooooooooooooo       .oooooooooooooooooooooooooo",
"ooooooooooooooooooooooooooX      ooooooooooooooooooooooooooo",
"ooooooooooooooooooooooooooo.    oooooooooooooooooooooooooooo",
"oooooooooooooooooooooooooooo   ooooooooooooooooooooooooooooo",
"ooooooooooooooooooooooooooooo Xooooooooooooooooooooooooooooo",
"ooooooooooooooooo  .oooooooooooooooooooo  oooooooooooooooooo",
"ooooooooooooooooo. ooooooooooooooooooooo  oooooooooooooooooo",
"oooooooooooooX  .o o.  ooooooooooooo.  o..o  .oooooooooooooo",
"ooooooooooooX    X .    ooooooooooo.    ..    .ooooooXXooooo",
"oooooooooooo.           Xoooooooooo            ooooo... oooo",
"oooooooooooo.           Xoooooooooo            oooo.    .ooo",
"oooooooooooo.           ooooooooooo.           ooooX    Xooo",
"ooooooooooooo          .oooooooooooo          Xooooo.  .oooo",
"oooooooooooooo         ooooooooooooo.        .ooooooo  ooooo",
"ooooooooooooooX       ooooooooooooooo.       ooooooooooooooo",
"ooooooooooooooo.     Xoooooooooooooooo      ooooooooX  .oooo",
"oooooooooooooooo    .oooooooooooooooooo    ooooooooo oo. ooo",
"ooooooooooooooooo   oooooooooooooooooooX  Xoooooooo.Xooo ooo",
"oooooooooooooooooX ooooooooooooooooooooo..ooooooooo.Xooo ooo",
"oooooooooooooooooooooooooooooooooooooooooooooooooooo Xo..ooo",
"oooooooooooooooooooooooooooooooooooooooooooooooooooo.   oooo",
"oooooooooooooooooooooooooooooooooooooooooooooooooooo ooX ooo",
"oooooooooooooooooooooooooooooooooooooooooooooooooooo ooo ooo",
"oooooooooooooooooooooooooooooooooooooooooooooooooooo Xo..ooo",
"ooooooooooooooooooooooooooooooooooooooooooooooooooooo  .oooo",
"oooooooooooooooooooooooooooooooooooooooooooooooooooooooooooo",
"oooooooooooooooooooooooooooooooooooooooooooooooooooooooooooo",
"oooooooooooooooooooooooooooooooooooooooooooooooooooooooooooo",
"oooooooooooooooooooooooooooooooooooooooooooooooooooooooooooo",
"oooooooooooooooooooooooooooooooooooooooooooooooooooooooooooo"
};
