/* XPM */
static char *result[] = {
/* columns rows colors chars-per-pixel */
"60 91 5 1 ",
"  c black",
". c #808000",
"X c #808080",
"o c #C0C0C0",
"O c white",
/* pixels */
"OOOOOOOOOOOOOOOOOOOOOOOOOOOOOOOOOOOOOOOOOOOOOOOOOOOOOOOOOOOO",
"OOOOOOOOOOOOOOOOOOOOOOOOOOOOOOOOOOOOOOOOOOOOOOOOOOOOOOOOOOOO",
"OOOOOOOOOOOOOOOOOOOOOOOOOOOOOOOOOOOOOOOOOOOOOOOOOOOOOOOOOOOO",
"OOOOOOOOOOOOOOOOOOOOOOOOOOOOOOOOOOOOOOOOOOOOOOOOOOOOOOOOOOOO",
"OOOOOOOOOOOOOOOOOOOOOOOOOOOOOOOOOOOOOOOOOOOOOOOOOOOOOOOOOOOO",
"OOOOo  XOOOOOOOOOOOOOOOOOOOOOOOOOOOOOOOOOOOOOOOOOOOOOOOOOOOO",
"OOOo OO oOOOOOOOOOOOOOOOOOOOOOOOOOOOOOOOOOOOOOOOOOOOOOOOOOOO",
"OOOXoOOo.OOOOOOOOOOOOOOOOOOOOOOOOOOOOOOOOOOOOOOOOOOOOOOOOOOO",
"OOOXoOOo OOOOOOOOOOOOOOOOOOOOOOOOOOOOOOOOOOOOOOOOOOOOOOOOOOO",
"OOOo OO  OOOOOOOOOOOOOOOOOOOOOOOOOOOOOOOOOOOOOOOOOOOOOOOOOOO",
"OOOOX  X OOOOOOOOOOOOOOOOOOOOOOOOOOOOOOOOOOOOOOOOOOOOOOOOOOO",
"OOOOOOOO.OOOOOOOOOOOOOOOOOOOOOOOOOOOOOOOOOOOOOOOOOOOOOOOOOOO",
"OOOooOO oOOOOOOX   oOOOOOOOOOOOOOOOOOOOOo   oOOOOOOOOOOOOOOO",
"OOOO X XOOOOOOX     OOOOOOOOOOOOOOOOOOOo     XOOOOOOOOOOOOOO",
"OOOOOoOOOOOOOO      XOOOOOOOOOOOOOOOOOO.      OOOOOOOOOOOOOO",
"OOOOOXXOOOOOOO      XOOOOOOOOOOOOOOOOOOX      OOOOOOOOOOOOOO",
"OOOOo  XOOOOOOX     OOOOOOOOOOOOOOOOOOOo     XOOOOOOOOOOOOOO",
"OOOOO  oOOOOOoO    oOOOOOOOOOOOOOOOOOOoOX   XOoOOOOOOOOOOOOO",
"OOOX    XOOo           OOOOOOOOOOOOOO           OOOOOOOOOOOO",
"OOOX     OO            XOOOOOOOOOOOOX           XOOOOOOOOOOO",
"OOOOXXXXOOO            XOOOOOOOOOOOO             OOOOOOOOOOO",
"OOOOOooOOOO            XOOOOOOOOOOOO             OOOOOOOOOOO",
"OOOOOOOOOOOX    oXX    oOOOOOOOOOOOOX    o o    XOOOOOOOOOOO",
"OOOOOOOOOOOOX  oo O.  oOOOOOOOOOOOOOOX  XO OX  XOOOOOOOOOOOO",
"OOOOOOOOOOOOOOOO  oOOOOOOOOOOOOOOOOOOOOOOX XOOOOOOOOOOOOOOOO",
"OOOOOOOOOOOOOOOo  .OOOOOOOOOOOOOOOOOOOOOO   OOOOOOOOOOOOOOOO",
"OOOOOOOOOOOOOOOOOOoOOOOOOOOOOOOOOOOOOOOOOoOoOOOOOOOOOOOOOOOO",
"OOOOOOOOOOOOOOOOOOOOOOOOOOOOOOOOOOOOOOOOOOOOOOOOOOOOOOOOOOOO",
"OOOOOOOOOOOOOOOOOOOOOOOOOOOOOOOOOOOOOOOOOOOOOOOOOOOOOOOOOOOO",
"OOOOOOOOOOOOOOO.   oOOOOOOOOOOOOOOOOOOOOX   XOOOOOOOOOOOOOOO",
"OOOOOOOOOOOOOO      OOOOOOOOOOOOOOOOOOOX     oOOOOOOOOOOOOOO",
"OOOOOOOOOOOOOO      XOOOOOOOOOOOOOOOOOO       OOOOOOOOOOOOOO",
"OOOOOOOOOOOOOO      XOOOOOOOOOOOOOOOOOO      .OOOOOOOOOOOOOO",
"OOOOOOOOOOOOOOX     OOOOOOOOOOOOOOOOOOOo     oOOOOOOOOOOOOOO",
"OOOOOOOOOOOOOXo    oooOOOOOOOOOOOOOOOOoOX   XooOOOOOOOOOOOOO",
"OOOOOOOOOOOo           OOOOOOOOOOOOOO           OOOOOOOOOOOO",
"OOOOOOOOOOO            XOOOOOOOOOOOOX           XOOOOOOOOOOO",
"OOOOOOOOOOo            XOOOOOOOOOOOO             OOOOOOOOOOO",
"OOOOOOOOOOO            XOOOOoXoOOOOO             OOOOOOOOOOO",
"OOOOOOOOOOOX    oX.    OOOOX    oOOOX    o o    oOOOOOOOOOOO",
"OOOOOOOOOOOOX  OX OX  OOOOo      OOOOX  XO OX  XOOOOOOOOOOOO",
"OOOOOOOOOOOOOOOO  oOOOOOOOX      OOOOOOOOX XOOOOOOOOOOOOOOOO",
"OOOOOOOOOOOOOOOo  .OOOOOOOo      OOOOOOOO   OOOOOOOOOOOOOOOO",
"OOOOOOOOOOOOOOOOOOOOOOOOOOO.    oOOOOOOOOOOOOOOOOOOOOOOOOOOO",
"OOOOOOOOOOOOOOOOOOOOOOOOo. X    X XOOOOOOOOOOOOOOOOOOOOOOOOO",
"OOOOOOOOOOOOOOOOOOOOOOOO           .OOOOOOOOOOOOOOOOOOOOOOOO",
"OOOOOOOOOOOOOOOOOOOOOOOX            OOOOOOOOOOOOOOOOOOOOOOOO",
"OOOOOOOOOOOOOOOOOOOOOOOX            oOOOOOOOOOOOOOOOOOOOOOOO",
"OOOOOOOOOOOOOOOo  XOOOOo     .X     OOOOO X OOOOOOOOOOOOOOOO",
"OOOOOOOOOOOOOOOO  oOOOOO    o.o    XOOOOO  XOOOOOOOOOOOOOOOO",
"OOOOOOOOOOOOXXXOX OXXXOOOoXoO XOXXoOOOXXOo OOXXOOOOOOOOOOOOO",
"OOOOOOOOOOOX    oXX    OOOOOX  OOOOOo    O O    OOOOOOOOOOOO",
"OOOOOOOOOOO     XX     oOOOOXXXoOOOO     X      XOOOOOOOOOOO",
"OOOOOOOOOOo            XOOOOOOOOOOOO             OOOOOOOOOOO",
"OOOOOOOOOOO            XOOOOOOOOOOOO            .OOOOOOOOOOO",
"OOOOOOOOOOO.           OOOOOOOOOOOOOX           oOOOOOOOOOOO",
"OOOOOOOOOOOOXXX    XXXOOOOOOOOOOOOOOOoXXX   XXXoOOOOOOOOOOOO",
"OOOOOOOOOOOOOOX     OOOOOOOOOOOOOOOOOOOO     OOOOOOOOOOOOOOO",
"OOOOOOOOOOOOOO      oOOOOOOOOOOOOOOOOOO      XOOOOOOOOOOOOOO",
"OOOOOOOOOOOOOo      XOOOOOOOOOOOOOOOOOO      XOOOOOOOOOOOOOO",
"OOOOOOOOOOOOOO      OOOOOOOOOOOOOOOOOOO.     XOOOOOOOOOOOOOO",
"OOOOOOOOOOOOOOo    XOOOOOOOOOOOOOOOOOOOO     OOOOOOOOOOOOOOO",
"OOOOOOOOOOOOOOOOooOOOOOOOOOOOOOOOOOOOOOOOoooOOOOOOOOOOOOOOOO",
"OOOOOOOOOOOOOOOOOOOOOOOOOOOOOOOOOOOOOOOOOOOOOOOOOOOOOOOOOOOO",
"OOOOOOOOOOOOOOOOOOOOOOOOOOOOOOOOOOOOOOOOOOOOOOOOOOOOOOOOOOOO",
"OOOOOOOOOOOOOOOX  XOOOOOOOOOOOOOOOOOOOOOO   OOOOOOOOOOOOOOOO",
"OOOOOOOOOOOOOOOO  OOOOOOOOOOOOOOOOOOOOOOO  XOOOOOOOOOOOOOOOO",
"OOOOOOOOOOOOX XOX OX XOOOOOOOOOOOOOOOo..Oo Oo XOOOOOOOOOOOOO",
"OOOOOOOOOOO     oXX    OOOOOOOOOOOOOX    O o    OOOOOOOOOOOO",
"OOOOOOOOOOo     ..     oOOOOOOOOOOOO     .      XOOOOXOOOOOO",
"OOOOOOOOOOo            XOOOOOOOOOOOO             OOoXXoXOOOO",
"OOOOOOOOOOo            oOOOOOOOOOOOO            XOO     XOOO",
"OOOOOOOOOOOX           OOOOOOOOOOOOOo           OOO     oOOO",
"OOOOOOOOOOOOoXo    oXXOOOOOOOOOOOOOOOoXX    XXXOOOOOX  OOOOO",
"OOOOOOOOOOOOOOX     OOOOOOOOOOOOOOOOOOOo     OOOOOOOX  OOOOO",
"OOOOOOOOOOOOOO      oOOOOOOOOOOOOOOOOOO      XOOOOOOOXoOOOOO",
"OOOOOOOOOOOOOo      oOOOOOOOOOOOOOOOOOO      XOOOOOOOoOOOOOO",
"OOOOOOOOOOOOOO      OOOOOOOOOOOOOOOOOOO.     oOOOOOO X XOOOO",
"OOOOOOOOOOOOOOo    oOOOOOOOOOOOOOOOOOOOO    XOOOOOO oOOXOOOO",
"OOOOOOOOOOOOOOOOOoOOOOOOOOOOOOOOOOOOOOOOOooOOOOOOOO OOOOOOOO",
"OOOOOOOOOOOOOOOOOOOOOOOOOOOOOOOOOOOOOOOOOOOOOOOOOOoX   OOOOO",
"OOOOOOOOOOOOOOOOOOOOOOOOOOOOOOOOOOOOOOOOOOOOOOOOOOo oOO OOOO",
"OOOOOOOOOOOOOOOOOOOOOOOOOOOOOOOOOOOOOOOOOOOOOOOOOOo OOO.OOOO",
"OOOOOOOOOOOOOOOOOOOOOOOOOOOOOOOOOOOOOOOOOOOOOOOOOOO OOO OOOO",
"OOOOOOOOOOOOOOOOOOOOOOOOOOOOOOOOOOOOOOOOOOOOOOOOOOOXXOo OOOO",
"OOOOOOOOOOOOOOOOOOOOOOOOOOOOOOOOOOOOOOOOOOOOOOOOOOOOX  OOOOO",
"OOOOOOOOOOOOOOOOOOOOOOOOOOOOOOOOOOOOOOOOOOOOOOOOOOOOOOOOOOOO",
"OOOOOOOOOOOOOOOOOOOOOOOOOOOOOOOOOOOOOOOOOOOOOOOOOOOOOOOOOOOO",
"OOOOOOOOOOOOOOOOOOOOOOOOOOOOOOOOOOOOOOOOOOOOOOOOOOOOOOOOOOOO",
"OOOOOOOOOOOOOOOOOOOOOOOOOOOOOOOOOOOOOOOOOOOOOOOOOOOOOOOOOOOO",
"OOOOOOOOOOOOOOOOOOOOOOOOOOOOOOOOOOOOOOOOOOOOOOOOOOOOOOOOOOOO"
};
