/* XPM */
static char *result[] = {
/* columns rows colors chars-per-pixel */
"60 91 4 1 ",
"  c red",
". c #808080",
"X c #C0C0C0",
"o c white",
/* pixels */
"oooooooooooooooooooooooooooooooooooooooooooooooooooooooooooo",
"oooooooooooooooooooooooooooooooooooooooooooooooooooooooooooo",
"oooooooooooooooooooooooooooooooooooooooooooooooooooooooooooo",
"oooooooooooooooooooooooooooooooooooooooooooooooooooooooooooo",
"oooooooooooooooooooooooooooooooooooooooooooooooooooooooooooo",
"oooo.Xoooooooooooooooooooooooooooooooooooooooooooooooooooooo",
"ooX X .ooooooooooooooooooooooooooooooooooooooooooooooooooooo",
"oo ooo ooooooooooooooooooooooooooooooooooooooooooooooooooooo",
"oo ooo.Xoooooooooooooooooooooooooooooooooooooooooooooooooooo",
"oo ooo .oooooooooooooooooooooooooooooooooooooooooooooooooooo",
"ooX X. .oooooooooooooooooooooooooooooooooooooooooooooooooooo",
"oooX.XX.oooooooooooooooooooooooooooooooooooooooooooooooooooo",
"oooooo Xooooooooo.oooooooooooooooooooooo Xoooooooooooooooooo",
"oo XoX oooooooooX .oooooooooooooooooooo   Xooooooooooooooooo",
"ooo.  oooooooooo   XooooooooooooooooooX    ooooooooooooooooo",
"ooooooooooooooo     XooooooooooooooooX      oooooooooooooooo",
"ooooXXoooooooo       oooooooooooooooo        ooooooooooooooo",
"oooo  ooooooo.        oooooooooooooo          oooooooooooooo",
"ooo    oooooX          oooooooooooo.          .ooooooooooooo",
"ooo    Xoooo            ooooooooooo            ooooooooooooo",
"oooX  XooooX           XoooooooooooX          oooooooooooooo",
"oooo. ooooooX         .ooooooooooooo.        Xoooooooooooooo",
"ooooooooooooo.        ooooooooooooooo       .ooooooooooooooo",
"oooooooooooooo.      ooooooooooooooooo      oooooooooooooooo",
"ooooooooooooooo     Xoooooooooooooooooo    ooooooooooooooooo",
"oooooooooooooooo   Xoooooooooooooooooooo  oooooooooooooooooo",
"ooooooooooooooooo  oooooooooooooooooooooXXoooooooooooooooooo",
"oooooooooooooooooooooooooooooooooooooooooooooooooooooooooooo",
"oooooooooooooooooooooooooooooooooooooooooooooooooooooooooooo",
"ooooooooooooooooooooooooooooooooooooooooX oooooooooooooooooo",
"ooooooooooooooooo  ooooooooooooooooooooo  Xooooooooooooooooo",
"oooooooooooooooo.   ooooooooooooooooooo    Xoooooooooooooooo",
"oooooooooooooooX    Xooooooooooooooooo      oooooooooooooooo",
"ooooooooooooooo      XoooooooooooooooX       ooooooooooooooo",
"oooooooooooooo        ooooooooooooooo         oooooooooooooo",
"ooooooooooooo          ooooooooooooo           ooooooooooooo",
"oooooooooooo.           ooooooooooo            Xoooooooooooo",
"oooooooooooo            oooooooooooX           ooooooooooooo",
"ooooooooooooo          oooooo XoooooX         oooooooooooooo",
"oooooooooooooX        Xooooo.  oooooo.       ooooooooooooooo",
"ooooooooooooooX      .oooooX    oooooo      Xooooooooooooooo",
"ooooooooooooooo.     oooooo      oooooo    .oooooooooooooooo",
"oooooooooooooooo    oooooo        oooooo   ooooooooooooooooo",
"ooooooooooooooooo  Xooooo         .oooooo oooooooooooooooooo",
"oooooooooooooooooo.oooooX          Xoooooooooooooooooooooooo",
"oooooooooooooooooooooooo            oooooooooooooooooooooooo",
"oooooooooooooooooooooooo.          oooooo.oooooooooooooooooo",
"oooooooooooooooooX oooooo         XoooooX  ooooooooooooooooo",
"ooooooooooooooooo   oooooo        oooooX   .oooooooooooooooo",
"oooooooooooooooo     oooooo      oooooo     Xooooooooooooooo",
"ooooooooooooooo.     .oooooo    oooooo       Xoooooooooooooo",
"ooooooooooooooX       XoooooX  Xooooo.        oooooooooooooo",
"oooooooooooooo         XoooooX oooooX          ooooooooooooo",
"ooooooooooooo           oooooooooooo            oooooooooooo",
"oooooooooooo.           .ooooooooooo           Xoooooooooooo",
"ooooooooooooo           ooooooooooooo         Xooooooooooooo",
"oooooooooooooo         ooooooooooooooX        oooooooooooooo",
"ooooooooooooooo       ooooooooooooooooX      ooooooooooooooo",
"oooooooooooooooX     Xooooooooooooooooo.    oooooooooooooooo",
"oooooooooooooooo.    ooooooooooooooooooo   Xoooooooooooooooo",
"ooooooooooooooooo.  ooooooooooooooooooooo  ooooooooooooooooo",
"oooooooooooooooooo ooooooooooooooooooooooooooooooooooooooooo",
"oooooooooooooooooooooooooooooooooooooooooooooooooooooooooooo",
"oooooooooooooooooooooooooooooooooooooooooooooooooooooooooooo",
"oooooooooooooooooo.Xooooooooooooooooooooo  ooooooooooooooooo",
"oooooooooooooooooX  oooooooooooooooooooo    oooooooooooooooo",
"ooooooooooooooooo    ooooooooooooooooooX     ooooooooooooooo",
"oooooooooooooooo      ooooooooooooooooo      .oooooooooooooo",
"ooooooooooooooo        ooooooooooooooo        Xooooooooooooo",
"oooooooooooooo.        .ooooooooooooo          ooooooo Xoooo",
"oooooooooooooX          Xooooooooooo.           ooooo   oooo",
"ooooooooooooo            ooooooooooo            oooo.    ooo",
"ooooooooooooo           Xoooooooooooo          oooooo   .ooo",
"oooooooooooooo         .oooooooooooooo        XooooooX  oooo",
"ooooooooooooooo        oooooooooooooooX      .ooooooooXooooo",
"oooooooooooooooo      oooooooooooooooooX     ooooooooooooooo",
"ooooooooooooooooX    Xoooooooooooooooooo.   oooooooooo  .ooo",
"oooooooooooooooooX  .oooooooooooooooooooo  Xooooooooo oo.Xoo",
"oooooooooooooooooo. ooooooooooooooooooooooXoooooooooX.oooooo",
"oooooooooooooooooooooooooooooooooooooooooooooooooooo oX.oooo",
"oooooooooooooooooooooooooooooooooooooooooooooooooooo  XX ooo",
"oooooooooooooooooooooooooooooooooooooooooooooooooooo .ooo oo",
"oooooooooooooooooooooooooooooooooooooooooooooooooooo.Xooo oo",
"ooooooooooooooooooooooooooooooooooooooooooooooooooooX ooX oo",
"ooooooooooooooooooooooooooooooooooooooooooooooooooooo  X ooo",
"ooooooooooooooooooooooooooooooooooooooooooooooooooooooXXoooo",
"oooooooooooooooooooooooooooooooooooooooooooooooooooooooooooo",
"oooooooooooooooooooooooooooooooooooooooooooooooooooooooooooo",
"oooooooooooooooooooooooooooooooooooooooooooooooooooooooooooo",
"oooooooooooooooooooooooooooooooooooooooooooooooooooooooooooo",
"oooooooooooooooooooooooooooooooooooooooooooooooooooooooooooo"
};
