/* XPM */
static char *result[] = {
/* columns rows colors chars-per-pixel */
"60 91 4 1 ",
"  c red",
". c #808080",
"X c #C0C0C0",
"o c white",
/* pixels */
"oooooooooooooooooooooooooooooooooooooooooooooooooooooooooooo",
"oooooooooooooooooooooooooooooooooooooooooooooooooooooooooooo",
"oooooooooooooooooooooooooooooooooooooooooooooooooooooooooooo",
"oooooooooooooooooooooooooooooooooooooooooooooooooooooooooooo",
"oooooooooooooooooooooooooooooooooooooooooooooooooooooooooooo",
"ooooX   oooooooooooooooooooooooooooooooooooooooooooooooooooo",
"oooo ooX.ooooooooooooooooooooooooooooooooooooooooooooooooooo",
"oooXXooo ooooooooooooooooooooooooooooooooooooooooooooooooooo",
"oooX.ooo ooooooooooooooooooooooooooooooooooooooooooooooooooo",
"oooo oo  ooooooooooooooooooooooooooooooooooooooooooooooooooo",
"ooooo  X ooooooooooooooooooooooooooooooooooooooooooooooooooo",
"oooooooo ooooooooooooooooooooooooooooooooooooooooooooooooooo",
"oooX.oo Xoooo.   Xoo    ooooooooooooo   Xoo.   ooooooooooooo",
"oooo   .ooooX     X     Xooooooooooo     X     .oooooooooooo",
"oooooooooooo.            ooooooooooX            oooooooooooo",
"oooo .o Xooo.            ooooooooooX            oooooooooooo",
"ooo.     oooX           .ooooooooooo            oooooooooooo",
"ooo.     oooo           Xooooooooooo           .oooooooooooo",
"oooo    Xoooo.          ooooooooooooX          ooooooooooooo",
"ooooX   oooooo         oooooooooooooo         Xooooooooooooo",
"ooooo. oooooooX       Xooooooooooooooo        oooooooooooooo",
"ooooooooooooooo.      ooooooooooooooooX      ooooooooooooooo",
"oooooooooooooooo     oooooooooooooooooo.    oooooooooooooooo",
"ooooooooooooooooo   oooooooooooooooooooo   Xoooooooooooooooo",
"oooooooooooooooooo oooooooooooooooooooooo Xooooooooooooooooo",
"oooooooooooooooooooooooooooooooooooooooooooooooooooooooooooo",
"oooooooooooooooooooooooooooooooooooooooooooooooooooooooooooo",
"oooooooooooooooooooooooooooooooooooooooooooooooooooooooooooo",
"oooooooooooooooooooooooooooooooooooooooooooooooooooooooooooo",
"oooooooooooooooXoooooooooooooooooooooooooooooooooooooooooooo",
"ooooooooooooo    XoX   .ooooooooooooX   Xoo    ooooooooooooo",
"ooooooooooooX     X     Xooooooooooo     X     .oooooooooooo",
"oooooooooooo.           .ooooooooooX            oooooooooooo",
"oooooooooooo            .ooooooooooX            oooooooooooo",
"oooooooooooo.           XooooooooooX            oooooooooooo",
"ooooooooooooo           oooooooooooo           Xoooooooooooo",
"ooooooooooooo          .oooooooooooo.          ooooooooooooo",
"oooooooooooooo         oooooooooooooo         Xooooooooooooo",
"ooooooooooooooX       Xooooooooooooooo       .oooooooooooooo",
"ooooooooooooooo      Xoooooooooooooooo.      ooooooooooooooo",
"oooooooooooooooo     ooooX.XooooX.Xoooo     oooooooooooooooo",
"ooooooooooooooooo   ooooX    oo    Xoooo   ooooooooooooooooo",
"oooooooooooooooooo ooooo            ooooo Xooooooooooooooooo",
"oooooooooooooooooooooooo            oooooooooooooooooooooooo",
"oooooooooooooooooooooooo            oooooooooooooooooooooooo",
"oooooooooooooooooooooooo            oooooooooooooooooooooooo",
"ooooooooooooooooooooooooX          Xoooooooooooooooooooooooo",
"ooooooooooooooooooXoooooo          ooooooXoooooooooooooooooo",
"ooooooooooooooooo  XoooooX        XoooooX Xooooooooooooooooo",
"oooooooooooooooo.   oooooo.      .oooooo   Xoooooooooooooooo",
"oooooooooooooooX     oooooo      oooooo     oooooooooooooooo",
"ooooooooooooooo       oooooo    oooooo       ooooooooooooooo",
"oooooooooooooo        .oooooo  oooooo.        oooooooooooooo",
"ooooooooooooo.         ooooooXooooooX         Xooooooooooooo",
"ooooooooooooo           oooooooooooo           ooooooooooooo",
"oooooooooooo.           oooooooooooX           Xoooooooooooo",
"oooooooooooo            Xoooooooooo.           .oooooooooooo",
"oooooooooooo            Xoooooooooo.            oooooooooooo",
"oooooooooooo            Xoooooooooo.           .oooooooooooo",
"ooooooooooooX    .o     oooooooooooo     o     ooooooooooooo",
"oooooooooooooo..XoooX .oooooooooooooo  .ooo.  Xooooooooooooo",
"oooooooooooooooooooooooooooooooooooooooooooooooooooooooooooo",
"oooooooooooooooooooooooooooooooooooooooooooooooooooooooooooo",
"oooooooooooooooooooooooooooooooooooooooooooooooooooooooooooo",
"oooooooooooooooooooooooooooooooooooooooooooooooooooooooooooo",
"oooooooooooooooooooooooooooooooooooooooooooooooooooooooooooo",
"ooooooooooooooooo. oooooooooooooooooooooo oooooooooooooooooo",
"ooooooooooooooooX   oooooooooooooooooooo   ooooooooooooooooo",
"oooooooooooooooX     oooooooooooooooooo     oooooooooooooooo",
"ooooooooooooooo      Xoooooooooooooooo      .ooooooooooooooo",
"oooooooooooooo        oooooooooooooooX       Xooooooo Xooooo",
"ooooooooooooo.         oooooooooooooo         oooooo   ooooo",
"ooooooooooooo          Xoooooooooooo          .oooo     oooo",
"oooooooooooo.           oooooooooooX           oooo     Xooo",
"oooooooooooo            ooooooooooo.           XooX     Xooo",
"oooooooooooo            Xoooooooooo            .ooo..o. oooo",
"oooooooooooo            ooooooooooo            Xoooooooooooo",
"oooooooooooo.    .X     oooooooooooX     X     ooooo   .oooo",
"ooooooooooooo.  .ooX   ooooooooooooo.   ooX   Xoooo..oo.oooo",
"ooooooooooooooooooooooooooooooooooooooooooooooooooo oooooooo",
"ooooooooooooooooooooooooooooooooooooooooooooooooooo X  ooooo",
"ooooooooooooooooooooooooooooooooooooooooooooooooooo .oo oooo",
"ooooooooooooooooooooooooooooooooooooooooooooooooooo ooo.Xooo",
"ooooooooooooooooooooooooooooooooooooooooooooooooooo ooo.Xooo",
"ooooooooooooooooooooooooooooooooooooooooooooooooooo.Xoo oooo",
"oooooooooooooooooooooooooooooooooooooooooooooooooooo   Xoooo",
"oooooooooooooooooooooooooooooooooooooooooooooooooooooooooooo",
"oooooooooooooooooooooooooooooooooooooooooooooooooooooooooooo",
"oooooooooooooooooooooooooooooooooooooooooooooooooooooooooooo",
"oooooooooooooooooooooooooooooooooooooooooooooooooooooooooooo",
"oooooooooooooooooooooooooooooooooooooooooooooooooooooooooooo"
};
