/* XPM */
static char *result[] = {
/* columns rows colors chars-per-pixel */
"60 91 4 1 ",
"  c black",
". c #808080",
"X c #C0C0C0",
"o c white",
/* pixels */
"oooooooooooooooooooooooooooooooooooooooooooooooooooooooooooo",
"oooooooooooooooooooooooooooooooooooooooooooooooooooooooooooo",
"oooooooooooooooooooooooooooooooooooooooooooooooooooooooooooo",
"oooooooooooooooooooooooooooooooooooooooooooooooooooooooooooo",
"oooooooooooooooooooooooooooooooooooooooooooooooooooooooooooo",
"ooo. . ooooooooooooooooooooooooooooooooooooooooooooooooooooo",
"ooo ooo.oooooooooooooooooooooooooooooooooooooooooooooooooooo",
"oo.Xooo oooooooooooooooooooooooooooooooooooooooooooooooooooo",
"oo.Xooo oooooooooooooooooooooooooooooooooooooooooooooooooooo",
"ooo ooX Xooooooooooooooooooooooooooooooooooooooooooooooooooo",
"oooo  . ooooooooooooooooooooooooooooooooooXooooooooooooooooo",
"ooooooo oooooooo  oooooooooooooooooooooooX Xoooooooooooooooo",
"ooo.oo..ooooooo   .oooooooooooooooooooooo   oooooooooooooooo",
"ooo.   ooooooo.    Xoooooooooooooooooooo     ooooooooooooooo",
"oooooooooooooX      ooooooooooooooooooo.      oooooooooooooo",
"ooooo.ooooooo        oooooooooooooooooX       .ooooooooooooo",
"oooo  Xooooo          oooooooooooooooo         Xoooooooooooo",
"ooo.   oooo.          .oooooooooooooo           oooooooooooo",
"ooX     ooo            oooooooooooooX           Xooooooooooo",
"ooX     ooo            oooooooooooooX           .ooooooooooo",
"oooXo.Xoooo            oooooooooooooX           Xooooooooooo",
"oooooooooooX   ..X    Xoooooooooooooo    X o    oooooooooooo",
"ooooooooooooX..o .o..Xoooooooooooooooo..Xo oo..ooooooooooooo",
"oooooooooooooooo  oooooooooooooooooooooooX .oooooooooooooooo",
"oooooooooooooooo..ooooooooooooooooooooooo...oooooooooooooooo",
"oooooooooooooooooooooooooooooooooooooooooooooooooooooooooooo",
"oooooooooooooooooooooooooooooooooooooooooooooooooooooooooooo",
"oooooooooooooooooooooooooooooooooooooooooooooooooooooooooooo",
"oooooooooooooooooooooooooooooooooooooooooooooooooooooooooooo",
"oooooooooooooooo.Xoooooooooooooooooooooooo.ooooooooooooooooo",
"oooooooooooooooo  ooooooooooooooooooooooo. .oooooooooooooooo",
"ooooooooooooooo    oooooooooooooooooooooX   .ooooooooooooooo",
"oooooooooooooo     .oooooooooooooooooooo     Xoooooooooooooo",
"ooooooooooooo.      .oooooooooooooooooo       oooooooooooooo",
"ooooooooooooX        Xoooooooooooooooo         ooooooooooooo",
"oooooooooooo          ooooooooooooooo.         .oooooooooooo",
"ooooooooooo           .oooooooooooooo           oooooooooooo",
"ooooooooooo            oooooooooooooX           .ooooooooooo",
"ooooooooooo            ooooooXooooooX           .ooooooooooo",
"ooooooooooo     ..    .oooooo  oooooo      .    Xooooooooooo",
"oooooooooooo   X...   oooooo   .ooooo.   o o   .oooooooooooo",
"oooooooooooooXoo .ooXoooooo     XooooooXoo XoXoooooooooooooo",
"oooooooooooooooo  oooooooo.      oooooooo. .oooooooooooooooo",
"ooooooooooooooooXXoooooooX        oooooooXXXoooooooooooooooo",
"ooooooooooooooooooooooooo         .ooooooooooooooooooooooooo",
"oooooooooooooooooooooooo           Xoooooooooooooooooooooooo",
"oooooooooooooooooooooooo           .oooooooooooooooooooooooo",
"ooooooooooooooooXXoooooo            oooooXXXoooooooooooooooo",
"oooooooooooooooo  oooooo           .ooooo. .oooooooooooooooo",
"ooooooooooooo.Xo .oXXooo.   X o    oooX.oo XoXXooooooooooooo",
"oooooooooooX   ..X.   oooX.Xo .oX.ooo.   o o    oooooooooooo",
"ooooooooooo     ..     oooooX  oooooo      .    Xooooooooooo",
"ooooooooooo            oooooX..oooooX           .ooooooooooo",
"ooooooooooo            oooooooooooooX           .ooooooooooo",
"ooooooooooo.          .oooooooooooooo           oooooooooooo",
"oooooooooooo          oooooooooooooooX         .oooooooooooo",
"ooooooooooooo        ooooooooooooooooo.        ooooooooooooo",
"oooooooooooooX      Xoooooooooooooooooo       oooooooooooooo",
"oooooooooooooo.    .oooooooooooooooooooo     ooooooooooooooo",
"ooooooooooooooo    oooooooooooooooooooooX   Xooooooooooooooo",
"oooooooooooooooo  ooooooooooooooooooooooo. .oooooooooooooooo",
"ooooooooooooooooXooooooooooooooooooooooooo.ooooooooooooooooo",
"oooooooooooooooooooooooooooooooooooooooooooooooooooooooooooo",
"oooooooooooooooooooooooooooooooooooooooooooooooooooooooooooo",
"oooooooooooooooooooooooooooooooooooooooooooooooooooooooooooo",
"oooooooooooooooooooooooooooooooooooooooooooooooooooooooooooo",
"oooooooooooooooo  ooooooooooooooooooooooo.  oooooooooooooooo",
"oooooooooooooooo  oooooooooooooooooooooooo Xoooooooooooooooo",
"oooooooooooo   X..X   oooooooooooooooX   o o   .oooooooooooo",
"ooooooooooo     ..    .oooooooooooooo    . .    oooooXXooooo",
"ooooooooooo            oooooooooooooX           .ooo .. Xooo",
"ooooooooooo            oooooooooooooX           .oo.    .ooo",
"ooooooooooo           .oooooooooooooo           oooo    Xooo",
"oooooooooooo          ooooooooooooooo.          oooo.  .oooo",
"ooooooooooooX        Xoooooooooooooooo         oooooo. ooooo",
"ooooooooooooo.      .oooooooooooooooooo       oooooooooooooo",
"oooooooooooooo      oooooooooooooooooooX     XooooooooXooooo",
"ooooooooooooooo    ooooooooooooooooooooo.   .ooooooo. . oooo",
"oooooooooooooooo  ooooooooooooooooooooooo.  oooooooo ooo.ooo",
"oooooooooooooooo..oooooooooooooooooooooooo oooooooo.Xooooooo",
"ooooooooooooooooooooooooooooooooooooooooooooooooooo .  .oooo",
"ooooooooooooooooooooooooooooooooooooooooooooooooooo  oo..ooo",
"ooooooooooooooooooooooooooooooooooooooooooooooooooo Xooo ooo",
"ooooooooooooooooooooooooooooooooooooooooooooooooooo.Xooo ooo",
"oooooooooooooooooooooooooooooooooooooooooooooooooooo oo..ooo",
"ooooooooooooooooooooooooooooooooooooooooooooooooooooX  .oooo",
"oooooooooooooooooooooooooooooooooooooooooooooooooooooooooooo",
"oooooooooooooooooooooooooooooooooooooooooooooooooooooooooooo",
"oooooooooooooooooooooooooooooooooooooooooooooooooooooooooooo",
"oooooooooooooooooooooooooooooooooooooooooooooooooooooooooooo",
"oooooooooooooooooooooooooooooooooooooooooooooooooooooooooooo"
};
