/* XPM */
static char *result[] = {
/* columns rows colors chars-per-pixel */
"60 91 4 1 ",
"  c black",
". c #808080",
"X c #C0C0C0",
"o c white",
/* pixels */
"oooooooooooooooooooooooooooooooooooooooooooooooooooooooooooo",
"oooooooooooooooooooooooooooooooooooooooooooooooooooooooooooo",
"oooooooooooooooooooooooooooooooooooooooooooooooooooooooooooo",
"oooooooooooooooooooooooooooooooooooooooooooooooooooooooooooo",
"oooooooooooooooooooooooooooooooooooooooooooooooooooooooooooo",
"ooooo .ooooooooooooooooooooooooooooooooooooooooooooooooooooo",
"ooooo  ooooooooooooooooooooooooooooooooooooooooooooooooooooo",
"ooooX. ooooooooooooooooooooooooooooooooooooooooooooooooooooo",
"oooo.. Xoooooooooooooooooooooooooooooooooooooooooooooooooooo",
"oooo o..oooooooooooooooooooooooooooooooooooooooooooooooooooo",
"oooo . .oooooooooooooooooooooooooooooooooooooooooooooooooooo",
"oooo X. oooooooooooooooooooooooooooooooooooooooooooooooooooo",
"oooX oo oooooooooooooooooooooooooooooooooooooooooooooooooooo",
"ooX  XX  ooooooooooooooooooooooooooooooooooooooooooooooooooo",
"oooXXooXXooooooooooooooooooooooooooooooooooooooooooooooooooo",
"oooooX.ooooooooooooooooooooooooooooooooooooooooooooooooooooo",
"ooooX  .oooooooooooooooooooooooooooooooooooooooooooooooooooo",
"ooooo  Xoooooooooooooooooooooooooooooooooooooooooooooooooooo",
"oooX    .ooooooooooooooooooooooooooooooooooooooooooooooooooo",
"ooo.     ooooooooooooooooooooooooooooooooooooooooooooooooooo",
"oooo... Xooooooooooooooooooooooooooooooooooooooooooooooooooo",
"oooooX.ooooooooooooooooooooooooooooooooooooooooooooooooooooo",
"oooooooooooooooooooooooooooooooooooooooooooooooooooooooooooo",
"oooooooooooooooooooooooooooooooooooooooooooooooooooooooooooo",
"oooooooooooooooooooooooooooooooooooooooooooooooooooooooooooo",
"oooooooooooooooooooooooooooooooooooooooooooooooooooooooooooo",
"oooooooooooooooooooooooooooooooooooooooooooooooooooooooooooo",
"oooooooooooooooooooooooooooooooooooooooooooooooooooooooooooo",
"oooooooooooooooooooooooooooooooooooooooooooooooooooooooooooo",
"oooooooooooooooooooooooooooooooooooooooooooooooooooooooooooo",
"oooooooooooooooooooooooooooooooooooooooooooooooooooooooooooo",
"oooooooooooooooooooooooooooooooooooooooooooooooooooooooooooo",
"oooooooooooooooooooooooooooooooooooooooooooooooooooooooooooo",
"oooooooooooooooooooooooooooooooooooooooooooooooooooooooooooo",
"oooooooooooooooooooooooooooooooooooooooooooooooooooooooooooo",
"oooooooooooooooooooooooooooooooooooooooooooooooooooooooooooo",
"oooooooooooooooooooooooooooooooooooooooooooooooooooooooooooo",
"ooooooooooooooooooooooooooo.    Xooooooooooooooooooooooooooo",
"oooooooooooooooooooooooooo.      Xoooooooooooooooooooooooooo",
"oooooooooooooooooooooooooo        oooooooooooooooooooooooooo",
"oooooooooooooooooooooooooo        oooooooooooooooooooooooooo",
"oooooooooooooooooooooooooo        oooooooooooooooooooooooooo",
"oooooooooooooooooooooooooo.      Xoooooooooooooooooooooooooo",
"oooooooooooooooooooooooooXo.    .oXooooooooooooooooooooooooo",
"ooooooooooooooooooooooo.            .ooooooooooooooooooooooo",
"ooooooooooooooooooooooX              Xoooooooooooooooooooooo",
"oooooooooooooooooooooo               .oooooooooooooooooooooo",
"oooooooooooooooooooooo                oooooooooooooooooooooo",
"oooooooooooooooooooooo               .oooooooooooooooooooooo",
"ooooooooooooooooooooooX     ...      Xoooooooooooooooooooooo",
"ooooooooooooooooooooooo.    o .o    .ooooooooooooooooooooooo",
"ooooooooooooooooooooooooo.Xoo  ooX.ooooooooooooooooooooooooo",
"oooooooooooooooooooooooooooo.  Xoooooooooooooooooooooooooooo",
"oooooooooooooooooooooooooooo    oooooooooooooooooooooooooooo",
"oooooooooooooooooooooooooooooooooooooooooooooooooooooooooooo",
"oooooooooooooooooooooooooooooooooooooooooooooooooooooooooooo",
"oooooooooooooooooooooooooooooooooooooooooooooooooooooooooooo",
"oooooooooooooooooooooooooooooooooooooooooooooooooooooooooooo",
"oooooooooooooooooooooooooooooooooooooooooooooooooooooooooooo",
"oooooooooooooooooooooooooooooooooooooooooooooooooooooooooooo",
"oooooooooooooooooooooooooooooooooooooooooooooooooooooooooooo",
"oooooooooooooooooooooooooooooooooooooooooooooooooooooooooooo",
"oooooooooooooooooooooooooooooooooooooooooooooooooooooooooooo",
"oooooooooooooooooooooooooooooooooooooooooooooooooooooooooooo",
"oooooooooooooooooooooooooooooooooooooooooooooooooooooooooooo",
"oooooooooooooooooooooooooooooooooooooooooooooooooooooooooooo",
"oooooooooooooooooooooooooooooooooooooooooooooooooooooooooooo",
"oooooooooooooooooooooooooooooooooooooooooooooooooooooooooooo",
"oooooooooooooooooooooooooooooooooooooooooooooooooooooooooooo",
"ooooooooooooooooooooooooooooooooooooooooooooooooooooo.Xooooo",
"oooooooooooooooooooooooooooooooooooooooooooooooooooX .. oooo",
"ooooooooooooooooooooooooooooooooooooooooooooooooooo     .ooo",
"ooooooooooooooooooooooooooooooooooooooooooooooooooo.    Xooo",
"ooooooooooooooooooooooooooooooooooooooooooooooooooooX  ooooo",
"oooooooooooooooooooooooooooooooooooooooooooooooooooo.  ooooo",
"oooooooooooooooooooooooooooooooooooooooooooooooooooooXXooooo",
"oooooooooooooooooooooooooooooooooooooooooooooooooooooooooooo",
"ooooooooooooooooooooooooooooooooooooooooooooooooooo  XX  ooo",
"oooooooooooooooooooooooooooooooooooooooooooooooooooo oo oooo",
"oooooooooooooooooooooooooooooooooooooooooooooooooooo XX oooo",
"oooooooooooooooooooooooooooooooooooooooooooooooooooo .. oooo",
"oooooooooooooooooooooooooooooooooooooooooooooooooooo.XX.oooo",
"ooooooooooooooooooooooooooooooooooooooooooooooooooooX..Xoooo",
"ooooooooooooooooooooooooooooooooooooooooooooooooooooo  ooooo",
"ooooooooooooooooooooooooooooooooooooooooooooooooooooo  ooooo",
"ooooooooooooooooooooooooooooooooooooooooooooooooooooo..ooooo",
"oooooooooooooooooooooooooooooooooooooooooooooooooooooooooooo",
"oooooooooooooooooooooooooooooooooooooooooooooooooooooooooooo",
"oooooooooooooooooooooooooooooooooooooooooooooooooooooooooooo",
"oooooooooooooooooooooooooooooooooooooooooooooooooooooooooooo",
"oooooooooooooooooooooooooooooooooooooooooooooooooooooooooooo"
};
