/* XPM */
static char *result[] = {
/* columns rows colors chars-per-pixel */
"60 91 4 1 ",
"  c red",
". c #808080",
"X c #C0C0C0",
"o c white",
/* pixels */
"oooooooooooooooooooooooooooooooooooooooooooooooooooooooooooo",
"oooooooooooooooooooooooooooooooooooooooooooooooooooooooooooo",
"oooooooooooooooooooooooooooooooooooooooooooooooooooooooooooo",
"oooooooooooooooooooooooooooooooooooooooooooooooooooooooooooo",
"oooooooooooooooooooooooooooooooooooooooooooooooooooooooooooo",
"ooooX oooooooooooooooooooooooooooooooooooooooooooooooooooooo",
"ooooX Xooooooooooooooooooooooooooooooooooooooooooooooooooooo",
"oooo X.ooooooooooooooooooooooooooooooooooooooooooooooooooooo",
"oooo o ooooooooooooooooooooooooooooooooooooooooooooooooooooo",
"oooo o ooooooooooooooooooooooooooooooooooooooooooooooooooooo",
"oooo X ooooooooooooooooooooooooooooooooooooooooooooooooooooo",
"oooX X Xoooooooooooooooooooooooooooooooooooooooooooooooooooo",
"ooo.Xoo oooooooooooooooooooooooooooooooooooooooooooooooooooo",
"ooX  o. Xooooooooooooooooooooooooooooooooooooooooooooooooooo",
"oooooooooooooooooooooooooooooooooooooooooooooooooooooooooooo",
"oooooooooooooooooooooooooooooooooooooooooooooooooooooooooooo",
"ooooX Xooooooooooooooooooooooooooooooooooooooooooooooooooooo",
"oooo   ooooooooooooooooooooooooooooooooooooooooooooooooooooo",
"ooo     oooooooooooooooooooooooooooooooooooooooooooooooooooo",
"oooX   Xoooooooooooooooooooooooooooooooooooooooooooooooooooo",
"oooo. Xooooooooooooooooooooooooooooooooooooooooooooooooooooo",
"oooooXoooooooooooooooooooooooooooooooooooooooooooooooooooooo",
"oooooooooooooooooooooooooooooooooooooooooooooooooooooooooooo",
"oooooooooooooooooooooooooooooooooooooooooooooooooooooooooooo",
"oooooooooooooooooooooooooooooooooooooooooooooooooooooooooooo",
"oooooooooooooooooooooooooooooooooooooooooooooooooooooooooooo",
"oooooooooooooooooooooooooooooooooooooooooooooooooooooooooooo",
"oooooooooooooooooooooooooooooooooooooooooooooooooooooooooooo",
"oooooooooooooooooooooooooooooooooooooooooooooooooooooooooooo",
"oooooooooooooooooooooooooooooooooooooooooooooooooooooooooooo",
"oooooooooooooooooooooooooooooooooooooooooooooooooooooooooooo",
"oooooooooooooooooooooooooooooooooooooooooooooooooooooooooooo",
"oooooooooooooooooooooooooooooooooooooooooooooooooooooooooooo",
"oooooooooooooooooooooooooooooooooooooooooooooooooooooooooooo",
"oooooooooooooooooooooooooooooooooooooooooooooooooooooooooooo",
"oooooooooooooooooooooooooooooooooooooooooooooooooooooooooooo",
"oooooooooooooooooooooooooooooXoooooooooooooooooooooooooooooo",
"ooooooooooooooooooooooooooooo  ooooooooooooooooooooooooooooo",
"oooooooooooooooooooooooooooo    oooooooooooooooooooooooooooo",
"ooooooooooooooooooooooooooo     .ooooooooooooooooooooooooooo",
"oooooooooooooooooooooooooo.      Xoooooooooooooooooooooooooo",
"oooooooooooooooooooooooooX        Xooooooooooooooooooooooooo",
"ooooooooooooooooooooooooo          ooooooooooooooooooooooooo",
"oooooooooooooooooooooooo            oooooooooooooooooooooooo",
"ooooooooooooooooooooooo              ooooooooooooooooooooooo",
"ooooooooooooooooooooooX              Xoooooooooooooooooooooo",
"ooooooooooooooooooooooo             .ooooooooooooooooooooooo",
"oooooooooooooooooooooooo            oooooooooooooooooooooooo",
"ooooooooooooooooooooooooo          ooooooooooooooooooooooooo",
"oooooooooooooooooooooooooX        oooooooooooooooooooooooooo",
"ooooooooooooooooooooooooooX      Xoooooooooooooooooooooooooo",
"ooooooooooooooooooooooooooo.    .ooooooooooooooooooooooooooo",
"oooooooooooooooooooooooooooo    oooooooooooooooooooooooooooo",
"ooooooooooooooooooooooooooooo  ooooooooooooooooooooooooooooo",
"oooooooooooooooooooooooooooooooooooooooooooooooooooooooooooo",
"oooooooooooooooooooooooooooooooooooooooooooooooooooooooooooo",
"oooooooooooooooooooooooooooooooooooooooooooooooooooooooooooo",
"oooooooooooooooooooooooooooooooooooooooooooooooooooooooooooo",
"oooooooooooooooooooooooooooooooooooooooooooooooooooooooooooo",
"oooooooooooooooooooooooooooooooooooooooooooooooooooooooooooo",
"oooooooooooooooooooooooooooooooooooooooooooooooooooooooooooo",
"oooooooooooooooooooooooooooooooooooooooooooooooooooooooooooo",
"oooooooooooooooooooooooooooooooooooooooooooooooooooooooooooo",
"oooooooooooooooooooooooooooooooooooooooooooooooooooooooooooo",
"oooooooooooooooooooooooooooooooooooooooooooooooooooooooooooo",
"oooooooooooooooooooooooooooooooooooooooooooooooooooooooooooo",
"oooooooooooooooooooooooooooooooooooooooooooooooooooooooooooo",
"oooooooooooooooooooooooooooooooooooooooooooooooooooooooooooo",
"oooooooooooooooooooooooooooooooooooooooooooooooooooooooooooo",
"oooooooooooooooooooooooooooooooooooooooooooooooooooooo.ooooo",
"ooooooooooooooooooooooooooooooooooooooooooooooooooooo  Xoooo",
"oooooooooooooooooooooooooooooooooooooooooooooooooooo    Xooo",
"oooooooooooooooooooooooooooooooooooooooooooooooooooo    .ooo",
"ooooooooooooooooooooooooooooooooooooooooooooooooooooo   oooo",
"oooooooooooooooooooooooooooooooooooooooooooooooooooooX ooooo",
"oooooooooooooooooooooooooooooooooooooooooooooooooooooooooooo",
"oooooooooooooooooooooooooooooooooooooooooooooooooooXXooXXooo",
"oooooooooooooooooooooooooooooooooooooooooooooooooooX Xo  Xoo",
"oooooooooooooooooooooooooooooooooooooooooooooooooooo ooXXooo",
"oooooooooooooooooooooooooooooooooooooooooooooooooooo..X oooo",
"ooooooooooooooooooooooooooooooooooooooooooooooooooooX X oooo",
"ooooooooooooooooooooooooooooooooooooooooooooooooooooo o oooo",
"ooooooooooooooooooooooooooooooooooooooooooooooooooooo o oooo",
"ooooooooooooooooooooooooooooooooooooooooooooooooooooo ..oooo",
"oooooooooooooooooooooooooooooooooooooooooooooooooooooX Xoooo",
"oooooooooooooooooooooooooooooooooooooooooooooooooooooX ooooo",
"oooooooooooooooooooooooooooooooooooooooooooooooooooooooooooo",
"oooooooooooooooooooooooooooooooooooooooooooooooooooooooooooo",
"oooooooooooooooooooooooooooooooooooooooooooooooooooooooooooo",
"oooooooooooooooooooooooooooooooooooooooooooooooooooooooooooo",
"oooooooooooooooooooooooooooooooooooooooooooooooooooooooooooo"
};
