/* XPM */
static char *result[] = {
/* columns rows colors chars-per-pixel */
"60 87 4 1 ",
"  c red",
". c #808080",
"X c #C0C0C0",
"o c white",
/* pixels */
"oooooooooooooooooooooooooooooooooooooooooooooooooooooooooooo",
"oooooooooooooooooooooooooooooooooooooooooooooooooooooooooooo",
"oooooooooooooooooooooooooooooooooooooooooooooooooooooooooooo",
"oooooooooooooooooooooooooooooooooooooooooooooooooooooooooooo",
"ooooooX Xooooooooooooooooooooooooooooooooooooooooooooooooooo",
"oooooo   ooooooooooooooooooooooooooooooooooooooooooooooooooo",
"oooooo X ooooooooooooooooooooooooooooooooooooooooooooooooooo",
"oooooX o ooooooooooooooooooooooooooooooooooooooooooooooooooo",
"ooooo  o Xoooooooooooooooooooooooooooooooooooooooooooooooooo",
"ooooo  X  oooooooooooooooooooooooooooooooooooooooooooooooooo",
"ooooo     oooooooooooooooooooooooooooooooooooooooooooooooooo",
"ooooX ooo Xooooooooooooooooooooooooooooooooooooooooooooooooo",
"oooo  ooo .ooooooooooooooooooooooooooooooooooooooooooooooooo",
"oooo Xooo. ooooooooooooooooooooooooooooooooooooooooooooooooo",
"oooo ooooo ooooooooooooooooooooooooooooooooooooooooooooooooo",
"oooooooooooooooooooooooooooooooooooooooooooooooooooooooooooo",
"oooooooooooooooooooooooooooooooooooooooooooooooooooooooooooo",
"ooooo  o  oooooooooooooooooooooooooooooooooooooooooooooooooo",
"ooooX     Xooooooooooooooooooooooooooooooooooooooooooooooooo",
"ooooo     oooooooooooooooooooooooooooooooooooooooooooooooooo",
"oooooX   Xoooooooooooooooooooooooooooooooooooooooooooooooooo",
"ooooooX Xooooooooooooooooooooooooooooooooooooooooooooooooooo",
"oooooooooooooooooooooooooooooooooooooooooooooooooooooooooooo",
"oooooooooooooooooooooooooooooooooooooooooooooooooooooooooooo",
"oooooooooooooooooooooooooooooooooooooooooooooooooooooooooooo",
"oooooooooooooooooooooooooooooooooooooooooooooooooooooooooooo",
"oooooooooooooooooooooooooooooooooooooooooooooooooooooooooooo",
"oooooooooooooooooooooooooooooooooooooooooooooooooooooooooooo",
"oooooooooooooooooooooooooooooooooooooooooooooooooooooooooooo",
"oooooooooooooooooooooooooooooooooooooooooooooooooooooooooooo",
"oooooooooooooooooooooooooooooooooooooooooooooooooooooooooooo",
"oooooooooooooooooooooooooooooooooooooooooooooooooooooooooooo",
"oooooooooooooooooooooooooooooooooooooooooooooooooooooooooooo",
"oooooooooooooooooooooooooooooooooooooooooooooooooooooooooooo",
"oooooooooooooooooooooooooooooooooooooooooooooooooooooooooooo",
"oooooooooooooooooooooooooooooooooooooooooooooooooooooooooooo",
"oooooooooooooooooooooooooooooooooooooooooooooooooooooooooooo",
"ooooooooooooooooooooooooX   XooX   Xoooooooooooooooooooooooo",
"oooooooooooooooooooooooX     XX     Xooooooooooooooooooooooo",
"ooooooooooooooooooooooo              ooooooooooooooooooooooo",
"ooooooooooooooooooooooo              ooooooooooooooooooooooo",
"ooooooooooooooooooooooo              ooooooooooooooooooooooo",
"ooooooooooooooooooooooo              ooooooooooooooooooooooo",
"oooooooooooooooooooooooo            oooooooooooooooooooooooo",
"oooooooooooooooooooooooo           Xoooooooooooooooooooooooo",
"ooooooooooooooooooooooooo          ooooooooooooooooooooooooo",
"oooooooooooooooooooooooooo        oooooooooooooooooooooooooo",
"ooooooooooooooooooooooooooo      ooooooooooooooooooooooooooo",
"oooooooooooooooooooooooooooo    oooooooooooooooooooooooooooo",
"ooooooooooooooooooooooooooooo  ooooooooooooooooooooooooooooo",
"oooooooooooooooooooooooooooooooooooooooooooooooooooooooooooo",
"oooooooooooooooooooooooooooooooooooooooooooooooooooooooooooo",
"oooooooooooooooooooooooooooooooooooooooooooooooooooooooooooo",
"oooooooooooooooooooooooooooooooooooooooooooooooooooooooooooo",
"oooooooooooooooooooooooooooooooooooooooooooooooooooooooooooo",
"oooooooooooooooooooooooooooooooooooooooooooooooooooooooooooo",
"oooooooooooooooooooooooooooooooooooooooooooooooooooooooooooo",
"oooooooooooooooooooooooooooooooooooooooooooooooooooooooooooo",
"oooooooooooooooooooooooooooooooooooooooooooooooooooooooooooo",
"oooooooooooooooooooooooooooooooooooooooooooooooooooooooooooo",
"oooooooooooooooooooooooooooooooooooooooooooooooooooooooooooo",
"oooooooooooooooooooooooooooooooooooooooooooooooooooooooooooo",
"oooooooooooooooooooooooooooooooooooooooooooooooooooooooooooo",
"oooooooooooooooooooooooooooooooooooooooooooooooooooooooooooo",
"oooooooooooooooooooooooooooooooooooooooooooooooooooooooooooo",
"oooooooooooooooooooooooooooooooooooooooooooooooooooo ooooooo",
"ooooooooooooooooooooooooooooooooooooooooooooooooooo   oooooo",
"oooooooooooooooooooooooooooooooooooooooooooooooooo     ooooo",
"oooooooooooooooooooooooooooooooooooooooooooooooooo     Xoooo",
"oooooooooooooooooooooooooooooooooooooooooooooooooo  .  Xoooo",
"oooooooooooooooooooooooooooooooooooooooooooooooooooXooXooooo",
"oooooooooooooooooooooooooooooooooooooooooooooooooooooooooooo",
"oooooooooooooooooooooooooooooooooooooooooooooooooooooooooooo",
"ooooooooooooooooooooooooooooooooooooooooooooooooo Xoooo oooo",
"ooooooooooooooooooooooooooooooooooooooooooooooooo  oooX oooo",
"oooooooooooooooooooooooooooooooooooooooooooooooooX ooo  oooo",
"oooooooooooooooooooooooooooooooooooooooooooooooooo     Xoooo",
"oooooooooooooooooooooooooooooooooooooooooooooooooo     ooooo",
"ooooooooooooooooooooooooooooooooooooooooooooooooooX oX ooooo",
"ooooooooooooooooooooooooooooooooooooooooooooooooooo o .ooooo",
"ooooooooooooooooooooooooooooooooooooooooooooooooooo X Xooooo",
"ooooooooooooooooooooooooooooooooooooooooooooooooooo.  oooooo",
"oooooooooooooooooooooooooooooooooooooooooooooooooooX  oooooo",
"ooooooooooooooooooooooooooooooooooooooooooooooooooooXooooooo",
"oooooooooooooooooooooooooooooooooooooooooooooooooooooooooooo",
"oooooooooooooooooooooooooooooooooooooooooooooooooooooooooooo",
"oooooooooooooooooooooooooooooooooooooooooooooooooooooooooooo"
};
