/* XPM */
static char *result[] = {
/* columns rows colors chars-per-pixel */
"60 90 4 1 ",
"  c black",
". c #808080",
"X c #C0C0C0",
"o c white",
/* pixels */
"oooooooooooooooooooooooooooooooooooooooooooooooooooooooooooo",
"oooooooooooooooooooooooooooooooooooooooooooooooooooooooooooo",
"oooooooooooooooooooooooooooooooooooooooooooooooooooooooooooo",
"oooooooooooooooooooooooooooooooooooooooooooooooooooooooooooo",
"ooooooX Xooooooooooooooooooooooooooooooooooooooooooooooooooo",
"oooooo. .ooooooooooooooooooooooooooooooooooooooooooooooooooo",
"oooooo   ooooooooooooooooooooooooooooooooooooooooooooooooooo",
"oooooo o ooooooooooooooooooooooooooooooooooooooooooooooooooo",
"ooooo. o .oooooooooooooooooooooooooooooooooooooooooooooooooo",
"ooooo .o..oooooooooooooooooooooooooooooooooooooooooooooooooo",
"ooooo     oooooooooooooooooooooooooooooooooooooooooooooooooo",
"ooooX X.. oooooooooooooooooooooooooooooooooooooooooooooooooo",
"oooo. ooo .ooooooooooooooooooooooooooooooooooooooooooooooooo",
"oooo .ooo. ooooooooooooooooooooooooooooooooooooooooooooooooo",
"oooX ooooX ooooooooooooooooooooooooooooooooooooooooooooooooo",
"oooooooooooooooooooooooooooooooooooooooooooooooooooooooooooo",
"oooooooXoooooooooooooooooooooooooooooooooooooooooooooooooooo",
"ooooooX oooooooooooooooooooooooooooooooooooooooooooooooooooo",
"oooooX   ooooooooooooooooooooooooooooooooooooooooooooooooooo",
"ooooo     oooooooooooooooooooooooooooooooooooooooooooooooooo",
"oooo.     Xooooooooooooooooooooooooooooooooooooooooooooooooo",
"ooooX     oooooooooooooooooooooooooooooooooooooooooooooooooo",
"ooooooo oooooooooooooooooooooooooooooooooooooooooooooooooooo",
"ooooooX oooooooooooooooooooooooooooooooooooooooooooooooooooo",
"oooooooooooooooooooooooooooooooooooooooooooooooooooooooooooo",
"oooooooooooooooooooooooooooooooooooooooooooooooooooooooooooo",
"oooooooooooooooooooooooooooooooooooooooooooooooooooooooooooo",
"oooooooooooooooooooooooooooooooooooooooooooooooooooooooooooo",
"oooooooooooooooooooooooooooooooooooooooooooooooooooooooooooo",
"oooooooooooooooooooooooooooooooooooooooooooooooooooooooooooo",
"oooooooooooooooooooooooooooooooooooooooooooooooooooooooooooo",
"oooooooooooooooooooooooooooooooooooooooooooooooooooooooooooo",
"oooooooooooooooooooooooooooooooooooooooooooooooooooooooooooo",
"oooooooooooooooooooooooooooooooooooooooooooooooooooooooooooo",
"oooooooooooooooooooooooooooooooooooooooooooooooooooooooooooo",
"oooooooooooooooooooooooooooooooooooooooooooooooooooooooooooo",
"ooooooooooooooooooooooooooooo.Xooooooooooooooooooooooooooooo",
"ooooooooooooooooooooooooooooX  ooooooooooooooooooooooooooooo",
"oooooooooooooooooooooooooooX    oooooooooooooooooooooooooooo",
"ooooooooooooooooooooooooooX      ooooooooooooooooooooooooooo",
"oooooooooooooooooooooooooo       .oooooooooooooooooooooooooo",
"ooooooooooooooooooooooooo          ooooooooooooooooooooooooo",
"oooooooooooooooooooooooo.          .oooooooooooooooooooooooo",
"oooooooooooooooooooooooX            oooooooooooooooooooooooo",
"ooooooooooooooooooooooo.            .ooooooooooooooooooooooo",
"ooooooooooooooooooooooo             .ooooooooooooooooooooooo",
"ooooooooooooooooooooooo.            .ooooooooooooooooooooooo",
"oooooooooooooooooooooooX            oooooooooooooooooooooooo",
"ooooooooooooooooooooooooX   .  .   ooooooooooooooooooooooooo",
"ooooooooooooooooooooooooooooo  ooooooooooooooooooooooooooooo",
"ooooooooooooooooooooooooooooX  Xoooooooooooooooooooooooooooo",
"oooooooooooooooooooooooooooo    oooooooooooooooooooooooooooo",
"ooooooooooooooooooooooooooooXXXXoooooooooooooooooooooooooooo",
"oooooooooooooooooooooooooooooooooooooooooooooooooooooooooooo",
"oooooooooooooooooooooooooooooooooooooooooooooooooooooooooooo",
"oooooooooooooooooooooooooooooooooooooooooooooooooooooooooooo",
"oooooooooooooooooooooooooooooooooooooooooooooooooooooooooooo",
"oooooooooooooooooooooooooooooooooooooooooooooooooooooooooooo",
"oooooooooooooooooooooooooooooooooooooooooooooooooooooooooooo",
"oooooooooooooooooooooooooooooooooooooooooooooooooooooooooooo",
"oooooooooooooooooooooooooooooooooooooooooooooooooooooooooooo",
"oooooooooooooooooooooooooooooooooooooooooooooooooooooooooooo",
"oooooooooooooooooooooooooooooooooooooooooooooooooooooooooooo",
"oooooooooooooooooooooooooooooooooooooooooooooooooooooooooooo",
"oooooooooooooooooooooooooooooooooooooooooooooooooooooooooooo",
"oooooooooooooooooooooooooooooooooooooooooooooooooooooooooooo",
"oooooooooooooooooooooooooooooooooooooooooooooooooooooooooooo",
"oooooooooooooooooooooooooooooooooooooooooooooooooooo Xoooooo",
"ooooooooooooooooooooooooooooooooooooooooooooooooooX  ..ooooo",
"oooooooooooooooooooooooooooooooooooooooooooooooooo     .oooo",
"oooooooooooooooooooooooooooooooooooooooooooooooooo     .oooo",
"oooooooooooooooooooooooooooooooooooooooooooooooooo.    ooooo",
"ooooooooooooooooooooooooooooooooooooooooooooooooooo.  oooooo",
"oooooooooooooooooooooooooooooooooooooooooooooooooooo.ooooooo",
"oooooooooooooooooooooooooooooooooooooooooooooooooooooooooooo",
"oooooooooooooooooooooooooooooooooooooooooooooooooXoooooXoooo",
"ooooooooooooooooooooooooooooooooooooooooooooooooo .oooX oooo",
"ooooooooooooooooooooooooooooooooooooooooooooooooo. ooo. oooo",
"oooooooooooooooooooooooooooooooooooooooooooooooooX ooo .oooo",
"oooooooooooooooooooooooooooooooooooooooooooooooooo     Xoooo",
"oooooooooooooooooooooooooooooooooooooooooooooooooo     ooooo",
"oooooooooooooooooooooooooooooooooooooooooooooooooo. o. ooooo",
"ooooooooooooooooooooooooooooooooooooooooooooooooooo o .ooooo",
"ooooooooooooooooooooooooooooooooooooooooooooooooooo X Xooooo",
"ooooooooooooooooooooooooooooooooooooooooooooooooooo.  oooooo",
"oooooooooooooooooooooooooooooooooooooooooooooooooooX  oooooo",
"oooooooooooooooooooooooooooooooooooooooooooooooooooo.Xoooooo",
"oooooooooooooooooooooooooooooooooooooooooooooooooooooooooooo",
"oooooooooooooooooooooooooooooooooooooooooooooooooooooooooooo",
"oooooooooooooooooooooooooooooooooooooooooooooooooooooooooooo"
};
