/* XPM */
static char *result[] = {
/* columns rows colors chars-per-pixel */
"60 90 28 1 ",
"  c #602040",
". c #802000",
"X c #802040",
"o c #A02040",
"O c #804040",
"+ c #A04040",
"@ c #806040",
"# c #A06040",
"$ c #C04040",
"% c #E04040",
"& c #C06040",
"* c #E06040",
"= c #A06080",
"- c #C06080",
"; c #E06080",
": c #808080",
"> c #A08080",
", c #A0A080",
"< c #C08080",
"1 c #E08080",
"2 c #C0A080",
"3 c #E0A080",
"4 c #C0A0C0",
"5 c #E0A0C0",
"6 c #C0C0C0",
"7 c #C0DCC0",
"8 c #FFFBF0",
"9 c white",
/* pixels */
"999999999999999999999999999999999999999999999999999999999999",
"999999899999999999999989899999999999899999989999999899999999",
"999864555555555553555555535555555555545555455555555554468999",
"999><5<<<<1-1<<1-11<1<<1-1<<3<11<1<<3-1<-3-<1<1<<1-1<<55>899",
"998>51<<<-1&11-1&11-1-1<-<<-1-<1#1--1-1-;;--1-1--1&1-<<35499",
"996211-+1+1&&1+1+3+;;$1X3+1+<-#1+3+1&-;+1X3+1&-1+1+1+-<15499",
"998<11--1-<--1-1-1-;;---1-1----1-1-1-1<-1-1-<--1-1-1---15299",
"996<1+553333355533535355555333555333555555353353333355$11599",
"995<-+5-+-1<+-+;3-+-+11&++-11+-+<3-+-+<1-+&&11+-+-3<+5+-<299",
"985<-15<;+53+5$15-<5O55O51+55X5#-51+5O35+15+55+5-&53O5-31599",
"995<-+5-5<&+131$;-553#-<55<-#355-<#553&-<551-&;11&-&#5+-<589",
"99531+5#55+11111+55<5#O8355O#8<55X38<8-X5515+;1311;115#<5599",
"995=-;5<5+13&&-11+38+<5X55O53O8<+5+-8O<5O55+111&&11&O5-1-399",
"995<1X5-+311151115+#1555##5553#-555-=<555#&311&55&11-5+&1399",
"995<115#&511<51113-+3535++5353+-535-+3535&+513-55-31-5-31389",
"99531+5<+-11&3&131+3+55#1-#55+3+<51O5+35=#3+31----11+5+13599",
"995<&+5<5+;31-111+55--3#55#1<=83#5+38<-3#55#-111111+#5+&<299",
"998<-15#55X;1311X55<8#O8335O=8=85X58=8<X55<8+$3131+3<511<599",
"99511X515+5+151$5+55--3+55+1-=85+5+38<-3+55#11&51+3#+5X&5299",
"995=-15-#155&1&353#<-55<=-<55-<#353+1#551#&<55-<&153#511-299",
"996<-o5##5<53X35<8-O5528++5355X<5<51X5515#+5355O#5<5<5X-1599",
"995<1-5<<#53+5#<8<-5+55@31#55+5-<8<=5O55#<3#55O5<#53O5-11299",
"995--&5-5<-+553=<-553==<551-+151&-#555#-<551##355<---5+--599",
"99531o5-55O-5<5<X5515#O5355+1111-X35<8-O5535O+8155X<<5+-5599",
"995=-15<1+5<#8--5O35+15O53-51$;-15+<8+<5+55O55O51+5<O5-1-599",
"99551o5---83O5#38<=3+55=1-51++1++11+5+55-<1#55#3#-53+5+15589",
"995=-+5#-5155O35<8<+5515+5--55X$-151+3515#+5355O-8<5<5+--599",
"9955135-+535<O-535&X11-+-5+131+153551&3<5++5355O#535<5155599",
"995=&+5<1+5<#8--8#+111353551<155-+++13<11-$X55O5<+8<O5+#-289",
"99531&5-53+=535<+35-15+11-+51#1#13+5<&5&;-51+#5353+<-5+15599",
"995<-&5-51##555-5-&$5O+55+5---11-33-5-<-15-13+5551#--5&1-599",
"995<-+5<1+5<#5-1-$+3-131-1-$;o1$&&1&-155+15+11O51#51O5+&<399",
"99511;5##5353+#3+5+55-1-15-;1$1$;$&51;1-5<+1-3&+-515<5-33599",
"995<-X5-#355-&1<5115+1;1+1-;1o1$1&1&+1;1&551+1--#355=5O#-599",
"996<115<3+5--51-5#5+1;1*;&1+1+1$1$3$1$&;1+5-53&53+5-O5113399",
"996=&$5-15+&511#X51;$1o$3o531X1o155.3;$1$;3+&5=333O-<5+1#599",
"99631X5-55O&8<15551&1;;1&1555555555-&;1$1-5-+1<155O<<5X-5599",
"996<115<3+5-#<31-1-1&$;;+51#1-5-1#55+1;%*11-3-333O5<O511<599",
"995<-o5##555<=3<51;+;1$&3<11-5+3--<51$$1;+3-5-5+#555-5O&<299",
"99511;5=#535<5-51+5+-$11513-1&5--<33511$1-5-1-5<#535-5-13599",
"995--+5<1+5-35+$;51113511&--5&1-5--1+5311133-&511+5<O5+-<599",
"99511+5-55+111&11+1$<83--151<15-<3111-55&;$+531+3&+1-5+11599",
"99511-5-31+5X5$511;;+35&-1-<53155---1-53&;1115#5-5+--5-11399",
"995--o5<1+1;o15&1$$&15-111111+-&5-311131&$$+11-5-3;1O5+&-599",
"9963115#&51;3+5<--&&--51-1-5&-5--5#5&15-&&&&&11++1-5-5-35599",
"996=-+5#&51;5X555355558O15-5;15--5#8&-553313351o&1-5<5+1-599",
"996--o5-+11;;+5<-&*&&<53-1-5&-3&<5-1-15-$&*&&15++1-3-5o&<599",
"995<;;5<3X;;-51-3+$;-5<111313+&$5-51-131;*;o;15-13;-+5-11599",
"99511$5#55+5-;-511;;+33&11-<55355---3+51&;;115+5+5X1<5+13599",
"995--$5<5--11+515+-;<81<-151111<1311-<55-;&+5&+35#1&#5+-<599",
"995<1-5<==8-113+-331;-53<--;5#3-5--1-55-1153&1+5-<53+5-13299",
"995<-X5#=5<5<131-&5+$1--511---5;--335&1&1&5-31<1&5<5<5X#1599",
"995<115<&<55+-115<--1;;;111--5+5---51&$11o3-5-5--<53#513<399",
"99531.5<5&1+1-5+<15&;$;$-53-<-5#1+55X1;$$33#+5-55#1##5X&3599",
"985=-15#55o15-11X1&111%$1#855555555#;;;;1&5553-155X1<5-1-399",
"9951115<31$+5135o111&1$;;-555+1&355X1;$1--35&1-55<&--5<33599",
"998-&.5<<#51#5315-5&1&;1;;1+1o1$;$1$;%1;1+5+11-5<#51O5X+-599",
"9951115##5353O1-+155&-1&+1;11+1$1$;&o;$-#5+511-+=515<5-33589",
"995<;o5-+355--&3;;o1531<35&;;$1o1;-5115155+1&3+-+555=5+-1399",
"995--&5<3+5#=8-1;$35#51<#-;$;o1$;$5+-<<-115X1-+55+5-O5#1<599",
"99531&5#55X<8>5-31-15<=55+51&111-33115-+5++3;+8<55X1<5&13599",
"985=&+5<5#1#355#<151-<5=15+53#3-55+<1&<5115---<55#1+#5+--599",
"995<115--<53#5#35<+-11-51-++<531-15533111-+&55#3=<53+5-11589",
"995=#X5-#5353X15<8&+1-#-53<-55X$5++51#++1++5355O#5<5<5X&+599",
"99531+5#&5351+1535-+5533O55<&+$;5$1<+<555&+5555+#535<5+15599",
"998@+551-+85O5+18<#5X58O3O5+&o5$X-5+5O58+15O55O5<-83 511X599",
"99651X5<3#1+153+1+55<=<#53#51;;;53+35<#<-55-<<=55+1##5O<5599",
"985>-&5#55O<8<53X55<5=O5155+&111+X35<8<O5515++8<55O115#--399",
"995<1&5<5+5-<5<#5+55--5+55#3-+51+5+18=-5+55#11#55+5-O5-11599",
"99811o5-&355=<=555#<-551-#<55-<#555#<-551-<<55<<#355=5+-1599",
"998=-15-#5153X35<8<X5538++5355X<5<5<X55<5#O5355O-5<5<5<1-599",
"99531.5<<#53+5&18=-5O58O51+55O5==8<#5O38+15O55+5-#8<O5X-5599",
"995<-15-51&+131$--555##5551##555<=-555=#1555#+111&&--513<399",
"985<-X5-55+11131+1535#O5555+-5<51O1535-+5555+11113;;<5+&1599",
"99511&5-1+11-1-11&15+35O55#51+5<=5&-8+15+55+131-&11&+5&11599",
"995<-35-&;11-5&111+1+55----55+1+353+3#35<-<-11;35&3;+511<299",
"99811.5+&51-383;151O55<8+#5<55X18<53 55<5#+511#58-13-5X-3599",
"998-&15<--11#3-111+3+58#<--85+5#<83+5O55<=1-13-<<-31+5-1<299",
"99531+5<3-&11113;+55<=<-55-<#<55#<+551#<=55-&111131+#5+13599",
"995<-$5#55o&111;o55<5#+5355+-5<55X15<5<O5535$$3111+1<5+;1599",
"995<1-5<1+1&;5;$1+15&;1+55$1;&51+3$15--1+35+11$31$1$+5-11599",
"995<-X5-&+1;+1$&1$&1+11o--+11o1#+1$+1+-1+&1+11o1&$1-X5X+<599",
"995<1+555555555555555535555555555555555555555555555555#<3499",
"996211<=<<-1#1---#3#1-<<&1-1--1#1-1--<#1--<-1-1&<<-1#<<<5499",
"9972<1<+1-&1O3+1-+1+1+-1+1+1&-1+1+1&#1+1+<-#1+1+-<+1+1-15299",
"898:855515515515155153551551513515115<5315135<5115155555<699",
"988,>3<<--<=<<-<-<<-<-<<#<<-<--<-<--<=<<-<=<<-<--<-<-<1<>899",
"999866555555555555555555555555555555555555555555555555568899",
"999999999999999999999999999999999999999999999999999999999999",
"999999999999999999999999999999999999999999999999999999999999"
};
