/* XPM */
static char *result[] = {
/* columns rows colors chars-per-pixel */
"60 91 12 1 ",
"  c black",
". c #800000",
"X c red",
"o c #008000",
"O c #808000",
"+ c yellow",
"@ c navy",
"# c #800080",
"$ c #008080",
"% c #808080",
"& c #C0C0C0",
"* c white",
/* pixels */
"************************************************************",
"************************************************************",
"************************************************************",
"************************************************************",
"************************************************************",
"************************************************************",
"*******  ***************************************************",
"*******%&***************************************************",
"*******%&*&&&&&&&&&&&&&&&&&&&&&&&&*&********&&&&&&**********",
"*******%&*&**********#. XXX X .X.X . .... .#*&&&&&&*********",
"*******%&*&**********&X .XX X..X...X XXX .X%*****&&*********",
"****&**%&*&****&   &**%X . .XX ...XX.   .X@%%****%&*********",
"**** **%&*&****     ***....XXX.......XX.X.%%+%**%%&*********",
"**** &* **&***&     ***%...             .%+%%%&&+%&*********",
"*****%O&**&****     ****    O%O&****&&% $*&%%+%$%$&*********",
"**********&**&%%   &%***&%%%%%%*&&%***&*$***&&*&%%&*********",
"****&  &**&*%         **%%%%%%&**$%**&&$$******&%$&*********",
"****&  &**&*          %*%%%%%%&*$%@&*&$$%******&%%&*********",
"***&%  %&*&*          %*%%%%%%&*&&%**&%$%******&%%&*********",
"***      *&*%   &O%   **%%%%%%&******&**%******&%%&*********",
"***% %  %*&**&%&* *%%&**%%%%%%&***&**&**%%%****&%%&*********",
"*****%%***&*****% &****&$%%%+%&***&&%&*&%+%****&%%&*********",
"**********$*****%&&***&%%%$%%%&********%+&*****&%%&*********",
"**********%%**********%$%%%%%%&***%&&&*%%******&%$&*********",
"**********$%%******&$% .@$%%+%&****%&*$+&%%****&$%&*********",
"**********$+&****&$*%% .  @%%+$&***&*&$+%$+&***&%%&*********",
"**********%%&*** O%$&%  & X.O%$%&&***%%%++%****%%%**********",
"**********%%&*&. O$&&% O .X $ +&&*$%%+%&$ &***%%%%**********",
"**********%%&%.X O$%%% O+O. %.X.+++..+%** %$&&**&$**********",
"**********%%%XXX O%&%%   O+O XX     .%%%&.#+$**@$%**********",
"**********%&%XXX O%%$% X.  O+O % X$$ &$&@ +%%**@$%**********",
"**********%+$XXX O%&%% X.X   O+ .X OO%&&* @+%**@$%**********",
"*********&%+%%XX O$%&% . . O@  O+O+  %%&* +%+&*$%%**********",
"*********&%%$&#% %$$%% . . O$%%     .%$&$ .+%$*$&&**********",
"*********&%%%$%%+++%%% XXX O%$$%  .XX+$%& O%OX.O%@**********",
"*********&%%%&%$&&&&%++XXX O   %  X XO$** @@$XXO%%**********",
"*********&%+%&$%%&%&&&%%+X O%&&% ..  O%&%$  @.XO%%**********",
"*********&%+$&%%$&$&&&&&%+OO%&&%  X..O$%$$ $ %XO%$**********",
"*********&%+%&*$+&&*%&%*&&%%@@ %  X.XO%&*&@$ $XO%$**********",
"*********&%%$*&&$%+%&&&&*%&%+  %  . ..%&&*@@$@.O%%**********",
"*********&%%%$$&$+$%+%&&&&&&%%&%  .  X+$&$$ $ $O&%**********",
"*********&%%%@&&*$%$$$+%&%*&*O%%  XXX.O$&%$ $$@%&%**********",
"*********&%%%$$*&$+$$$@%%*$*%&+%  XX  O%&*&@$$@%%%**********",
"*********&%%% $%&&%%$$+%%%&&&&%+  X O%$+&&%$ $@%%$**********",
"*********&%&% @$%&%+@+%%+%%&$*&%+  O%%+%$&$$ $@%%$**********",
"*********&%%%  $**&%%%%+$%+&*%**%OO%%+%%%&*&@ @%%%**********",
"*********&%%% @@&%&$%%+$%  +&&&%&+$%+%+%+&**$ @%%%**********",
"*********&%$% $ $$&%%+$+ . O%&&&&%+%%+%@%$&$$@@%%%**********",
"*********&%%% $ $*&&%%O .X  +%&%&&%+%%$$$%%&*$$%%%**********",
"*********&%%% $@@&*&%O .XX OO+&*%*&%+$$$$+$**&$%%$**********",
"*********&%%%@$$ $$&$%XX.X OO&+&&&&&&+%$@$%&%$@%%$**********",
"*********&%%%$ $ $%&$%.  . OO&O+&&%*&*%++%+$&%&%%%**********",
"*********&%%%. $ @**&%.. X OO  O+&*%*$&&&&%%&**%%$**********",
"*********&%$%X$@@@&$%%OXXX O%%&$O+%&&&&&*&%%$&%%%$**********",
"*********&%$%X% $ $$&%%  . O$&%&O ++&&*%&%*$%%&O%$**********",
"*********&%%%X.@ @%&&%%  . O%%&$O XO+%%&&&*$%$&%%%**********",
"*********&%&%XX$$$O*&$%..X OO   O XX.o%++%%&$%%%%%**********",
"*********&$%%..%%. $*$%X.   @&&%O X.X %$$%%O+%%%%%**********",
"*********&&&$*$%%% $%$%   OO  O$O     %&&$O XXOO%$**********",
"*********&&$$*&%%% **$+ +O.O+O    . X %&$$O XX.O&$**********",
"*********&&%@*&%%% &$%%%  X. O+O  .XX %%&$O XXXO&$**********",
"*********&&$$**%%+ $&$% %%.%%..O+O  . %&%%O XXXO%$**********",
"*********&$$%*&$+X *&%%.  O  XX  O+   %%&$O XX.%%%**********",
"*********&%&*&&*$% &&%&.O&&%O. & ..O+ %%%$O X%*&%%**********",
"*********&%%$****&.$&$%%&%&&%+O .X.   %&&$O %**&%%**********",
"*********&%+&***&+%+%%%****&$$%+O. &  %%&$%&***%+$**********",
"*********&%%&***&+%%+$*&%****$%%%$@ X %$&&*****%%$**********",
"*********&%%&****%&%%%**&****&%+%%%$  &********&O$**********",
"*********&%%&******+$*%%%%***&%%$$%+@&**********&%**********",
"*********&%%&****&%+&**&*****&%+%%$$@****&  *****%***.&*****",
"*********&%%&****O+%**%*&%***&%&%%%%***&&* %*&&**&*  $% %***",
"*********&%%&****&%%**&******&%%%%%%**   %%&   %*%*     %***",
"*********&%%&******%&*&******&%%%%%%*&          *&*&%  %****",
"*********&%%&******%$$%**@%$*&%%%%%%*&          *&**%  *****",
"*********&%%&*****&%$%&**@$%*&%%%%%%**          *&**%  *****",
"*********&%%&******$$%&*&%%&*&%%%%%%**&O%   %O%**&**********",
"*********&%%&&&&&**$*********%%%%$O%****&    ****%**&  *****",
"*********&%+$%+%+%*@  %%%%%%%       &***     %***&** ** ****",
"*********%%%&*%%$+$...         ...XX.***     %***&*&%**O&***",
"*********%%%**&+%$.X...XXXXXXXXXX   X%**&    ****&*&%**&****",
"*********&%****%+#X ... XX    .X..X...****&&*****&*&%*******",
"*********%&&&&&&$.. ... . .... . ... .$*&********%*&%*******",
"**************************************&&&&&&&&&&&&*&%*******",
"***************************************************&%*******",
"***************************************************% *******",
"************************************************************",
"************************************************************",
"************************************************************",
"************************************************************",
"************************************************************",
"************************************************************"
};
