/* XPM */
static char *result[] = {
/* columns rows colors chars-per-pixel */
"60 91 12 1 ",
"  c black",
". c #800000",
"X c red",
"o c #008000",
"O c #808000",
"+ c yellow",
"@ c navy",
"# c #800080",
"$ c #008080",
"% c #808080",
"& c #C0C0C0",
"* c white",
/* pixels */
"************************************************************",
"************************************************************",
"************************************************************",
"************************************************************",
"************************************************************",
"************************************************************",
"******%X****************************************************",
"*******X****************************************************",
"*******X**&&&&&&&&&&&&&&&&&&&&&&&&&&&&&&&&&&&&&&&&**********",
"*******X*&&********&.X.%..&..%...&..&...&..%*****$&*********",
"*******X*&******X***&.X&%%&XXX&&&XXX&XX&XX.*****%%&*********",
"***&***X*&*****%XX***%XXXXXXXXXXXXXXX%&&X.&****&%X&*********",
"***X***X*&****&XXX%***%..          ...XXX%*****&O.&*********",
"***%%*%%*&***&XXXXX&***   @$$%%$$       .******&%%&*********",
"****%X%**&***XXXXXXX***&*********&&%%O  %******&%$&*********",
"*********&**XXXXXXXXX**$&%***%%%&*%%%%%%%$%****&%&&*********",
"*****X&**&*XXXXXXXXXXX*@%$$**&$&**%%%%%%%&+%&**&%.&*********",
"****XXX**&**XXXXXXXXX**$$$@**@$$%*%%%%%%%*%%%%%%%.&*********",
"***XXXXX*&**&XXXXXXX&**%&&&***&&**&%%%%%+&&+..%%%%&*********",
"***XXXXX*&%**&XXXXX%*%%%**&*******&%%%%%%&*&+%XXX.&*********",
"****XXX**&%&**%XXXX**%%%&*&**&****&%%%%%%%**&%%%..&*********",
"****&X&**&#%&**XXX***&&%%*&&&*****&%%%%%%%*%%&&%&%&*********",
"*****&***&.%%***X****%%%$*&&&&*****%%%%%%%$+$%*&%.&*********",
"*********&.O&********$%%%%***&*****%%%%%%%%%+&*&%%&*********",
"*********&.O&****&%%@$%%+%*$%****%$$$%&%%%%%%**&%$&*********",
"*********&%%&**%@&@%%@$%%%$***&&%$&$%$$$$@#.#&$%%%&*********",
"*********&$%%%&% *@%%%@$%%&$$&&*&%%+%O %.XXX.%&&%.&*********",
"*********&$%$*&$@*@%&&%$@$%%%%%%%%$@% O%XXX.&$&$%@&*********",
"*********&#%%&%$%&@%&&&%%$$@$$$$$$$% O%XXXX%%#&$&$&*********",
"*********&X%%&& &$$%%&&*&&%%%%%%%%%  %XXXX.+.%&%&$&*********",
"*********&X%&% $*@$%$*%*%**&&&&&&%O &.XXXX%%X%&&*%&*********",
"*********&.%%% *$$$%  %*&*X&&&*%&O O XXXX.+%X%%@&$&*********",
"*********&X%. &%%$$%    %&&*&&*.% O$ .XXX%%+%+  $$&*********",
"*********&%%o&%.%%$%&&       %@% .%$  XX.+%X%O O%%&*********",
"*********&$%&&%+%+@%%&$$.     OO %%$$  X%%O%+  %%$&*********",
"*********&$%@.+%+%$%$*$$XX$$*%O O&&%$$  %%X%+ @%%%&*********",
"*********&.%$ +%+%&%&&$.X%$&$% O%&&+$$@ +%O&O $%%.&*********",
"*********&X%$ O&O%&%$$%XX$$&% O%$*%&+$$@&O%+  $%O.&*********",
"*********&X%$@ +%+%%$$XX$$*%  &$$%&*&%$%%+%+ @$%O.&*********",
"*********&X%$$ O%+%+$.X.$*$O %%*&&$*%%%%%X%O $$%%.&*********",
"*********&#%$$ .+%%+%%.$&$O O$%%%$$%%*%%%+%O $$%%%&*********",
"*********&&%$$@ +%X%%+$%%% O$$$%%&%&$*%%%O&O $$%%@&*********",
"*********&$%$$$ +%+%%&%$% .%$$$$+%%$%%%+%O+. $$%%%&*********",
"*********&%%$$$ O%+%%&%%  %$$$$$$%&$%%$+%%+  $$%%.&*********",
"*********&.%$$$ O%X%%%%%O%$$$X.$$%%&%%$+%O+  $$%%.&*********",
"*********&X%$$$ O%O%%%$&%%$$XXX#$$%%%@$+%O&. $$%%.&*********",
"*********&X%$$$ O%O%%%$%$+$$.XX$$$%+%%%+%O&O $$%%.&*********",
"*********&.%$$$ O%O%+$&%&%%$$X.$$%. +%$%%X%O $$%%@&*********",
"*********&%%$$$ O%O%%&%$@%%%$$$$$O %$%&%%+%O $$%%%&*********",
"*********&$%$$$ O%X%%%*$&%*+$%$$+ O%&%%%%+%+ $$%%$&*********",
"*********&&%$$$ O%+%%%*%%$$%+$$& O&&$#%%%X%+ @$%%$&*********",
"*********&.%$$$ O%X%%%&%&$%%&%%  %&$#X#%+%O&O $%%.&*********",
"*********&X%$$@ +%X%$$%&&%%%&$O %&%$XX$@&%X%O $%%.&*********",
"*********&X%$$@ +%%+$$$&&%&$$O O%&$.X#$%%%+%+ @%%.&*********",
"*********&X%$$ O&O%+ $$%+&%%+ O%*$$X.$&%%+%+%O %%.&*********",
"*********&.%$$ O%+%%  $$%&&% .&*$$XX%$&%%%%X%+ O%$&*********",
"*********&&%$  +%X%%.  $$%%. %    ..$$*&%$+%O%%&%@&*********",
"*********&$%$ O%+%+.X  @$$O %        &*%%@%%X$*%%%&*********",
"*********&%%  +%X%%XXX  $+ O%*&&%%     %%$$+$*$.%.&*********",
"*********&$&@%%O%&.XXXX + O&X*%%*X**%   %$$$*% %O.&*********",
"*********&$&%&$+%%XXXXX&  %******&*X**@ %$$&& %&O.&*********",
"*********&$&%&%%&.XXXX%O %%%%%%%%&&*&X*%%$$& %&%O.&*********",
"*********&$&%&%%%XXXX%O %$$$$$$$$%%%&*%.%@&% &&%O.&*********",
"*********&$&$&#+.XXX.% O$$$%%%%%$$@$%%*&%@*@$X*$%%&*********",
"*********&.%&%+%XXXX% O$%%%&&&&$%%%$@$%%%$* %*#%%@&*********",
"*********&&%&%$.XX.$$ %%%%&*&&&*&$%%%@$+$$* $&*&%$&*********",
"*********&@%%&*$$$%%%%%@%$$%***&&&%%%%$@%$%&***&%.&*********",
"*********&&%&*&+%%%%%%%%$&*****&**$+%$$&&******&O.&*********",
"*********&.O&*%%%%%%%%%%%*****%%%&&%%+%***&X***&O.&***&*****",
"*********&%%%*&%%%%&%%+%%**********$%%&***XXX**&%.&**XX&****",
"*********&..%+%&&*%%&%%%%&****%%*%*&%&&**XXXX%**%%&*%XXX****",
"*********&.XX.%%**&%%%%%%&*******&**%%%*XXXXXX&**$&&XXXXX***",
"*********&%%%.X%%*&%%%%%%&*******&**%%*XXXXXXXX&**&*XXXX%***",
"*********&%%%%%%%%&%%%%%%&*%$$$**$$@%*&XXXXXXXXX**&**XXX****",
"*********&.%&*&%%+&%%%%%%&**%@$**$$$$*XXXXXXXXXX&*&**&X*****",
"*********&%%&***&%%%&%%%%%*&%%%**%$%$**XXXXXXXX%**&*********",
"*********&@%&*****&%O%%%&%&**&******&***XXXXXXX***&**XX%****",
"*********&&%&******@     O%&&*&&&&%$$***&XXXXX****&*%&*X&***",
"*********&.O&*****&X..               &***%XXX*****&*X***X***",
"*********&XO&*****.XXXXXX..........XX.****XX&*****&*X*******",
"*********&.%*****%XX*&&XXXXXXXXXXX&&XX.****&******&*X*******",
"*********&%&*&&*&...%..&..%%%&...&..&..$*********&&*X*******",
"**********&&&&&&&&*&&**&&&&&&&&&&&&&&&&&&&&&&&&&&&**X*******",
"****************************************************X*******",
"***************************************************&X%******",
"************************************************************",
"************************************************************",
"************************************************************",
"************************************************************",
"************************************************************",
"************************************************************"
};
