/* XPM */
static char *result[] = {
/* columns rows colors chars-per-pixel */
"60 91 11 1 ",
"  c black",
". c #800000",
"X c red",
"o c #808000",
"O c yellow",
"+ c navy",
"@ c #800080",
"# c #008080",
"$ c #808080",
"% c #C0C0C0",
"& c white",
/* pixels */
"&&&&&&&&&&&&&&&&&&&&&&&&&&&&&&&&&&&&&&&&&&&&&&&&&&&&&&&&&&&&",
"&&&&&&&&&&&&&&&&&&&&&&&&&&&&&&&&&&&&&&&&&&&&&&&&&&&&&&&&&&&&",
"&&&&&&&&&&&&&&&&&&&&&&&&&&&&&&&&&&&&&&&&&&&&&&&&&&&&&&&&&&&&",
"&&&&&&&&&&&&&&&&&&&&&&&&&&&&&&&&&&&&&&&&&&&&&&&&&&&&&&&&&&&&",
"&&&&&&&&&&&&&&&&&&&&&&&&&&&&&&&&&&&&&&&&&&&&&&&&&&&&&&&&&&&&",
"&&&&&&&&&&&&&&&&&&&&&&&&&&&&&&&&&&&&&&&&&&&&&&&&&&&&&&&&&&&&",
"&&&&&&%X%&&&&&&&&&&&&&&&&&&&&&&&&&&&&&&&&&&&&&&&&&&&&&&&&&&&",
"&&&&&&&X&&&&&&&&&&&&&&&&&&&&&&&&&&&&&&&&&&&&&&&&&&&&&&&&&&&&",
"&&&&&&&X&&%%%%%%%%%%%%%%%%%%%%%%%%%%%%%%%%%%%%%%%%&&&&&&&&&&",
"&&&&&&&X&%&&&&&&&&&&&$X.%.X.$.%....%.o$...%.@&&&&&$&&&&&&&&&",
"&&&&&&&X&%&&&%%&&&%%&&$X$%%%XXX%%%&XX%XXX&X.&#%&&&$&&&&&&&&&",
"&&&%&&&X&%&%XXXX&XXXX&&.           ..$%%&X.&##%&&$$&&&&&&&&&",
"&&&X%&&X&%&XXXXXXXXXX$&% $$$$$$        .XX%%#$#&%o$&&&&&&&&&",
"&&&%X&%X&%&XXXXXXXXXXX&%&$$%&&&$$%%$$$   $&#####$o$&&&&&&&&&",
"&&&&%XX&&%&XXXXXXXXXX$&%&#%&$&&$$$$$$$$$o&&######o$&&&&&&&&&",
"&&&&&&&&&%&%XXXXXXXXX&&$&##$&&&%$$$$$$$$O%%#$####o$&&&&&&&&&",
"&&&XX%XX&%&&XXXXXXXXX&%&&%&&&&&%$$$$$$$$$%&######o$&&&&&&&&&",
"&&%XXXXX%%&&&XXXXXXX&&%&%&&&&&&%$$$$$$$$$%&%#####o$&&&&&&&&&",
"&&&XXXXX&%&&&%XXXXX%&&$$%&&&&&&%$$$$$$$$$%&%##+%$o$&&&&&&&&&",
"&&&%XXX$&%&&&&$XXX%&&&&%%$%&&&&&#$$$%$$$$%&%$#$&%o$&&&&&&&&&",
"&&&&XXX&&%&&&&&XX$&&&&&#$&&&&&&&$$$$$$$$$%&&$#%&%o$&&&&&&&&&",
"&&&&&X&&&%&&&&&&$&&&&&&&%&&&&&&&%+$$$$$$$$%$%%&&%o$&&&&&&&&&",
"&&&&&&&&&%&&&&&&&&&&&&&%&&&&&&&$+##$$$$$$#$$$%&&%o$&&&&&&&&&",
"&&&&&&&&&%&&&&%$$%%&$%&%%&%&%$+####+#$$$$$#$$#&&%o$&&&&&&&&&",
"&&&&&&&&&%&&&%o$$$$$Oo&&$$$$$$$$$$$$$##$$$$$$$&&%.$&&&&&&&&&",
"&&&&&&&&&%&&%#$$$$$$$$&$%&%&&&$&&&%&&&$$$$$$$%&&%.$&&&&&&&&&",
"&&&&&&&&&%&&$%%%&&%$%$$$$%%%&%%%&%&%&%&&$$$$$$&&$.$&&&&&&&&&",
"&&&&&&&&&%&%%&&&%&&&$$o$O$%%%%$%%%$%%%$$$oooO$$&$.$&&&&&&&&&",
"&&&&&&&&&%&%$#$&&%%%$$o$$O###########$#$%o$O%&$o$.$&&&&&&&&&",
"&&&&&&&&&%%%&$#&&#%X$O$o %$#........@#$$$ $$&X%%$$$&&&&&&&&&",
"&&&&&&&&&%&%&#%&#$%X$$$$o$O#.XXXXXoX@#O.o$$&$XX&&$$&&&&&&&&&",
"&&&&&&&&&%&&#&%+O.$&&&$#oo$$+Xo$$OX.#%$o$O$%&%%&&&$&&&&&&&&&",
"&&&&&&&&&%&&%#+#% O%%X$$%o$O#XO$%XX#$$oo$$ O%&&X&&$&&&&&&&&&",
"&&&&&&&&&%&&#$$#$  O$X%$$o%%#.X$XX+#$oo$O  .O&XX&%$&&&&&&&&&",
"&&&&&&&&&%$$$$OO$# o%&&$$oo$$+XXX.#%%o O  # o$%X&%$&&&&&&&&&",
"&&&&&&&&&%X$$$##$#  $&$@%%o$$#XXX#$$ $%o ### O%&&&$&&&&&&&&&",
"&&&&&&&&&%X%$##$%## O$XX%#o$O#XX+#%%o$%  ###+ O%&X$&&&&&&&&&",
"&&&&&&&&&%.%$O##O## o%%&$$$ $#..#Ooo O#$ +### o$$X$&&&&&&&&&",
"&&&&&&&&&%$%$OO#O## .%%$#$o$$$@#$$o$%$$%# #### O%%$&&&&&&&&&",
"&&&&&&&&&%$$$$#$$#$+ $$$O$oo$$#$$o.$%+X.%  ###+.$&$&&&&&&&&&",
"&&&&&&&&&%O$#%+%###  $$.#$%o$$#O$o%O#$X.%o #### O%$&&&&&&&&&",
"&&&&&&&&&%$$$#$O##+ %$.X@$oo$$$$$.$$%$$O%$ #### o%$&&&&&&&&&",
"&&&&&&&&&%$OO#%### o%O$$$$$$$$$$$$$#%#$.$$ +#### $$&&&&&&&&&",
"&&&&&&&&&%###$$##  O..$$#..........$$#$X.% +####oO$&&&&&&&&&",
"&&&&&&&&&%##$O###  %.X$#$&%%&&$&%%%#$$$$$$ +####%$$&&&&&&&&&",
"&&&&&&&&&%+#O##$# oo%$$%$&XX&XX%$X%#%#$$O$ #$##O#+%&&&&&&&&&",
"&&&&&&&&&%#O##### o$o$$%$%%$&$$%&$&$$$.X$# ###O###%&&&&&&&&&",
"&&&&&&&&&%O +#### o@Xo$%#........@.#$$..O+ $#$#$$#%&&&&&&&&&",
"&&&&&&&&&%#o #### o$o$$%#$$$$$$$$o$#$$O$# +##O#OO$%&&&&&&&&&",
"&&&&&&&&&%%O #### oOO$$%$Ooo$$#$Oo$#XX$%  $#$##$$$%&&&&&&&&&",
"&&&&&&&&&%&$ +###  O.Xo#O%$ O##% %$$$$%  ###O##+$$%&&&&&&&&&",
"&&&&&&&&&%&%o #### o$.+$$ $%$##$% $$$$$o ##$$$$$$$%&&&&&&&&&",
"&&&&&&&&&%X%%  ###  $O$O$o$$#.#$Oo$$$&%o ##$#OO#$o%&&&&&&&&&",
"&&&&&&&&&%XX%O ####  #O$ooO#.X#O$o$$&X%O ##O#+O$$.%&&&&&&&&&",
"&&&&&&&&&%%&&$o ###+ O$o$$##XX#$$% %$X.%  #$$#+$%.%&&&&&&&&&",
"&&&&&&&&&%&&&&O  ## o$ooo$#XXX@$$o$$$$&$o #$##O$$.%&&&&&&&&&",
"&&&&&&&&&%X&XX%O ++ OOo$O#.X%X.#%oo$$&&%O  %$O$$$%%&&&&&&&&&",
"&&&&&&&&&%&&XX&$O  O$$.$##XX$OX#O$Oo$%XX$o O##O#&&%&&&&&&&&&",
"&&&&&&&&&%&&%&&&$oo%oo$$#Xoo%XX+$% O$$X$%O O#+$%&&%&&&&&&&&&",
"&&&&&&&&&%%&&$X%&#O$o$O#.XOOX$X.#O$o O%&%%o$#&&$%&%&&&&&&&&&",
"&&&&&&&&&%o%&$X%&O$o O#+XXXXXXXX#$$%o#$%X$$#&##%%%%&&&&&&&&&",
"&&&&&&&&&%.$$&$&$$o$$$+#++++++@@##O$oo$$X%$&&$$&%%%&&&&&&&&&",
"&&&&&&&&&%.$$o%$OO$$$%%%%%%%%%%%%%$O%o$$#&%&&$$$$&%&&&&&&&&&",
"&&&&&&&&&%.$&%$O$ o$%$%%%$%%%%%%%%$O$oo%&&&$&&&$%&%&&&&&&&&&",
"&&&&&&&&&%.$&&%#$$$#%&%&%&%&&%%&&%&$O$%$$$%&%#$%&&%&&&&&&&&&",
"&&&&&&&&&%.$&&%$$$$$$$%%%%%%%%%%%%$%#&$$$$$$$$$%&&%&&&&&&&&&",
"&&&&&&&&&%X$&&$$$$#$$$#$%%%%%%%$%%$#&&$O$$$$$$%&&&%&&&&&&&&&",
"&&&&&&&&&%X$&&$$$#$$$$$$####+#%&&&&&%&&$&&%%%%&&&&%&&&&&&&&&",
"&&&&&&&&&%X$&&&#$##$$$$$$###%&&&&&&&%&&&&&&&&&&&&&%&&&&&&&&&",
"&&&&&&&&&%.$&&+&%&%$$$$$$$#%&&&&&&&&%&&&&&&X&&&&&&%&&%X&&&&&",
"&&&&&&&&&%.$&%##&&%$$$$$$$$#&&&&&&&$#&&&&&XXX&&&&&%&&XXX&&&&",
"&&&&&&&&&%.%&#$#%&%$$$$$$$$$%&&&&&%$%&&&&$XXX$&&&&%&XXXX%&&&",
"&&&&&&&&&%.$####%&%$$$$$$$$$%&&&&&&%$$%&%XXXXX%&&&%%XXXXX&&&",
"&&&&&&&&&%.$####%%%$$$$$$$$$%&&&&&&&&%&&XXXXXXX&&&%$XXXXX&&&",
"&&&&&&&&&%.$##$##%%$$$$$$$$$%&&&&&#&&%&XXXXXXXXX&&%&XX%X$&&&",
"&&&&&&&&&%.$#####%&$%$$$$$$$%&&&%+#&%&%XXXXXXXXX%&%&&&&&&&&&",
"&&&&&&&&&%.$#####&& $$$$$$$$$&&$%&$&%&$XXXXXXXXX$&%&&XX$&&&&",
"&&&&&&&&&%.$#####&$    o$$%$$&&&&%%&%&XXXXXXXXXXX&%&X%&X%&&&",
"&&&&&&&&&$o%&#$+&$XXX.              $&$XXXXXXXXX$&%&X&&%X&&&",
"&&&&&&&&&$$&&%+%%XX%%%%X....     ....%&XXXX&XXXX&&%&X&&&&&&&",
"&&&&&&&&&$&&&&%%.X&XXX%XX&%%%XXX%%%%X.&&%&&&&&%&&&%&X&&&&&&&",
"&&&&&&&&&$%%%%%+.$...@$.$....$..$..$..+%%%%%%%%%%%%&X&&&&&&&",
"&&&&&&&&&&&&&&&&&&&&&&&&&&&&&&&&&&&&&&&&&&&&&&&&&&&&X&&&&&&&",
"&&&&&&&&&&&&&&&&&&&&&&&&&&&&&&&&&&&&&&&&&&&&&&&&&&&&X&&&&&&&",
"&&&&&&&&&&&&&&&&&&&&&&&&&&&&&&&&&&&&&&&&&&&&&&&&&&&%X%&&&&&&",
"&&&&&&&&&&&&&&&&&&&&&&&&&&&&&&&&&&&&&&&&&&&&&&&&&&&&&&&&&&&&",
"&&&&&&&&&&&&&&&&&&&&&&&&&&&&&&&&&&&&&&&&&&&&&&&&&&&&&&&&&&&&",
"&&&&&&&&&&&&&&&&&&&&&&&&&&&&&&&&&&&&&&&&&&&&&&&&&&&&&&&&&&&&",
"&&&&&&&&&&&&&&&&&&&&&&&&&&&&&&&&&&&&&&&&&&&&&&&&&&&&&&&&&&&&",
"&&&&&&&&&&&&&&&&&&&&&&&&&&&&&&&&&&&&&&&&&&&&&&&&&&&&&&&&&&&&",
"&&&&&&&&&&&&&&&&&&&&&&&&&&&&&&&&&&&&&&&&&&&&&&&&&&&&&&&&&&&&"
};
