/* XPM */
static char *result[] = {
/* columns rows colors chars-per-pixel */
"60 90 10 1 ",
"  c black",
". c #800000",
"X c red",
"o c #808000",
"O c yellow",
"+ c navy",
"@ c #800080",
"# c #808080",
"$ c #C0C0C0",
"% c white",
/* pixels */
"%%%%%%%%%%%%%%%%%%%%%%%%%%%%%%%%%%%%%%%%%%%%%%%%%%%%%%%%%%%%",
"%%%%%%%%%%%%%%%%%%%%%%%%%%%%%%%%%%%%%%%%%%%%%%%%%%%%%%%%%%%%",
"%%%%%%%%%%%%%%%%%%%%%%%%%%%%%%%%%%%%%%%%%%%%%%%%%%%%%%%%%%%%",
"%%%%%%%%%%%%%%%%%%%%%%%%%%%%%%%%%%%%%%%%%%%%%%%%%%%%%%%%%%%%",
"%%%%%%%%%%%%%%%%%%%%%%%%%%%%%%%%%%%%%%%%%%%%%%%%%%%%%%%%%%%%",
"%%%%%%%##%%%%%%%%%%%%%%%%%%%%%%%%%%%%%%%%%%%%%%%%%%%%%%%%%%%",
"%%%%%%% #%%%%%%%%%%%%%%%%%%%%%%%%%%%%%%%%%%%%%%%%%%%%%%%%%%%",
"%%%%%%%#%%%%%%%%%%%%%%%%%%%%%%%%%%%%%%%%%%%%%%%%%%%%%%%%%%%%",
"%%%%%%%#%%%%%%%%%%%%%%%%%%%%%%%%%%%%%%%%%%%%%%%%%%%%%%%%%%%%",
"%%%%%#%#%%%%%%%%%%%%%%%%%%%%%%%%%%%%%%%%%%%%%%%%%%%%%%%%%%%%",
"%%%%% $ %%%%%%%%%%%%%%%%%%%%%%%%%%%%%%%%%%%%%%%%%%%%%%%%%%%%",
"%%%%%%#$%%%%%%%%%%%%%%%%%%%%%%%%%%%%%%%%%%%%%%%%%%%%%%%%%%%%",
"%%%%%%$$%%%%%%%%%%%%%%%$$$$%%%%%%%%%%%%%%%%%%%%%%%%%%%%%%%%%",
"%%%%%## #%%%%%%%%%%%%%$###%$%%%%%%%%%%%%%%%%%%%%%%%%%%%%%%%%",
"%%%%% %% %%%%%%%%%%%%%%###$#%%%%%%%%%%%%%%%%%%%%%%%%%%%%%%%%",
"%%%%% %% %%%%%%%%%%%%%%%$$%$%%%%%%%%%%%%%%%%%%%%%%%%%%%%%%%%",
"%%%%% %% %%%%%%%%%%%%%%%$ #$%%%%%%%%%%%%%%%%%%%%%%%%%%%%%%%%",
"%%%%% %$ %%%%%%%%%%%%%%%#.. %%%%%%%%%%#$%%%%%%%%%%%%%%%%%%%%",
"%%%%%%  %%%%%%%%%%%%%%%%%#o#%%%%%%%%%#$%%%%%%%%%%%%%%%%%%%%%",
"%%%%%$%%%%%%%%%%%%%%%%%%%##$%%%%%%%%%# %%%%%%%%%%%%%%%%%%%%%",
"%%%%% # #%%%%%%%%%%%%%%%$##$%%#$%%%%%%  %%%%%%%%%%%%%%%%%%%%",
"%%%%%#$#%%%%%%%%%%%%%%%%$$#$%%$###. $%$ $%%%%%%%%%%%%%%%%%%%",
"%%%%%# $%%%%%%%%%%%%%%%%$$$$%%%$.... %% #%%%%%%%%%%%%%%%%%%%",
"%%%%%## %%%%%%%%%%%%%%%%$oOo%%%%%$X..##. %%%%%%%%%%%%%%%%%%%",
"%%%%%#%#%%%%%%%%%%%%%%%%%#oo%%#%%%$.. @. $%%%%%%%%%%%%%%%%%%",
"%%%%% # #%%%%%%%%%%%%%%%%$oO$%$$%$o.. .  $%%%%%%%%%%%%%%%%%%",
"%%%%%%%%%%%%%%%%%%%%%%%%%$OO$$#%%#O..    %%%%%%%%%%%%%%%%%%%",
"%%%%%    %%%%%%%%%%%%%%%%%oO#o.%#Oo$.#$  %%%%%%%%%%%%%%%%%%%",
"%%%%%#$%#%%%%%%%%%%%%%%%%%$o#$..Ooo#$o$ #$%%%%%%%%%%%%%%%%%%",
"%%%%%# #%%%%%%%%%%%%%%%%%$#oo.  $o$$#$o.  #%%%%%%%%%%%%%%%%%",
"%%%%%###%%%%%%%%%%%%%%%%%%    ..#o$ ##.# ++%%%%%%%%%%%%%%%%%",
"%%%%%#$%#%%%%%%%%%%%%%%%%.o$#...o###$%. ++#%%%%%%%%%%%%%%%%%",
"%%%%%    %%%%%%%%%%%%%%%oo$oo.  . %%%   + $%%%%%%%%%%%%%%%%%",
"%%%%%%%%%%%%%%%%%%%%%%%# $o#.o   .$#  ## $$$%%%%%%%%%%%%%%%%",
"%%%%%   $%%%%%%%%%%%%%%  o ###  #. # $%#..#$%%%%%%%%%%%%%%%%",
"%%%%%#$% %%%%%%%%%%%%% #o ##o  #  ##$%%$.#%%%%%%%%%%%%%%%%%%",
"%%%%%### %%%%%%%%%%%%$   $$%#     $$$%%%#%%%%%%%%%%%%%%%%%%%",
"%%%%%#  %%%%%%%$#%%$+ # o$%%$   oo$#%%%%%%%%%%%%%%%%%%%%%%%%",
"%%%%%#$ %%%%%%% ##   +  o$$$$  #$  o%%%%%%%%%%%%%%%%%%%%%%%%",
"%%%%%  # %%%%%%%#+ +++# $#$%##%##ooo#%%%%%%%%%%%%%%%%%%%%%%%",
"%%%%%%%%%%%%%%%%%%%%  #.###$$%%$oo#o%%%%%%%%%%%%%%%%%%%%%%%%",
"%%%%%%%%%%%%%%%%%%%#. .o#$$%#$%%#oo$%%%%%%%%%%%%%%%%%%%%%%%%",
"%%%%%%%%%%%%%%%%%%$...# #%%%  #%%o#%%%%%%%%%%%%%%%%%%%%%%%%%",
"%%%%%%%%%%%%%%%$$$....   %%.   o%$#%%%%%%%%%%%%%%%%%%%%%%%%%",
"%%%%%%%%%%%%%%%$.#%%#.    ..ooo   %%%%%%%%%%%%%%%%%%%%%%%%%%",
"%%%%%%%%%%%%%%%.. #%#o  #o..oO$$$#%%%%%%%%%%%%%%%%%%%%%%%%%%",
"%%%%%%%%%%%%%%$. # $$# #Ooo..#ooOO#%%%%%%#  %%%%%%%%%%%%%%%%",
"%%%%%%%%%%%%%%$. $$o%$ oOOOo.. oOOO#%%%%%$%% %%%%%%%%%%%%%%%",
"%%%%%%%%%%%%%%X. #OOooo oOOoOoooOOOO$%%%%%%%#.%%%%%%$%$%%%%%",
"%%%%%%%%%%%%%$XX. OOOOoOOOOOooOOOOOOo$%%%%%%$.#%%%%% $ $%%%%",
"%%%%%%%%%%%%%.X..##oOOoOOOOO$%#oOOOOOOo%%%%%$..%%%%%$# %%%%%",
"%%%%%%%%%%%%%...#%%$oOOoOOOO$%%%$ooOOOOo$%%%#..$%%%%#  %%%%%",
"%%%%%%%%%%%%%...%%%%$#OOoOOO#%%%%%$oOoOOOo%%#..$%%%% % %%%%%",
"%%%%%%%%%%%%%#..%%%%%#oOooOOo%%%%%%%oOoOOO# ...#%%%$ % %%%%%",
"%%%%%%%%%%%%%$.$% %%%%$oOOOOo%%%%%%%%$#ooo$#.X..%%%%#  $%%%%",
"%%%%%%%%%%%%%%..##%%%%%%oOOO#%%%%%%%%%%%$##..X..%%%%%%%%%%%%",
"%%%%%%%%%%%%%%%##%%%%%%%$oo##%%%%%%%%%%%%%% ....%%%$   $%%%%",
"%%%%%%%%%%%%%%%%%%%%%%%$%%$#%%%%%%%%%%%%%%% #...%%%%%% %%%%%",
"%%%%%%%%%%%%%%%%%%%%%%$$$%%%%%%%%%%%%%%%%%%%%%#$%%%%$# %%%%%",
"%%%%%%%%%%%%%%%%%%%%%$$$%%%%%%%%%%%%%%%%%%%%%%%%%%%%$$ %%%%%",
"%%%%%%%%%%%%%%%%%%$%$$$$%%%%%%%%%%%%%%%%%%%%%%%%%%%$$% %%%%%",
"%%%%%%%%%%%%%#%%%$$$#$$%%%%%%%%%%%%%%%%%%%%%%%%%%%%$   #%%%%",
"%%%%%%%%%%%%$$$$$$$$##%$%%%%%%%%%%%%%%%%%%%%%%%%%%%%%%%%%%%%",
"%%%%%%%%%%%%%$$%#####$$$%%%%%%%%%%%%%%%%%%%%%%%%%%%$ $ $%%%%",
"%%%%%%%%%%%%%%$$$######%$%%%%%%%%%%%%%%%%%%%%%%%%%%%#%#%%%%%",
"%%%%%%%%%%%%%%####   ####$$$$%%%%$%##$$$$$%%%%%%%%%%%  %%%%%",
"%%%%%%%%%%%%%%$####$$$$$$#$$$$######$$$#$$$$$%%%%%%%% #%%%%%",
"%%%%%%%%%%%%%%%%%%%%%%%%%%%%%%%%%%%%%%%%%%%%%%%%%%%%$##%%%%%",
"%%%%%%%%%%%%%%%%%%%%%%%%%%%%%%%%%%%%%%%%%%%%%%%%%%%$ $ $%%%%",
"%%%%%%%%%%%%%%%%%%%%%%%%%%%%%%%%%%%%%%%%%%%%%%%%%%%%%%%%%%%%",
"%%%%%%%%%%%%%%%%%%%%%%%%%%%%%%%%%%%%%%%%%%%%%%%%%%%%#  %%%%%",
"%%%%%%%%%%%%%%%%$$%$%$%$$$###$$$$$$$$$$%%%%%%%%%%%%$ %#$%%%%",
"%%%%%%%%%%%%%%%%%%$$#$#$###$###$%$%%%%%%%%%%%%%%%%%$#%##%%%%",
"%%%%%%%%%%%%%%%%%%%%%%%%%$%%%%%%%%%%%%%%%%%%%%%%%%%$#%##%%%%",
"%%%%%%%%%%%%%%%%%%%%%%%%%%%%%%%%%%%%%%%%%%%%%%%%%%%$#%##%%%%",
"%%%%%%%%%%%%%%%%%%%%%%%%%%%%%%%%%%%%%%%%%%%%%%%%%%%%   %%%%%",
"%%%%%%%%%%%%%%%%%%%%%%%%%%%%%%%%%%%%%%%%%%%%%%%%%%%%%$%%%%%%",
"%%%%%%%%%%%%%%%%%%%%%%%%%%%%%%%%%%%%%%%%%%%%%%%%%%%%% #%%%%%",
"%%%%%%%%%%%%%%%%%%%%%%%%%%%%%%%%%%%%%%%%%%%%%%%%%%%% $##%%%%",
"%%%%%%%%%%%%%%%%%%%%%%%%%%%%%%%%%%%%%%%%%%%%%%%%%%%% %$$%%%%",
"%%%%%%%%%%%%%%%%%%%%%%%%%%%%%%%%%%%%%%%%%%%%%%%%%%%% %%%%%%%",
"%%%%%%%%%%%%%%%%%%%%%%%%%%%%%%%%%%%%%%%%%%%%%%%%%%%% %%%%%%%",
"%%%%%%%%%%%%%%%%%%%%%%%%%%%%%%%%%%%%%%%%%%%%%%%%%%%% #%%%%%%",
"%%%%%%%%%%%%%%%%%%%%%%%%%%%%%%%%%%%%%%%%%%%%%%%%%%%%$$%%%%%%",
"%%%%%%%%%%%%%%%%%%%%%%%%%%%%%%%%%%%%%%%%%%%%%%%%%%%%%%%%%%%%",
"%%%%%%%%%%%%%%%%%%%%%%%%%%%%%%%%%%%%%%%%%%%%%%%%%%%%%%%%%%%%",
"%%%%%%%%%%%%%%%%%%%%%%%%%%%%%%%%%%%%%%%%%%%%%%%%%%%%%%%%%%%%",
"%%%%%%%%%%%%%%%%%%%%%%%%%%%%%%%%%%%%%%%%%%%%%%%%%%%%%%%%%%%%",
"%%%%%%%%%%%%%%%%%%%%%%%%%%%%%%%%%%%%%%%%%%%%%%%%%%%%%%%%%%%%",
"%%%%%%%%%%%%%%%%%%%%%%%%%%%%%%%%%%%%%%%%%%%%%%%%%%%%%%%%%%%%"
};
