/* XPM */
static char *result[] = {
/* columns rows colors chars-per-pixel */
"60 91 11 1 ",
"  c black",
". c #800000",
"X c red",
"o c #808000",
"O c yellow",
"+ c navy",
"@ c #800080",
"# c #008080",
"$ c #808080",
"% c #C0C0C0",
"& c white",
/* pixels */
"&&&&&&&&&&&&&&&&&&&&&&&&&&&&&&&&&&&&&&&&&&&&&&&&&&&&&&&&&&&&",
"&&&&&&&&&&&&&&&&&&&&&&&&&&&&&&&&&&&&&&&&&&&&&&&&&&&&&&&&&&&&",
"&&&&&&&&&&&&&&&&&&&&&&&&&&&&&&&&&&&&&&&&&&&&&&&&&&&&&&&&&&&&",
"&&&&&&&&&&&&&&&&&&&&&&&&&&&&&&&&&&&&&&&&&&&&&&&&&&&&&&&&&&&&",
"&&&&&&&&&&&&&&&&&&&&&&&&&&&&&&&&&&&&&&&&&&&&&&&&&&&&&&&&&&&&",
"&&&&&&&&&&&&&&&&&&&&&&&&&&&&&&&&&&&&&&&&&&&&&&&&&&&&&&&&&&&&",
"&&&&&&&&&&&&&&&&&&&&&&&&&&&&&&&&&&&&&&&&&&&&&&&&&&&&&&&&&&&&",
"&&&&&&$ &&&&&&&&&&&&&&&&&&&&&&&&&&&&&&&&&&&&&&&&&&&&&&&&&&&&",
"&&&&&&& &&&&&&&&&&&&&&&&&&&&&&&&&&&&&&&&&&&&&&&&&&&&&&&&&&&&",
"&&&&&&& &%$%%%$%$$$%$#$+$$$@ @ @@@ . ... @#%%$$$##&&&&&&&&&&",
"&&&&&&& &%&&&&&&&&&&&$X. XXX X .. .X  . .@&&&%$@O#&&&&&&&&&&",
"&&&&&&& &%&&&&&&&&&&&&@X .. .X..XXXXXXXXX%&&&$oX$#&&&&&&&&&&",
"&&&%&&& &%&&&&&& %&&&&%.X .X...         $&&&&$$X%#&&&&&&&&&&",
"&&&$%&& &%&&&&&   &&&&&$..      $$$$$$$ &&&&&%O$$$&&&&&&&&&&",
"&&&% %$$&%&&&&$    &&&&&    $$%$&&&$###&&&&&&&$O%%&&&&&&&&&&",
"&&&&%$$&&%&&&%      &&&&%$$$%$$$&&&%%#%&&&&&&$$@O#&&&&&&&&&&",
"&&&&&&&&&%&&&       $&&&$$$$$$$$&&&%##%&%&&&%O$X$#&&&&&&&&&&",
"&&&&& $&&%&&         %&%$$$$$$$$&&&&&$%&%&&&&$O$O$&&&&&&&&&&",
"&&&&$  %&%&&         $&$$$$$$$$%&&&&&&&&&%&&&&$O$%&&&&&&&&&&",
"&&&&    &%&&         $&$$$$$$%$%&&&&&&&%%%&&&%O$O#&&&&&&&&&&",
"&&&     $%%&    $%   %%$#$$#$$#O$&&&&&&##%&&&$$X$#&&&&&&&&&&",
"&&&$ $  %%%&&$$& %%$%&%$%$#O$$$$$&&&&$$$%&&&&$$X$#&&&&&&&&&&",
"&&&&&$$&&%%&&&&& $&&&%%#$#$O#$$$%&&&&&%$&&&&&%O$O#&&&&&&&&&&",
"&&&&&&&&&%%&&&&&%%&&%oO$$$##$$#%&&&&&&&$&&&&&&$O$%&&&&&&&&&&",
"&&&&&&&&&%%&&&&&&&&&%O##$$$$#$$&&&&&&&&%&&&&%&&%#%&&&&&&&&&&",
"&&&&&&&&&%%&&&&&&&&&%$$$O#$$$$$$%%%%%%%#&&&%&%%%&#&&&&&&&&&&",
"&&&&&&&&&%%&&&&&&&$+##$%#$$$$$OOoOOOO$$%o$$&&$%&%#&&&&&&&&&&",
"&&&&&&&&&%%&&&&%$#+O##O%###&$##%&##$%$$$&$$$&$$%$#&&&&&&&&&&",
"&&&&&&&&&%%&&&o o#$.o#$&#%#&%##&&#%%$%$ %O.$O$$%$#&&&&&&&&&&",
"&&&&&&&&&&%&$.X.o##o$#O$$$$$$$$$$$$#$$%&$$.# o$%%%&&&&&&&&&&",
"&&&&&&&&&&$#.XX.o##$##O          . O%%o$$#%#X.#o%%&&&&&&&&&&",
"&&&&&&&&&&$$%+X.o##$##o           o$ $%O##$$o#+.o$&&&&&&&&&&",
"&&&&&&&&&&$$&## o##o##OXXXXXXXXXX.$% $%#$$$+#O. #$&&&&&&&&&&",
"&&&&&&&&&&$$%#$..#$.o#oXXXXXXXXXXo$o%%$$##$#$#$$@X&&&&&&&&&&",
"&&&&&&&&&&$#$#% .+#%##OXXXXXXXXXo$&%$O##O$$$#$$#O+&&&&&&&&&&",
"&&&&&&&&&&$###$.X.$#$#o.oo.X.XX.$$ &$$$#$#%#$$$O$$&&&&&&&&&&",
"&&&&&&&&&&o$&#$.X oo$$$O$$ooOo.o$%.$O$##O+$##$#$$+&&&&&&&&&&",
"&&&&&&&&&&o$&$#o..o.#+O##+O$+$OO$$&O##OO#$%#$$$$$#&&&&&&&&&&",
"&&&&&&&&&& $&##oXXo.X#$###O###O++$$$$#$#$+o#O+$$O$&&&&&&&&&&",
"&&&&&&&&&& $###$...oX@%###O###O##$$#$$$#$ o$$O$#$O%&&&&&&&&&",
"&&&&&&&&&& o#%#$oXXo.Xo##+O##+O##o#%%%#$o  O###$$$%&&&&&&&&&",
"&&&&&&&&&& o$%%#$XX O..           +#%&##$$.o##$$$$%&&&&&&&&&",
"&&&&&&&&&&  $$&#$o...O.oOOOOOOOOOO$$###%%%$oO#$+$#%&&&&&&&&&",
"&&&&&&&&&&$ o$##+%....O ............o$##%&##$$$O$$%&&&&&&&&&",
"&&&&&&&&&&+%o$#%$+O..X.o..$.X.oX.o....o$##+%+$##+$%&&&&&&&&&",
"&&&&&&&&&&$#$O#%&$#O.X.X.o$$.Oo.$%$.X..o$##&&+O$+$%&&&&&&&&&",
"&&&&&&&&&&$##$$#&$##%o.X..$.X.oX.$.X..XX.%#%&%$O$#%&&&&&&&&&",
"&&&&&&&&&&##$#$$#+$%+$o.............ooXX..$#$##oo$%&&&&&&&&&",
"&&&&&&&&&&$$$$#%$#&&%+#$$oOOOOOOOOOOo.O X.o$##%$  %&&&&&&&&&",
"&&&&&&&&&&+$$$$#oo$%&+#$##           ..O.X.o#%%$o &&&&&&&&&&",
"&&&&&&&&&&$$$$##$ o$#+&%%+O##$$##o###oX.o.X.$#&$$ %&&&&&&&&&",
"&&&&&&&&&&$O$$$##o  $$#%&+O##$$##$###O.Xo.X.o###$ %&&&&&&&&&",
"&&&&&&&&&&$$$$#$$% $$$$$#$O##$$##$###O#..o.Xo$###o%&&&&&&&&&",
"&&&&&&&&&& O$#$$$$+$+O##$$$$+%$##O###O##Xo...$#%$o%&&&&&&&&&",
"&&&&&&&&&&.$O$$$+$$#O$O#O&%$OoO$$O$+#O$#+oo..$#%$$%&&&&&&&&&",
"&&&&&&&&&&#o$$$#+$$$###$% o%$..oo.o%OoOOO o..o#%%$%&&&&&&&&&",
"&&&&&&&&&&#O$$$$$$$$#$#$%o$%.XXXXXX..o$+##+XXo#+#$%&&&&&&&&&",
"&&&&&&&&&&@.O$$#O#$OO#O#o%%oXXXXXXXXXo$#$$# .o#%%$%&&&&&&&&&",
"&&&&&&&&&&..#o$$$$$+#$$&$$O.XXXXXXXXXo$$.o$$ o#%%$%&&&&&&&&&",
"&&&&&&&&&&$$+Xo%#$#O#O$ %$oXXXXXXXXXXo$+$$#$ .#%%$%&&&&&&&&&",
"&&&&&&&&&&#$o #.O$#+O$%$$o           .$####$ XX@#$%&&&&&&&&&",
"&&&&&&&&&&$&#O#X+#O$$$o%$ooooooooooooo$+$$#$ XXX#%%&&&&&&&&&",
"&&&&&&&&&&%%&$$o#..O$%%$%##$%###%$##%$$$..#$ X.%&&%&&&&&&&&&",
"&&&&&&&&&&%$&%#%ooo%$ %$&#%%&#&#&%%#&%$#o$#$ $&&&&%&&&&&&&&&",
"&&&&&&&&&&%$%%#&&#$$%&$#%##$%###%$++$$$#$#+$&&&&&&%&&&&&&&&&",
"&&&&&&&&&&%$&%#&&%&$$#$Oo$OOOO$$$$$$$$###%&&&&&&&&$&&&&&&&&&",
"&&&&&&&&&&%%%%&&%&&&%%&&&&&%%#$#O$$O$$$$&&&&&&&&&&%&&&&&&&&&",
"&&&&&&&&&&%&$$%%&&&&%&&&&&&&&%$$$$$$$$$$&&&&&&&&&&%&&&&&&&&&",
"&&&&&&&&&&%%OO%&&&&&%&&&&&&&%$$$$$$$$$$%&&&&%&&&&&$&&&&&&&&&",
"&&&&&&&&&&$$@@O&&&&&#$%%&&&&$#$#O$$$O%&&&&&  &&&&&$&&& &&&&&",
"&&&&&&&&&&#O..O%&&&&##%&&&&%O$$$$$$$#$&&%$&$$&$%&&$&  $  &&&",
"&&&&&&&&&&$$..O&&&%#$%&&&&&&$$$$$$$$$$&$   $%   $&$&     %&&",
"&&&&&&&&&&%%$$%&&&%&&&&&&&&&&$$$$$$$$$&          &%&$    &&&",
"&&&&&&&&&&$%OO%&&&&%&&&&&&&&&$$$$$$$$&&          &%&&   &&&&",
"&&&&&&&&&&#$$$O%&&&%&&#%%&&&%$$$$$$$%&&$        $&$&&& %&&&&",
"&&&&&&&&&&#O@.O$&&&&%&+#%&&&%$$$$$$$&&&&        &&$&&&&&&&&&",
"&&&&&&&&&&$%$$$&&&&&%%$$%%&&$$$$%$o &&&&&      &&&$&&&$$&&&&",
"&&&&&&&&&&$%OO%&&&&&%%#$%&&&%$$o    $&&&&%    %&&&$&& $$ &&&",
"&&&&&&&&&&%$$$$&&&&&             ..X.%&&&&$  $&&&&$&% && &&&",
"&&&&&&&&&&$$..O%&&&%....  .....X.  .X.&&&&&  &&&&&$&% &&$&&&",
"&&&&&&&&&&$$..O%&&&.....XX... XX XX .X$&&&&&&&&&&&$&% &&&&&&",
"&&&&&&&&&&%%$$$&&&$X .. .X .X....XXX X.%&&&&&&&%%&$&% &&&&&&",
"&&&&&&&&&&%$$%$$$$$$$$$$$$%%%%$$%%%%%%%%%%%%%%%%%%&&% &&&&&&",
"&&&&&&&&&&&&&&&&&&&&&&&&&&&&&&&&&&&&&&&&&&&&&&&&&&&&& &&&&&&",
"&&&&&&&&&&&&&&&&&&&&&&&&&&&&&&&&&&&&&&&&&&&&&&&&&&&&$ &&&&&&",
"&&&&&&&&&&&&&&&&&&&&&&&&&&&&&&&&&&&&&&&&&&&&&&&&&&&&&%&&&&&&",
"&&&&&&&&&&&&&&&&&&&&&&&&&&&&&&&&&&&&&&&&&&&&&&&&&&&&&&&&&&&&",
"&&&&&&&&&&&&&&&&&&&&&&&&&&&&&&&&&&&&&&&&&&&&&&&&&&&&&&&&&&&&",
"&&&&&&&&&&&&&&&&&&&&&&&&&&&&&&&&&&&&&&&&&&&&&&&&&&&&&&&&&&&&",
"&&&&&&&&&&&&&&&&&&&&&&&&&&&&&&&&&&&&&&&&&&&&&&&&&&&&&&&&&&&&",
"&&&&&&&&&&&&&&&&&&&&&&&&&&&&&&&&&&&&&&&&&&&&&&&&&&&&&&&&&&&&"
};
