/* XPM */
static char *result[] = {
/* columns rows colors chars-per-pixel */
"60 91 11 1 ",
"  c black",
". c #800000",
"X c red",
"o c #808000",
"O c yellow",
"+ c navy",
"@ c #800080",
"# c #008080",
"$ c #808080",
"% c #C0C0C0",
"& c white",
/* pixels */
"&&&&&&&&&&&&&&&&&&&&&&&&&&&&&&&&&&&&&&&&&&&&&&&&&&&&&&&&&&&&",
"&&&&&&&&&&&&&&&&&&&&&&&&&&&&&&&&&&&&&&&&&&&&&&&&&&&&&&&&&&&&",
"&&&&&&&&&&&&&&&&&&&&&&&&&&&&&&&&&&&&&&&&&&&&&&&&&&&&&&&&&&&&",
"&&&&&&&&&&&&&&&&&&&&&&&&&&&&&&&&&&&&&&&&&&&&&&&&&&&&&&&&&&&&",
"&&&&&&&&&&&&&&&&&&&&&&&&&&&&&&&&&&&&&&&&&&&&&&&&&&&&&&&&&&&&",
"&&&%%%&%%&&&&&&&&&&&&&&&&&&&&&&&&&&&&&&&&&&&&&&&&&&&&&&&&&&&",
"&&&% %& $&&&&&&&&&&&&&&&&&&&&&&&&&&&&&&&&&&&&&&&&&&&&&&&&&&&",
"&&&& &$$&&&&&&&&&&&&&&&&&&&&&&&&&&&&&&&&&&&&&&&&&&&&&&&&&&&&",
"&&&& & &&&$%%%%%$$$$%$%%%%%%%%%%%%%%%%%%%%%%$$$$$%&&&&&&&&&&",
"&&&& $ &&%%&&&&&&&&&&%OOOOOOOOOO$OOOOOOOOOO$&&&&&$&&&&&&&&&&",
"&&&&   &&%%&&&&$$%&&&&#$$O$%$$O$$$OO$$$OO%$&&&&&&%&&&&&&&&&&",
"&&&& &%$&%%&&&    $&&&%@$$$$$$#$X$$$$O$$$$%&&&&&&%&&&&&&&&&&",
"&&&& && &%%&&$     &&&&$##$$$$$@@@$$$#$#o.&&&&$#&%&&&&&&&&&&",
"&&&% %& $&%&&$     &&&&&.............XX.@%&&&%&+%%&&&&&&&&&&",
"&&&%$%&$$%%&&&    &&&&&&+    $$$$#      $&&&&%%+$%&&&&&&&&&&",
"&&&&&&%&&%%&        $&&&#%&&&%&%%&&#$$#+%&&&&%%+$%&&&&&&&&&&",
"&&&&%  $&%&          &&&#%%$&%$%%&&#$%#%#&&&&%&+$%&&&&&&&&&&",
"&&&&&  %&%&          $%$$+#$&&+#$&&#%$$%#&&&&%%+$%&&&&&&&&&&",
"&&&%    $%&    $$    %%%##%$&&#$%&&#%$%$%%&&&%$#$%&&&&&&&&&&",
"&&&      &%&   %$$  $&%#$&&%&&&&&&&#%$%$%%&&&%%+$%&&&&&&&&&&",
"&&&% $$ $%%&&&&$ &&&&&%$%&&%&%&&&&&#%$%$%%&&&%&+$%&&&&&&&&&&",
"&&&&&$$&&%%&&&&  %&&&%%%$%&#%#&%%&&$%$%%%%&&&%&+%%&&&&&&&&&&",
"&&&&&&&&&%%&&&&&&&&&&&%$$##%&%#$#&$$%%%%$%&&&%%+%%&&&&&&&&&&",
"&&&&&&&&&%%&&&&&&&&&&&&%$&&%%$&&&&+%%$%%$#&&&%$#%%&&&&&&&&&&",
"&&&&&&&&&%%&&&&&&&&&&&%%%&&%$&&&&$#$%######+%%%#%%&&&&&&&&&&",
"&&&&&&&&&%%&&&&&&&&&&%%%%%&&&&&&$+##%%%$%%%#$%&#%%&&&&&&&&&&",
"&&&&&&&&&%%&&&&&&&&&&$%&##+$%$$#%%##$%%#####&%%#%%&&&&&&&&&&",
"&&&&&&&&&%%&&&&&&&%$    o$$.XXX....X..$OoO..$%$#%%&&&&&&&&&&",
"&&&&&&&&&%%&&&&&$        O.O%$.XXXX.$Oo O$XXX%$#%%&&&&&&&&&&",
"&&&&&&&&&%%&&&%+$oo      oo  o%$.X$%o  .%+ .X%%#$%&&&&&&&&&&",
"&&&&&&&&&%%&&$ XX@$O      O    oO%O    O..  .%&#  &&&&&&&&&&",
"&&&&&&&&&%&%$% XXXX.%o    o$.        .$$XX..O%%#  &&&&&&&&&&",
"&&&&&&&&&%$%&% XXX$.X$O    %$Oo     O$O.XX.%o%##  &&&&&&&&&&",
"&&&&&&&&&%%&&% X..%$.@#O   O$$$Oo o%$$$X.X$O &##  &&&&&&&&&&",
"&&&&&&&&&%&&&% .@@$$o@.oo  o$$$$$%%$$$o  .O. &%#+ &&&&&&&&&&",
"&&&&&&&&&%%&&% #$O$$O$. $o  $O$OO$O$$%X  $O #%%#+ &&&&&&&&&&",
"&&&&&&&&&%%&&% @O $$.%.++O  O$$$%$$$$$XXX$o #%%#  &&&&&&&&&&",
"&&&&&&&&&%&%&% #o oo...+#$o O$$O$$O$$.XX.O +#&$#  &&&&&&&&&&",
"&&&&&&&&&%&$&% ++ #$ ..+#+O O$$$O$$$%.XXoO #$%$#$ &&&&&&&&&&",
"&&&&&&&&&%&+%%  #%.$%+ +#$o.o$$O$#O$$X .$o #$$$$$#&&&&&&&&&&",
"&&&&&&&&&%&$&% ##%$$%#++%##oo$#$O$$$$   %o ##%$###&&&&&&&&&&",
"&&&&&&&&&%&&&% %%$$$$%%+###Oo$$O$$O$$X .% ##&%$%%+&&&&&&&&&&",
"&&&&&&&&&%&%oo$$$$o$$$$####o#o$#$$$$$XX.O #$&$%%%#&&&&&&&&&&",
"&&&&&&&&&%&%OO#.$$o$$$@$$O#+$XO#+$%$oXX@$ #$&##%%#&&&&&&&&&&",
"&&&&&&&&&%%###%#%%%%%%#$o.$O$#$OO.XooX+    #&$$%&+&&&&&&&&&&",
"&&&&&&&&&%+$#$%&+#+  +.$o.OX$$$oXoXoo##+####&%#+##&&&&&&&&&&",
"&&&&&&&&&%#%%$$&#+ +#.X$o.$O$#$$% .o#$%%%%%%#$$#%%&&&&&&&&&&",
"&&&&&&&&&%#%%#$&#+ %XXX$$%##$XO#+$%$#X#$o$#+.#OO%%&&&&&&&&&&",
"&&&&&&&&&%#&%%$&#  $XXX$$$$##$$+$####$$O$O$$% $$&%&&&&&&&&&&",
"&&&&&&&&&%#%%%&&# o$  .$$O#$O$$.O### %%$$$%%$ &&&%&&&&&&&&&&",
"&&&&&&&&&%$$##%#$ o$  .%$O$O$#$.O### +#%$$%#+ &#$%&&&&&&&&&&",
"&&&&&&&&&%o$$$#O# O....%$%#$O$$oo$## .#%.o%+  &#$%&&&&&&&&&&",
"&&&&&&&&&% $#%%#  O.XXo$$%$$$#$o O## X. $$    &%%%&&&&&&&&&&",
"&&&&&&&&&% ##%%# o$XXX$$OO#$$O$o o$#. o $  o  &&&%&&&&&&&&&&",
"&&&&&&&&&% $#&%+ O$..X%#$$$O$#$O  O#  O.$$oO. &%%%&&&&&&&&&&",
"&&&&&&&&&% $#&%  O.  .%$%O#OO$$%  .% .oOooOX. &&&%&&&&&&&&&&",
"&&&&&&&&&% $#%% O$. .$$$$%O$$#$$o  oo...OoXX. &&&%&&&&&&&&&&",
"&&&&&&&&&% #$%$ O.XX.O$%O  oOO$$o   Oo.XOoXX. &&&#&&&&&&&&&&",
"&&&&&&&&&% ##%$O$XXX$$Oo      o%O    oO..XX.. &&$%&&&&&&&&&&",
"&&&&&&&&&% $#&%$  X.O     o     oo    .Oo.XX. $%&$&&&&&&&&&&",
"&&&&&&&&&%$##&$X  .$o   oO$%o    O      oOo.. &&&$&&&&&&&&&&",
"&&&&&&&&&%&##%$X .$O  oO$.XX.$Oo oo       oo%&&&&%&&&&&&&&&&",
"&&&&&&&&&%&#$%$XX.O .O$.XXXXXX.$%oO       $&&&&&&%&&&&&&&&&&",
"&&&&&&&&&%&##%%%.$$$$#$+.$$+@....#$ .  $%&&&&&&&&%&&&&&&&&&&",
"&&&&&&&&&%&$#&%%####$&%%##$$#%%&$##%%%%&&&&&&&&&&%&&&&&&&&&&",
"&&&&&&&&&%&##&%#$%%$$&%%##+&&&&%&&%$%%%&&&&&&&&&&%&&&&&&&&&&",
"&&&&&&&&&%&$#%%%#######%##&&&&&$&&&%&%&&&&&&&&&&&%&&&&&&&&&&",
"&&&&&&&&&%&#$%%&&&#%%%%%##&%%%$$$%&##%&&&&&&&&&&&$&&&&&&&&&&",
"&&&&&&&&&%&##&%&&&$$%%$%#&&#%##&$$#$%%%&&&&&%&&&&$&&&&&&&&&&",
"&&&&&&&&&%&##&%&&&%$%%$%#&&%&&#$%&%%$%&&&&$  &&&&$&&& %&&&&&",
"&&&&&&&&&%&##&%&&&%$%%$%#&&&&&&&%&&%%&&&$%& %&$%&$&  $$ %&&&",
"&&&&&&&&&%&##%%&&&%%%%$$$&&&&&&&%&%#%%&   $$%   %%&     $&&&",
"&&&&&&&&&%&#+&%&&&%%$%$$$&%##+&&##+$$%$          %&$    &&&&",
"&&&&&&&&&%&##&%&&&&$$%$%$&&###&%&$##%%$          %&&$  &&&&&",
"&&&&&&&&&%&##&%&&&&#%#%%#&%%#$$&#%$#&&&         $%&&$  &&&&&",
"&&&&&&&&&%&#+&%&&&&$ +$#+&&&&&&&&&%%&&&%$$   $$$&%&&&%&&&&&&",
"&&&&&&&&&%&#+&%&&&&...             $&&&&&$    &&&%&$$&%$%&&&",
"&&&&&&&&&%&$+&%&&&$$$..XXXXXXXXXXX.+%&&&&     %&&%&$ &% &&&&",
"&&&&&&&&&%&&#%&&&%.$#$$###@.$#$###$.$&&&&     %&&%&& && &&&&",
"&&&&&&&&&%&&&&&&&#$$O$O%$%$.$$$OO$O$$%&&&%   $&&&%&& &% &&&&",
"&&&&&&&&&%&&&&&&%OOOO%$$OO$$OO%$$OOO$#&&&&&%&&&&&%&&%$  &&&&",
"&&&&&&&&&%$%%%%$#$$$$$$$$$$$$$$$$$$$o$$%%%%%%%%%%#&&& $ &&&&",
"&&&&&&&&&&&&&&&&&&&&&&&&&&&&&&&&&&&&&&&&&&&&&&&&&&&&& & &&&&",
"&&&&&&&&&&&&&&&&&&&&&&&&&&&&&&&&&&&&&&&&&&&&&&&&&&&& && &&&&",
"&&&&&&&&&&&&&&&&&&&&&&&&&&&&&&&&&&&&&&&&&&&&&&&&&&&  &$ %&&&",
"&&&&&&&&&&&&&&&&&&&&&&&&&&&&&&&&&&&&&&&&&&&&&&&&&&&%%&%%&&&&",
"&&&&&&&&&&&&&&&&&&&&&&&&&&&&&&&&&&&&&&&&&&&&&&&&&&&&&&&&&&&&",
"&&&&&&&&&&&&&&&&&&&&&&&&&&&&&&&&&&&&&&&&&&&&&&&&&&&&&&&&&&&&",
"&&&&&&&&&&&&&&&&&&&&&&&&&&&&&&&&&&&&&&&&&&&&&&&&&&&&&&&&&&&&",
"&&&&&&&&&&&&&&&&&&&&&&&&&&&&&&&&&&&&&&&&&&&&&&&&&&&&&&&&&&&&",
"&&&&&&&&&&&&&&&&&&&&&&&&&&&&&&&&&&&&&&&&&&&&&&&&&&&&&&&&&&&&"
};
