/* XPM */
static char *result[] = {
/* columns rows colors chars-per-pixel */
"60 91 11 1 ",
"  c black",
". c #800000",
"X c red",
"o c #808000",
"O c yellow",
"+ c navy",
"@ c #800080",
"# c #008080",
"$ c #808080",
"% c #C0C0C0",
"& c white",
/* pixels */
"&&&&&&&&&&&&&&&&&&&&&&&&&&&&&&&&&&&&&&&&&&&&&&&&&&&&&&&&&&&&",
"&&&&&&&&&&&&&&&&&&&&&&&&&&&&&&&&&&&&&&&&&&&&&&&&&&&&&&&&&&&&",
"&&&&&&&&&&&&&&&&&&&&&&&&&&&&&&&&&&&&&&&&&&&&&&&&&&&&&&&&&&&&",
"&&&&&&&&&&&&&&&&&&&&&&&&&&&&&&&&&&&&&&&&&&&&&&&&&&&&&&&&&&&&",
"&&&&&&&&&&&&&&&&&&&&&&&&&&&&&&&&&&&&&&&&&&&&&&&&&&&&&&&&&&&&",
"&&&%%%&%%&&&&&&&&&&&&&&&&&&&&&&&&&&&&&&&&&&&&&&&&&&&&&&&&&&&",
"&&&%X%&X$&&&&&&&&&&&&&&&&&&&&&&&&&&&&&&&&&&&&&&&&&&&&&&&&&&&",
"&&&&X&%$&&&&&&&&&&&&&&&&&&&&&&&&&&&&&&&&&&&&&&&&&&&&&&&&&&&&",
"&&&&X&X&&&%$%%%%%%%$%$%%%%%%%%%%%%%%%%%%%&&&&&&&&&&&&&&&&&&&",
"&&&&XXX&&&%&&&&&&&&&&%$$OOOO$OOOOOOOOOOOOOO$%%%%%$#&&&&&&&&&",
"&&&&X$X&&&%&&&&&&&&&&&.o$O$OO$%O$$OOOOOOOOo&&&&&&O$&&&&&&&&&",
"&&&&X&%$&&%&&&&&XX&&&&%Xo#$o$$$$.o$O$#OOO$$&$&&&$.$&&&&&&&&&",
"&&&&X&&X&&%&&&&%XXX&&&& .XXX... Xo$$%O$O$o&%$&&%oX$&&&&&&&&&",
"&&&$X%&XX&%&&&%XXXX$&&&%      .X..+ooo$$o.&$%$&%oX$&&&&&&&&&",
"&&&&&&&&&&%&&&XXXXXX%&&&+%%$$   .XX.oo$o.$&&%+$%oX$&&&&&&&&&",
"&&&&&&%&&&%&&XXXXXXXX&&%%#$$&&%    .XXXXX%%&%$#+oX$&&&&&&&&&",
"&&&&&XX%&&%&XXXXXXXXXX&%&%$&%%&&$        &%%&###oX$&&&&&&&&&",
"&&&&$XXX&&%&XXXXXXXXXX&%&$##&&&%%%$$     &%$&###oX$&&&&&&&&&",
"&&&%XXXXX&%&&XXXXXXXX&&%&$%%&&&%$%$&%%%$%&%&$%##OX$&&&&&&&&&",
"&&&&XXXX$&%&&%XXXXXX%&%&&&&&&&&%%%%%%$%%%%%&%###OX$&&&&&&&&&",
"&&&&%XXX&&%&&&%XXXX$&&%&&%&&&&&%%$%$%%$%%$&%%#&%oX$&&&&&&&&&",
"&&&&&%X&&&%&&&&XXXX&&&%%#&&&&&&&%%$%$%%$%%%$$%&%oX$&&&&&&&&&",
"&&&&&&&&&&%&&&&&XX&&&&&#%#&%%&&&$%%%%%$%%%%&+&&%oX$&&&&&&&&&",
"&&&&&&&&&&%&&&&&&&&&&&&#%&%%$&%%#$&%%%%%%%%%&&&%oX$&&&&&&&&&",
"&&&&&&&&&&%&&#$&&%&&&%&#&&&&&%%%%$&$%%%%%%%%&&&%oX$&&&&&&&&&",
"&&&&&&&&&&%&#%%$$#&&%%$%&&&&&%%&%$$%%%%%%%%%&&&%oX%&&&&&&&&&",
"&&&&&&&&&&%%%%$&$&&&%%%&&&&&&&%%$$+######%$&&&&%oX%&&&&&&&&&",
"&&&&&&&&&&%%$%&%&&$%#$###$%$#####$$$$$$$$#$%&&&%oX%&&&&&&&&&",
"&&&&&&&&&&%%&&&&$$$#####$$######O..$..$.o$$$$#$#oX%&&&&&&&&&",
"&&&&&&&&&&%&$%$O  O##.X##$####$%#o.$oo$oo#$@O     %&&&&&&&&&",
"&&&&&&&&&&$$oOOoO o$#XXX#O###$$.$#$+##+$$$#%      %&&&&&&&&&",
"&&&&&&&&&&oOoO oO. O+XXX#O#$$$$$$#%$$$O#$.$o      %&&&&&&&&&",
"&&&&&&&&&&oo .ooo$ O##X@#%$#$.$+#O.XX.O+$$O $%    %&&&&&&&&&",
"&&&&&&&&&&$.Oo$$$% .$####$$$#$#$$.XXX$$$o$  O%$   %&&&&&&&&&",
"&&&&&&&&&&oo$#$O%X  O####$$##$%$XXXX.O#X.O $#O%   %&&&&&&&&&",
"&&&&&&&&&&$$%..$&&  o#@X#$$%$$.XXXXX$$+$oo.O$#O%  %&&&&&&&&&",
"&&&&&&&&&%O$$O$$$$  o$.XX#$.XXXXXXXX%#$$O +%#$#$% %&&&&&&&&&",
"&&&&&&&&&%$%.$O%X .. $#X@#o         O$..o #$$O#$%$%&&&&&&&&&",
"&&&&&&&&&%$$@O%&$ X. O####$$$$$$$$$o$#oo.+&#$$##O$%&&&&&&&&&",
"&&&&&&&&&%@%O$%% ... O####o   $$$$$o###O +#&$$O$#$%&&&&&&&&&",
"&&&&&&&&&%.$$$X  X X O#X@#o        O+X#O X+#%+O#+$%&&&&&&&&&",
"&&&&&&&&&%$%&&  X  X O#XX$$OOOOOOO%$+X#o.X.#%#$O$+&&&&&&&&&&",
"&&&&&&&&&%$X&  X . X O#.+$$$$$$$$$$$##$...X.#%+$$+&&&&&&&&&&",
"&&&&&&&&&%%.   X X X O###$%&&&&&&&$#+#$ X .X+%#O$$&&&&&&&&&&",
"&&&&&&&&&%   %#X X X O#@#$%X%%X&X&$#X@% X  X #%#$$&&&&&&&&&&",
"&&&&&&&&&% O#%#... X O+X+$%X$$X&X%O#X+% X ..X#%#o &&&&&&&&&&",
"&&&&&&&&&%$%$#%#X  X O#X#$&$&&$&X%O###O X X X+#  +&&&&&&&&&&",
"&&&&&&&&&%+#$#%#.. . %###$%%%%%%&$O###O . X X. $%%&&&&&&&&&&",
"&&&&&&&&&%+$$$#%+X.. $##$$OOOOOOO$$+X#O X  .. $%X#&&&&&&&&&&",
"&&&&&&&&&%$#$$$%#+X o$.@$$OOOOOOO%$.X@O X .X $&%%$&&&&&&&&&&",
"&&&&&&&&&%O##O$#&#. o#.+O         $#X#% X X $X$$o$&&&&&&&&&&",
"&&&&&&&&&%$O#O$$$%+ O$##O%%%$$$$$$$###$ .X. &$$$. &&&&&&&&&&",
"&&&&&&&&&$&$$+O$#%  $.$$o        #$#.#$o.X %&%O%$$&&&&&&&&&&",
"&&&&&&&&&$ %O#OO$# o$.$% ..       $+X.#o.  X%$$$O#&&&&&&&&&&",
"&&&&&&&&&$ %$O+#O# O#$#oXXXXXXX..o$@XX#O  %X%O$$$$&&&&&&&&&&",
"&&&&&&&&&$  &$$#O .$$#$oXXXXX.oO$#$#..#O  &&$$$%$#&&&&&&&&&&",
"&&&&&&&&&$   &$$+ O@o$O.XXX.o%#+#$%####$o$%%O.$$o$&&&&&&&&&&",
"&&&&&&&&&$   $&O .%$$$oXXX.O$#$$$.%##.##O X$$ooo $&&&&&&&&&&",
"&&&&&&&&&$    $$ O.$+O...oO##$.@$$$##XX#O $ooo  o#&&&&&&&&&&",
"&&&&&&&&&$      o$$$+$$$$$+$o#$O$#$#.XX.$ooO oooO#&&&&&&&&&&",
"&&&&&&&&&$      %$#$$#$$+$$$.%$###$$+XX##O ooOO$%$&&&&&&&&&&",
"&&&&&&&&&$.    O$$#o.$..$..#O######O##.##$o $%&&%%&&&&&&&&&&",
"&&&&&&&&&$X$%&%$$$$$$$$$$ooO######+$#####+$%&&&%%%&&&&&&&&&&",
"&&&&&&&&&$Xo%&&&&$######$$#%%##%%%%%$$%#&&&&&%$%#%&&&&&&&&&&",
"&&&&&&&&&$X$%&&&%%%%%%%$$#%#%&%&&&&&&$$%&&%%$$&$$%&&&&&&&&&&",
"&&&&&&&&&$Xo%&&&%%%%%%%%%%%%%%%&&&&&%%%%&&%#&%##%%&&&&&&&&&&",
"&&&&&&&&&$Xo%&&&%%%%%%%%$&%#%%%&%&%%%&&&&&&&&%$%&$&&&&&&&&&&",
"&&&&&&&&&$Xo%&&$&%%%%%%%%%%$&&&$%$%&+&&&&&&&&&&&&%&&&&&&&&&&",
"&&&&&&&&&$Xo%&%#%%%%%%$%%$%%&&&$%&%#$&&&&&X$&&&&&$&&&&&&&&&&",
"&&&&&&&&&$Xo%&$%#%%%$%%%%%$%%&&&&&&%$$&&&%XX%&&&&%&&&X&&&&&&",
"&&&&&&&&&$Xo%$+%&%%%%%$%$%%%%&&&&&&%&%&&%XXXX&&&&%&&$XX&&&&&",
"&&&&&&&&&$X$###%&%&%%%%$%$%$%&&&&&&&&%&&XXXXXX&&&%&%XXXX&&&&",
"&&&&&&&&&$X$###%%%&###$$%$&$%&&%#$$&%&&XXXXXXXX&&%&XXXXX%&&&",
"&&&&&&&&&$X$##+&%%&      #%%%&%&$##&%&XXXXXXXXX%&$&%XXXX&&&&",
"&&&&&&&&&$X$###%&%& ..     +&&&$&%$&%%XXXXXXXXXX&%&&%XX&&&&&",
"&&&&&&&&&$X$#+#%&%%....XX.   $%&%$%%%&$XXXXXXXX&&%&&&X&&&&&&",
"&&&&&&&&&@X$%&#%%&$.$$ooo.X.     $$ &&&XXXXXXX%&&%&%%&&&&&&&",
"&&&&&&&&&@X$%&%%#& o$$OOo$...X..   .$&&&XXXXX$&&&%&XX&$X%&&&",
"&&&&&&&&&@.O%&&#&%$$O$$$$ooXo$o......&&&&XXXX&&&&%&&X&&X&&&&",
"&&&&&&&&&+$%&&&&&$OOOO$OOO$o$$$O$$$$.$&&&%XX&&&&&%&&X&%X&&&&",
"&&&&&&&&&$%&&&&&%OOOOOOOOO$%OO$$$$O$$o&&&&$&&&&&&%&&%$XX&&&&",
"&&&&&&&&&#%%%%%$#$$$$$$$$$$$$$O$OOOO$$$&&&&&&&&&&$&&&XXX&&&&",
"&&&&&&&&&&&&&&&&&&&&&&&&&&&&&&%%%%%%%%%%%%%%%%%%$%&&&X&X&&&&",
"&&&&&&&&&&&&&&&&&&&&&&&&&&&&&&&&&&&&&&&&&&&&&&&&&&&&X%&X&&&&",
"&&&&&&&&&&&&&&&&&&&&&&&&&&&&&&&&&&&&&&&&&&&&&&&&&&&XX&$X&&&&",
"&&&&&&&&&&&&&&&&&&&&&&&&&&&&&&&&&&&&&&&&&&&&&&&&&&&%%&%%&&&&",
"&&&&&&&&&&&&&&&&&&&&&&&&&&&&&&&&&&&&&&&&&&&&&&&&&&&&&&&&&&&&",
"&&&&&&&&&&&&&&&&&&&&&&&&&&&&&&&&&&&&&&&&&&&&&&&&&&&&&&&&&&&&",
"&&&&&&&&&&&&&&&&&&&&&&&&&&&&&&&&&&&&&&&&&&&&&&&&&&&&&&&&&&&&",
"&&&&&&&&&&&&&&&&&&&&&&&&&&&&&&&&&&&&&&&&&&&&&&&&&&&&&&&&&&&&",
"&&&&&&&&&&&&&&&&&&&&&&&&&&&&&&&&&&&&&&&&&&&&&&&&&&&&&&&&&&&&"
};
