/* XPM */
static char *result[] = {
/* columns rows colors chars-per-pixel */
"60 92 11 1 ",
"  c black",
". c #800000",
"X c red",
"o c #808000",
"O c yellow",
"+ c navy",
"@ c #800080",
"# c #008080",
"$ c #808080",
"% c #C0C0C0",
"& c white",
/* pixels */
"&&&&&&&&&&&&&&&&&&&&&&&&&&&&&&&&&&&&&&&&&&&&&&&&&&&&&&&&&&&&",
"&&&&&&&&&&&&&&&&&&&&&&&&&&&&&&&&&&&&&&&&&&&&&&&&&&&&&&&&&&&&",
"&&&&&&&&&&&&&&&&&&&&&&&&&&&&&&&&&&&&&&&&&&&&&&&&&&&&&&&&&&&&",
"&&&&&&&&&&&&&&&&&&&&&&&&&&&&&&&&&&&&&&&&&&&&&&&&&&&&&&&&&&&&",
"&&&&&&&&&&&&&&&&&&&&&&&&&&&&&&&&&&&&&&&&&&&&&&&&&&&&&&&&&&&&",
"&&&&&&&&&&&&&&&&&&&&&&&&&&&&&&&&&&&&&&&&&&&&&&&&&&&&&&&&&&&&",
"&&%XX&XX%&&&&&&&&&&&&&&&&&&&&&&&&&&&&&&&&&&&&&&&&&&&&&&&&&&&",
"&&&$%&X&&&&&&&&&&&&&&&&&&&&&&&&&&&&&&&&&&&&&&&&&&&&&&&&&&&&&",
"&&&$%%$&&&%%%%%%%%%%%&%%%%&&&&&&&&&&&&&&&&&&&&&%%%&&&&&&&&&&",
"&&&$%X&&&$%%%%%%%%%%%$$O$O$$$$O$$O$$$$$$$$o##$%%%%%&&&&&&&&&",
"&&&$XX%&&$&&&&&&&&&&&$$$O$OO$O$$$$O$O$OO$$$%$o&&&&%&&&&&&&&&",
"&&&$X&X&&%&&XXX&&$XX%&.o$$$$$$$XX$#O$$$$$$%$%%&&&&%&&&&&&&&&",
"&&&$%&X&&%&XXXXX$XXXX&$.#$$$@@...@@$#$#$X@&$#%%%%&%&&&&&&&&&",
"&&&X%&%$&%&XXXXXXXXXX%&.XX..........XXX@@##$$%$%%%%&&&&&&&&&",
"&&%XX&XX%%&XXXXXXXXXX%&$              ..$#+$$&$%%$%&&&&&&&&&",
"&&&&&&&&&%&XXXXXXXXXX&&%#%&&&&%%&%%%$#  %#$#O$#%%$%&&&&&&&&&",
"&&&$$&$$&%&%XXXXXXXXX&&#%##&&%%&&%$%%%%$$$$#$&##$$%&&&&&&&&&",
"&&%XXXXX%%&&XXXXXXXX&%%###%%&###&%$%%%%$&&$#$&&&&%%&&&&&&&&&",
"&&&XXXXX%%&&&XXXXXX%&%%$###&&#$$&%%%%$%%%&$O$$%%$&%&&&&&&&&&",
"&&&XXXXX&%&&&%XXXX$&&$%$&&%&&&&&&%%%%%%%%&&%$%%%$%%&&&&&&&&&",
"&&&&XXX&&%&&&&%XXX&&&&$#&&%&&&&&&%%%%%%%%&&%OOoOX$%&&&&&&&&&",
"&&&&%X%&&%&&&&&$X&&&&&%%&&#%%%&&&%%%%%%%&%&& oooo%%&&&&&&&&&",
"&&&&&&&&&%&&&&&&&&&&&%%%%&&%%%%&&&$%%%$%%%&$     %%&&&&&&&&&",
"&&&&&&&&&%&&&&&&&&&&%%%$%&%%%%&&&&#%%%%%%%&%$#$+$%%&&&&&&&&&",
"&&&&&&&&&%&&&&&&&&&&%%%#%&&#&&&&$##$%%%%%%#$O%&$O%%&&&&&&&&&",
"&&&&&&&&&%&&&&&&&%%%$%##$&&&&&&%#&&#%%%%%$$O$O%O$$%&&&&&&&&&",
"&&&&&&&&&%&&&&&%%&&&$%&#$#%%&&###%%%%%%$###$+$O$##%&&&&&&&&&",
"&&&&&&&&&%&&%$#%&%&&%&$%#+  %%+$%$%$+##$&##O#+$+#+%&&&&&&&&&",
"&&&&&&&&&%&$o$%#&%&&&$%+     $%%$X#%&&&&%$#$o++ + %&&&&&&&&&",
"&&&&&&&&&$o$%%%%#&#&&&&#.XXX.  o$$+&%&&%#OO#O+++++%&&&&&&&&&",
"&&&&&&&&&$&%%%%%$$&&%&&%.XXXX o$$$#%%&$$$$O$$o++++%&&&&&&&&&",
"&&&&&&&&&$$%%%%$O$&&&$&& XXX  $X%$$&&&%$&&$O#O++++%&&&&&&&&&",
"&&&&&&&&&%&%$$OOOO#&&+&&#XX  $$%$o%&&&&#&X$O$$O+++%&&&&&&&&&",
"&&&&&&&&&$%$OOOO$#+&&&&&%X. $X%%o+&&#&%#%XX$O#O$XX%&&&&&&&&&",
"&&&&&&&&&$$OOO$####$&&%&&  $o$%$##&&#&$.$&&%O$#O$X%&&&&&&&&&",
"&&&&&&&&&%OO$######+&&&&%+o$$%o$o+&&&&#X$%&%O$$#O$%&&&&&&&&&",
"&&&&&&&&&$$##$$#####%$$%##Xo%%$o $&%%%#$$%&%$$$..$%&&&&&&&&&",
"&&&&&&&&&$+###$&###+####&$$$$$$  %%&&%#$.%XX$O$@$$%&&&&&&&&&",
"&&&&&&&&&$#+..O%%O$&&&%###%%X$  X%#&#%$$.%%$$O$$%o%&&&&&&&&&",
"&&&&&&&&&$.X$O$$#O&&&&%%$##$$  X.%%&%$%$$%&&$$$#$X%&&&&&&&&&",
"&&&&&&&&&$X@O#&&%o&&&&%%%#$oo XX.&&%&#%.o%&%O$$$$$%&&&&&&&&&",
"&&&&&&&&&$XX$O$$$o&&&&%%$##o .XX.&&&&#O@$$X$O$$.$#%&&&&&&&&&",
"&&&&&&&&&$... O$%O%&&&%%###  X..+&&%&#.$%%X$O#$$$$%&&&&&&&&&",
"&&&&&&&&&$   o$%##+oOO#$%%+oO$$$#&$#&+.$&&%OO+$#$.%&&&&&&&&&",
"&&&&&&&&&$.o+$###+oO$%$#+%#%%%%%#&&%&#$&&&$O##$$$$%&&&&&&&&&",
"&&&&&&&&&$o$$$###oO$%&$%%&$% $$ $&&&&#&XX%O$##$@$$%&&&&&&&&&",
"&&&&&&&&&%$$.$##oO$%X%#&&&%$    $$&&&#&X$OO###$@$$%&&&&&&&&&",
"&&&&&&&&&$$$$$#+Oo%%X$#&&&&% %$$&$&%$$&$OO#####$$.%&&&&&&&&&",
"&&&&&&&&&$.$#$#oO%&&%$+&$%&#%%%%$+$%+#$OO####$o   %&&&&&&&&&",
"&&&&&&&&&$o$$$+O$%&&$X+&$%&#o$$o.%%$#$%$##$$&O .. %&&&&&&&&&",
"&&&&&&&&&$$$.$#O%XX%#o#&&&&.XXX  ##$&%&&&&O$$Oo.XX%&&&&&&&&&",
"&&&&&&&&&$$$$$oO%$$$.%#&%&&.XX  $+#$%%&&&&o%&%$$.X%&&&&&&&&&",
"&&&&&&&&&$.$#$oO&&%oo%$&&&&.X. $$##%%%&&&&O$&%$%.X%&&&&&&&&&",
"&&&&&&&&&$.$$oO$&&%#$%$+&#%.. oo$$#$%&&&&%O$$O$X.+%&&&&&&&&&",
"&&&&&&&&&#$%$oO$$X%.$$%%&$%. o$X%$%##%%%$#$$&$. ##%&&&&&&&&&",
"&&&&&&&&&$$..oO$%X%@$#%&&&$  #$%$o#%#+#+####$%$##+%&&&&&&&&&",
"&&&&&&&&&$O$$$oO&&%$$#&&&%# $X%%o$###&%$######$+$O%&&&&&&&&&",
"&&&&&&&&&$.%$$oO%&&$.#&%&& $o$%$# +&&&&&#######OOO%&&&&&&&&&",
"&&&&&&&&&$X.O$#O%%$$#%&+&&#$%%X$o .%&&&&%####$OOO$%&&&&&&&&&",
"&&&&&&&&&$.. O+O$%X$#&&%&%.o&$$o .X$&&$&&##$OOO$%%%&&&&&&&&&",
"&&&&&&&&&#+#+$OoO$$&#&&%&$$%$$$ .XX#&&+&&%OOO$%%%%%&&&&&&&&&",
"&&&&&&&&&$+  +OoOO&%$$&&&#%%X$ .XXX.%&&%&&#$%%%$%%%&&&&&&&&&",
"&&&&&&&&&$++++#O.O$#%&&$%#$$$  XXXXX#&%&&#%$%%%%%$%&&&&&&&&&",
"&&&&&&&&&$+++++%#oO$%&&&&#X$    XX. +%%&&%%%$%%$o$%&&&&&&&&&",
"&&&&&&&&&$     #%+#&&%$$##@%%%%     %%%&&&%&#$o$%&%&&&&&&&&&",
"&&&&&&&&&####O#+O##$##$$&%%$$+%&  #$#&%$&&&&$$&&&&%&&&&&&&&&",
"&&&&&&&&&$O#O#O+$##$%%%%#&%#$%&&&&&%#$%%&%%%&&&&&&%&&&&&&&&&",
"&&&&&&&&&#$O$&$O$#%%%%%%$&%#&&&&&&&%#%%$%&&&&&&&&&%&&&&&&&&&",
"&&&&&&&&&%%$%&%$%%%%%%%%$#$&&&&&$&&%#%%%&&&&&&&&&&%&&&&&&&&&",
"&&&&&&&&&%$    #%&%%%%%%%$&&&&$$$%&%$$%%&&&&&&&&&&%&&&&&&&&&",
"&&&&&&&&&%%     %&%%%%%%%$&&&&%%$$&%%%&&&&&X%&&&&&%&&%X&&&&&",
"&&&&&&&&&%$XOXOo%&%%%%%%%%%&&&%&&%&&$%&&&&$XX&&&&&%&&XXX&&&&",
"&&&&&&&&&%$o$$$$%&&%%%%%%%%&&&&&&%&&#$%&&%XXXX&&&&%&XXXX%&&&",
"&&&&&&&&&%&#%%$#$%&%%%%%%%%&&%#&&%%#%%%&&XXXXXX&&&%%XXXXX&&&",
"&&&&&&&&&%&&&&&$O$&%%%%%%$%&##+&%#$#$%%&XXXXXXX%&&%$XXXXX&&&",
"&&&&&&&&&%%%$%&$#$%%$%%%%%%&%#%&%%#$#%&$XXXXXXXX&&%&XX%XX&&&",
"&&&&&&&&&$#%%+%O%%$%#$%%%%%&%$$&&%%$$&&XXXXXXXXX$&%&&&&&&&&&",
"&&&&&&&&&$%%%#%$$###   ###$&&&&%%$$ %&%XXXXXXXXXX&%%X$&XX%&&",
"&&&&&&&&&$%&%#&$$##@X.              $&$XXXXXXXXXX&%&$%&%X&&&",
"&&&&&&&&&%&$$%%#$%$X#$..XXX...XXXX.@@%%XXXXXXXXXX&%&&X&%$&&&",
"&&&&&&&&&%&&&&&%$&.o$$#$$#$..##$$#$$.@&XXXX&%XXX%&%&&X&$$&&&",
"&&&&&&&&&%&&&&$$%$$$O$OO$$$..$$$OO$$$$%&%%&&&&%&&%%&&%XX$&&&",
"&&&&&&&&&%&&&&$o%oOOOO$$OOO$$OO$$$OOO$$&&&&&&&&&&%%&&&X%$&&&",
"&&&&&&&&&%%%%%$$$%%%%%%%%%%%%%%%%%%%%%%$%%$$%%%%$$&&&$$%$&&&",
"&&&&&&&&&&&&&&&&&&&&&&&&&&&&&&&&&&&&&&&&&&&&&&&&&&&&&X&%$&&&",
"&&&&&&&&&&&&&&&&&&&&&&&&&&&&&&&&&&&&&&&&&&&&&&&&&&&%XX&XX%&&",
"&&&&&&&&&&&&&&&&&&&&&&&&&&&&&&&&&&&&&&&&&&&&&&&&&&&&&&&&&&&&",
"&&&&&&&&&&&&&&&&&&&&&&&&&&&&&&&&&&&&&&&&&&&&&&&&&&&&&&&&&&&&",
"&&&&&&&&&&&&&&&&&&&&&&&&&&&&&&&&&&&&&&&&&&&&&&&&&&&&&&&&&&&&",
"&&&&&&&&&&&&&&&&&&&&&&&&&&&&&&&&&&&&&&&&&&&&&&&&&&&&&&&&&&&&",
"&&&&&&&&&&&&&&&&&&&&&&&&&&&&&&&&&&&&&&&&&&&&&&&&&&&&&&&&&&&&",
"&&&&&&&&&&&&&&&&&&&&&&&&&&&&&&&&&&&&&&&&&&&&&&&&&&&&&&&&&&&&"
};
