/* XPM */
static char *result[] = {
/* columns rows colors chars-per-pixel */
"60 91 11 1 ",
"  c black",
". c #800000",
"X c red",
"o c #808000",
"O c yellow",
"+ c navy",
"@ c #800080",
"# c #008080",
"$ c #808080",
"% c #C0C0C0",
"& c white",
/* pixels */
"&&&&&&&&&&&&&&&&&&&&&&&&&&&&&&&&&&&&&&&&&&&&&&&&&&&&&&&&&&&&",
"&&&&&&&&&&&&&&&&&&&&&&&&&&&&&&&&&&&&&&&&&&&&&&&&&&&&&&&&&&&&",
"&&&&&&&&&&&&&&&&&&&&&&&&&&&&&&&&&&&&&&&&&&&&&&&&&&&&&&&&&&&&",
"&&&&&&&&&&&&&&&&&&&&&&&&&&&&&&&&&&&&&&&&&&&&&&&&&&&&&&&&&&&&",
"&&&&&&&&&&&&&&&&&&&&&&&&&&&&&&&&&&&&&&&&&&&&&&&&&&&&&&&&&&&&",
"&&&&&&&&&&&&&&&&&&&&&&&&&&&&&&&&&&&&&&&&&&&&&&&&&&&&&&&&&&&&",
"&&&  &$ $&&&&&&&&&&&&&&&&&&&&&&&&&&&&&&&&&&&&&&&&&&&&&&&&&&&",
"&&&%$& %&&&&&&&&&&&&&&&&&&&&&&&&&&&&&&&&&&&&&&&&&&&&&&&&&&&&",
"&&&%$% &&&%%%%%%%%%%%%%%%%%%%%%%%%%%%%%%%%%%%%%%%%&&&&&&&&&&",
"&&&%$ %&&%%&&&&&&&&&$OOOOOOOOOO$OOOOOOOOOOO$&&&&&$&&&&&&&&&&",
"&&&% $ &&&%&&&&&&&&&%$OOOO$$OO$O$OO$$$OOOO$%&&&&&%&&&&&&&&&&",
"&&&% & &&&%&&&&&&&&&&$o$O$OO$$$X.%$oO$$O$o$&&&&&&%&&&&&&&&&&",
"&&&%$&$$&&%&&&&  &&&&&.o$$$$$$o..oooo$$%o.&&&%+&&%&&&&&&&&&&",
"&&&$$&% &&%&&&$   &&&&$.o..XXXXX...XXX...%&&%&##&%&&&&&&&&&&",
"&&&$$&%$$&%&&%    $&&&&...             ..&&&%&##&%&&&&&&&&&&",
"&&&&&&&&&%%&&      %&&&$   $##%%%&&%%%$ $&&&%&##&%&&&&&&&&&&",
"&&&&& %&&%%&        &&&%%%&$%%&%%$$&%%%%#&&&%&##&%&&&&&&&&&&",
"&&&&   &&%%$        $&&$%%$%%%&&##&&%&$&##&&%&##&%&&&&&&&&&&",
"&&&%    &&%$         &%%%%%%%%&##+$&%##+##%&%&##&%&&&&&&&&&&",
"&&&     %&%$         &%%%%%%$&&$%$&&%&$%#%%&%&##&%&&&&&&&&&&",
"&&&  +  %&%%   %$   $&%%%%%$%&&&&&&&%&&&#$&&%&##&%&&&&&&&&&&",
"&&&&& &%&%%&&$&$ &$%&&%%%%%$%&&&&&%&&%&&$#&&%&+#&%&&&&&&&&&&",
"&&&&&%&&&%%&&&&  &&&&&$%%%$%%&%%&&##%%&&##$&%%##&%&&&&&&&&&&",
"&&&&&&&&&%%&&&&&&&&%%$%%%%%#&&%$&#$&%$%$#$$%%%##&%&&&&&&&&&&",
"&&&&&&&&&%%&&&&&&&&$%$%%%%$#&&%%$&$$$$&%%#%&%&##&%&&&&&&&&&&",
"&&&&&&&&&%%&&&&&&&&%%%%$%$##$%&&&&&%&&&$%%%&%&##%%&&&&&&&&&&",
"&&&&&&&&&%%&&&&&%$  %%##.#o###%%&&&&&%#$&%%&%&##%%&&&&&&&&&&",
"&&&&&&&&&%%&%$++O   .oXXXo$$%%$%###%$##$&& $$%##%%&&&&&&&&&&",
"&&&&&&&&&&$..$#$#O   O.X..$$$$+#$#oXXXo$# oO#&##&%&&&&&&&&&&",
"&&&&&&&&&&.X$#XO#$o  oo.  o$$$$$$$....O   O#$%$#%%&&&&&&&&&&",
"&&&&&&&&&& X$###$@O   O. ..$$#O#$$.  oo  O#$$&$###&&&&&&&&&&",
"&&&&&&&&&&  $###$o$o  O.XXX$$#$$$oX  O  o$$##&%###&&&&&&&&&&",
"&&&&&&&&&%O ##Oo#$$O  ooXXXo$$#$$.XXoo  O#$$#&$###&&&&&&&&&&",
"&&&&&&&&&%oo $$$$+$$o  O.  o$$#o$XXXO  o$$$$$%$###&&&&&&&&&&",
"&&&&&&&&&&oO %###$$$O  O.  .$$$$$. .O  O$###$%####&&&&&&&&&&",
"&&&&&&&&&&$Xo$#O$$$$O  ooX.X$$$$o  oo .%#$##%%####&&&&&&&&&&",
"&&&&&&&&&&#XO$#o$#$$$o  oXXX$$#$X..o  o$$O#&o%$###&&&&&&&&&&",
"&&&&&&&&&&+$Xo%###$.$o  O .Xo$#$.X.O  O+#$#$ &$###&&&&&&&&&&",
"&&&&&&&&&&##XO$#$X#%+O  O          o .$$$#%  &%###&&&&&&&&&&",
"&&&&&&&&&&##oX %#$###O  o$$oooooo$$o o$$O#%  &%###&&&&&&&&&&",
"&&&&&&&&&&##$$o %+#O$$  o$$$$$$$$$%  O#$$#$  %$###&&&&&&&&&&",
"&&&&&&&&&&#$XO$  %#X$$o oO#$$$$$$#%  O.++%$OO$$$$$&&&&&&&&&&",
"&&&&&&&&&&+#OO$   %##$o .$%$$$$$%$$  OXXX.o$#$$$$$&&&&&&&&&&",
"&&&&&&&&&&#$%#%  . $$#o  o  o$$o.+o  oXXXX o#&$&$#&&&&&&&&&&",
"&&&&&&&&&&#%%##&  .  $o  o o$#$$  o  o.... $%##$##&&&&&&&&&&",
"&&&&&&&&&&#%%$$&  ....O  oo$#X$$O o  o ..  %%$&$##&&&&&&&&&&",
"&&&&&&&&&&#%&#$&      O  o.oo#$o  o  $  .. $%$%%$#&&&&&&&&&&",
"&&&&&&&&&&+%$%%$ .XXXoO  o  o$$   O  %#$ .  %#%%$#&&&&&&&&&&",
"&&&&&&&&&&#$$$$$O XXXoo .$$$$$$$$#O  O##%o  o#O$##&&&&&&&&&&",
"&&&&&&&&&%OO$$OOo%#+.oo o$$$#$$$$$O  O#o$#$ o$OO##&&&&&&&&&&",
"&&&&&&&&&&+##%%  &#$#$o o$$$$$$$$$%  O#X%+#. $.$$#&&&&&&&&&&",
"&&&&&&&&&&##$%%  %$%#O  O$%%OOOO%$%  o$###$$ Oo###&&&&&&&&&&",
"&&&&&&&&&&##$%% %##$#O  O        o$  o$$#XO#$oX$##&&&&&&&&&&",
"&&&&&&&&&&##$%% &##+$o .o .o$#$.. oo  $$%#$##ooO##&&&&&&&&&&",
"&&&&&&&&&&###%%$$$O$%  o.XX$$#$.XX$o  O$$%#$#$oX$#&&&&&&&&&&",
"&&&&&&&&&&###$%%+$$#O  O  X$$$$oXX.O  o$$$#X$$oXO#&&&&&&&&&&",
"&&&&&&&&&&###$%##+$$o  o  .$o$$o. .%  o$$@$###$oX$&&&&&&&&&&",
"&&&&&&&&&&###%&#$$#O  oo..o$$#X$. .$o  O$$$#$#$ O$&&&&&&&&&&",
"&&&&&&&&&&###%&#$#$o  O.XX$o##$$..X@O  o$$$#X$$ O$&&&&&&&&&&",
"&&&&&&&&&&+#$%&#$#O  oo...$$#$$$oXXX%   O#$#$#$  $&&&&&&&&&&",
"&&&&&&&&&&###%%$#%o  O.  o$$$$$$oX X$o  o$$###$X +&&&&&&&&&&",
"&&&&&&&&&%&##%%#$O  ooX .$$$$$$o$.  .O   O$@X$$XX+&&&&&&&&&&",
"&&&&&&&&&%&##$&#O   O.XX.$$###$$$o  X$   o%#%#$X.#&&&&&&&&&&",
"&&&&&&&&&%&##$%$  &%#+ $o.##$$%$o$XXX.O   O$+#$%&%&&&&&&&&&&",
"&&&&&&&&&%&##%%&%%%%$#%&&&&$%$%#$$ . #%$   %%&&&&$&&&&&&&&&&",
"&&&&&&&&&%&##%%&&%%%%&&%%&&&&%%$##$%%%%%%&&&&&&&&$&&&&&&&&&&",
"&&&&&&&&&%&##%%&$#%#&%#$%$&%%&&&+%%%$%%%%&&&&&&&&$&&&&&&&&&&",
"&&&&&&&&&%&%#%%&$%$$$$$&%$$&%%&$$%%%%$%$%&&&&&&&&$&&&&&&&&&&",
"&&&&&&&&&%&###%&%##%%&$##%&&$&&#%%%%%%&&&& $&&&&&$&&&%&&&&&&",
"&&&&&&&&&%&##$%&&%+%&&%&%&&&&&%%%$%%%%&$$& %%$&&&$&%% &%&&&&",
"&&&&&&&&&%&##&%&&&#&&&%&&&&&&&%%%$%%$&$   $%   &&%&     &&&&",
"&&&&&&&&&%&##&%&&##%$%%&&%%$&&%%%%%%$&         $&%&     &&&&",
"&&&&&&&&&%&##%%&&######&&+##$&%%%%%$%&         $&%&$   $&&&&",
"&&&&&&&&&%&##%%&&$+%$$%&&$##&&$%%%$%%&         %&%&&   &&&&&",
"&&&&&&&&&%&$+%%&&&$%%$$&%#$%%&$%%%%$&&&       $&&%&&& &&&&&&",
"&&&&&&&&&%&$+&%&&&&#%&&&&&&&&$%$#$  &&&%      &&&%&&&&&&&&&&",
"&&&&&&&&&%&#+%%&&&%                .%&&&$    &&&&%% $&$ %&&&",
"&&&&&&&&&%&#+&$&&& ..............X..@&&&&   %&&&&%&$$&% &&&&",
"&&&&&&&&&%&&#$&&&$X$$$oooo...oooo$$$X$&&&& $&&&&&%&& && &&&&",
"&&&&&&&&&%&&&&&&&o$$$$O$$$oXX$$oO$$$$$&&&&&&&&&&&%&& &$$&&&&",
"&&&&&&&&&%&&&&&&#$OOO$$$$O$o$$O$$$OO$$#&&&&&&&&&&%&&%$ $&&&&",
"&&&&&&&&&%$%%%%#OOOOOO$OOOO$OOOOOOOOOOO$%%%%%%%%%$&&& %$&&&&",
"&&&&&&&&&&&&&&&&&&&&&&&&&&&&&&&&&&&&&&&&&&&&&&&&&&&&$$& &&&&",
"&&&&&&&&&&&&&&&&&&&&&&&&&&&&&&&&&&&&&&&&&&&&&&&&&&&& &&$&&&&",
"&&&&&&&&&&&&&&&&&&&&&&&&&&&&&&&&&&&&&&&&&&&&&&&&&&%  &  %&&&",
"&&&&&&&&&&&&&&&&&&&&&&&&&&&&&&&&&&&&&&&&&&&&&&&&&&&&&&&&&&&&",
"&&&&&&&&&&&&&&&&&&&&&&&&&&&&&&&&&&&&&&&&&&&&&&&&&&&&&&&&&&&&",
"&&&&&&&&&&&&&&&&&&&&&&&&&&&&&&&&&&&&&&&&&&&&&&&&&&&&&&&&&&&&",
"&&&&&&&&&&&&&&&&&&&&&&&&&&&&&&&&&&&&&&&&&&&&&&&&&&&&&&&&&&&&",
"&&&&&&&&&&&&&&&&&&&&&&&&&&&&&&&&&&&&&&&&&&&&&&&&&&&&&&&&&&&&",
"&&&&&&&&&&&&&&&&&&&&&&&&&&&&&&&&&&&&&&&&&&&&&&&&&&&&&&&&&&&&"
};
