/* XPM */
static char *result[] = {
/* columns rows colors chars-per-pixel */
"60 91 11 1 ",
"  c black",
". c #800000",
"X c red",
"o c #808000",
"O c yellow",
"+ c navy",
"@ c #800080",
"# c #008080",
"$ c #808080",
"% c #C0C0C0",
"& c white",
/* pixels */
"&&&&&&&&&&&&&&&&&&&&&&&&&&&&&&&&&&&&&&&&&&&&&&&&&&&&&&&&&&&&",
"&&&&&&&&&&&&&&&&&&&&&&&&&&&&&&&&&&&&&&&&&&&&&&&&&&&&&&&&&&&&",
"&&&&&&&&&&&&&&&&&&&&&&&&&&&&&&&&&&&&&&&&&&&&&&&&&&&&&&&&&&&&",
"&&&&&&&&&&&&&&&&&&&&&&&&&&&&&&&&&&&&&&&&&&&&&&&&&&&&&&&&&&&&",
"&&&&&&&&&&&&&&&&&&&&&&&&&&&&&&&&&&&&&&&&&&&&&&&&&&&&&&&&&&&&",
"&&&&&%&&&&&&&&&&&&&&&&&&&&&&&&&&&&&&&&&&&&&&&&&&&&&&&&&&&&&&",
"&&&% $ %&&&&&&&&&&&&&&&&&&&&&&&&&&&&&&&&&&&&&&&&&&&&&&&&&&&&",
"&&& &&& &&&&&&&&&&&&&&&&&&&&&&&&&&&&&&&&&&&&&&&&&&&&&&&&&&&&",
"&&& &&& &%$%%%%%%%%%%%%%%%%%%%%%%%%%%%%%%%%%%%%%%%&&&&&&&&&&",
"&&& &&& &$&&&&&&&&&&&&&&&&&+$%$&&#$$#$  X.X.$OO$&&%&&&&&&&&&",
"&&& &&& &$&&&&&%$$&&&&&&&&&#%$&&&%$$$%+ .X.o$OO$&&%&&&&&&&&&",
"&&& &&& &$&&&&$    &&&&&&&&#%&&&&&%%$%#  ..$$$OO&&%&&&&&&&&&",
"&&&   % &%&&&&     $&&&&&&%#$$&&%#%%#$$   X$$O$$%&%&&&&&&&&&",
"&&% $% $&%&&&&     %&&&&&&##&&%&&%%%&#%   ..$$O$%&%&&&&&&&&&",
"&&&&$$$ &%&&&&%    &&&&&&&$##$$&%+#%&#&    Xo$$O$&%&&&&&&&&&",
"&&&&&&&%&$&&$        &&&&$$$##$&&##%&%%$   .X$$$O%%&&&&&&&&&",
"&&&&$  &&$&$          &&&.%%&&%&&&&&&&#%    ..%$$#%&&&&&&&&&",
"&&&&$  &&$&$          &&$X&$&&%&&&&&&&#&     Xo$o$%&&&&&&&&&",
"&&&$   $&%&$    $o    &%X.&%&&$%%&&&&&%$$    ...Xo%&&&&&&&&&",
"&&&     $%&&o  % %   %&.X$&#&&&&&&&&&&&#%     o%%$%&&&&&&&&&",
"&&&  $$ %%&&&&&& $&%&&$XX%% $&$#$%&&&&%#%#    #&&&%&&&&&&&&&",
"&&&&& %&&%&&&&&$  &&&%XX.&%  &&%&&&&&%%##%     %&&%&&&&&&&&&",
"&&&&&&&&&$&&&&&&&&&&&.XX$%$  #&%&&&&%%%%+%$    +&%%&&&&&&&&&",
"&&&&&&&&&%&&&%#$o$%&%XX.&%    %&&&%%&&&&%#%     $&%&&&&&&&&&",
"&&&&&&&&&%&&&$$O%$+&@XX$%$o$$o#$$#%%%%%%%#%$     %%&&&&&&&&&",
"&&&&&&&&&%&&%OO$+OO%.X.&$$$$$$$$$$$$$$$$$$#%     +&&&&&&&&&&",
"&&&&&&&&&%&&%$O#$$O%.X%%#O$$O$$$$$$$#O$$O$$#%     %&&&&&&&&&",
"&&&&&&&&&%&#&+$$O$$&.$&$O$$$$$O$$$$$$#$O$#$#$%    &&&&&&&&&&",
"&&&&&&&&&%&$$&$O$#&&#&$$$#$$#$$#$$$$$#$$$$$$##$   &&&&&&&&&&",
"&&&&&&&&&%&$O$%$%%$&&$ooooooooooooooooooooooOo%#  &&&&&&&&&&",
"&&&&&&&&&$&%O$$$O$&&%oo                        %# &&&&&&&&&&",
"&&&&&&&&&$&%$%%%#&&&  ooXXXXo$%$#O##$$O.X..X.  ##+&&&&&&&&&&",
"&&&&&&&&&%&$%&%&&%&#$  O.XXXo$&%#O#%&$oXXXXX. ####&&&&&&&&&&",
"&&&&&&&&&%&%&##%&%+$$  o.XXXo$%$#O#%%$oXXXX.  ####&&&&&&&&&&",
"&&&&&&&&&%&&%$$&%#$$$o ooXX.O$%#O#%%#O.XXXX  #####&&&&&&&&&&",
"&&&&&&&&&%%%$$#$OO#$%$ o.XX.$%%#O%%#O.XXX.ooo%$$#+&&&&&&&&&&",
"&&&&&&&&&%&$##$O##O#$  O..Xo$%#O#&%$oXX.o%$$$$$$$$&&&&&&&&&&",
"&&&&&&&&&%&%$$O####O  oo.. O$%#$%%$O..o%$O$O$$$O$$%&&&&&&&&&",
"&&&&&&&&&$&%O$##  #$oo% ...$%$O#%$O .o$$$$OXo$OX$O%&&&&&&&&&",
"&&&&&&&&&%$O$###  ##O##O  o$%$O$%$o o$$OX$$$$$$$$$&&&&&&&&&&",
"&&&&&&&&&$O##+ ####O$X$$o o$%$$%$O  O$$Oo$O$$$$$$$&&&&&&&&&&",
"&&&&&&&&&$###  ##$O#$O$$O o%%$$&$o o$$$$$$#&%%%#$$&&&&&&&&&&",
"&&&&&&&&&$####+#$$$$$$$$$#+#+##+##+O$OO$$#&$&$&%%$&&&&&&&&&&",
"&&&&&&&&&$  +##O$$%$$$XO$$O$$#$$#O$$$O$$$%%$$$$#O$&&&&&&&&&&",
"&&&&&&&&&$  ##OoX$%%$$X$$$O$%%$&$O$$O$$$#&%$XXoO#+&&&&&&&&&&",
"&&&&&&&&&$###O.XX#%%$O$$$$O$%.X%#O$$$O$$%$#XXoO###&&&&&&&&&&",
"&&&&&&&&&$+$O#XX$%%#$$O$$$O$%%%&$O$$OXO$$&$oo%## +&&&&&&&&&&",
"&&&&&&&&&#$O$&##%&&$$OX$$#$######$#$$O$$$%#$$##+  &&&&&&&&&&",
"&&&&&&&&&$$$&&$&%%#$$O$$O+########+O$$$$$#O$#+###+&&&&&&&&&&",
"&&&&&&&&&$$$$#%#$$$$$$O$o o$%#$%$o o$$OO#O###  ###&&&&&&&&&&",
"&&&&&&&&&$O$$$$$$O$XO$$O  O#&$$%$o  %$$$O#### +#$O&&&&&&&&&&",
"&&&&&&&&&$$$X$$$O$$$O#O. o$&$O#%$o  o#$O+#  ###$O#&&&&&&&&&&",
"&&&&&&&&&$O$XO#OX$$$#Oo..O%%#$%&$... O.oO#  ##O$%%&&&&&&&&&&",
"&&&&&&&&&$O$$$O$O$$$O...O#&#O#&#O ..oo  $$###O$%%%&&&&&&&&&&",
"&&&&&&&&&##$O$$$$%oo.X.o$%$$$$&$oX..O  $@O$#O#$$%%&&&&&&&&&&",
"&&&&&&&&&$#####. .XXXXoO%&#O#$%%.XX.o $$$#OO%#$%%#&&&&&&&&&&",
"&&&&&&&&&$####+ .XXXX.O$%$$$#%#OXXX.o $$$$#%&$$%%$&&&&&&&&&&",
"&&&&&&&&&$####  XXXXXo$%%#O$%%$oXXX.O .$$+%&%##%&%&&&&&&&&&&",
"&&&&&&&&&$###+ .XXXXXO$%$#O#$%$oXXXXO  .#&%&&&&%$%&&&&&&&&&&",
"&&&&&&&&&$ ##  ......o$%##o#$%$......O  &&&$$$#$&%&&&&&&&&&&",
"&&&&&&&&&$  %#                       oo&&%OO$%$O%%&&&&&&&&&&",
"&&&&&&&&&$   %#$$$$$$$$$$o$$oooooooooo%&&%%$%%%O$%&&&&&&&&&&",
"&&&&&&&&&$   +%#$O$$$$#$%$$$$$$$$%#$$$&#&&#OO$%$$%&&&&&&&&&&",
"&&&&&&&&&$    #%#$#$$#$$#$$#$$$$$$$$$&..&$$O$$#&$%&&&&&&&&&&",
"&&&&&&&&&$     $$#$O$$O$$O$$O$$O$#O$&$X.%O$+#OO%&%&&&&&&&&&&",
"&&&&&&&&&%%     %#$$$$$$$$$$$$%$$%$$%.X.&$O#$OO%&%&&&&&&&&&&",
"&&&&&&&&&%&     #%+&&&&&&%#%%+    #&@XX$&+$OO#%&&%&&&&&&&&&&",
"&&&&&&&&&%&%     %$$%&%%%&&&&&   #%%XXX%&&%$$&&&&%&&&&&&&&&&",
"&&&&&&&&&%&&$     %#%$#&&&&&#&$  %%$XX@&&&&&&&&&&%&&&&&&&&&&",
"&&&&&&&&&%&&&     %$#%&&&&&&&&&  %&.X.%&&&  %&&&&%&&&% &&&&&",
"&&&&&&&&&%&&&$    +%#%&&&&%$$%&% &%XX$&%%&$ &%%&&%&$ oo  &&&",
"&&&&&&&&&$....     %#&&&&&&&%&&&$%$X$&$   %$   o&%&$     &&&",
"&&&&&&&&&$o.o..    #%%&&&&%$%$&&%&..&&          %%&&$  $%&&&",
"&&&&&&&&&$$$$$X.    %#&&&&&&&%&&#%X%&%          %%&&%  $&&&&",
"&&&&&&&&&%$O$%oX    $#&&&%$&&%$&%$$&&&          &%&&&  %&&&&",
"&&&&&&&&&%%O$#$..   $%%&##+%&##+%$%&&&&ooo   $ %&%&%%&&&&&&&",
"&&&&&&&&&%&$$O%$X    %#&%##&&%%#$#&&&&&&&    &&&&%&& $ $&&&&",
"&&&&&&&&&%&#$O$%..   %#$%%%%&$%%+$&&&&&&$     &&&%&&  &$o&&&",
"&&&&&&&&&%&%O$$$$X   $%%$%%&&&&%#%&&&&&&$    o&&&%&& &   &&&",
"&&&&&&&&&%&%OOO$o.X  $$$%#&&&&&$#&&&&&&&&    &&&&%&& &&%$&&&",
"&&&&&&&&&%&%OOO$.X.. #%$%%%&&&%%#&&&&&&&&&%$&&&&&%&& &&%$&&&",
"&&&&&&&&&$%#$$$#.. . +#####%%##$#%%%%%%%%%%%%%%%%#&& &&%$&&&",
"&&&&&&&&&&&&&&&&&&&&&&&&&&&&&&&&&&&&&&&&&&&&&&&&&&&& &&%$&&&",
"&&&&&&&&&&&&&&&&&&&&&&&&&&&&&&&&&&&&&&&&&&&&&&&&&&&& &&%$&&&",
"&&&&&&&&&&&&&&&&&&&&&&&&&&&&&&&&&&&&&&&&&&&&&&&&&&&&$ $ &&&&",
"&&&&&&&&&&&&&&&&&&&&&&&&&&&&&&&&&&&&&&&&&&&&&&&&&&&&&&%&&&&&",
"&&&&&&&&&&&&&&&&&&&&&&&&&&&&&&&&&&&&&&&&&&&&&&&&&&&&&&&&&&&&",
"&&&&&&&&&&&&&&&&&&&&&&&&&&&&&&&&&&&&&&&&&&&&&&&&&&&&&&&&&&&&",
"&&&&&&&&&&&&&&&&&&&&&&&&&&&&&&&&&&&&&&&&&&&&&&&&&&&&&&&&&&&&",
"&&&&&&&&&&&&&&&&&&&&&&&&&&&&&&&&&&&&&&&&&&&&&&&&&&&&&&&&&&&&",
"&&&&&&&&&&&&&&&&&&&&&&&&&&&&&&&&&&&&&&&&&&&&&&&&&&&&&&&&&&&&"
};
