/* XPM */
static char *result[] = {
/* columns rows colors chars-per-pixel */
"60 91 11 1 ",
"  c black",
". c #800000",
"X c red",
"o c #808000",
"O c yellow",
"+ c navy",
"@ c #800080",
"# c #008080",
"$ c #808080",
"% c #C0C0C0",
"& c white",
/* pixels */
"&&&&&&&&&&&&&&&&&&&&&&&&&&&&&&&&&&&&&&&&&&&&&&&&&&&&&&&&&&&&",
"&&&&&&&&&&&&&&&&&&&&&&&&&&&&&&&&&&&&&&&&&&&&&&&&&&&&&&&&&&&&",
"&&&&&&&&&&&&&&&&&&&&&&&&&&&&&&&&&&&&&&&&&&&&&&&&&&&&&&&&&&&&",
"&&&&&&&&&&&&&&&&&&&&&&&&&&&&&&&&&&&&&&&&&&&&&&&&&&&&&&&&&&&&",
"&&&&&&&&&&&&&&&&&&&&&&&&&&&&&&&&&&&&&&&&&&&&&&&&&&&&&&&&&&&&",
"&&&&&%$&&&&&&&&&&&&&&&&&&&&&&&&&&&&&&&&&&&&&&&&&&&&&&&&&&&&&",
"&&&&X$%X%&&&&&&&&&&&&&&&&&&&&&&&&&&&&&&&&&&&&&&&&&&&&&&&&&&&",
"&&&&X&&%$&&&&&&&&&&&&&&&&&&&&&&&&&&&&&&&&&&&&&&&&&&&&&&&&&&&",
"&&&&X&&%$&$%%$%%$$%%$%$%%%%%%%%%%%%%%&&&&&&&&&&&&&&&&&&&&&&&",
"&&&&X&&%%&%&&&&&&&&&&&&&&&&&$$#####+X.  $$$$%%%%%%#&&&&&&&&&",
"&&&&X&&%%&%&&&&&&$&&&&&&&&&%O#$$&$##.X oO$$%&&&&&&%&&&&&&&&&",
"&&&&X&&%%&%&&&&&XX$&&&&&&&&$$%$&&&$$#XX  O$%$$%&&&%&&&&&&&&&",
"&&&XX$X$%&%&&&&$XXX%&&&&&&$$.%&&&&&$%$X. O%$#OO$$&%&&&&&&&&&",
"&&&&X$XX&&%&&&%XXXXX&&&&&%$X@%%&&&%&%$.X. o$$OOO%&%&&&&&&&&&",
"&&&&&%%$X&%&&%XXXXXXX&&&&$.X@%%%&%&%%&&.X oO##OO%&%&&&&&&&&&",
"&&&&&%%&&&%&&XXXXXXXXX&&%$XX##%%&%+#%&&$XX  O##O%&$&&&&&&&&&",
"&&&&&XX&&&$&XXXXXXXXXX$&$.X.$+$%&%###%&&$X. O$$$&&$&&&&&&&&&",
"&&&&XXXX&&%&%XXXXXXXXX&&$XX$$&%&&&%%%&&&&.X  o#&&&%&&&&&&&&&",
"&&&XXXXX$&%&&$XXXXXXX&&%oX.O+&%&&&&&&&&&%#.# oO$$$$&&&&&&&&&",
"&&&%XXXX&&%&&&XXXXXX%&&$XX$o$&$%%%&&&&&&$#$#+ o$O$#&&&&&&&&&",
"&&&&%XX%&&%&&&&XXXX$&&&$XX% #&&&&&&&&&&&%#%.#  $$%$&&&&&&&&&",
"&&&&&X%&&&%&&&&&XXX&&&%$X.$  &$#$$&&&&&$##%%+# &&&$&&&&&&&&&",
"&&&&&&&&&&%&&&$%%X&&&&%o..o  $&%&&&&&&&#$#%%$+#&&&$&&&&&&&&&",
"&&&&&&&&&&%&&%..%&&&&&%o ooo$#&%&&&&&&#$$#$%%.##&&$&&&&&&&&&",
"&&&&&&&&&&%&%X@.X&&&&&$. $$$$O%&&&&%$$%OO$#%%$  $&$&&&&&&&&&",
"&&&&&&&&&&%$%$.@$&&&&&$. $$+%$+$##$$$$#$$+#$$%#  %%&&&&&&&&&",
"&&&&&&&&&&%%#%.$&$$$$&$$$$$$$##O##O#$O+#$#$#$%%  +$&&&&&&&&&",
"&&&&&&&&&&%%$%&$+OO$%%+#$#O$#O$#$##$##$$$$O##$%%  #&&&&&&&&&",
"&&&&&&&&&&%%%#$&%%%&%+$#O#+$#$##O$#O$+$$##$$O+#&# $&&&&&&&&&",
"&&&&&&&&&%%$%&#%&%&###$O$$#O$+%$##$##O##OO##%$#%% $&&&&&&&&&",
"&&&&&&&&&%%$%%$%&%+  ## .oO%$#$$#$%+#O##$%%Ooo  +&#&&&&&&&&&",
"&&&&&&&&&%%%%%#&$  # +#     ooOOOOOOOOOOoo      ##$&&&&&&&&&",
"&&&&&&&&&%%%#&%$O   + #$X..  o##$        $   #####$&&&&&&&&&",
"&&&&&&&&&%%&%%$$$$  # #@XXX  $##$   ... &$o   ####$&&&&&&&&&",
"&&&&&&&&&%&&#$#$$+o   #.XX. o#%#o .XXX.%%%$o  +###$&&&&&&&&&",
"&&&&&&&&&%&$$#+$#O$$ ##XXX  $+#$  XXXX%%$O$$$  +##$&&&&&&&&&",
"&&&&&&&&&%$$$O$$+#+$$#.XXX  $%#o .XXX$%&$O$#&   +#$&&&&&&&&&",
"&&&&&&&&&%#$O%$O$$O$O+XXX. o##$  .XX.%#%$$%%$&   +%&&&&&&&&&",
"&&&&&&&&&%+#%..%$+$O$%$$$  $##$  XXX$%%OO+$O$&$   %&&&&&&&&&",
"&&&&&&&&&%O$O%$O$$O$$%  ooOO%$$oo$$$%%%#$%%%&#$$  %&&&&&&&&&",
"&&&&&&&&&%#+$OOO$O#O$%%         ..  &#OO#%%&#X$## %&&&&&&&&&",
"&&&&&&&&&%####$#O$#$$%%#.           %&$$$%%$X.O##+%&&&&&&&&&",
"&&&&&&&&&%$$+$#$$%$$O$%%$%OOooooooo$%%$$$O%$X.O+##%&&&&&&&&&",
"&&&&&&&&&%#+$$#O%$$#$%%%#+######$##$$$O$#%%.X$$$O+%&&&&&&&&&",
"&&&&&&&&&%#$$+O#$&O$$O#%#X@#X##X##.#%%#$%O%@X$$##+%&&&&&&&&&",
"&&&&&&&&&%$###O.%%$+$$%%@X.@X..X@.X#%%$$#%%$.O##$$%&&&&&&&&&",
"&&&&&&&&&%+##$$X$%%$$#%%#X@#X@@X#.X#%#O$$O%$$$+O$#%&&&&&&&&&",
"&&&&&&&&&%+O$OoX$%$#$O$%#+##.##.#+.#%%#$#$%&O#O$++%&&&&&&&&&",
"&&&&&&&&&%###O.X%&%#$$%%$%%%%%%$%$$#%%$O$$O$$$$+$$%&&&&&&&&&",
"&&&&&&&&&$###$X.$$%#O$&%        oooO%$%$$#$O#$####%&&&&&&&&&",
"&&&&&&&&&$ #$$X$%%$#OO#%             &%$$#O$O$O$+#%&&&&&&&&&",
"&&&&&&&&&$  $$#&OO$$#%%%$$$$$$ooooo  $$$$O$$O$$O$$%&&&&&&&&&",
"&&&&&&&&&$  o%&%%$#OO&%@XXX  $##$ o$%o&#O$+$%X@O#+%&&&&&&&&&",
"&&&&&&&&&%   #&$O$$$$#%XXXX  $##o .XXX#O$$$$O%%O$#&&&&&&&&&&",
"&&&&&&&&&$#   $%+$O%%&.XXX. o#%#. XXX.#$$##+$$O$$$&&&&&&&&&&",
"&&&&&&&&&$##   #$OO$%$XXXX  $##$  XXX## o#O#$+#$%%%&&&&&&&&&",
"&&&&&&&&&$###   O$%%%.XXX. o#%#o .XX.#+ +O+$$#$#&%%&&&&&&&&&",
"&&&&&&&&&$####   $%&.....  $##$  XXX@# +  $$#$$%&%&&&&&&&&&&",
"&&&&&&&&&$####+   %        $##o  .XX@# #   O$%%$%%&&&&&&&&&&",
"&&&&&&&&&$##+      .oooOOOOO$$o      # +   $&#%%%%&&&&&&&&&&",
"&&&&&&&&&#$+   ooO%$$$O##$$#$$$%Ooo  ## # %&%$%%$%&&&&&&&&&&",
"&&&&&&&&&##$##O%#+OO##O#+O$+$O##O#$%O$#+ &%&%#%%$%&&&&&&&&&&",
"&&&&&&&&&# %%#+O$##$$$$$O##O##$#$+#O$$+$&&%$&$#%%%&&&&&&&&&&",
"&&&&&&&&&#  %%##$O$$$O#$O#$O#$O##O#$#+%&$OO+#&&$%%&&&&&&&&&&",
"&&&&&&&&&$  $%$$+$$$##%$#O#+O###$%#$$$&$o$$%$.$#%%&&&&&&&&&&",
"&&&&&&&&&%%  #%%##+O$#$$$$##O#$O+#$# $&&&&&$..$%$$&&&&&&&&&&",
"&&&&&&&&&%&$ .%$%+$$OO$$$%&&&$$$#%$ .$&&&&&...X$&%&&&&&&&&&&",
"&&&&&&&&&%&&+ .%%#$$$#$&&&&&%&#$$oo..%&&&&&%.X$&&%&&&&&&&&&&",
"&&&&&&&&&%&&%  $%%#%#%&&&&&&%&%# oo.o%&&&&X&%$&&&%&&&&&&&&&&",
"&&&&&&&&&%&&&$  $&###&&&&&%$$$&  o.Xo%&&&XXX&&&&&%&&&X$&&&&&",
"&&&&&&&&&%&&$   @%#$&&&&&&&&&&&  %XX$%&&XXXXX&&&&%&&XXX%&&&&",
"&&&&&&&&&$$$%   .$#%&&&&&&%%%$&$ $X.$&&XXXXXX$&&&%&XXXXX&&&&",
"&&&&&&&&&#$$$Oo ..#$&&&&&&&&&%&$ooXo%&$XXXXXXX%&&%&XXXXX%&&&",
"&&&&&&&&&%&%%$o  X.&&&&&%%&&&%&$%XX$%%XXXXXXXXX%&%&&XXX%&&&&",
"&&&&&&&&&$&&%$$O .X$&&&+$#%&&%#$$X.$&$XXXXXXXXX$&%&&&X$&&&&&",
"&&&&&&&&&$&&o$$O  XX$&&%#+$&%%+#XX$%&&XXXXXXXXX&&%&%&%&&&&&&",
"&&&&&&&&&$&&$O$#o  X.%&%%%%&%%%#X.$&&&&XXXXXXX&&&%&X$%%&&&&&",
"&&&&&&&&&%&&$O$$$O .X.$&%$%&&%%$X$%&&&&&XXXXX&&&&%&%X%$X&&&&",
"&&&&&&&&&%&%OOO$$$. .X$%%&&&&&%$.$&&&&&&%XXX&&&&&%&$%XXX%&&&",
"&&&&&&&&&%&&%%$O$#O  XX#%$%&&%%+$%&&&&&&&$X%&&&&&%&$%&&X&&&&",
"&&&&&&&&&%&&&&&&&O$o  X.%$$&%%$$%&&&&&&&&&%&&&&&&%&$%&&X&&&&",
"&&&&&&&&&$%$$%%%#$$$$ +.+#######%%%%%%%%%&&&&&&&&$&$%&&X&&&&",
"&&&&&&&&&&&&&&&&&&&&&&&&&&&&&&&&&&&%%&%%%%%%%%%%%%&$%&&X&&&&",
"&&&&&&&&&&&&&&&&&&&&&&&&&&&&&&&&&&&&&&&&&&&&&&&&&&&X%&&X&&&&",
"&&&&&&&&&&&&&&&&&&&&&&&&&&&&&&&&&&&&&&&&&&&&&&&&&&&%X%X$&&&&",
"&&&&&&&&&&&&&&&&&&&&&&&&&&&&&&&&&&&&&&&&&&&&&&&&&&&&&%%&&&&&",
"&&&&&&&&&&&&&&&&&&&&&&&&&&&&&&&&&&&&&&&&&&&&&&&&&&&&&&&&&&&&",
"&&&&&&&&&&&&&&&&&&&&&&&&&&&&&&&&&&&&&&&&&&&&&&&&&&&&&&&&&&&&",
"&&&&&&&&&&&&&&&&&&&&&&&&&&&&&&&&&&&&&&&&&&&&&&&&&&&&&&&&&&&&",
"&&&&&&&&&&&&&&&&&&&&&&&&&&&&&&&&&&&&&&&&&&&&&&&&&&&&&&&&&&&&",
"&&&&&&&&&&&&&&&&&&&&&&&&&&&&&&&&&&&&&&&&&&&&&&&&&&&&&&&&&&&&"
};
