/* XPM */
static char *result[] = {
/* columns rows colors chars-per-pixel */
"60 91 11 1 ",
"  c black",
". c #800000",
"X c red",
"o c #808000",
"O c yellow",
"+ c navy",
"@ c #800080",
"# c #008080",
"$ c #808080",
"% c #C0C0C0",
"& c white",
/* pixels */
"&&&&&&&&&&&&&&&&&&&&&&&&&&&&&&&&&&&&&&&&&&&&&&&&&&&&&&&&&&&&",
"&&&&&&&&&&&&&&&&&&&&&&&&&&&&&&&&&&&&&&&&&&&&&&&&&&&&&&&&&&&&",
"&&&&&&&&&&&&&&&&&&&&&&&&&&&&&&&&&&&&&&&&&&&&&&&&&&&&&&&&&&&&",
"&&&&&&&&&&&&&&&&&&&&&&&&&&&&&&&&&&&&&&&&&&&&&&&&&&&&&&&&&&&&",
"&&&&&&&&&&&&&&&&&&&&&&&&&&&&&&&&&&&&&&&&&&&&&&&&&&&&&&&&&&&&",
"&&&&&$X%&&&&&&&&&&&&&&&&&&&&&&&&&&&&&&&&&&&&&&&&&&&&&&&&&&&&",
"&&&&X$&X$&&&&&&&&&&&&&&&&&&&&&&&&&&&&&&&&&&&&&&&&&&&&&&&&&&&",
"&&&&X&&&X&&&&&&&&&&&&&&&&&&&&&&&&&&&&&&&&&&&&&&&&&&&&&&&&&&&",
"&&&&X&&&X&%$%%%%%%%%%%%%$$$$$$%%%%%%%%%&&%&&&&&&&&&&&&&&&&&&",
"&&&&X&&%X&$&&&&&&&&&&&&&&&#%%&&&$%#  ....$$$$$$%%%$%&&&&&&&&",
"&&&&X&&%X&$&&%$%&&&%%&&&&%$%&&&&&%%+ ...oOOOO$&&&&%%&&&&&&&&",
"&&&&X%&%$&$&$XXX$&XXXX&&&$%&&&&&&&%$  X $$$$O%&&&&%&&&&&&&&&",
"&&&$X%X$$&$&XXXXXXXXXX%&&O#%$%&%%%%&$ ..o$$$O%&&&&%&&&&&&&&&",
"&&&&$X$X%&$&XXXXXXXXXX%&$$##%%&&##%&%  X+#$$O%&&&&%&&&&&&&&&",
"&&&&&%%%X&$&XXXXXXXXXX&&o$#+#%&%+##&%$  X$O$O%&&&&%&&&&&&&&&",
"&&&&%&&%&&$&%XXXXXXXXX&$OO%%&%&&&$%&&$+ ..$oO%&&&&%&&&&&&&&&",
"&&&$XXXXX&$&&XXXXXXXX%&O$$%&%&&&&&&&&$&  X ..$&&&&%&&&&&&&&&",
"&&&$XXXXX&$&&%XXXXXX$&$$O$%&%&&%&&&&&$%$ .....%&&&%&&&&&&&&&",
"&&&%XXXX$&$&&&$XXXXX&%O$%o+&&%%%&&&&&&#%  %&&&&%&&%&&&&&&&&&",
"&&&&XXXX&&$&&&&XXXX&&$$$$  &&%&&&&&&&&$%%  &&%$.$&%&&&&&&&&&",
"&&&&&XX&&&$&&&&&XX&&%$$#$  %&%%%&&&&&&##%# %&$+%+$%&&&&&&&&&",
"&&&&&&%&&&$&&&&&&&&&$#$$   +&%%&&&&&&$$#%%  %.%O$$%&&&&&&&&&",
"&&&&&&&&&&$&&&&&&&&&####  ##%&&&&&&%#$$$#%$ $+#%+$%&&&&&&&&&",
"&&&&&&&&&&$&&&&&&&&%#$##..$##&&&&##$##@.X#& $%@..&%&&&&&&&&&",
"&&&&&&&&&&$&&&&&&&&$###.......+$+$$....X.##%&&%$&$#&&&&&&&&&",
"&&&&&&&&&&$&&&&&&&&#%%$##@.X.........X.####%$$%%%O$&&&&&&&&&",
"&&&&&&&&&&$&&&&&&$#%%&%%$###$@.....@###%%%%%#O$$#%%&&&&&&&&&",
"&&&&&&&&&&$&&&%+ %%$#$&%&%%$$#######&$%$&%&#$$$$%&%&&&&&&&&&",
"&&&&&&&&&&%&%##o  O$$$##&%%%%%%%%&$%&&%&%%#$$$$##&%&&&&&&&&&",
"&&&&&&&&&&##$#O#$  o%$O$#$#&%&&%&%&%&&#%#$O$$%$%$$%&&&&&&&&&",
"&&&&&&&&&&+$O#%$O#+  oO%$$$###$#%#%#$#$$%%$$&&O#&%#&&&&&&&&&",
"&&&&&&&&&&+#%#$%#$$#.  oo%%$$$$O$$$$$%%Oo $&&%$#%&#&&&&&&&&&",
"&&&&&&&&&&#$#X.$$$#O%&+.   o$O$#$$#$oo    %%&%$$%%#&&&&&&&&&",
"&&&&&&&&&&+$%#$%##O%&&$XX.  $$$$$$$.   + o$XX%#$%%#&&&&&&&&&",
"&&&&&&&&&&#O$$#O$$$XX&.XXXX $$$$$$$ .X## o%X$O%%%$$&&&&&&&&&",
"&&&&&&&&&&+##$$$#$%X$%@XXXX o$$$$$$ X.## o&&%o&&##$&&&&&&&&&",
"&&&&&&&&&&##O###$%&&$$$@XXX o$$$$$o X.## o&&%$+###$&&&&&&&&&",
"&&&&&&&&&&#O##$#$&&&$$#$.XX o$$$$$o X.#+ $&&%$####$&&&&&&&&&",
"&&&&&&&&&&######%&&%$$$%$XX  $$$$$  X.#$o%XX%$####$&&&&&&&&&",
"&&&&&&&&&&#$###$%X%$#O$$$oX. $$$$$ .X@$$$%XX%#### $&&&&&&&&&",
"&&&&&&&&&&+###$$.X$$%$$$%$X. $$$$$ .@%$$$%%%%##+  $&&&&&&&&&",
"&&&&&&&&&&###$#$%%%$X$O$$$$oo#$$$$  %#$$#%&&$#+  $$&&&&&&&&&",
"&&&&&&&&&%##$##O&&%$X$$$$$#%%O$$$$ o%$$$$$&&$   $#%&&&&&&&&&",
"&&&&&&&&&%#$###O&&%$X$$$%$%##$#$$Oo$$$$$$$&&$ $#$#%&&&&&&&&&",
"&&&&&&&&&%####$$&%%$X$$$$$+%%$%$O$$%$$$%$$XX%$#$##%&&&&&&&&&",
"&&&&&&&&&%###$#%$X%$X#$#%$$$$##%%#$#$$$Xo%XX%$$###%&&&&&&&&&",
"&&&&&&&&&%+$$#+$.X$$$$$O#%%$#%#$$$$#$$$Xo%&&%####$%&&&&&&&&&",
"&&&&&&&&&%$#$  o&&%$$$$$$ o$O$%#$%$%$$$Xo%&&%###$#%&&&&&&&&&",
"&&&&&&&&&%#$  +$&&%$$$$#$ o$$$$o$$$+O$#Xo%&&$#$$#+%&&&&&&&&&",
"&&&&&&&&&%+  ##$&&%$$$#$X $$$$$. X$%$$$$$$%%$$$###%&&&&&&&&&",
"&&&&&&&&&%  ###$$X%$$$O.X $$$$$o X.$$$$$$$X.%##$%#%&&&&&&&&&",
"&&&&&&&&&%+####%.X%$O$@X. $$$$$o XX$$$O$$&X%$##%$#%&&&&&&&&&",
"&&&&&&&&&%#####$%%%o+#$X. $$$$$o XX.%#$$$&&%$#$#$$%&&&&&&&&&",
"&&&&&&&&&%#####$&&% +#$X. $$$$$$ XXX.$$o&&&$$##$$#%&&&&&&&&&",
"&&&&&&&&&%###%$%&&% +#$X .$$$$$$ .XXX.$%%&%$###$#+%&&&&&&&&&",
"&&&&&&&&&$##%&$%%&O ##$X o$$$$$$ .XXX.#%X$$$O$$#O#%&&&&&&&&&",
"&&&&&&&&&$$%%#O$X%O ##@. $$$$$$$ .XXX.&$X$$#$%#&$#&&&&&&&&&&",
"&&&&&&&&&$%%%#%.X$o      $$$$$$#.  ...&&%O+$$#X#%$&&&&&&&&&&",
"&&&&&&&&&$$&$#$&%$.  o$%$$$O$$%$#oo   $$O#O$$$.$$+&&&&&&&&&&",
"&&&&&&&&&$%%$$%&&$o%%%$$$$$$#$$$$%%%$o   $#$$%#$$+&&&&&&&&&&",
"&&&&&&&&&$%$%o&%$$%O$#%$%&%&%&$%$##$O%%o  +$$$$$O+&&&&&&&&&&",
"&&&&&&&&&%%##$$$%$##&%&%&%%%%%%%&%&###O$%o  #O+#%%&&&&&&&&&&",
"&&&&&&&&&%&&%#$$#%%&%%$%%%$$%$$%%%%&%&+#O$o  #%&&%&&&&&&&&&&",
"&&&&&&&&&%&##$$#%&%%%$############%%%%%%+$$$%&&&&%&&&&&&&&&&",
"&&&&&&&&&%%$$#o$%$$$##@..X.X..X...###%%%%#%&&&&&&%&&&&&&&&&&",
"&&&&&&&&&$O%&%&%&+#+X...X.X....X..X.$###+&&&&&&&&%&&&&&&&&&&",
"&&&&&&&&&$%%$$%& %+....$#$##%%$+ ....+##$&&&&&&&&%&&&&&&&&&&",
"&&&&&&&&&%% $$.$ $%+@##%$$%&&&&%$#+  ###%&&&&&&&&$&&&&&&&&&&",
"&&&&&&&&&%+X$$@%  %%#%#$&&&&&%%&#   ####&&&&&&&&&$&&&&&&&&&&",
"&&&&&&&&&%%+%#@%& +&##%&&&&&&&$&$   $$$$&&%%&&&&&$&&&$&&&&&&",
"&&&&&&&&&%%+X+@&&$ $%#&&&&&&%$$%&  o##O%&%XX&&&&&$&&$XX&&&&&",
"&&&&&&&&&%&&#&&&&&  %#&&&&&&&&&&&$ %O$$&&XXXX&&&&%&%XXX$&&&&",
"&&&&&&&&&%&&&&%%%$. $$%&&&&&%$&%&$oO$O%&XXXXXX&&&%&XXXXX&&&&",
"&&&&&&&&&$&&&&#..+X  %$&&&&&&&&%&%$OO$&XXXXXXX%&&%%XXXXX%&&&",
"&&&&&&&&&$&&&&%$$$@. $#&&&%&&&&%&%$$o&%XXXXXXXX&&%&XX$XX&&&&",
"&&&&&&&&&$&&&&%OO$$X  %%&$#$&&%$#$OO%&XXXXXXXXX$&%&&&&&&&&&&",
"&&&&&&&&&$&&&&%O$$#+X  %&$#+%&%$+#$$&&XXXXXXXXXX&%&X%%%&&&&&",
"&&&&&&&&&%&&&&%O$$##.. #&%%%%&%%&$$%&%XXXXXXXXXX&$&%X%X$&&&&",
"&&&&&&&&&%&&&&%O$O$$#X  &&%$&&&$$#o&&&XXXXXXXXXX&$&X$XXX%&&&",
"&&&&&&&&&%&&&&%OO$$$$@. #$%&&&&&&$%&&&XXXX&%XXX%&$&X&&%X&&&&",
"&&&&&&&&&%&&&&$OOOO$..X  $%%&&&&%#%&&&&&&&&&&%&&&$&X&&&X&&&&",
"&&&&&&&&&$%$$#$$$$$##@#+  ##$%%#$+%%%%%&&&&&&&&&&$&X&&&X&&&&",
"&&&&&&&&&&&&&&&&&&&&&&&&&&&&&&&&&&&&&%%%%%%%%%%%%%&X&&%X&&&&",
"&&&&&&&&&&&&&&&&&&&&&&&&&&&&&&&&&&&&&&&&&&&&&&&&&&&X&&%X&&&&",
"&&&&&&&&&&&&&&&&&&&&&&&&&&&&&&&&&&&&&&&&&&&&&&&&&&&$X%X%&&&&",
"&&&&&&&&&&&&&&&&&&&&&&&&&&&&&&&&&&&&&&&&&&&&&&&&&&&&%$%&&&&&",
"&&&&&&&&&&&&&&&&&&&&&&&&&&&&&&&&&&&&&&&&&&&&&&&&&&&&&&&&&&&&",
"&&&&&&&&&&&&&&&&&&&&&&&&&&&&&&&&&&&&&&&&&&&&&&&&&&&&&&&&&&&&",
"&&&&&&&&&&&&&&&&&&&&&&&&&&&&&&&&&&&&&&&&&&&&&&&&&&&&&&&&&&&&",
"&&&&&&&&&&&&&&&&&&&&&&&&&&&&&&&&&&&&&&&&&&&&&&&&&&&&&&&&&&&&",
"&&&&&&&&&&&&&&&&&&&&&&&&&&&&&&&&&&&&&&&&&&&&&&&&&&&&&&&&&&&&"
};
