/* XPM */
static char *result[] = {
/* columns rows colors chars-per-pixel */
"60 91 12 1 ",
"  c black",
". c #800000",
"X c red",
"o c #008000",
"O c #808000",
"+ c yellow",
"@ c navy",
"# c #800080",
"$ c #008080",
"% c #808080",
"& c #C0C0C0",
"* c white",
/* pixels */
"************************************************************",
"************************************************************",
"************************************************************",
"************************************************************",
"************************************************************",
"*****%%*****************************************************",
"**** &% ****************************************************",
"***&%** ****************************************************",
"***&%** **&&&&&&&&&&&&&&&&&&&&&&&&&&&&&&&***&&&*************",
"***&%** *&***********%++++%O.     %$&&&&$$$%&&&&&$**********",
"***&%** *&***********&+%%%%.X    $&&*****%%&***%&&**********",
"***&%** *&***********&%%%%%X     %$%%***&&%&**&+%&**********",
"***  %  *&*****%&****%+%$$..     **&%**&*&$%**%%+$**********",
"***& %  *&****&  ****%+%%@X     &*%$@&*&&$ +&&+%+%**********",
"*****&& %&****    **&++%%..     **&%$%*&$$@O&*%$%$**********",
"*********&***     %*&%%%..     &****&**&**% %**%*&**********",
"*****  **&**       &*&...      ******&**&*% +$%%%%**********",
"****   %*&*%        **..      &******&%$**  O%$+%@**********",
"***%    *&*         %*%      %$***********  O&*%&&**********",
"***     %&*         O**     @%*%*****%%$*%   %*%&&**********",
"***& %% *&*    %%   %**     $%&&&*****&&*    %*%&&**********",
"*****%&**&**  &%*% %**%    &%%%&$&****&*%    %&%&&**********",
"*********&***** %*****    %%%%%%%%@&****$    &&%&&**********",
"*********%*****%%****   %&$%%%%%%%%%$%%%+%  O&%%%&**********",
"*********&**&%&*****&  %%&&%+%%%%%%%%%&&%%*@O*$+%&**********",
"*********&*$%+%$****   O%$&&$+$&****$&&%%%&&@*@++$**********",
"*********&%%+$++%**     O%$%&%+$$&&&%**&%%&%%$$++$**********",
"*********&++$%%+%*$$     .+%%&%%$%&&%%&&%%&%%@%++$**********",
"*********&%%+$+%*$$$$      +$%&%%$&&&$&%%%&$%@%++%**********",
"*********&*@%+%$$$$$$$      +%%&%%$&*%&%%%&$%#$++$**********",
"*********&**&%$$$+%$$%&%+.X  +$&&%+@&%&%+%&$%X$$$$**********",
"*********&****$%$+%@%&**%OXX  +%%&%+$&%$+%&$%X%&%#**********",
"*********&$%%%+%+%@%&*&&*%OXX  +$&&$%$%$+&&$%.$+%$**********",
"*********&$%@$%+%%%&**  *&%XXX O&%&&%%$%%&&%%X$$@%**********",
"*********&@%X#$@@$%&**%%*&+..XX O%%&&%$%%&%%.X%+%%**********",
"*********%$&.X$%***$%****&+OOO.. +%%&%++%&$%@ %++$**********",
"*********%%.X.%****@@*&%*&+%%+OX. +$&&$%$&$%  $++$**********",
"*********%%%X.&***&@&&  *%%%+%+.X .+$%%%%$%% @$++$**********",
"*********%@&..%***%$**%%%+$%%%%+   O%%%*$%%$$%@+%$**********",
"*********%$%X%&&&%@****%+$$@%%$+O   +%%*&%%@%+%%%$**********",
"*********%%%&*****% **%+$%%&@%+$+O  O&%*$%%$+&%+@$**********",
"*********%$$ &****  *%+$$$$$%$%%%+   +%%%%$+%**%%$**********",
"*********%*  &******%+%%%%%$%$%%%%O..O%%%$%%***&%%**********",
"*********&*&&**  **%%$%%%%%%%%%%%%%%%%%%%%%**& %*$**********",
"*********&*****  *%%%%%&&%&&%$&&$&&$&&&$%%&**& %*&**********",
"*********&*% %*&*%+$%%$%%$%%$#$$#$$.$%@$+*  *****&**********",
"*********%*% %**%+$%%$%%%%%%%$&%$&&$%&$+&*  **&&*%**********",
"*********%%*&**&+O%%%OO%O%%%%%%%%%%++%+&******  *&**********",
"*********%+%***%O%%%%O   O%%%@%$$$$@$O&  ****& %&%**********",
"*********%$+%*%+ &$&%&    O$+%@&$$$%O&* %******%%$**********",
"*********%$%+$+ O%%*%%+    +$+$$&%%+****%&***&.O%$**********",
"*********$%+@+. +%%*%%%O    %%%$$$+%%**&@%*&$.X%$$**********",
"*********$%+$   %$%*%%$+  . O$+%%+&% %*$****&OX%%$**********",
"*********$++%  O%&%%%%%$+ .X +%%%%*%%*%&****&OXX%%**********",
"*********$++%@.O$&%%%&&$%O X.   +&****%&****%.X%%$**********",
"*********$++&OX%$&%+%%&&$&  X.. +&*%%**&&&%@$.X%$%**********",
"*********%.%%X.%%&%%$%%*&$+  XXXO&*  &*&%%@%%$.O$%**********",
"*********$%$$..%%&%%$%O%&$$+  XXO%*%%*&&$$++++$%$%**********",
"*********$++%.O$&&%$%&$O&*%%+ .X.+%**&&$$+%%$&**&%**********",
"*********%@$$XO$&%+$&%&$%&&%$+ .X.+%&&$$$+$$%&***&**********",
"*********$++$.O$&%+$&$&%%%&&%%+ .. O$$$$%%@$$+%%*%**********",
"*********%++%#O$&%+&*$&&$%%&&%$+     @$$$@&$%%+$&&**********",
"*********%++% %%*%+%*&&&&@%%&*&$+     @$@&&++$%++%**********",
"*********$++% &%&%%$&&%***%%%&&$$+     @&*%+%$%+%%**********",
"*********$++$%%%&%%%&&$&&&&%%%&&&$&.   &***$%%+$&&**********",
"*********%%+@*%$&%%&*&&%&&&&$%%&&&$%  %****&%+%&*&**********",
"*********&%+$&+ @%+%%%%%%%%%%%+%$&&   *******&***&**********",
"*********&&%%&O   %%**&%$%%%%%%%%$   %****&%&****%**********",
"*********&&%&&.    **&***%%%%%%%%    *****& &****&**********",
"*********&&O&%    &*@*****&*&%&$    &**& %* *% &*%***%******",
"*********&&%*&    *%*&&****%*&$     ***   %     *&*%%%%&****",
"*********&&%*&O  &*&&*******%&      %*%         &&&     ****",
"*********$%+$%O  **&%&*******       .*&         &&*     ****",
"*********$%%+%+ %*&&*&******%      .X&*         *&*&   *****",
"*********$&%&&% %**&********       OO%*&       **&**% ******",
"*********$&$&*&O &$&**@%***%     .o%%+%*%     &**&&**&******",
"*********$+%+&&+ $$&*&@$$&&     ..%%++&**    %***&* % &*****",
"*********$+%+&*% $*%**$$&*%     X@$%%%****   ****&*  * %****",
"*********$%+%**&%&%**&%%%%     X.%$%%%***** *****&* &  %****",
"*********&&O&**&%&******&%    .X%%%%%&***********&* **%%****",
"*********&*%***&%$&****&&     XO&%+++&***********&* **%%****",
"*********$&&&%&$%$$%&&%$$     . %%%%%$&&&&&&&&&&&&* **%%****",
"*************************************************** **%%****",
"*************************************************** **%&****",
"***************************************************% % *****",
"*****************************************************&******",
"************************************************************",
"************************************************************",
"************************************************************",
"************************************************************",
"************************************************************"
};
